<?xml version="1.0" encoding="UTF-8"?>
<svg id="Calque_1" xmlns="http://www.w3.org/2000/svg" version="1.1" viewBox="0 0 849.3 849.3">
  <!-- Generator: Adobe Illustrator 30.0.0, SVG Export Plug-In . SVG Version: 2.1.1 Build 123)  -->
  <path d="M849.3,424.6c0,234.5-190.1,424.6-424.6,424.6S0,659.1,0,424.6,190.1,0,424.6,0s424.6,190.1,424.6,424.6ZM842.4,424.7c0-230.7-187.1-417.8-417.8-417.8S6.9,193.9,6.9,424.7s187.1,417.8,417.8,417.8,417.8-187.1,417.8-417.8Z"/>
  <path d="M835.3,424.7c0,226.8-183.9,410.6-410.6,410.6S14,651.5,14,424.7,197.8,14.1,424.6,14.1s410.6,183.9,410.6,410.6ZM433.8,33.2c0-4-4.7-12.1-8.7-12.8s-9.8,7.8-10.3,11.3.3,1.2,1.5,1.5c3.7.7,7.6-.5,7.5,5,2.9-3.5,5.1-5.3,10-5ZM370.1,45c-1.7-1.7-1.5-6.6-.8-8.8,2.2-6.9,17.7-9.5,24-9s14.8,9.7,17.3,1.3-7.8-4.7-12.3-4.3c-10.8,1-26.7-2.5-34.5,7.5-7.1,9,2.1,15.9-6,22,9.2-1.3,30.4,1.9,22-13.5,2.8-2.1,7.9,8.3,11.9,9.5s15.7.7,17.6-3.6-5.4-11-8.1-7,3.9,14.4-10.4,7l9-9.5c.4-3.9-6.3-7.6-9-3.8s1,12.5-5.1,4.9-1.1-6.6-7.7-3.7c-4.1,1.7-9.5,9.9-.8,8.2,2.6,4.5-4.9,5.1-7.3,2.8ZM488.6,45c.5-.9.5-5.1.3-6.4-1.4-8.9-13.5-13.8-21.5-14.5s-12.9,1.5-16.9,1-4.1-2.9-7.1-3.1c-8.1-.5-8,11.4,2.8,8.9s4.1-3.2,7.3-3.7c10.2-1.6,31.1,2.6,26,17l-6.9,1.9-1.7-3.9h5c1.3-5.7-4.1-9.4-9.3-7.8s-5.2,6.2-7.2,5.8c-4.2-3.6,3.8-6.5-2.8-9.3s-7.9,3.7-6.6,7.6,8.8,5.1,9.9,7.7l-11,2-.4-9.1c-5.6-3.9-10.1,2.3-8.4,7.4s13.9,4.5,17.5,2.9l9.4-8.2c-2.4,15.4,14.9,9.3,24,13l-4.9-5.7c-.8-3.2,2.1-2.7,2.7-3.5ZM363.6,30c4.9-4.8-7.1-3.4-7.7-1.2-1.4,4.8,5.5,3.4,7.7,1.2ZM484.8,27.2c.8,1.7,3.2,4,5,4.6,4.6,1.5,5.4-3.5,2.4-4.4l-7.3-.2ZM356.8,38.2c-7.1,1.5-7-4.4-9.9-7.6s-9.9,1.3-13.8,2.3c-9.5,2.4-19.5,3.9-29.2,5.3-.4,1.6.6,2,1.5,3,1.6,1.7,15,9,17.8,10.2,5.3,2.2,11.4,3.1,15.2-2.1,5.7-7.7-7.2-12.4-7.6-6.6l1,5.5c-12.1,2.7-8.1-11-1.1-12.5s10.6.7,12.4,1.7,2.6,3.6,3.7,4.3c2,1.2,5.4-.8,5,2-7.8,3.2-10.7,12.3-19.6,13.4-14.2,1.9-24-12.1-38.1-12.8-10.7-.5-19.8,10-26.8,16.8-4.6-4-8.6-4.4-14.2-2-9.4,4-5.5,10.1-4.7,18.3,6.2,1.7,11.6-2.5,10.4-9.1l-6,1c-1.5-6.6,7.8-8,10.2-2.8,4.6,10-8.2,17-16.7,16.8-6.3-.1-13.4-4.2-19.1-4.9-11.4-1.5-22.2,5.3-28.4,14.4,10.3,5.7,8.4-8.5,20.5-9.5s27.1,16.2,45,0c8.3-7.5,6.2-16.4,11-25,2.5-.3,1.2.7,1.1,2-.6,6-.6,12-1.6,17.9,5.7-3.2,19.4-3.5,22.4-10s.4-4.6,1.5-6.3,4.8-1.7,2.6-4.7-17.4-2.6-18.4,3.8,7,.7,9.2,1.2c4.5,5.8-8.4,8.3-12,4.2s-2.8-9.4,1.7-12.5,11.9-4.4,18-3.1,13.7,5.8,10.9,8.6l-9,1c-.4,10.8,9.9,3.4,16,3l-3-4c15.3,5.2,44.8.5,42-21ZM544.8,38.2c-13.8-1.3-27.2-5.4-40.4-8.8-1.5.3-6.3,6.3-8.1,7.8s-3.1.5-3.5,1.6c-6.5,18.4,28.7,26.3,41,20.3l-4,2c-1.5,2.1,14.7,6.2,16.9,4.8.9-2,1.2-5.2,4.1-4.8,0,13.1,14,13.5,23.5,17l1-18c3.1,3.4,2.1,8.2,3.5,12.5,3,9.8,14.2,17.7,24.4,17.4,11.6-.4,22.9-12.7,34.1-3.9s5,10.9,13.5,7c-5.2-6.7-13.1-13.5-21.8-14.7-10.6-1.5-16.3,4.7-25.8,4.8s-21.2-6.3-16.8-16.8,11.1-3.1,10.3,2.8c-14.2-4.1-3.4,10.9,3.4,8.9s.8-3.8,1-5.3c.7-5,3.2-5.8-.8-10.7s-9.5-3.7-16-4l-.5,3.1c-2.1,2.1-11.7-9.7-14.1-11.4-25-18.2-38.1,16.3-59,5s-8.7-10.8-15.9-11.6c.5-2,3.9-.5,6-1.5s2.5-4.1,4.2-4.8,11-1.6,12.1-1.5c3.8.6,9.9,8.3,7.3,11.9l-6.6.9c4.5-16.3-13.8-6.7-6.5,2s12.4,3,17.2.2,3.2-3.1,4.9-4.1,14.4-4.9,11.4-8.1ZM413.5,37.4c-5.2,1.6,5.9,10.6,8,11.7,6.2,3.3,11.7-5.3,15.3-9.4-2-6.4-9.5.8-12.4.6s-5-4.7-10.9-2.9ZM795.6,424.8c0-204.9-166.1-371-371-371-204.9,0-371,166.1-371,371s166.1,371,371,371,371-166.1,371-371ZM241.7,67.3c-2.8-1.9-16.8,6.7-15.9,7.9,8.6,2.7,20.2,5.3,15.9-7.9ZM621.8,75.2c2.2-2.9-19.4-13.2-15.5-2,2.5,7.1,10.1,3.2,15.5,2ZM228.7,96.1c-2.3.4-4,1.5-5.4-.9-1.2-2.8,5.3-8.9-2.7-7.8-13.9,1.8,1.7,23.5-12.7,15.8-2.8,4.9-3.5,7.3-2,13,8.8-4.8,21.1-7.6,11-19,2.6-.1,3.5,2.8,5.9,3.5,11,3.5,19.5-10.4,5.1-13.6l.9,8.9ZM619.8,87.2c-14.4,2.4-.5,20.7,10,12-.6,3.5-3.4,3.6-1,7.6s11.6,9.9,14.1,8c3.7-5.7-3.2-12.7-9-11.6-.7-3.2,1.3-6.6,1.1-9.5-.4-6.4-10-8.9-11-3.8s4.9,6.3-1.5,6.2c-4-2.2-3.1-5.1-2.7-8.9ZM206.8,102.2c.8-1.2-1.5-3.4-2.7-3.8s-13.3-1.1-14.3-.8c-5.1,1.5-10.9,8.2-8.8,13.9,4.8,6.2,12.7-.5,18.8-1.3l-.9-4.9,7.9-3.1ZM649.8,110.2c1.9-1.9,11.6,8.5,17.6,1.1,3.7-4.6-2.9-12.8-7.3-13.9s-13.6.6-14.7.8c-6.7,1.2.7,7,4.6,7.6.1,2.7-2.4,4.8-2.8,7.1-2.5,11.9,13,6.8,8.2,3.2s-5.7-1.5-5.4-5.9ZM175.8,107.2l-14.5,9c-16,10.5-4.9,28.7-6.5,44,4.9-1.2,5.5-7.2,8.5-10s5.6-3,8-5c4.1-3.4,7.1-8.5,10.5-11.5s11.4-4.3,9.9-9.7-6.1-1.4-9.3-1.7c-6.5-.7-6.9-9.8-6.6-15ZM721.8,153.2c1-.9-10.3-18-14.5-11l-1-1c-1.5-3.5-1.9-7.8-4-11s-11.5-11.9-13.4-13.6c-4.8-4-10.6-5.7-15.5-9.5-1.3,5,.6,15.2-7,15-2.7,0-6.2-2.6-8.1,1-2.7,5.3,7.4,8.6,10.1,11s5.9,8.5,11,12,6.8,2.8,8,4c2.1,2.1,1.6,8.4,6,9,2.1.4,1.6-.9,1.4-2.4-1.5-9.5,4.1-19.4,2.1-29.6,7.6,7.7,1.6,19.4,2,28.4s12.9,25.8,21,29.1,2.6.4,3.9.5c-.6,8.1,6.9,18.8,15.1,20-4.2,9.1,7.2,15.2,6.9,3.1l-5.9-2.1c-.5-3.5,4.3-2.8,5.3-5.2,2.8-6.4-3.2-17.9-10.9-13.8-2.3,4.5,3,4.9,4.6,8.1-13.6,2.3-13.4-15.4-.2-13.3s12.8,9.6,13.2,16.8c.7,12.4-9.1,17.9-1.6,32.6s9.1,9.8,10.1,12-.4,2.7,0,4c1.6,5.9,13.1,9,18.6,8l-3-7.5c6-5.4,12.3,5.6,8.4,10.4s-10.1-2-14.9,1c-2.1,1.5.2,9.2,2,11.1s4.8,2,5.4,3.7-1,4.1-.7,6.6c1.8,17.1,27.3,10.7,32.1,30s-3.8,23-13.8,11.8c-4.8,6.2,2.6,14.8,9.5,13-.2,1.6-2.2,1.3-3.5,3-4.2,5.6-4,11.5-1.8,17.8,4.8,13.6,24.4,14.5,24.3,31.7s-2.7,5.7-1.5,8.5c6.2-2,5.2-11.9,4.3-17.3-1.3-7.8-8.1-12.2-10.8-19.2l9,7.5c-.1-9-3.7-17.1-14-15v4c-6.6-.1-8.5-8.3-6.2-13.8s3.5-3.4,4.7-5.3,6.1-11.6,6.4-12.6c2.3-11-2.8-23.3-11.8-29.7s-23.9-5.1-23.7-22.3c0-7,15.7-6.1,15.8,2.7-13.7-5.8-11.1,8.9-4.7,6.9s3.8-6.6,8.6-4.9c2.6-8.4-5.3-11.7-7.7-16.7s.4-9.8-4.2-15.8-13.4-7.1-17.5-1.5-2.4,9.2-6,5c-6.4-7.7,9.6-12.3,14.5-13.5-3.4-4.9-.6-16.9-8.8-18.3s-11,2.4-11.3,3.5c-2.5,10.1,12.3,14.9,7.1-.7,15.5,7.6-6.6,23.5-11.2,9.7-3.1-9.5,4.1-19.9,4-29.2s-14.9-26.8-27.2-24.5c-2.4.5-3.5,2.6-7,3s-6.5-.1-9.5-1l8-1.4,3-2.1c-2.3-4.1-5.9-7.2-5-12.5,7.2-.8,7.2,12.8,16,6.5-4.2-7.4-9.1-12.9-18.4-11.4s-2.8,16.2-3.6,16.9c-5.4-1.2-8.4-9.7-8.9-14.6s1.3-10.3,1.9-15.4c2.2-2.2,5.2,7.3,4,9l11,1ZM201.8,111.2l-8,5.5-.6,2.5c7.2,5,9.7-1,8.5-8ZM150.8,127.2c-5.6.8-8.7,12-8.5,16.5s1.4,3.7,1.5,6c.3,7,1,20.4-8,21.5.5-4,4.1-6.2,1.9-10.3-3.5-6.4-10.7-6.6-16.4-2.7s-11.3,12.2-4.5,10.6,5.9-2.2,6.3-2.5c1.6-1,2-6.3,6.2-6.1,4.6,3.3-4.3,10.4-3.4,13.4.6,1.1,1.7,1.8,2.9,2.2,2.3.7,6.1-.5,7,1.4-3.3,1-7.1,1.5-10.5,1s-5.5-3.1-8.3-3.5c-11.2-1.5-25,14.4-25.2,25s6.5,17.4,4.5,26.6-17.9,9.4-16.5-1.5c.5-3.6,3.6-4.4,4-7.6-9.7-1.2-10.9,7.9-11.8,15.3,1.2,5,25.4,7.9,11.3,18.7-2.3-4.9-3-9-8.8-11.2-8.6-3.3-13.9,4.4-15.5,11.9s.1,5.1-.5,7.5c-1,3.8-10.1,10.3-8.7,15.1s11.2,9.7,13.2,5.4c2.9-6.3-2.4-6.2-7.3-5.8l1.7-5.1c13.8-4.9,16.3,7.4,8,15.7s-15.2,6-21.7,11.8c-11.9,10.7-13.7,39.1,5.9,39,6.6,0,9.2-13.5,4.6-12.5-12.9,11.1-16.4-7.2-10.9-17.9s20.6-9.2,26.9-18.1c4-5.6,1.2-9.1,2.6-13.4s12-7.5,6.9-14.2c-4.3-2.1-10.1,2.2-13.6-.4-5.5-4,0-15.3,6.6-14.1,1.2,1.2-8.3,11.9,4.4,10s9.1-3.2,9.5-3.5c3.9-2.2,1.9-6.8,2.5-8.4s6.7-7,8.4-9.7c10.1-16.8-1.6-22.5.2-36.8,1.1-8.8,8.5-15.4,17.5-14.4s4.1,18.1-4.4,11.4c2.2-2.2,7.4-3.5,3.3-6.4s-10.2,4.6-10.4,9.4,1.4,5.4,4.1,9c0,2.1-9,5.7-1,9.1l4.3-2.8-.4-7.8c6.8,1,11.1-6.6,13.5-12s1.1-6.1,1.7-6.8,5.8-1.4,8.3-3.2,11.9-13.4,13.4-16.6c5.8-12.8-2.5-25.7,3.1-38.4ZM136.5,141.4c-2,.6-6.5,6.5-7.5,8.6s-1.9,1.6-.2,2.8c9,5,16.6-13.9,7.7-11.4ZM90.8,217.2c1-2.4-2.2-14-4.5-14-3.1,2.4-4.7,5.6-5.4,9.4.5,2.2,5.7,1.4,7.8,2.2s.6,2.6,2.2,2.3ZM767.8,214.2c-.4-14.2-8.8-12.5-9,1l9-1ZM90.7,218.3c-8.1-2.5-10.2,10.3-2.4,10.4,4.7,0,3.4-7.4,2.4-10.4ZM55.8,286.2c.9-1.2-5.1-7.8-7.3-6.9-3.5,2.4-5.1,6.8-4.7,10.9l12-4ZM804.8,291.2c.5-4.1.3-9.6-4-11.5s-5.7,4.4-10,3.5c2.9,4.9,9.8,4.5,14,8ZM65.8,295.2c-5,0-10.2,2.3-13.5,6-1.1,2.5,6.6,5.7,5.5,9.5s-5.5.1-6.8-.2c-6.6-1.8-7.6,11.5-.1,11.4l3.5-3.6,4,1.9c3.6-.2,5.1-13.9,1.5-16.3l5.8-2.6v-5.9ZM796.7,300.3c-4-2.1-7.8-4.5-12.4-5.1s-1.4-.2-1.5,1.5c-.2,6.6,3.3,2.8,7,6-2.8,3.5-4,11.2-.5,14.5s3.3.6,4.9,1.2,1.7,4,5,3.5c7.9-1,4.3-15.9-1.6-11.8s-1.9,5.6-4.5,1.3,5.6-7.9,3.7-11.2ZM29.8,395.2c-12.3-22.9,21.3-25.7,22.8-44.8.5-6.4-4.8-16.9-12.2-14.3-3,2.3,2.9,4.7,4,6,4.1,4.7,3,11.8-3.1,14.1-2.5,0-2.7-6.8-10.2-3.3s-4.3,9.5-4.2,13.3l3,.5c-4.6,6.2-12.2,28.3,0,28.5ZM820.8,347.2c-.7-8.8-14.6-8-12,2l12-2ZM39.8,348.2l-.9-5.6-10.1-.4c-.2,2.2,0,4.3,2,5.5l9,.5ZM43.5,403.9c.9-.8,2.1-3.1,2.3-4.2-1.2-6,2.8-12.3,2-17.9-1.2-8.8-13.5-6.3-15.5,1.4s4.8,12.1,6.6,3c6.3-.1,6.2,5.9,1.9,9.4s-6.1,1.7-5,10.5c.9.9,6.5-1.3,7.7-2.3ZM811.8,392.2c15.3-2.7-2.9-23.8-9.1-13.6s0,18,1.6,21.6,5.6,6.9,10.5,6c1.2-8.4-3.3-7.8-7.1-11.4-6.7-6.5,4.6-12.4,4.1-2.6ZM819.3,398.2c-1.6,0-6.1,18.9,2.9,18,4.2-.4,7.3-5.5,6.6-9.4s-6.8-6.5-9.5-8.5ZM28.6,399.4c-11.6,1.7-8.3,18-.2,17.8s4.1-13.2,3-17c-.8-1.2-1.6-1-2.8-.8ZM814.8,409.2c-11-.6-12,9.9-11,18.5,1.7,14.7,20.4,9.8,13-3l-3.4-.4-3.1,4.9c-9.8-8.5,8.9-8.6,4.5-20ZM43.8,424.2c2.7-8.2,1-15.3-9-14-1.9,8.9,3.2,9.4,9,14ZM26.8,420.2c-7.6-.3-5.1,13.1-3.3,17.8,3.8,9.7,20.2,14.4,15.5,25.9s-11.4,2.1-13.1,3.3c-2.9,7.9-2.1,28.3,9.4,28s1.6-17.7-2-10.1,1.3,6.6-1.4,4-2.3-9.2.6-9.9c8.9-3,15.2,7.9,15.3,15.5.1,11.3-10.8,16.7-13.2,26.6s2,25.5,13.1,31.5,20,3.3,18.7,19.3c4.8-2.2,5.3-5.2,4.3-10.3-1.8-8.8-12.1-8.5-18.8-12.2s-12.8-12.6-12-22,10.3-11.6,13.5-2.5c4.6-4.9-1.7-10.3.5-15-2.6-1.1-1.6,1.8-2.7,2s-2.9-.1-4.3,0c6.9-9.2,6.3-32.2-7-35,7.8-7.2,8.2-18.1,2-26.5s-10.4-7.7-13.6-13.4-2.6-10.5-1.5-17ZM798.8,563.2c-1.7-.5-2.1-2.3-5.4-2-8.1.7-7.7,12.8-2.2,7.9s3.4-4.7,4.5-.3c2.1,8.3-16.5,13.4-14.9,1,2.3-17.8,27.4-10.3,33.5-32.6,6.5-23.7-14.1-25.7-11.5-46.5,1-7.6,8.2-15.4,15.9-10.4l-1.4,5.9c-3.9-6.2-11.3,2.3-7.9,8.1,12.1,4.2,16.1-8.8,15.4-18.6-1-14.2-4.9-5.4-11.7-8.3-2.9-1.2-3.2-2.8-3.3-5.7-.7-11.2,12.7-14.6,16.1-24s2.6-10.5.7-14.8-3.9-4.9-3.7-.3,1.3,4.6.9,7.9c-.9,8.9-10.5,12.2-15.4,18.6-7.1,9-7.4,20.2,1.5,28-14.4,3.4-14.7,24.7-7,35-7.6-1.8-8.8,5-9,11,3.7.5,9.9-5.2,12.7-2.7,7.4,6.7,1.5,22.1-5.8,27.1-11.4,7.9-27,3.4-22.9,25.9-6.3.8-12.5,12.9-4.3,14.5s7.4-8.3,11.3-3.4c6.1,7.8-5.7,19.9-8.1,17.6-.6-3.4,3.3-4.8,3.6-7.9.5-5.3-12.3-2.7-13.4,1.6,6,21.8,21.8,14.2,24.6-4.4.3-2.2-.5-7-.3-7.3.4-.7,5-3.3,6.5-5.4,4.7-6.5,2.5-9,1-15.5,7.4,2.3,7.7-2.5,8-9l-8.5,5c-.7,1.2.3,2.8.6,4ZM44.8,425.2c-2.1-.5-4,2.9-5.5,2.8s-6.9-8.4-8.5-.2c-2.5,12.8,17.8,10.7,14-2.5ZM44.8,439.2l-5.5,1.9v3s5.5,2,5.5,2v-7ZM805.5,439.3c-4.9,1.6,0,14.7,6.4,2.5-1.3-1.7-4.3-3.1-6.4-2.5ZM826.7,459.1c1.4-1,1.9-12.9-.4-14.9-1.1,4.3-15.9,14.9-10.6,18.6l4.1.4v-5s6.9.9,6.9.9ZM28.2,451.9c-.8-.9-5-8.2-6.3-6.6.7,3.2-2.2,16.2,2.9,14.5s2.1-2.1,4-1.5c-1,7.8,8.2,6.4,5.3-.7s-4.3-3.9-5.9-5.6ZM33.7,511.1c.3-.2.7-2.1,1.6-3,3.5-3.2,10.2-7.2,6.1-12.9-3.4,6-9.1,1.5-12.3,5.7-1.4,2.5,1.2,12.7,4.7,10.2ZM807.8,498.2c-1.2,6.5,6,9.5,9.5,14,6.3-9.8,2.3-16.2-9.5-14ZM50.8,530.2l-.5-5c-7.4,2-6.6,9.2-1.5,13.5l8-.5c.4,3.5-.3,5.2-4,5-.3,5.6,7.3,7.5,12,7,1.8-4.2-3.8-5.6-4-6.7-1.1-4.4,1.6-11.7-2.5-16.3s-3.5,4.6-7.5,3ZM798.8,530.2c-4,.9-4.3-3.4-7-5-3.2,5.8-4.8,11.1-2.3,17.6-14.3,8,3.3,11,7,1.9-2.1-2.5-4.5-3.7-3.8-7.5,2.3-.6,3.8,1.8,5.6,2,6.2.6,10.1-15.7-.6-13l1,4ZM51,562.1c-.9-.6-3.4-6.6-6.7-6.9-3.2-.9-1.2,8.5,1.2,8.9l4.3-.9c-1.6,5.9-1.9,10.7,1.6,15.9s3.8,3.3,4.7,5.3c2,4.9,2.5,12.4,5.2,17.8,6.4,12.7,16.3,5.1,20.7-4.5s-9.3-7.3-13.1-6.5c-1.5,1.5,8.4,12.9.7,10.8s-11.2-16.7-3.2-19.8l3.1,4.9c11,2.9,14-4.4,6.4-11.4s-6.7,1.1-12.7,1.5c-7.3.5-15.2-8.3-6.4-12v5s3.4,0,3.4,0c1.7-1.3,1.3-3,.9-4.7-1.9-7.3-9.4-2.9-10.1-3.4ZM778.8,615.3l-16.6-10c-6.7,3.3-13.9,14.1-14.4,21.5-.8,11,7.8,17.7,2.2,30.2-2.8,6.3-12.8,13.4-18.7,7.4s1.1-16,7.5-10.6l-5,5c6,8.9,16.9-7.6,10-13s-20.9,8.5-20,17.5c-6.1-.7-13.4,7.9-17,12.5-12.2,15.8-4.1,26-8,43.5-1.4,1.4-1.8,0-2-1.5-.4-3.1.3-6.6-.1-9.9-1-8-3-7.3-1.6-16.8s1.8-2.4-.8-1.8c-5.4,1.2-4.9,8-6.7,9.8s-5.6,2.3-7.7,3.8c-6,4.3-7.7,9.1-12,13s-10.5,4.1-10.1,8.9c1,5.2,6,2.8,9.3,3.8s6.7,9.5,5.7,13.8c11.6-5.5,31.1-19.1,32.9-32.6,1.1-8.6-2.1-21.3,2.2-28.8s4.4-4.1,5.1-7.4c3.8-2.5,8.6-2.9,13-2s4.8,3.9,12.7,1.2,19-13.9,19.1-24-9.1-22.9-2.1-32c9.3-12.1,24.3,8.1,8,12.5l2,4h-7c1.2,2.9,1.3,6.1,2.5,9s0,2.4,2,2c5.8-.9,3.5-10.1,4.6-11.9s3.1-1,4.4-2.1c4.2-3.7,4.2-10.2,6.4-14.9ZM124.9,663.2c1.7-6.1-6.6-19.2-12.6-19.9-14.2-1.8-10,19.5,0,18s2.6-.9,2.6-2.5-7.9-7.3-.6-6.5c10.1,1.1,5.2,22.7-10,11-13.9-10.7-1.2-27-3.7-40.3s-8.2-16.4-12.3-16.8-14.8,6.4-16,9.1c-2.5,5.5,5.5,22.7,13.5,14.5-13.6-4.9-5.3-22.5,6.4-14.3s-.4,22.3-.4,32.3c0,13.2,12.9,27.2,26.5,25.4s14-5.3,17.6,1.1c-3.4.2-7.5-1.8-9.9,1.6l3.9,11.4c-5.4.9-6.3-4.6-11.2-6.3s-5.9-1.8-4.8.8,7.5,10.7,10.7,11.4,10.8-.8,12.3-3.3c3.7-6.1-3.4-11.9-2-13.6,17,8.9,2.7,28.3,11.1,42.4,1.1,1.9,12.9,12.6,15.4,14.6s13.7,10,14.5,9c-.2-3.8-.1-7.2,2-10.5,4.8-7.5,9.3-1.3,13-5,4.2-7-6.1-7.5-9-10s-6.1-8.8-10.6-12.4-6.4-3.4-8.5-5.5-3.2-6.5-6.5-8.5c-2.5-1-1.4,6.8-1.6,8.4-1.2,7.8-3.7,11.8-2.1,20.3s-1.3,1.7-1.8,1.3-1.9-6.4-2-7.5c-1.1-11.1,3.4-17.4-1.8-29.2s-13-17.7-18.2-19.8-2.6-.4-4-.5ZM90.8,629.2c2.5-5.6.6-11.5-6-11.6-6.4,3.2,4.6,12.5,6,11.6ZM765.7,618.3c-.2-.2-3.4-.7-4-.6-5,1.1-6.4,13.5,1.4,9.2s3.9-7.2,2.7-8.7ZM80.8,633.2c1.6,3.9.3,9.6,5.5,11,3.3-3.5,3.8-8.5,3.5-13l-9,2ZM104.4,631.2c-7.3,4.7,4.3,15.7,6,8.1s-3.1-7.4-6-8.1ZM742.5,631.3c-3.4.6-5.6,10.1-1.1,11.9,1.8-1.9,5.6-4.8,5.5-7.5s-2.9-4.7-4.4-4.4ZM723.8,674.3c-8.2-2.9-13,4.9-12,12.5.8,6.5,6.4,4.9,11.1,6.9-3.6,2.4-8.9,4.7-13,2.5v12c6.3.6,7-6,10-9.5,2-2.4,17.6-16,15-18.5-5.8-3-10.2,10.3-14.9,6.9-4.3-3,6.3-10.1,3.9-12.9ZM136.7,696.3l-9.9-.6c2.4,2.3,7.4,13.7,11.5,12.5,4.4-3.9-1.4-7.5-1.6-11.8ZM201.8,738.2c.2-4.1.8-8.9-4.5-9.1s-4.4.9-4.5,1.1c-1.7,1.9,4.9,3.7,6,4.5,1.6,1.3,1.4,3.3,3,3.5ZM646.8,737.2l10-5.5c-4.6-5.7-11.2-1.1-10,5.5ZM205.8,733.2c-2.4,7.1,4.1,15.2,11.4,14,11.2-1.8-7.6-13.4-11.4-14ZM643.8,734.2c-1.1-1.1-17.4,6.4-14.6,11l9.5,5c.4-5.9,6.2-9.6,5-16ZM660.6,735.4c-.7.1-7.7,3.3-8.3,3.8-1.2,1-1.7,3-2.9,4.1-2.3,2.1-12,8-3.1,9,10.3,1.2,19.7-.4,22.6-11.5-1-3.3-4.8-6-8.3-5.4ZM206.6,747.4c-7.4-1.8-7.3-8.8-14-10.5-17.2-4.5-13.2,8.8-3.1,15.1h15.7c1.9-.6,2.1-2.9,1.5-4.6ZM228.8,761.2c15-4,1.7-16-8.3-13.8s-8.5,8.6-5.8,12.4,12.3,4.4,11.1-1.6c-6.2,1.3-4.8-3.6-.5-5,4,.8,3.7,4.7,3.5,8ZM629.5,748.5c-8.2-5.9-25.6,7.6-9.7,13.7,0-3.9-.5-8.6,4.4-8.9l2.6,4.9c-.3.4-6,.5-3.5,3s12,.9,11.5-4.4-4.6-7.8-5.3-8.3ZM210.2,761.9c-2.9-2.9-2.4-7.9-9.4-5.2-1.7,1.3-.3,1.4.5,2.5,3.9,4.9,11.8,11,18.1,11.9,13.9,1.9,23.7-9.5,37.5-2.5s3,27.5-5.1,12.6l6,.6c3.8-6.7-4-11.2-10-10.6,2.5,4.5-1.2,8.6-1.1,12.5.2,7,16.5,12.5,19.6,4.4h1c3.9,3.3,7.1,7.9,11.2,10.8,24.8,18,39.8-14.1,59.4-4.4s9,9.2,13.9,12.1c-2.6.6-6.7,6-7.6,6.3-3,1.1-5.6-.8-7.9-.7s-3,1.8-4.5,1.4c-4.5-.9-12.6-10.2-4.4-12.2,5.2.6,1.5,6,5.5,8.2s10.7-11.2-1.5-12.6c-7.9-.9-8.9,2.7-14.6,5.4s-16.2,5.3-12.9,8.6l39.5,9.1c5.7,0,6.1-11.6,14.5-9.1,1.1-16.8-19.6-24.3-33.5-23s-24.6,17.4-40.6,8.5c-5.9-3.3-6.5-7.9-4-13.9,2.7-3.6,14.2-1.8,13.1,4.3-1.6,1.6-8.8-4.7-9.8.6s21.8,10.3,19.8.3c6.1,0,7.6,4.9,12.7.3s1.9,0,1.3-2.3c-3.8-.9-10.1-4.7-13.6-2.1s-1,4.4-3.9,3.1-1.6-4.6-2.6-6.4c-3-5.2-16.3-7.3-21.9-8.6l.5,19c-4.2-3.6-2.9-9.6-4.5-14.5-2.9-9.6-14.4-17.7-24.4-17.4-12.6.4-24.1,14.6-36.3,2.6ZM649.8,756.2c-8.1-2-8,3.9-13.1,7.4-12.6,8.8-21.1-3.7-33.6-4.4s-17.2,4.7-21.2,10.6c-4.7,7-3.6,13.8-6.2,21.3l-2.1-12.5,1.1-6.5c-9.8,1.6-23.9,3.3-24,16h-3c2.9-9.5-17-2.9-17-.5,4.9,4.9,9.6,2.4,15.4,1.4,1.1,6.4,7.6,5.8,13,5,11.7-1.7,8-13.6-2.4-5.9.6-14.7,23.4-4.8,12.5,6-15.4,15.2-30.6-5-46-6-10.8-.7-27.7,3.9-31.7,15.2-2.9,8.3,2.9,6.1,6.8,9.7s2.5,6.6,6,7.1l37.5-8.5,2.9-2c-1.3-4.1-6.1-3.5-9.6-5.3-6-3.1-9.1-7.7-16.8-7.3-13.2.7-8.7,15.3-2.1,13s.8-8.5,6.1-8l3.4,2.7c.4,2.4-5.2,7.7-7.6,8.2s-11.4,0-13-.6-5.3-4.1-5.1-5.6c2.6-4.3,4.7-8.2,9.2-10.9,18.2-11.1,31.4,11.4,47.5,9.5,8.2-1,16.8-7.9,22.7-13.3s3.4-7.9,5.7-.1c5.9,1.4,17.9-2.2,17.9-9.3s-3.2-7.5-2-11.5c-5.4-2-15.4,7.2-9,10.6s4.4-3.2,5,0c1.3,6.9-14.8,7.1-10.5-6.6,1.1-3.5,7.9-8,11.3-8.7,13.8-2.9,21.9,10.2,39.3,2.3,2-.9,14.9-10.8,13-12.5ZM241.8,782.2c4-11.6-7-13.1-14.9-7.5,1.3,2.7,13.2,8.7,14.9,7.5ZM622.8,774.2c-.3-.4-9-3.1-9.5-3.1s-1.6,3.7-6.4,2.2c-4.7,13,8.5,7,14.6,3.1.8-.5,2.8-.7,1.3-2.2ZM374.3,796.2c-4.5-.8-10.8.6-15.5,0-.8,2.5,2.1,4.2,2.5,5.9s-.8,3.7-.6,5.6c.5,4.5,1.5,7.8,4.1,11.5l-9-2c-1.4,8.3,8.3,3.7,12.3,4.2s3.2,1.7,4.9,2.1c9.7,2.1,16.6,1.5,26.3,1.6,4,0,8.4,3,11.4-1.6-1.1-14.1-11.8-1.8-17.4-1.3s-16.2-2.4-19.4-4.6-5.9-6.3-5.1-10.9,8-3.9,8.9-2.5c2.9,4.8-5.4,1.2-4.9,4.4.7,5.1,6.2,7.5,10.9,6.3.7-2.3,2.5-6.7,5.6-5.8s-.4,4.9,1,7c1.9,3.1,6.1,1.4,8.1-.9,4.3-5.1-2.5-4.8-4.1-8.1s1.4-5.8,5.4-4.9l2.2,8.7c4.2,1.2,7.3-1.5,7.7-5.6.9-8.7-17.3-5.4-21.8-2.7-2.8,1.7-4.1,6-8.1,5.4,4.6-4.9,0-11-5.5-12ZM457.8,808.2c5.8.6,5.7,5,9,6.5s9.6-1.9,9.9-5.2-7.1-2.3-5.9-4.8,7.8-2.2,8.8,1.2c3.5,11.7-13.6,16.4-22.3,16.4-8.2,0-15.6-11.9-20.1.8,1.6,6.3,9,1.4,13.1,1.3s11.9,1.4,18,.8,15.7-3.3,19-11-1-8.1-.5-12.5,3.3-2.9,3-5.5c-8.1,1.8-27-2.9-22,11-3.2.8-4.1-2.3-6.1-3.4-4.6-2.7-11.2-5.2-16.7-3.9-10.7,2.5-3.5,15.3,2.4,10.5s.3-8.3,4-9,5.5,4.3,6.4,6.9c-14-1.6-7.3,16.7,2,8.4-1.1-2.3-1.3-6.4-2-8.4ZM435.8,812.2c1.7-4.9-6.8-12.2-10.7-12.8s-14.4,7.7-12.3,12.8l8.5-2.7c8.4,7.1-5.5,4.1-5.6,8.2s5.4,11.2,8.6,11.2c4.6-2,8.2-6.5,9.5-11.2.3-1.9-.1-1.2-1.2-1.7-3.1-1.3-7.4-.6-6.7-5.8l10,2ZM493.8,817.2c-3.3-.3-8.8.8-8,5l7.1-.4.9-4.6Z"/>
  <path d="M787.2,424.9c0,200.3-162.3,362.6-362.6,362.6S62.1,625.1,62.1,424.9,224.4,62.3,424.7,62.3s362.6,162.3,362.6,362.6ZM780.3,424.8c0-196.4-159.2-355.7-355.7-355.7S69,228.4,69,424.8s159.2,355.7,355.7,355.7,355.7-159.2,355.7-355.7Z"/>
  <path d="M678.8,127.2c-4.6,9.3,9.8,12.7,8.6,4s-15.2-7.2-11.6-18c1.4-1.1,11.6,7.6,13,9.5,6.3,8.6,5.3,19.5-7.4,17.4s-13.8-14.7-2.6-12.9Z"/>
  <path d="M172,722c-.7-1,0-3.6-1.5-5.5-5.7-7.4-12.7-.3-5.2,7.7s10.2,4.3,8.5,11c-5.6-.4-15.6-9.3-16.8-14.7-4-19.2,21.6-12,19.8.2s-3.7,2.9-4.8,1.3Z"/>
  <path d="M545.2,58.6c-.3.1-.3,1.5-1,1.6-2.5.5-5.6-.5-7.3-2.5,6.9-11.1,36.5-9.8,35,4.9-1.1,11.1-17,5.8-16,1.1s9.6,6.1,10.8-1.8c-4.7-9.5-13.7-6.9-21.5-3.3Z"/>
  <path d="M675.8,737.2c-4-8.9,5.1-8.9,9-14.5,7.5-10.6-8.9-14-7-.5h-3.4c-4.7-3.4,1.4-11.3,5.3-12.6,9.8-3,15.6,3.5,11.8,12.8s-10.7,10.1-15.7,14.8Z"/>
  <path d="M170.5,133.9c1.9-2.3,0-4.7.7-5.7,3.1-4.2,8.9,1.5,2.6,8.5-9.8,10.9-24.4,0-12.5-14.5s13.4-12.7,12.5-4.5-6.2,5-8.6,7.5c-7.6,7.9,0,15.1,5.3,8.8Z"/>
  <g>
    <g>
      <path d="M652.8,565.2l-1,6c2.5-1,3.4-2.7,2-5h3c.2,5.2-2.5,4.4-4.3,5.9s-1.4,2.9-3.7,3.6c-5.9,2-7.1-2.4-4.6-2.5s6.3,2.2,6.5-1.5-7.4,1.6-6-2.5h4.9c0-.1,3.1-4,3.1-4Z"/>
      <path d="M669.8,498.2c1.2,5.1.8,10-.5,15-2.2-2.9-2-10-1.5-13.5s.7-3.1,2-1.5Z"/>
      <path d="M661.8,499.2c3,1.7,2.4,9.6,2,12.5s.3,1.6-2,1.5v-14Z"/>
      <rect x="614.3" y="504.7" width="13" height="2" transform="translate(115 1126.4) rotate(-90)"/>
      <path d="M626.8,462.2c0,3.1.1,6.3,0,9.5s.9,4-1.5,3.5c-2.2-1.9-1.7-5.9-1.5-8.5s.4-5.3,3-4.5Z"/>
      <rect x="657.8" y="462.2" width="2" height="14"/>
      <path d="M669.8,413.2c.7.7.4,2.4-1.2,3.3-2.7,1.3-10.9,2.5-14.2,2.8-4.9.4-33.8,0-35.5-3.5-2.4-5.1,5.8,0,6.7.3,9,2.1,24.6,3,33.5,1s10.2-4.4,10.7-3.8Z"/>
    </g>
    <g>
      <path d="M570.8,249.2c2.5-1.7,6.8,5.3,6,6-6.9.9-12.5-2.7-13-10,4.2,1.1,4.6,11.2,9,6.5l-2-2.5Z"/>
      <path d="M359.5,228.6c.3.2,1.2,1.9,2.4,2.1l-4,3,3,3.5-6-1,4-6h-6.4c-1.6.8.9,4.1-3.6,3,1.1-6.5,5.1-7.4,10.6-4.6Z"/>
      <g>
        <path d="M507.6,228.5c2.7,3,2.4,7.2-2.7,6.7,2.3-3.9.2-5.1-2-8,1.4,0,3.8.2,4.7,1.3Z"/>
        <path d="M449.1,245.1c0,13.4-10.9,24.3-24.3,24.3s-24.3-10.9-24.3-24.3,10.9-24.3,24.3-24.3,24.3,10.9,24.3,24.3ZM427.8,227.2c-2.9-1.2-5.1-.6-8,0l3,7,3.4-1,1.5-6ZM417.8,228.2c-16.8,4.9-16,29,.4,34l1.6-4h-4s2-6,2-6c-3.3-1.2-6.5,3.8-9,.5.1-2.5,9.4-1.9,7-4.5l-8-1.5c0-3.1,4.1-2.5,6-2.5l-1-3.5-5-.5,1-2.5,6,1.5v-3s2,0,2,0l1,2c1.6-3.6.7-6.4,0-10ZM436.3,259.7c11.8-9,8.9-29.8-6.4-31.5l.5,8,1.1.8c3.9-2.3,3.2,1.1,4.1,1.2s3.9-2,4.3.4-6.1,1.6-6,5c0,1,6.9-.6,6,3.5h-5.4s-.6,2.5-.6,2.5l6,3-2.5,2.3-5-2.8c-3.6,2.5,1.6,6.2-3.4,7.2l.7,1.7c-4.9,2.9-2-2.6-4.9-4.4s-1.9-.5-3-.5c.2,2.5.2,4.9-2,6.5,3.7,3.6,13-.4,16.4-3ZM431.8,250.1c.5-.7-.7-3.1-.7-4.4s1-2.7.7-3.8-6.3-5.7-7.9-5.3c-7.4,2-10.1,10.3-3.1,15.3s4.3,1.3,5.9.4,5.1-1.9,5.2-2.1Z"/>
        <path d="M346.8,227.2l-3,4.5,4,3.5-6-1.5c-3.5-2.3,3.1-8,5-6.5Z"/>
        <path d="M455.5,199.5c5.2,4.8,1.5,12.6-2.7,16.7,6.4,3.8,11.5-.8,18.2-2.3,57.5-12.8,99.2,22.4,151.8,35.3-3.3-17.2,12.6-29.9,29.2-27.7,19.2,2.5,29.5,22.1,20.9,39.4-4.2,8.6-12.5,11.4-20.2,15.8,1.9,3.6,5.3,6.9,5.8,11.2.4,3.7-2.5,7.6-1.7,10.5s4,4,5.1,7,.6,6.8,1.8,9,3.2,1.6,4.2,4c2.7,6.4,1.2,6.4,5.8,13.5s.9,8,1.9,9.5,2.5,1.3,3.5,2.8c2.3,3.4,3.5,10.5,5.4,14.6,3.1,6.8,5.5,11.4,8.5,18.5s3.7,4.8,4.3,7.8-.4,4.5-.1,5.1c.4.8,2.6,1.3,3.5,2.4s6.3,13.2,6.8,15.2-.2,5.4.3,6.2,2.7.4,3.6,1.4c3.9,3.8,3,13,3.4,13.6s3.6,1.4,5.1,4.5c2.8,5.6,3.2,8.6,6.8,14.5s1.3,6.5,2.5,9.2,4.1,3.1,5,6,.2,5.9,1.6,8.4,2.9,2,3.7,3.3c1.5,2.3,1,6,2.3,8.7s3.5,3.9,5,7,2.7,11.1,6.1,14.4,9,2,10.4,10.2-16.7,33.4-24.1,40c-48.7,44.3-167,42.7-207.9-12.1-5-6.8-14.8-21.5-12.1-30,2.2-6.9,13-7.1,16-14s.6-4.9,1.5-7.5,9.2-19.2,9.8-20.2c1.2-1.8,3.7-2.7,4.1-3.9.6-1.8,0-4.2.6-6.4s3.3-3.4,4-5c3.4-7.2,6-15.2,9.3-22.7s3.9-3.6,5-6,.9-7.2,3.4-10.6,4-2.9,4.4-3.6-.5-3.2-.1-5.1c.8-3.5,3.4-4.3,4.1-6,1.4-3.1,0-6.4,3.1-9.9,4.4-5.2,4.5-6.1,7.1-12.9s4-8.8,5.7-14.2,4.8-5.3,5.4-6.2,0-4.6.7-6.8c1.2-4.2,6.8-9.8,7.3-11.7s-.2-4.2.7-6.3,3.3-2.6,4-4,.4-4.4,1.3-6.7,3.8-4.5,4.7-6.3c1.4-3,2-8.7,3.8-12.2s5.1-4.2,4.8-8.2-3.3-5.6-1.9-9l5.9-10.6c-11.5.1-22.9.3-34.4-1.1-33.8-4.2-66.2-21-101.1-18.8-16.7,1-32.5,8-46.5,16.5,5.1,4.6,5.6,15.2,1,20s-4.9,2.4-5.5,3.5c-1,1.7-.1,4.4-.7,6.3-5.1,16.9-2.2,30.8-1.8,48.2.9,38.3,1.5,76.8,4,115,.3,4.3,1.8,8.9,1,13.5,3.3-1,14.3-2.4,14.7,2.5s-3.1,7.7-3.6,10.1c-2.4,13.8,4.3,22.8,7.6,35.2,5.4,19.8,6.3,43-13.6,54.7,5.2,4.6,1.1,11.4,1.8,14.8s8.1,5,9.6,6.6c5.9,6.5,7.2,18.5,2.5,26,11.6,5.3,22,13.1,33.3,19.2,7.1,3.8,18.9,10.3,26,13,12.2,4.8,29.4,6,39.2,16.8,8,8.7,6.2,26-2,34-26.5,25.7-114.8,33.1-151,32.1-30.2-.9-115.1-9.9-133.5-35.5s-5.7-21.2,0-29c8.6-11.8,37.3-17.1,51.4-23.6s31.8-17.3,46.5-27c-2.7-10.8-3.1-18.8,5.6-26.8,1.9-1.7,8-4.9,8.4-6.7s-1-4.4-.9-6.8,1.9-5.1,2.1-7.9c-17.3-8.5-18.8-28.9-15.6-45.7s17.8-35.4,5.8-53.5c3.5-4.7,10-4.1,14.8-1.5-.5-3,.8-5.8,1-8.5,2.7-37.2,2.8-74.7,4-112s3.5-36.1,2.1-49-4.2-13.8-4.6-14.4c-.6-1-4.4-2.7-5.9-5.1-4.1-6.1-3.1-13.6,2.4-18.4l-1.5-1.5c-10.3-3.8-19.8-9.8-30.5-12.5-41.9-10.5-84.2,14.6-125.5,17.6-7.1.5-16.5-1-23.2,0s-1.6.3-2.4,1.4c4.3,3.9,6.9,7.6,5.6,13.6s-2.4,3.8-2.2,5c.4,2.2,4.2,4.3,5.3,6.7s1,7,2.8,10.2,3.5,3,4.6,5.4c2.8,5.7,1.3,6.4,5.8,13.2s.8,8,1.1,8.4c.4.6,3.6,1.2,5.1,4.4,3.1,6.2,4.4,11.5,7.8,17.4s3.5,10.7,5.5,15.2,3.3,2.6,4,5,0,4.7.6,6.4,4.7,2.9,6.1,5.9c2.2,5.2,3.3,12.3,4.9,17.1s3.8,2.6,5.3,4.7c2.8,4.1,1.9,10.1,2.8,11.7s2.6,1.2,4,3.5c3.6,6,2.6,9.9,7.8,16.2s1.2,5.9,2.2,8.9,4.1,3.1,5.6,7.4c2.4,7,3.1,5.7,5.5,10.5s1.1,7.7,2.3,9.7,2.5,1.5,3.7,3.3c2.3,3.5,1.9,7.7,3.3,10.7,3.9,8.5,18.3,6.6,16.2,20.3s-19,32.4-28.3,39.7c-46.9,37.1-145,36.6-190.5-2.5-8.7-7.5-28.4-31.1-25.8-42.8s12.2-8.2,15.2-14.8.8-4.8,1.8-7.2,4.3-5.6,5.2-7.8,1.3-6,2.7-9.3,5.6-6.7,5.7-7.2c.2-1.2-1.2-2.9-.5-5.5s3.5-3.5,4.1-5c3-6.9,6-18.1,9.3-24.7s3.4-2.7,4-3.5c1.1-1.6,1.1-7.2,2.4-10.1s3.6-3.4,4.2-4.8c2.6-6,4-16.4,8-21.4,4.7-5.9,5.3-12,8.4-19.1s3-2.9,3.6-4.2-.1-4.5,1.7-7.4,3.7-2.5,3.9-3.3c.5-2.4-.3-4.7.9-7.9s4.8-6.7,6.3-9.7c5.2-10.6,8.9-25.5,14.6-36.4s4.2-4.1,4.8-6.3-1.3-3.6-1.6-5.6c-.9-7.5,1.2-10,4.9-15.9-11-5.1-21.6-11.9-22.9-25.2-3.4-34.6,50.7-42.6,53.8-6.8.2,2.3-2.4,4.4.6,4.4,5.5,0,20.8-6,26.8-8.3,43-16.1,77.4-38.9,126.2-26.7,3.2.8,6.3,2.9,9.3,3.8s4.1-1.4,6.2,1.2c.2-3.9-4-5.8-4.8-9.7-1.5-7.7,4-13.5,11.8-12.3-1.1-2.5,1.7-6.3,1.7-7.5s-3.7-5.9-3.7-12c0-17.6,16.1-42.6,23.6-58.5,1.5,0,10,17.8,11.4,20.6,5,10.8,13.4,29.1,12.1,40.9-.4,3.8-3.6,7.7-3.6,9s1.9,6.3,2.1,6.5c1,1.4,6.7,1,9.2,3.3ZM433.8,177.2c6.3-1.6,6.6-4.4,5.7-10.2-.9-6.1-10.3-27.4-13.5-33.5s-1.5-2.8-2.2-2.3c-2.9,9.2-8.5,17.8-11.8,26.7s-7,16.3,2.8,19.3c-2.4-10.2,2.5-22.6,6.3-32.2s.3-3,1.7-2.7c-1,11-9.9,26.6-2,36l1-5,2,4,3-3,1.5,4c7.7-8.6.3-21-1.2-30.8s-1.1-3.5.7-3.2c2.6,10.8,9.6,21.6,6,33ZM416.8,187.2c-1-4.9-4.7-8.8-9-11-.9,7.2,1.1,11.3,9,11ZM431.8,187.2c6.5.6,10.3-4.9,10-11-4.1,2.7-9.7,5.2-10,11ZM426.8,187.2c1.1-8.2-6.1-8.3-5,0h5ZM409.8,196.2h29l-.6-5c-2.6-1.5-26.9-1.4-28.2.2v4.9ZM421.8,200.2c-9-.6-15.2-.5-9,9.6,3.4.3,3.9-2.8,4-5.6l2,4c4.2,0,2.9-5,3-8ZM431.8,200.2h-8s2,7.5,2,7.5c5.2,2.3,6-3.4,6-7.5ZM432.8,200.2c0,1.7-1,9.8,2.5,9,3.6-3.4,4.3-10.1-2.5-9ZM407.8,211.2c-1.3-14.6-18.3-9.6-6.5,1l-2.5-6c4.9-1,5.2,4.3,9,5ZM442.8,212.2c1.1-3.7,5.2-8.5,8.5-4,3.4-2.7.3-6.1-3-6.1s-5.5,3.1-6.3,5.8-1,4.5.8,4.3ZM454.2,245.2c0-16.3-13.2-29.5-29.5-29.5s-29.5,13.2-29.5,29.5,13.2,29.5,29.5,29.5,29.5-13.2,29.5-29.5ZM389.8,228.2c.2-2.5,1.8-2.3-.6-3.9s-9-3.7-11.6-4.4c-43.5-11.3-86.1,13-125.3,28.3l-38.5,12c35.3.6,66.4-20.5,99-30.5,25.8-7.9,51-11.1,77-1.5ZM635.8,259.2c-59-9.4-114.2-60.6-176-35l1.6,4c25.6-10.5,52.9-5.9,78.4,2.5,27,8.9,64.4,30.6,92.6,29.5,1.2,0,3.7.8,3.5-1ZM347.3,242.2h-15.5l4-2c-3.4-8.8-4.8,4.1-9.4,2l-1.1-2-8.5,4,1-3-3.5,1,.5,2c-3.3,1.2-8.6-2.6-9.3.7l-6.2,2.3-.4-4.9,3.8.5,1.9-1.1.2-5.5c-2.5-2.3-30.5,12.5-35.1,14.4s-11.7,1.8-14.9,6.6l4,2h-5s0,3,0,3c3.1,1.8,20.3-5.9,25-6v-2s-6,1-6,1c-.2-2.7,3.2-6.4,5.5-7s-.2,4.9,3.5,4l-2,3,16-4c-1-2.9-6.8,1.9-8,1,.6-4.3,3.7-6.3,5.5-10l2.5.5c0,2.7.8,4.2-2,5,1,1.1,1.9,2.3,3.5,2.5,3.7.5,17.2-3.9,22.2-4.7,15.4-2.6,29.8-3.1,45.2-.3l-11-4,.5-2,7.5,1c-1.5-5.1,4.7-10-.7-12.8s-14.1-2.3-16.8-2.3-3.9,1.7-6,2c-10.7,1.3-19.8,2.3-29.8,6.9l-1.6,7.1c1.9,1.8,8.4-7.7,11.5-8l1.5,3.5-2,.9,1.4,3.6c1.6-2.3,2.2-4.4,5.5-3v-5c7.8-1.2,12.1,2,18.3,5.2s9.2,2.6,4.2,3.8ZM616.8,266.2h19c0-4.7-6.2-2.6-9.5-3-40.4-5.1-72.6-29.7-112.5-36,0,1.7,3.2.2,2,3.5s-1.8,1.8-3,1.5l-.4-5.1c-2.5-3.6-20.9.3-25.6-.9,2.1,2.9,9,.1,13,2.5,2.3,1.4,2.1,9.8,5.5,10.2s15.8-7.2,17.5-5.6l5.1,9.9c-6.4-3.2-14.5.8-21.3-1.2s-7.3-11.1-9.7-12.3-7.8,2.1-10.5-.3c-2.6.3-.4,5.9,1,6.9l2-5,.5,3,4.5-3c3.6,5.9.4,3.1-2.8,4l-4.7,4c2.8,0,5.7-.1,8.5,0s3.7-.8,3.5,1c-2.9.9-6.3.6-9.2,1.3s-4.7,1.6-4.8,2.7c9.2,0,18.2-1.5,27.5-1,13.8.7,26.9,5.5,40.5,7l-2.1-1.5,1.1-3.4c-1.8,0-3.5,1.3-5.4,1s-.9-3.4-3.6-2l2,3h-5s1-3,1-3l-6,1,2-5c-2.9-.4-3.3,3.9-6,2.6s-2.9-5.4-5-8.1c4.8-4.4,3.2,5.2,6.5,4.5l2-5c4.4,2.3,5.6,8.5,11.5,8l-1.5-4,6.5,6,.6-2h3.4s0,5,0,5l2-4c3.3.9,4.4,4.8,6.3,8s-.2,1.6,0,1.8c.9.9,21.9,7.7,24.3,8.1,7.2,1,4.3-3.2,10.4-2.9.9,2.5-3.2,2.8-3,3.5,1.2,3.1,3.5-.9,4-.5.4,4.5,8.4,3.3,12,4l-5-2c-.5-4.6,5.5-.3,7.5,0,4,.6,8.4,0,12.4,1.1l-9,2ZM211.8,253.2c14.5-3,7.8-19.8-3.3-24.2-27.9-11.1-43.3,35.1-10.7,39.2-.4-4.8-3.2-3.8-5.5-6-3.6-3.4-7.4-6.3-7.6-11.5-.7-24.4,38.6-21.6,27.1,2.5ZM650.8,268.2c32.8-4.2,18.1-51.8-12-38.5-10.5,4.6-15.2,20.5-2,24.5-.6-5.5-4.5-8.2-1.4-13.9,6.4-12,27.2-6.1,27.4,6.9l2-3c1.6,3.9-1.6,4.9-1.9,5.8-.8,2.3-.6,4.1-2.1,6.8-2.8,5-8.9,5.5-10,11.5ZM383.8,236.2c-.3-1.8,1.7-2.1,0-3.5-6.9-5.8-22.5-4.1-18.2,7.2s10.4,7.1,16.7,10.3c.6-1.7-2.1-3.7-2.1-5.5s1.3-2,1.2-3.6c-.6-6-9.3-8.5-8.6-2.4l6.6,5.5-8.3-2.2c-1.4-2.2-2.1-6.1.2-7.9,4.4-2.2,9-.9,12.6,2.1ZM463.8,251.2l16.5-6c11-15.7-6-19.3-17.5-12l3,1-1,4c3.1.6,2-2.7,4-4.5,3.3-2.8,9.8-1.3,11,3,.3,4.3-1.7,6.2-5.5,7.4-3.2-2.3,1.1-2.2,1.9-4.2,1.4-3.6-3-5.8-6.2-4.6-2.6,3.8.6,4.1,1.4,5.9s-2.7,2.5.4,5c-5.8-.7-6.1,0-8,5ZM208.9,247.2c2.5,1.8,2.3-8.3-5.8-9.8-14.3-2.7-20.2,19-5.3,22.8,1.3-1.3-9.2-8.6-3-15.5s12.9-3.5,14,2.5ZM651.8,260.2c12.3-4.4,9.1-21.2-2.8-22.8-6.1-.8-11.4,3.3-10.2,9.8,1.6-.2,1.4-2.3,3-3.5,5.7-4.3,15-.2,14,7.9s-4.3,4.7-4,8.6ZM388.8,261.2c3.7-3.8-13.1-9.9-15-10.5-45.5-14.4-83.5,9.6-126.8,16.2-10.5,1.6-21.2,1.9-31.7,2.3s-3.7-.8-3.5,1c35.8,5.1,70.1-9.7,105-15.5,26.2-4.4,47.4-5.8,72,6.5ZM636.8,269.2c-56,4.2-105.1-35.3-161-18.5-7.2,2.2-13.2,3.8-17,11l18.2-6.8c51-15.4,107.3,22.8,158.3,16.3,1.5-.2,3.1-.8,1.5-2ZM202.8,256.7v31l2.5,1.5c2.4-1.5,2.3-2.9,2.6-5.4.4-3.6.2-27.7-1.1-28.6s-3.6.3-4,1.5ZM645.8,288.2v-31.5c-1.7-2.4-3.5-1.8-4,1,.8,5-3.1,28.8,0,31.1l4-.6ZM251.8,257.2l-12,3.1,1.1,3.8,10.8-.8-3-1v-3s3,1,3,1v-3ZM211.8,266.2h23.5c.2,0,1.8-1.6,1.5-2l-2-3c-2.9.9-6.5,1.7-9.5,2s-13.1-2-13.5,3ZM406.8,279.2c-5.1-2.4-9.4,3.5-6.9,8.3,4.4,8.4,9.5,1.1,10.8-5s-6.1,2.4-6.9,1.6l3-5ZM441.9,291.1c5.9,1,9.7-4.3,7.2-9.7s-7.2-3.3-5.3,1.8l-4-3,2.1,10.9ZM414.3,282.2c-2.1,2-4.5,8.4-2.5,10.5,6.3,6.8,6.8-11.5,2.5-10.5ZM440.7,302.1c2.6-4.1-3.8-6.9-3.8-7.4s1.5-1.2,1.8-2.3c.8-3.3-1.4-7.5-3.3-10.2-3.8-.9-.8,9.5-.9,11.5-.7,7.8-19.6,2.4-24.9,2.5-5.9,7.3,5.3,8.6,10.9,8.9s13.9-.7,20.3-3.1ZM211.8,283.2c3.2,13.5-16.2,15.3-13.5,0-9.7,10.2,9.4,20.1,16,10s2-7.6-2.4-10ZM422.8,283.2h-3s-1,12-1,12c5.9,1.5,5.4-10.8,4-12ZM427.3,283.2c-2.8.9-2.5,12.2,3,11,3.1-.9,1.8-12.4-3-11ZM637.8,283.2c-1.4-1.4-8.3,5.5-1.9,11.4s24.4-2.3,14.4-11.4c2.6,14.5-19.5,13.3-12.5,0ZM661.6,324.4c-3.1-5.4-3.5-6-6.2-12.2s-4.6-9.5-5-10c-1.2-1.4-2-.6-2.4.6-.8,3.3.5,8.2-1.1,11.9,1.8,25.7.6,51.4-.5,77s2.1,7.1,1.5,10.5c11.2,0,24.9.6,32.5,10l.5,22.3c15.5,5.4,11.3,17.6,12.5,30.7,18.5,4.6,18.6,14.9,17.6,31.9l31.9,6c-1.6-3.6-2.8-7.4-4.4-11.1s-4.5-8.3-6.6-11.7c-2.1-3.5-1.3-6.5-2.5-9.2s-3.3-2.6-4-5,0-5.6-.7-6.9-4.4-2.1-5.3-4.2-.2-4-1-5.9c-1.5-3.6-6.9-10.4-7.8-14.3s.4-5,0-5.8-3.2-1.7-4.8-4.3c-2.3-3.9-1.1-8-2-9.5s-2.5-1-3.7-2.8c-1.9-2.9-1.1-5.9-1.7-7.4s-2.8-2.5-3.9-5-.8-6.2-1.7-8.3-2.8-2-4-4c-2.5-4.2-.6-8.3-.9-8.6s-2.1-.6-3-1.5c-3.2-3.4-6.6-15.6-9.1-21s-3-5-4.9-12.9-7.4-9.6-8.5-12.7,0-5.5-.8-6.8ZM200.8,302.3c-4-1.1-2.8,2-4.2,5.2s-1.5,3.8-2.8,5.3l-3-.6c1.1,3.6,1.2,5,0,8.5s-3.9,4.9-4,5.2c-1.7,6.6-4.5,14.9-7.8,21s-2.9,2-3.2,3c-.6,2.1.3,4.7-1.2,7.6s-3.8,2.7-4.3,3.7.8,3,.1,5.1-2.7,3-3.4,4.7-1.1,5.8-2.3,7.7-2.9,1.7-3.4,2.6.6,5.4-1.4,8.3-3.4,1.5-4.3,4,.8,4.5-1,8-2.7,2.5-3.2,3.8c-1.2,2.5-.6,5.4-2.7,8.3s-3,1.9-3.4,2.6,1.4,7.7-2.9,11.1-3.2.8-3.4,1c-.6.7,1.1,6.3-.8,9.6s-5.4,8.2-6.8,11.3.4,7-3.6,9.4-2.8.4-2.9.6c-.3.4,1.7,4.9-1,9.2s-1.7,3.6-3.5,7.7-4.4,2.9-5,4,.8,4.1.3,6.3c-.7,3.4-6.1,11.5-7.8,15.2,6.7,1.2,27.5-6.5,32.3-3.5s3,3.2,3.7,4l-35.3,6.2c-2.4,1-2.1,4.8-7.2,4.8s-5.6-2.3-4.5.4c2.6,6.2,8.8-.6,12-2,10.6-4.4,27-4.1,38.4-6.2,36.9,28.4,85.8,29.8,122.3,0,12.2,2.1,26.4,2.2,38,6.6,3.6,1.4,6.5,5.9,10.6,3.3s-1.3-10.2-3.8-12.1l-2.5,1.5c.4,4.6,2.6,5,6,7-4.6,4.6-7.4-1.5-11.7-3.2-8.6-3.4-20.7-3.3-29.7-5.3-1.4-.3-2.5.1-3.5-1.5l5.5-4.5c8.8.3,17.7,3.6,26.1,4.9s4,.8,3.4-1.4c-1.1-3.9-4.9-8.3-6.8-12.2s-5.8-10.4-6-11c-.5-1.8.2-4-.4-5.6s-3.2-1.9-4.1-3.9-.3-8-.9-8.6-3.1,0-4.7-2.7-.4-6.7-1.3-8.2-2.6-.7-3.3-2.2-.3-3.4-1-5-2.9-2.4-3.7-4.3c-1.1-2.7-.4-8-.9-8.6s-2.9.3-5.1-3.4-1.2-8.1-2-9.5-3.4-1-4.3-4.1,0-5.6-.7-6.9-2.4-1-3.4-2.1c-3.8-4.4-1.1-8.9-1.8-10.1s-3.4-1.2-4.6-2.7c-2.5-3-1.2-7-2.1-9.6s-3.1-2.3-4.4-4.6-2.5-7.7-3.9-11.1c-6.5-15.2-14.1-28.9-21.7-43.3-1.3-2.5-1.3-5.6-2.3-7.7-1.8-3.7-4.8-6.8-5.5-11-2-1.9-2.8,4-2.9,4.6-1.6,25.5,2.3,53.9,1,79.9s-2.1,4.9-1.9,5.8,2.1,2.8,2.4,4.7-1.2,3.2-1.2,4.5c0,2.8,3.2,4,.2,7.6s-5.5,1.7-8.1-1.1l-1.6-106ZM638.8,302.2c-5.1-.9-3.2,3.1-4.3,5.2-2,4-5.2,12.5-6.9,15.1s-3.4,2.4-3.7,2.8c-.7,1.2,0,4.3-.9,6.6-2,5.3-8.3,13.9-10.8,19.2s-.2,4.6-1.2,6.8-3.2,2.2-3.8,3.3.5,5.1-1.6,8.4-2.6,1.3-2.9,2.3c-.5,1.7.3,3.8-.7,6s-3.2,2.2-3.8,3.2c-1.1,1.8-.1,4.8-1.6,7.4s-4.2,2.7-4.7,4.3c-.8,2.4.6,5.6-.7,8.3s-3.3,2.6-4,4c-1,2.3-.2,4.8-1.6,7.4s-3.7,2.4-3.9,3.3c-.5,2.1.2,4.1-.8,7-1.7,5.4-5.2,4.5-6.1,5.4s1.1,6.7-2.1,10.4-2.5,1.2-2.8,1.6c-.7,1.1,0,4-.6,5.9s-3.3,2.6-3.6,3.7c-.6,2,.5,4.1-1.1,6.7s-4.6,2.4-4.9,2.7,1,3.7,0,6.4-2.9,3.2-3.5,4.6c-1.8,4,.2,9.1-7.5,10,.7,1.6,2.2,2,1.9,4.2s-7.5,13.9-8.9,17.7l36-5c.6-7.8-1.5-22,5.5-27s5.8-2,6.4-3.6c-.2-16.6-2.9-31.4,18.1-33.4l.6-21.9c7.8-7.7,19.9-9.2,30.5-9-.9-3.1,1.7-6.4,1.8-8.7s-1.8-13.2-1.8-17.8c-.1-20.3,1.3-40.9.7-61.2s-1.2-8.2-.6-12.3ZM414.8,311.2l-2,1.5c-1.1,36.4-2.5,72.7-4,109-.7,17.8-2.5,36.1-3,54s-.8,15.6,1.5,16.5c1.6-2.7,3.7-5.5,4.3-8.7,4.3-25.5-.2-55.9,3.3-81.7v-90.5ZM435.8,311.2l-2,1.5c-.2,46.7.8,93.6,3,140,.6,12.8-1.5,27.9,4.5,39.5,2.8-2.4,2.7-6.1,2.6-9.5-1.8-45.3-5.1-90.7-7.1-135.9-.5-11.8-.6-23.7-1-35.5ZM422.8,312.2c-2.9-.8-2.9,4.8-3,6.5-2.9,38.7-2,81.8-3,121-.3,13.2,0,26.4-.9,39.5l7.6-7.9,9.4,7.9-4-164.5c-5.5-8.1-3.7,8.2-4,12l-2,11.5v-26ZM672.6,417c5-4.8-8.2-7.6-11.7-8.3-10.7-2.2-23.4-2.2-34.1,0-6.3,1.3-19.5,5.3-6.8,9.8,9,3.2,46,4.7,52.5-1.5ZM669.8,424.2c-1.2-1.6-1.8,0-2,1.5-.5,3.6.3,7.8,0,11.5,3.9-2.5,1.3-9.1,2-13ZM656.8,441.2c4.9.7,3.2-13.8,2.1-14.6-10.7-.8-21.3,1.3-32.1-.4.6,4.4-1.5,10.3,1.5,14,1.4-2-.8-12.8,2-13l1.6,13.8c6.7-.6,13.4,2.5,19.9.1l-1-13c2.8-.4,1.9.5,2,2.5.2,2.9-.4,6.2,0,9s.8,3.1,2,1.5l1.5-14c3.6,3.9,0,9.4.5,14ZM664.8,426.2h-3c1.9,4.1.7,8.7,1,13,3.9-2.5,1.3-9.1,2-13ZM668.8,448.2c.2-5-7.5-.4-11.5,0-9.8,1-28.2.7-37.2-2.8-7.7-3-9.4-9.3-19-4.4-9.6,4.9,1.2,9,6.7,10.7,15.4,4.9,36.4,5.5,52.4,3.4s25.6-4.2,24.5-10.2c-5.3-7.9-9.2-2.8-15.9-.6l4,2c4.1,4.9-15.2,6.8-18,6-3.2-2.9,12.2-4.6,14-4ZM603.8,457.2c-2.5-3.3-2.1,7.5-2,8.5.1,1.7-.1,3.3,1.6,4.4l.5-13ZM676.8,458.2v14c3-1.7,2.4-9.6,2-12.5s-.8-3.1-2-1.5ZM617.8,475.2l.7-14.5-2.7-1.5c-1.4,5-.9,9.5,0,14.5s-.7,1.7,2,1.5ZM672.8,459.2h-2v15h2v-15ZM662.8,460.2h-43c1.6,4.8,1.6,11.2,0,16,13.5,3.1,27.7,2.4,41.3.8l1.7-1.3v-15.5ZM667.8,460.2h-3v16h1.5s1.5-1.5,1.5-1.5v-14.5ZM586,475.4c-1.5,6.1,5.8,8.7,10.6,10.6,22.4,8.6,80.7,9.6,101.3-3.2,1.9-1.2,3.8-2.1,4.9-4.2.5-2.8-9.1-7.6-11.3-7.2s-4.4,4.4-6.3,5.6c-3.4,2.2-7.6,3.3-11.3,4.7l-1,1,2,3.5c-1.5,2-14.9,2.7-17.4,1.9s-1.3-2.6-2.3-2.9c-3.8-1-13.8.3-18.8,0-7.5-.5-15.2-1.3-22.5-3,2.5,6.8,13.6-.4,13,7-7.6-1.3-16.7-.1-23-5.5l2.5-3.5c-7.2-1.8-13.5-10.5-20.3-4.8ZM443.8,539.2c-1.7-22.5-2.7-46-19.5-63-11,12.5-15.8,26.4-16.5,43l14-18.5c4.4-2.2,7.9,2.5,10.4,5.6,5.1,6.2,12.2,19.8,8.8,27.7s-.2,1.5-2.3,1.2c-1.2-11.6-6-23-14.5-31-3,0-14.2,21.7-14.3,25.4s1.3,3.7.8,5.5l-2.5-3c-1.6,1.4-2.4,3.3-2.5,5.5s.1,1.2,1.5,1.5c10.1,1.9,16.1,6.9,14.5,18h-3c.9-5.4-4.7-14.4-10.4-14-12.8.8-4.5,26.2,2.4,31-2.2-5.3-5.6-10.4-5-16.5s2.8-7.9,7-6,9.6,22.5,11.5,22.5c2.3-2.7,8.1-14,6.3-16.8l-5.7-2.3-.2-5.8,2,4c1.5-8.9,7.3-15.9,17-14ZM458.8,484.2c-14,4.9-15.2,23.3-13,36,2.6.5,1.6-.3,2.1-1.4,1-2,1.2-4,2.9-6.1s3.8-2.4,4-3.2c.9-3.2-1-7.4-.9-10.6s2-11,4.9-14.7ZM402.8,522.2c3.3-12.8,2.3-30.3-11-37,3.5,7.8,4.1,16.1,1.9,24.4l4.5,3.7,4.6,8.9ZM585.8,487.2v15c2.3.1,1.8.3,2-1.5.4-3.1,1-11.6-2-13.5ZM592.8,490.2c-1.2-1.6-1.8,0-2,1.5-.3,2.3-.2,13.3,1,14.5s2.1.7,1.8-1.3c-.9-5.1-.9-9.6-.8-14.7ZM695.8,490.2v15c2.2-.5,1.9-4.7,2-6.5s.5-11.9-2-8.5ZM599.8,492.2h-3c.6,5-2.3,15.2,4,17,.4-1.2-1-2.2-1-2.5v-14.5ZM691.8,492.2h-2v16h2v-16ZM602.8,494.2v14.5c0,.2,3.2,3.8,4,2l-1-16.5h-3ZM683.8,494.2v15.5c0,.2-2.5,2.1.5,1.5s2.4-.9,2.6-2.4.4-18.6-3.1-14.5ZM608.8,495.2v17c23.7,5.5,48.4,5.6,72,0v-17h-4c1,5.2.6,10.2,0,15.5s.4,1.6-2,1.5v-16c-20.3,2.8-40.6,2.1-61,0,1.1,4.1,2.7,12.9-1,16-1.6-5.5-1.5-11.5,0-17h-4ZM103.8,510.1c-.9-2.3.1-3.3,1.1-5.4l-4-1.5-2,8,4.9-1.1ZM537.8,503.2c-4.6-.8-4.9,4.6-5,8h4s1-8,1-8ZM579.8,506.2c.3-1.4-.3-2.4-1.7-2.8-3.7-1.2-21.6,2.1-26.5,3.1s-10.1.7-12.5,5.7l-8.3,2.5c4.3,3.6,10.1-2.6,15.8-4.2,10.2-2.9,22.6-3.9,33.2-4.3ZM747.8,508.2c-.9,2.4,3.9,3.5,4,4.5-3.5,3.4-8.1-2.3-13-4-8.9-3.1-19.7-3.8-29-5.5v3c13.6,1.5,27.4,3.4,39.5,10,4.8-1,3.4-6.3,3.5-10l-5,2ZM150.8,509.2c-1.5-1.6-18,.6-21.4,1.1s-8,1.5-11.6,2.4-3.2,0-3,1.5c11.3-1.1,23.4-5.3,34.7-3.2s1.8-1.2,1.3-1.8ZM292.8,511.2c-7.1.1-14.7-2.6-21.7-2.9s-3.1-.3-4.3,1.4l20.5,2.5,5.5-1ZM581.8,508.2l-25,4c7.6-.1,14.9-1.5,22.5-2s2.9.8,2.5-2ZM731.8,512.2c-7.2-.2-14-2.9-21.2-3.4s-2.5-1.2-3.8.9c7,.8,14.5,3,21.5,3.5s3.7.7,3.5-1ZM674.8,520.2c-23.3,2.8-47.3,3.3-70.2-2.3-4.8-1.2-9.9-3.9-14.2-4.9s-2.3-1.3-2.6.7c-.6,4.1,10.2,9.3,14,8.5-.1-.3-8.1-5.5-3.5-5s18,4.7,15.5,7c-2.4.7-7.5-2.8-9,0,23.7,4.4,48.1,3.6,72,1l-9-1c-.9-4,6.3-1.4,7-4ZM682.8,523.2c4.4.7,18.8-4.1,18-9.5-1.5-2-1.2-1.2-2.6-.7-4.4,1.4-8.6,3.7-13.3,4.2l3,4-5,2ZM459.8,553.7c.5-5.8,0-13,0-19s-2.1-1.8-.5-2.5l3.5,4c1.5-3-6.3-23-7.5-23-6.5,5.5-4.8,13.3-5.6,20.4s-1.9,3.5-2,5.1,4.3,7.8,4.9,12,.2,9.2-.9,13.4c1.8-.3,4,1.9,5.5,0s2.4-8.9,2.5-10.5ZM321.8,514.2c-1.7,8-14,9.9-21,11.5-48.2,11.3-130.5,10.3-179.2,1.2-8.4-1.6-24.3-3.6-26.8-12.7-8.7,5.1,7.9,12.3,12.5,14,43.8,16.4,162,17.3,204.9-1.2s16.5-7.3,9.7-12.9ZM395.8,514.2c-1.6-.2-2.3-.3-3.4,1s-6.6,18.1-6.5,19.5c.3,4,4.3-2.7,5-2.5,0,2.2-.9,4.1-1,6.5-.2,4.5-1.2,25.5,3.7,26.4l3.4-1.5c-.8-5.1-2.2-12.4-.6-17.4s5.1-5.1,5.4-6.6-1.6-3.1-1.8-4.9c-.8-7.3,0-13.6-4.1-20.4ZM754.9,515.2c-1.7,6-11.2,8.2-16.8,9.7-46.3,12.4-137,11-184.4,2-8.1-1.5-24-3.4-25.8-12.7-8.1,4.7,4.2,10.8,8.7,12.8,44.1,18.8,147.8,17,194.1,4.6,6.8-1.8,27.2-6.9,26.2-15.8l-2-.5ZM137.8,548.2c1.6.2,4-1.6,5.7-1.8,4.8-.4,9.8,1.1,8.3,6.8,3.3-.8,5.9-3.7,9.6-4s10.9,1,13.1,1.7c3.8,1.2,7.2,5.4,8.3,9.2l3-4c-1.7,5.3-1.9,8.6,0,14l.2-9.2,4.8-6.7c-7.1,19.1,6.1,26.1,23.5,24s10.6-4.8,11.5-10v5c5.3-4.2.8-14.5-1-20l4.5,5.5,1.5,10.5c1-6.9,1.9-15.1,9.4-18.1,2.1-.8,12.6-2.1,14.9-1.9,6,.5,7.7,5,12.6,7l-2-5.4c1.2-5.1,6.4-3.1,10.3-3.8s3.6-1.9,5.7-1.8c.4.3-5.1,7-2,8,2.3-7.1,14.8-12.1,21.4-9.9s1.4,3.1,2.1,2.9l2.5-4-3-2c4.7-.8,7.5,0,10-5-9.8,3.6-21.2,6.5-31.6,7.9-47.5,6.2-98.2,3.6-145.9,0,.6,1.9,1.7,2.7,2.5,5-2.3-.3-3.3-4.3-5.3-5.3s-15.6-3.8-19.5-4.5-3.6.9-4.1.7-1.6-4-5.1-2.8l8,9c8.8-4.9,22.5-.6,26,9,1.8.1.2-5.4,0-6ZM737.8,541.2c-8.6-2.9-16.3,1.1-24.5,2-51.2,5.5-123.5,7.4-172.8-6.2-1-.3-3-1.7-3.7-.3l8.5,8.2c8.2-4.4,20.9-.6,24.5,8.3,3.1-1-2.4-7.6-2-8,5.3,2.5,10.2,2.2,16,2v7c5-6,19.7-5.3,26-2.5s7.4,10.9,9,18.5l.2-9.3,4.8-6.7c-8.8,18.8,6.9,27.4,24.3,23.8,5.6-1.2,12.4-6.9,12.4-13.1s-2.8-8.8-4.7-12.7c2.6-.6,1.8.7,2.6,1.9,3.8,5.3,2.6,6.7,3.7,12.2s1.4,1.4,1.7.9c-1.2-5.8,3.3-14.8,8.9-16.6s13.8-1.6,16.3-1.2c5.7.9,6.2,4.6,10.7,6.8-4.8-11.4,2.6-8.3,9.1-9.6s4.4-2.5,6.9-2.4c.4.3-6.4,6.8-4.5,9,4.8-5.3,10.3-10.3,18-10.1,4.3.1,8.7,4.9,8.5-1.9ZM397.8,573.2c-1-.8-4.1-1.7-5.7-3.4-4.1-4.3-5.4-11.6-6.2-17.3s1.3-8.6-2.1-10.4c-2.1,12.5.4,30.2,15,33,.1,0-.8-1.9-1-2l5,3c.1-5.4-3.4-10-9-8l4,5ZM427.8,580.2c12.1-.6,28.3-32.6,14-36.6s-12.8,5.2-10,10.6c3.4.3,6-4.4,9-.5l-13,26.5ZM445.8,576.2c9.6-2,14.9-4.7,18-14.4,2.2-6.6,2.1-11.8.9-18.5-1.4,0-1.5,3.7-1.7,4.8-.8,5.7-.4,10.8-2.7,16.3s-5.7,9.6-8.5,8.5l3-4.5-5.7.2-3.3,7.7ZM187.8,577.2c-1-2.3-4.5-2.8-5.5-5-2.2-4.9,2-12.9-5-18s-11-2.9-14-2.8c-13.5.3-5.8,17.2,4.5,7.8,1,6.9-2.3,6.3-8,6,0,5.3,4.8,1.7,6.4,2.1s1.5,4.5,5.5,2.9c-3.2-3.5.2-15.7-6.3-14.8s-3.9,3.8-6.7,2.8c0-4.9,8.1-4.7,11.3-3.8,7,2.1-1.3,13.7,6.7,15.8.8-3.3-2.8-7.4.5-10l3.5,9.5-2,.5v3.5s-7,1.5-7,1.5c5.9-1,10.4,1.2,16,2ZM259.6,553.5c-2.2-2.1-18.1-1.4-21.3.7-5.8,4-4.5,9.9-4.5,16,4.3-2.2,4.3-6.8,4-11,2-2.6,4.1,5.8,2.5,9l-12.5,9,17-2c-.5-2.7-6.6,1-6-2.5s2.6-4,5-2.5v-14.3s4.5-2.7,4.5-2.7c1.2,1.7-1.2,3.4-1.5,5.5-.4,3,.6,7.3,0,9.8s-2.4,0-2,1.6l11.9-3.1v-2.9s-4.5,1.8-4.5,1.8c-2.1-1-5.4-8-.9-5.8s7.1,6.1,6.5-.4-5.3-3.3-5-4c3.2-5,7.7,3.7,9,2.5-.9-1.2-1.4-3.9-2.2-4.7ZM282.8,562.2c3.9-1.8,8.1-5.2,8-10-1.8.5-8.8,9.1-8,10ZM616.8,572.2c-1.4-9.5-.2-18.9-12.4-20.1s-20.2-1.8-15.5,9c2.1-1.1,1.2-5.2,4-6.5s4.7-.3,6.9.7l.3,13.2c.5,1.9,5.7,3.2,4.8-.3-3.7.3-1.4-6.3-2-9.5s-2.3-2.5-2-4.5c8.6,1,3.1,9.5,5.9,14.4s1.9.5,2.9.7v4.9c.1,0-6.9,1-6.9,1l18,2c-1.4-2.4-5.5-3.1-7.5-5-3.4-3.1-5.3-9.2-2-13,2.5,4.3.4,10.2,5.5,13ZM675.8,569.2v-15c1.9,1,4.3.1,5-2-4.5,0-11.4,0-13.5,5s-.3,6.6-.9,9.3-2.1,1.9-1.6,3.7c5.6-2.5,3.9-7.8,6.5-12,5.2,8.8-4,14.5-10.5,18.5l16-1.5-6-1,2.1-5.9,2.9.9ZM694.8,558.2c-2.8-8.6-14.2-8.6-15.8.8s1,7.6.7,8.6c-.5,1.6-3.2.9-2.9,2.6h5s0-4,0-4c3.1,2.6,5.4,3,8-.5-4.5-.4-10.7,0-6.5-6.5,3.9,7.9,10.6,0,5.5-2.6-.4-1.4-6.8,2.3-4-1,1.4-.5,2.6-1.2,4.1-1,3.4.5,3.1,3.5,5.9,3.5ZM263.8,569.2l5.5-2.9,9.4-11c-7.7,2.5-9.9,8.4-15,14ZM420.8,579.2c.6-.6-5.9-12.8-6.8-14.7-1.8-3.9-.6-7.8-6.2-9.3-2.2,2.9,5.3,25.8,13,24ZM578.6,558.4l-6.8-3.2c-.4,2.3,2.1,3,3,4.5,1.6,2.6-3.5-.6-2,2s8.7,7.2,13,7.5l-7.2-10.7ZM598.8,556.2c-3.6-.6-7,.7-8,4.5,1.9,2.6,4.9,1.4,7.4.6l.6-5.1ZM709.8,556.2c-2.2-2-12.7,12.4-15,14,7.2-1.3,11.4-8.3,15-14ZM154.8,570.2c-2.6-1.7-9.8-15.5-13-13,1.2,2.1,10.5,15.1,13,13ZM449.8,592.2v-6.4c-.1,0-2.5-1.7-2.5-1.7h-44.5c.3,3.2-1.5,9,3,9,.8-.9-1.8-7.1,2-6v6.3s2.5,1.7,2.5,1.7l2-6,1.6,5.9h3.9c0,0,.5-3.9.5-3.9l.5,5,18-1,.5-6c1,0-.4,6.8,3,6s-1.1-6.6,2-8l2,7c2.6-2.2,1.2-6,1.5-9,4.7-.9-.7,7.9,4,7ZM449.8,598.2l-51,.5c12.7,5.9,31.3,6.4,44.9,2.8s5.3-.9,6.2-3.3ZM395.8,607.2l-2.1-1.6c-7.2,4-12.2,13.2-6.4,20.6.7-2-.6-4-.6-6.5,0-5.3,3.7-11.3,9.1-12.5ZM463.8,623.2c2.1-7.7-2.4-14.9-9.5-18l-1.5,2,7.4,5.1,3.5,10.9ZM398.8,611.2c.7-1.4,2.4-2.2,2-4-12,0-14.4,15.2-7.5,23-.7-5.6-1.3-13.6,3-18s2.1-.7,2.5-1c-3,5.9-5,10.3-2.5,17s1.7,3.4,4.5,3c-2.3-6.8-1.8-16,5-20-1.5,4.2-4,6.7-4.1,11.5s1.3,11.4,6.1,10.5l-.5-12,3.5,12c-1-8.1-2.8-15.3,4.5-21-.2,4.2-2.7,6.7-2.6,11.5s2.3,10.2,3.8,10.5h5.3c-2.2-4.8-1.3-10.1-.5-15,1.2,0-1,17.3,5.5,15l.5-8,.5,8h5.9c3.1-7.2,3.2-15.2-.9-22,2.5-.5,1.8.5,2.6,1.9,4,6.4,3.6,12.9,3.4,20.1,9.1-3.2,7.2-15.9,2-22,2.1-.5,2.3,1,3.2,2.3,3.5,5.2,3.4,11.7,2.8,17.7,7.5-3,5.9-15.3,2-21,2.2-.4,2.3,1,3.1,2.4,2.3,4.5,2.8,11.8.9,16.5,3.7,3.9,3.6-14.6,2-16,4.7,2.8,2.5,9.4,3,14,1.8-.7,2.7-6.3,2.7-7.8.1-5-5.4-12.8-10.3-13.2s-8.4,1.8-11.9,2c-6.5.4-14.4.5-21,.5s-13.5-1.8-14.8-1.5-1,2-1.7,2.5-1.7.4-2,.5ZM468.8,636.2c-3.4-.8-5,2-7.8,2.7-15.8,4.6-45.2,4.4-61.6,2.1s-13.5-3.9-18.1-3.9-1.6.1-1.5,2c4.2.4,8.5,1.7,12.5,3s3.1,0,3.5,2c-6.4-1-12.9-1.6-18.5-5l-2.5,2c20.5,7.9,46.6,8.4,68.5,7.1,9.5-.6,23.2-2.2,30.5-8.5-2.4-1.8-5,1.2-7.2,1.8-3.9,1-8,1.2-11.8,2.7-.5-3,.8-1.6,2.3-2.1,3.2-1.1,6.6-1.9,9.6-3.4s2.5.2,2-2.4ZM352.8,668.2c5.5-4.9,12.9-8,18.9-12.6s9.2-7.2,8.1-8.4c-6,3.2-11,8.2-16.7,11.8s-20.8,13.7-20.3,1.2l-5,1c-3.6,4.2,14.3,10.7,17,11.5,12.4,3.8,25.6,4.8,38.3,6.6,6-9.2,12.7-18.3,15.7-29.1-1.9-.3-2.7.2-4,1.5-2.1,2-5.7,9.3-8.4,12.6s-10.7,11.2-12.2,11.8-3.8,1-3.3-1.3l20-24.5c-7.5.4-11.9,9.2-17.5,14s-14.2,11.9-20.5,5.5c7-6,16.1-10.9,22-18s2.4-1.6,2-3.5l-29,19.5-5,.5ZM423.8,651.2v17.5c0,.3-.8,4.9-1,6s0,3.1-2,3.5c-2.4-8.8-.3-18.1,0-27h-3.9c0,0-6.2,26.9-6.2,26.9h-3.9c-1.3-1.1,7.9-23,5.5-26.9l-8.3,17.7-8.2,11.3c29,1.8,58.5,1.7,87-4.5,5.8-1.2,28-6.8,29-13,0-2.5-5.3-3-7-3.5l3,3.5c-3.9,5-7.3,3.1-12.3,1.3-9.4-3.5-17.8-12.1-26.7-16.8.3,2.5,4.1,4.9,6.1,6.4,3.4,2.6,21.4,12.9,21.9,14.1s-.1,1.7-1.4,1.4c-11.3-2.6-22.9-14.9-32.6-20.9l1.4,4.1c3,3.9,18.5,13,20.1,15.9s.9,2.6-.5,3.6c-9.2,6.2-24.5-17.1-30.5-20.6s-2.7-1.2-4.6-.9c-.8.6,10.9,15.1,12,16.5,1.6,1.9,7.4,6.7,8,8s-.2,1.7-1.5,1.5c-5.2-.7-17.5-16.4-20.9-21.1s-.5-4.9-6.6-3.9c2,3.3,3.1,7.2,5,10.5s9.3,12.7,10,15-.1,1.7-1.5,1.5c-5.9-1.1-14.6-20.9-14.5-27-1.7,0-2.2-.6-1.8,1.3,1.3,6.7,4.3,13.1,5.8,19.7-5.2-3.9-6-12.8-8.9-18.6s-.9-2.8-3.1-2.4c-.9,1.1,3.2,20.7,3.1,24.5s0,4.7-3.1,4.5c-1.6-9.6-2.4-19.3-2-29h-5ZM370.8,649.2l-27,13c9.6.2,19.9-7.1,27-13ZM480.8,669.2l-24-20c-.4,1.9,1,2.4,2,3.5,4.9,5.9,14.7,14.6,22,16.5ZM504.8,661.2c-9.3-1.3-16.8-7.2-25-11,6.1,6.3,15.5,9.8,23.7,12.8l1.3-1.8ZM383.8,658.2l-11.5,8-2.5,3c1.5,1.3,13.1-8.6,14-11ZM329.8,665.2c-3.8,0-3.6,3.9-2,6.6,3.3,5.4,24.4,11.5,30.9,13.1,37.7,9.3,90.4,9.3,128.2.8,12.2-2.7,29.1-5.8,35.8-17.2l-2.8-3.3c-1.1,4.4-6.8,7.1-10.8,8.8-35.5,15.4-119.2,14.3-156.5,4-7.5-2.1-19.8-5-22.8-12.7ZM318.8,672.2l-.5-2c-7,1.7-25.5,11.8-18.5,20.5s22.3,1.2,24,2.5c-3.1,7.3,4,11.7,10.5,12,3,.1,6.5-1.6,8.9-1.1s.8,5.2,4.5,4.1c-1.4-4.9-.9-7.4,1-12-8.3,3.6-23,11.4-21.8-4.3l6.8-7.7c-10,2-19.4,9.9-30.1,4.6-3.3-6.3,3.8-10.9,8.4-13.8s6.4-2.6,6.7-2.8ZM525.8,693.2c31.7,8.5,31.6-14.2,5.5-23-2,1.6-.2,1.6.8,2.2,3.8,2.4,9.3,3.8,12.2,7.8s3.5,6.9.8,9c-9,7.2-26.7-7.2-29.3-5,2,6.3,10,6.6,5,14.6-2.7,4.3-11.5,2.3-15.3.2s-8.6-9-9.7-7.8c1.2,5.8,8.5,10.6,5,17l3.6-1c-2.2-5.4,4.4-1.8,8.9-2,7.6-.2,14.3-3.4,12.5-12.1ZM319.8,677.2l-.5-2c-4.8,2.4-8.3,5.1-11.5,9.5,2.2,5.9,19.9-1.9,17-4.5l-13,3c.4-3.1,7.3-5.2,8-6ZM522.8,682.2c15.1,8.6,28.7,4.6,7.5-7-2.1,1.6,0,1.7.8,2.3,2.1,1.8,5.4,3.1,6.7,5.7-4.8,0-11.3-6.3-15-1ZM293.8,680.2c-1.4-1.5-9,6.9-8.9,10.5s7.3,10.9,10.6,13.3c31.7,23.2,119,28.1,157.8,25.2s91.1-10.6,107-31,2.5-15.5-6.5-19c15.1,17.1-15.6,26-28,29.5-52.3,14.5-123.9,13.9-177.4,5.4s-49-9.5-56.1-20.9c-4.4-7,2.4-12,1.4-12.9ZM346.8,689.2c-5.9-1.2-13.9-.9-15,6.5,3.1,5.8,17-4.6,15-6.5ZM515.6,691.4c-1-1-11.1-2.8-11.8-2.2.7,9.6,19.4,9.5,11.8,2.2ZM356.9,694.1c-.5-.4-.5-3.4-2.6-2.9-4.2,5.3-3,16.7,5,16.8s13.9-6.8,20.5-10.8c0,4.2-4.2,5.7-2.8,10.3s5.4,6.1,6.8,4.7c-2.1-5.6-2.6-10.1-1-16-2.5,1.8-3.6-.7-5.6-1-6.5-1-10.9,3-16.4,5,4.7-13.1-2.2-5-3.9-6.1ZM469.8,699.2c6.7,2.3,16.1,13,23.9,7.4s.6-16.1-5.9-14.4l2,8c-8.6,1.3-12.3-8.3-21-4-.3,1.2.8,2.2,1,3-.7-.3-3.7-1.3-4-1v13c7.2,0,5-7.2,4-12ZM393.6,698.4c-.6-.6-6-1.6-6.7-1.1-3.2,8,.4,15,9.4,15,9.3,0,15.4-6.5,22-11.9l6,7.8,4.7-6.8,2.3-.2c4.6,2.2,6.4,6.6,11.2,8.9,10.8,5.3,20.9,1.3,21.1-11.4l-2.1-1.4-5.6,1-.5,5c-8.9,3.9-11.2-5.4-20.1-5.1s-14.1.2-20.8.5c-6.5.2-7.3,2.3-12.2,5.6l1.5-6h-7s2.5,5,2.5,5c-6.6,1.6-4-3-5.7-4.8ZM452.8,698.2l-8,.5c2.2,4.3,9,7.1,8-.5ZM432.8,707.2l-8.5,6-7-6-8.5,8,30-1-6-7ZM480.8,712.2c-2.4-3.2-7.3-5.8-10-1.5,0,2.2,8.3,1.4,10,1.5ZM559.8,708.2c-4.1,1.5-7.3,4.3-11.3,6.2-53.9,24.7-172.2,22.5-228.9,6.5l-25.8-9.2c18.9,11.7,41.9,17.6,63.8,21.2,52,8.7,114.6,7.8,165.4-7,12.5-3.6,27.1-8.9,36.8-17.7Z"/>
      </g>
    </g>
    <g>
      <path d="M289.8,483.2c-4.7,3.4-10.1.9-14.9,2.6s-15.1,13.2-19.7,16.3c-35.9,24.1-73.7,17.3-105.8-8.8s-6-8-10.5-8l7.5,8c32,29.9,72.9,37.2,109.8,10.9,6.6-4.7,12.6-12,18.6-16.4s2.1-1.9,4-1.4c-12.6,15.4-29.8,30.3-49.8,34.7-24.1,5.2-51.1.2-71.1-14.3-6.9-5-13.8-14.7-19.6-18.4s-8.2-1.8-10.4-5.6c12.9-24.4,34-50,62.2-56.5,46.6-10.7,78.9,19.2,99.6,57.1ZM140.8,474.2c2.5-.4,18.5-15.4,23.1-18.4,27.6-18.1,62.3-18.8,89.8,0s8.4,7.9,9.6,8.4,1.6.3,1.5-.5c-6.4-7.6-15.2-12.2-23.3-17.7s-3.1-2-.2-1.8c7.2,3.9,13.6,7.9,20,13s15.1,13,16.6,15.5-.1,3.1,0,3.4,6.2,3.6,6.8,3.1c-23.3-32.5-54.5-61.6-97.8-47.3-24.5,8.1-40.1,28.1-55.2,47.8,3.2.9,6.9-3.5,9-5.5-.6,0-2,.3-2-.5,13.4-13.7,27.3-28.8,47-32.5l-13.7,6.8c-12.2,6.6-21.4,16.9-31.3,26.2ZM216.6,453.4c-11.5,2.5-6.4,20.3,6.2,13.2s2.9-15.2-6.2-13.2ZM178.8,458.2c-1.2-1.2-22.7,14.8-22.9,18.4-1,16.3,32.8,27.4,45.4,28.6s32.9-3.2,45.8-11.2c4.7-2.9,17-12.5,14.2-18.8s-22.6-18.2-23.5-17c12.9,55.2-72.5,54.7-59,0ZM193.8,460.2c-3,0-1.9,3.3-6,2v4s-3-1-3-1l-1,8,1.5-5.1,4.5-.9.5-4,2.5,2,1-5ZM226,471c-.6-.4-.6-2.8-2.1-2.8,1.4,23.2-28.9,24-32.6,1.9h-4.4c0,2.8-1,4.7,2,5.6l-3,1.5-1-3c-1,10.6,11,20.1,21,20v-5c-1.1-1.1-6.1,1.4-5-2l7,1v7c6.7-.6,10.9-2.3,16-6.5s1.4-2.5,2.5-3.6,2.8-.6,3.6-1.6c1.9-2.6,2.7-9,2.9-12.3-1.5-.9-6.6,0-6.8-.2ZM142.8,485.2c7,4.2,12.8,10.5,19.7,14.8,37.4,23.6,81.4,16.7,109.3-17.3l-4-2.5c1.5,4.4-.6,5.3-3.5,8-30.6,27.7-72,27-105.8,5.8-3.9-2.4-8.1-7-12-9.1s-3.9-1.8-3.7.2Z"/>
      <path d="M195.8,567.2c3.7,1.4,4.8,2.8,9,1l2,7c-5,1.1-10.1.1-13.4-4.1s-.9-7.1.9-4-.9,3.9,1,4,.3-3.8.5-4Z"/>
      <path d="M215.8,552.2c.3,1.6-2.9,1.3-3,2.5s2.1,3.5,3.9,2.4l1.1-3.9,3,2.5-3,.5,1.5,7c-1.7-.7-2-4.4-2.7-4.8-1.4-.9-4.3,1.3-4.6-2.9s1.2-3.5,3.8-3.2Z"/>
      <path d="M222.8,568.2c-1.2,5.9-7.3,9.5-13,7,1.3-3.5,4.1-.2,7-1.5s2.8-5.7,6-5.5Z"/>
      <path d="M200.8,557.2c2.3,2.7-6.6,6.8-9,6l1.5-5c.8.9,1.5,1.8,2.8,1.8,2.1,0,3.3-4.4,4.7-2.8Z"/>
    </g>
  </g>
</svg>