<?xml version="1.0" encoding="UTF-8"?>
<svg id="Calque_1" xmlns="http://www.w3.org/2000/svg" version="1.1" viewBox="0 0 403.2 493.8">
  <!-- Generator: Adobe Illustrator 30.0.0, SVG Export Plug-In . SVG Version: 2.1.1 Build 123)  -->
  <g>
    <path d="M57.1,229.1c.1,0,2.3,1.9,2.5-.5s-1.8-7.5-2-10c-1.4-26.8,5.4-53.6,21.7-75-11.2-13.1-12.7-28.2-9.4-44.7s6.1-20.7,11-20.6,14,8.5,20.7,8.8l-8-5c-.4-1.8.9-2.5,2.1-3.4,12.5-10.2,36.4-15,50.9-22.6-2.4-2.9-6-2.9-9-5.5s-5.3-6.2-6-8,1.1-.8,1.7-.8c7.7.7,7.7,4.3,13.5,7.5s15.1,1.8,10.4,13-5.4,7.9-6.3,8.7c-1.6,1.4-27,11.3-29.4,11.7-6.1.8-13.6-7.6-20,2.9,9.1,2.7,9.4,12.1,10.9,20.1l16.8,1.1,6.2,8.3c1.8-3.5.8-9.7-2.6-11.9s-14.1.5-19.4-1.1c0-2.6,5.6.8,4.9-2.4s-10.1-14.2-9.9-15.1c1.1-5.1,12.5,3.7,15.3,3.3l30.8-11.3c.8-10.6,11.2-13,7.8-24.9-1.4-4.2-19.5-5-20.8-12.1,1.2-5.1,25-4.8,29.4-7.6s2.4-5,3.7-7.3c4.1-6.7,14.3-8,16.3-10.7s4.3-15.6,6.5-14c1.9,3.4,2.8,10.9,5,13.5s12,3.5,16.9,11.1c1.4,2.1,1.9,6,3.7,7.3,3.7,2.5,16.1,2,21.5,3.5s5.1,2.6,8,3.6c-.1,7.1-18.5,9-20,11.7s-1.5,9.7-1,11.6,5.3,3.5,6.4,5.8.9,7.3,3,9,15,4.8,18.1,5.9,12.7,5.7,14.2,5.9,9.9-8.3,14.3-5.8c1.3,1.2-7.5,11.3-8.8,13.6s-.9,4.9-2.1,5.9c-4.9,3.8-12.2-2-14.9-.3-2,4-4.2,9.5.4,12.8,1.8-2.1,1.3-7.9,4.2-8.9s4.7.7,6.8.7c3.5-.1,7.6-1.5,11.5-.8-2.3-5.4,1.8-14,4.8-18.7,1.3-2.1,3.3-1.7,3.2-3.7-5.9-8.4-14.4.5-20.2-.7s-26.8-9.9-28.1-10.7-7.3-10.2-7.5-10.8c-.4-1.3-.5-7.7-.1-8.2,4.1-.8,9.1-2.6,12.6-4.9,5-3.2,6-7,13.3-7.2-.3,7.6-8.7,10.6-14,14.5l52.9,24c1.5,1,1.1.9,0,1.9-3.1,2.8-7.9,3-10,6.5,7.8,1.3,21.1-14.7,26.9-7.3,11.8,15.1,11.4,48.4-1.9,62.9,17.8,25,25.2,55,20,85.5h27c1.7-16.8.7-33.4-3.1-49.9-2.3-2-21.9,5.7-24.9-.6,0-3.2,20.9-4.2,21.9-5.5s0-4.6-1.5-4.9-4.1,1.7-6,1.9-10.4,0-11.4-.4c-5.9-8.3-8.3-18-15.9-25.2-.3-1.6,12.7-12.1,15.9-9.8,4.8,3.4-9.5,8.9-10,12.5,5.6,3.1,7.6-2.8,12.9-1.9l9.6,17.9,3.5,1c2.2-2.1-14.2-30.9-16.6-34.9s-8.4-10.9-8.4-11.6v-16.5c55.3,57.3,61.3,149.8,17.2,215.7-59.8,89.4-183.7,106.9-265.7,36.2C5.6,288.1-1.5,173.1,66.6,100.1c-2,5.3,0,12.4-1.2,17.3s-13,19.6-15.9,25.1-9.1,18.7-8.8,20.1,2.6,1.9,3.9,1.5l10-19.5,1.3-.3c1.7.1,8.7,6.2,9.7,2.4,0-6.3-11.5-5.4-8-12.5,1.3-1,12.7,7,14,8.5,2.9,3.4-2,5.3-3.8,8.1s-9.1,19.5-10.3,20.2l-18.8-2.8-1.1,5,20.4,4c1.1-.1.8,2.1.6,2.5-2,4.6-21.1-2.8-23.1,0-4.9,16.1-3.9,32.8-3.9,49.4,8.5.1,17-.2,25.5,0ZM193.6,20.1c-4.6-.8-16.8,4.1-16,9.5s6.1-3.2,6.5-3.5c3-2.3,7.4-2.8,9.5-6ZM216.6,31.1c.7-8.9-10-10.9-17-11-.5,2.6.5,1.8,2,2.5,2.4,1.1,5.1,1.3,7.4,2.7s6.6,7.1,7.6,5.9ZM229.6,43.1c-20.6-6.7-43.7-7.1-64,.5,9.6.3,20-2.4,29.5-2.5s21.2,1.7,31.5,2.5,3.2,1.5,3-.5ZM212.5,48.3c-.4-.4-4.7-1.6-4.7.5-.3,3.8-1.2,8,2.4,10.4,3.6.7,2.8-10.4,2.4-10.9ZM187.6,48.1l-5.6.9-.4,10.1,5.6-.9.4-10.1ZM221.6,49.1c.6,3.4-2.5,7.6,0,10.6,5.9,4.6,5.5-3.6,4.9-8l-4.9-2.6ZM173.6,50.1c-7.1-1.4-7.3,4.4-5.1,9.6l5.1.4v-10ZM213.6,85.1c2.7-13.6-6.5-18.7-15.6-25.9-8.9,5-18.7,14.5-15.9,25.9,10.2-15.8,21.1-15,31.5,0ZM178.6,65.1l-16,1v3c.5.5,13.4-1.2,14.8-1.7s1.5-.3,1.2-2.3ZM232.3,67.4l-15.8-2.2c0,4.6,5.5,2.5,8.4,3.1s6.4,1.5,8.1,4.9c1.1-.8-.3-5.3-.7-5.7ZM196.3,82.3c-1.9.4-5.6,2.2-5.8,4.3.8,11.6-1.1,24.6,0,36.1s1.4,7.6,6.6,7.6c12.9,0,5.9-22.2,6.5-29.7s5.4-12.8-1-16.9-3.5-1.9-6.2-1.4ZM105.6,104.1c1.3-9.6-14-10.1-20-15.6-6.8-1.1-7.5,26.3-6.9,31s5.4,16.9,9.4,18.6c3.5,1.5-.7-5.2-1-6-2.6-7.9-5.9-22.7-2.3-30.2s19.3,3.8,20.8,2.3ZM297.6,144.1c15.1-5.3,20.7-21.4,19.9-36.4s-2.6-18.7-6.5-19.5c-5.6,4.1-21.6,6.7-19.9,14.8,4-2.1,14.4-6.9,18.1-4.1,6.7,12.5,2.5,29.4-6.1,40.1,1-12.5-5-22-18.5-19.5-8.5,1.6-23.9,6.6-25.7,16.3-2.4,13.1,3.4,16.5,10.7,24.8s3.8,7.7,7.5,8.5,7.4.4,8.3-2.7c2.1-7.5-5.6-7.1-9.8-9.8-11.7-7.6-9.5-23.5,2.2-29.7s27,1.9,19.7,17.2ZM185.6,89.1l-3.1.6-.9,6.4h4s0-7,0-7ZM230.9,110.8c-3.1-3.5,3.3-9.6,3.7-14.3.9-10.8-15.4,1.9-18.4,1.7s-1-8.4-6.5-8.1c0,4.5-.3,11.9,5.1,12.5.5,4.6-2.5,8.3-3.6,12.4s-2.1,13.9-4,17c-3.2,5-15.5,5.1-19.4.5-1.5-8.4-4.4-16.2-6.7-24.3s-.2-4.6-1-7c-1.4-4.3-13.7-9.3-18.4-8-1.3,9,10.7,16.1-2.3,21.2-5.7,2.3-8.2.6-13.7.3,7.4,7.6,19.4,3.6,26.9-2-1.6-3.9-5.5-6.9-4.9-11.5,7-1.7,11.3,7.5,13.5,13s3.6,19.7,5.8,21.7c3.5,3.3,19.3,3.8,22.2-1.8.7-6.8,8.3-38.2,18-35.9,5.8,3.1-5.9,12.7-4.4,14.9,8.3,5.5,19.1,7.9,26.9,1.1-6.2.6-13.9,2.2-18.7-3.3ZM96.9,116.5c12.9-11.7,19.2,4.3,28.9,1.4,3.7-1.1,2.6-4.5-.7-5.9-6-2.6-20.3-2.6-26.3-.1s-6.4,5.5-4.8,8.2c1.4-.8,1.8-2.7,2.9-3.6ZM302.6,119.1c.9-1.1-2.3-5.2-3.6-5.9s-12.2-3.8-13.1-3.9c-2.9-.3-19.2,3.8-19.3,6.3,4.1,6.6,9.4.6,14.7-1.3,10.9-3.9,12.5-1.8,21.3,4.8ZM125.6,176.1c3.4-1.8,4.1-6.1,6.6-8.9,6.4-7.4,14.7-10.7,16.3-22.7s-2.2-20.9-13.6-27.3l-4.3,3.4c1.6,1.9,4.2,1.4,6.4,2.6,10.4,5.8,9,23.1,3.1,31.8s-16.8,9.9-14.4,21.1ZM263.6,122.1c-1-7.3-9-1.8-12,1.5-9.1,10-5.3,25.8,2.6,35.4l15.4,16.1c1.8-9.6-8.6-13-13.4-19.1-8.3-10.4-8.7-32,7.4-33.9ZM97.6,144.1c-11.6-32.1,39.5-20.8,28.2,5.7-3.6,8.5-15.4,8.5-16.2,12.8-1.2,6.5,5.4,9.9,10.5,5.5s11.6-13.6,12.7-15.3c5.6-8.9,6.3-22.8-4.8-27.6s-21.1-6.6-24.7-5.9c-12.1,2.3-14.8,17.6-5.8,24.8ZM160.6,130.1v27.5c0,4,7.6,21.3,14,19-7.1-11.4-11.2-24.2-11.3-37.7l-2.7-8.8ZM234.6,156.6c1.1-8-.8-18.2,0-26.5-1.8.6-2.5,5.2-2.7,6.8-2.2,15-2.2,29-13.3,41.2,8.7-.8,15-14,16-21.5ZM207.6,141.1c-1.1-.4-2.2,1-2.5,1h-16c-.3,0-.8-1.3-1.5-1v16.5c0,4.2,20,5.7,20,0v-16.5ZM60.6,152.1l-4.9-.9c-1.6,3.7-4.4,7.1-5.4,11.1s-1.1,1.4.8,2.7c5.2,1.4,7.8-9.3,9.5-13ZM345.6,165.1c-1.9-5.3-3.7-15.7-11-14,2.7,4.8,4.4,10.3,8,14.5l3-.6ZM97.6,157.1c-2.7.7-10.6-5-12-1.5,3.7,1.7,12.3,9.6,12,1.5ZM309.6,156.1c-1-4.5-13,1.6-13,2.5l3.3,2.3,9.7-4.8ZM101.2,198.5c-3.6-3.9-11.8-7-15.1-11.4s-5.2-15.4-6.6-21.9c-1.9-1.9-8.1,20-8.5,22-2.8,13.3-3.3,26.8-1.2,40.2.6,3.5,5,21.8,7.3,22.7,5.9,2,14.3-5.2,8.8-10.8l-7.4,2.9-.6-4c2-3.2,19.8-4.5,22.6-10-8.4,0-16.2,3.4-24.9,1.9-.7-5.2-8-28.4,2.9-21.2-.7,6.3-1.8,10.2.3,16.5s.2,3,1.7,2.8c-1.6-5-1.6-18.2,4.7-19.8,6.6-1.7-.8,9.8,4.3,12.4,9.9,4.9,20.9-12,11.7-22.2ZM154.7,168.1c0-1.7-1.4-3.1-3.1-3.1s-3.1,1.4-3.1,3.1,1.4,3.1,3.1,3.1,3.1-1.4,3.1-3.1ZM246.5,168.6c0-1.9-1.5-3.4-3.4-3.4s-3.4,1.5-3.4,3.4,1.5,3.4,3.4,3.4,3.4-1.5,3.4-3.4ZM308.6,239.1l.9,8.6c2.4,2.3,5.9,3.3,9.1,1.9,13.3-26.5,9.5-57.8-1-84.5-1.5-1.2-4.8,14.5-5.5,16-5.9,13.6-25.2,15.3-21.3,32.3,1.3,5.9,11.7,10.2,16.3,5.8s-2.1-7.1-.5-11c-5.7-.2-5.3,4.5-3,8.5-.8,4.1-12.4-.3-10.8-8.7s18.7-12.9,24.8-20.3l-3-2c.2-.4,2.3-7.8,3.5-4.5s3.5,15.1,2.3,19.3-6.8,6.3-9.8,6.7c2.6,7.2,7.2,12.7,4.5,21l-1.5,1.5-20-1.5c2.1,4.8,22.8,7.6,23.9,9.1,1.4,10.3-6.9-.1-8.9,1.9ZM206.6,167.1h-19c2.3,4.1,10.4,3.4,14.6,3.1s4.7.1,4.4-3.1ZM305.6,168.1c-11,.7-18.7,12.6-30.5,9.3l-1.4,2.7c11.2,3.8,25.5-2.9,32-12ZM121.6,180.1c-.1-4.8-3.8-1.7-6.4-1.9-9.8-.9-14.4-8.4-23.5-9,7.1,9.4,18.1,14.8,30,11ZM207.6,172.1l-19,1c.2,13.7,18.2,11.4,19-1ZM156.3,186.4c-7.4-1.6-9.6-7.5-13.8-11.7s-4,1.8-3.6,4.5c1.3,8.2,14.3,13.6,20.6,18l-3.2-10.8ZM233.6,198.1l18-11.5c3.5-4.3,5.3-8,3-13.5-2.9,2.1-3.8,5.5-6.5,8s-9.3,4.9-10,6c-1.4,2.3-1,8.4-4.5,11ZM181.6,192.1c1.8-1.9-15.3-15.8-17.8-7.3s3.2,9.6,4.8,14.3c1.9-.5.6-3.8,1.5-6,2-4.4,8.3-3.4,11.5-1ZM223.6,199.1c2.6,2.2,12.3-14.8,6.4-16.9s-11.1,4.3-14.4,7.4c7.2.2,11.3,1.6,8,9.5ZM187.6,204.1c8.1-2.6-1.9-23-5-20,4.3,5.7,5.6,12.9,5,20ZM213.6,184.1c-7,2.2-11.8,13.2-6.5,19,.8-4.1,1-8.4,2.7-12.3s3.3-4,3.8-6.7ZM200.6,189.1h-6s-.7,13.5-.7,13.5l1.4,1.3h5.4c-.6-5.2-1.3-9.5,0-14.9ZM117.3,198.4l-11.7-5.8c8.3,5.4,7.3,13.7,10.5,21.5,5,12.2,18.4,20.2,31.5,16l-11.3-4.1c-7.6-3.2-11.6-7.6-14.8-15.2s-2.4-10.4-4.1-12.4ZM289.6,192.1c-.7-.6-10.8,5.3-11.9,6.6-2.9,3.4-2.9,9.2-4.6,13.4-4.7,11.2-16,16-27.5,16.5,13,8,29.2-3.1,34.2-15.8,2.9-7.5,2.6-14.9,9.8-20.7ZM154.6,221.1c-6,.5-14.6-3.8-17.2-9.3s-1-7.6-3.9-11.1-3.3-3.6-4.4-1.7c-2,7.9,5.7,19.2,12.8,22.2s10.3,3.4,12.7-.2ZM265.6,199.1c-3.4-3.3-6.4,10.4-7.3,12.2-2.1,4.4-5.4,6.3-9.7,8.3l-9,2.5c14.4,4.3,27.7-8.5,26-23ZM229.6,201.1c-1.1-.9-14.1,7.4-12,10,1-1.2,13-9.1,12-10ZM165.6,214.1c1.2-1.5-26.1-22.7-21.7-3.7,2,8.5,15.8,6.9,21.7,3.7ZM229.6,214.1c10,4.5,23.6,4.7,20.6-10.1-3.5-5.1-16.3,5.1-19.3,7.8s-1.9,0-1.3,2.3ZM207.6,209.1h-20.5s-.5,2-.5,2c6.8,3.4,12.1,4.3,19,.5s2.5,0,2-2.5ZM182.6,215.1l.2,11.3c7.8,6.9,21.4,7.8,28.6,0l1.2-12.3c-4.4,2.2-8.4,4.8-13.5,5.1s-11.1-1.6-16.5-4ZM300.3,238.4c-.9-.9-8.7-4.8-11.1-6.4s-5.2-6.9-7.7-3.3c-1.2,4.6,15.8,11.8,18.5,15.5,2.2-1.2,1.6-4.3.2-5.7ZM94.6,243.1c.6.6,14.1-5.4,15.3-6.2,1.8-1.2,6.2-4.9,5.7-7.3s-1.7-2-2.7-.7c-3.4,4.3-14.9,6.9-17.7,10.1s-1,3.7-.6,4.1ZM236.3,241.5c-11.4-7.7-18.9,9.3-6.2,10.6s14.8-4.3,17.2-11.6c-8.2-8.3-22.9-15.4-31.1-3.4s-3.4,10.7-7.2,12.8-16.2,1.6-19.8,1c-10.4-1.6-6.4-15.4-17.4-19.6s-18.2,2.1-22.8,7.6,5.4,12.3,10.1,13c17.8,2.6,11.8-16.5,1.7-12.2s-6.6,6.3-6.2.9,10.9-7.3,15.9-5.1c10.3,4.4,5.8,19.1,19.6,19.4s10.4,0,13.7-.2c12.6-.7,9.6-9.9,15.2-15.8s22.6-5.6,20.5,2.4-3,.2-3.2,0ZM213.6,232.1c-4.1,1.5-11.5,6.7-15.6,7-5.7.4-11.7-5.3-16-7s2,5.9,2.4,6.6c1.2,2.1,1,5.8,3.1,6.9s5.7,1.1,6,0c.8-3-7.3-.5-6-4.5,7.1,1.2,12.6,1.2,19.5-1,1.2,4.3-4.7,4.3-7.5,4,7.7,6.2,7.6-.8,9.8-4.7.7-1.3,5-6.5,4.2-7.3ZM289.6,241.1c-3.9,1.2-14.5-11.9-16-6.5.4,5.4,8,7.3,12.5,7.5s3.8.7,3.5-1ZM109.6,242.1c3.6,1.3,13.9-2,13-6.5s-6.1,2.3-7.1,2.9c-1.9,1.3-5,1.7-5.9,3.6ZM32.6,236.1c2.3,18.8,5.8,38.8,15.7,54.9l22.4-11.4c1.4-1,1-2.3.8-3.7-1-7.1-4.1-18.8-6.1-26s-3.2-9.6-4.7-14.3l-28.1.6ZM336.2,235.3c-1.6.5-4.6,11.1-5.3,13.7-2.8,9.5-4.6,19.9-7.2,29.6l23.4,13.6c9.9-16.2,13.6-35.9,16.2-54.5l-2.2-1.5-24.9-.9ZM129.7,260h4.3c3.9-1.3.9-17.1-2.9-17.9-5.6-1.2-2.5,15.1-1.4,17.9ZM266.6,242.1c-6.7-1.3-9.2,16.7-5.4,17.9,7,2.3,7.1-13.7,5.4-17.9ZM129.7,265.3c-4.4,28.1-44,17.3-32.6-8.1,1.9-4.2,6.5-5.6,7.5-10-12.1,5.2-21,7.2-18,23-4.5-2.6-2.7-8.7-3-13-5.3.4-2.8,10-1.9,13.4,2.5,10.1,14.2,21,24.5,22.5,23.6,3.3,37.9-17,35.4-38.9l-5.3,21.2c-7.2,15.2-30.3,19.7-40.7,5.8,3.7,1.1,7.6,4.3,11.6,4.9,14.5,2.2,27-5.9,27.4-20.9h-4.9ZM308.6,266.1c2-12.7-8.3-14.2-17.5-18l6,8c12.7,26.7-26.9,38.1-30.6,9.1l-4,.4c-2.7,4.5.5,10,3.6,13.6,7.8,9.1,19,7.9,29.5,5-1,1.8-4.6,3.5-6.4,4.1-16.5,5.4-28.7-4.5-33.1-20l-2.4-15c-1.3,12.7,3.1,29.1,14.7,35.8,18.7,10.9,42.3-.4,46.2-21.4s2.3-11.9-3.9-9.9c-.2,2.4.8,7.3-2,8.5ZM210.8,263.4c-.7.8-.2,2.9-1.8,3.7-3.5-4.7-9.5-4.6-14.9-3.9s-7.6,2.8-8,2.8c-1.3-.2-2.9-3.6-6.1-3.7s-4.4,1.4-6.5.9c-.8,11.3,4,6.7,10.5,6.9,9.6.2,16.3.4,26,0s7.6,2.9,11-.9c3.3-5.4-7.5-9-10.3-5.7ZM240.6,262.1c-2-.3-1.6-.2-2.3,1.3-1.6,3.6,3.7,12.8,4.3,18.2,1.5,15.2-3.2,31.9-15.6,41.3-3.9,2.9-19.4,10.6-23.8,10.2s-2.9-11.2-3.5-15h-3c-.4,3.6,1.6,14.4-3.5,15s-19.8-6.6-24.5-10.5c-12.8-10.8-17.8-25.3-15.9-41.9s4.6-11.4,3.9-17.6c-2.8-.5-1.6.7-2.2,2.2-15.8,39.5,6.9,75.1,50.6,70.7,25.7-2.6,42.9-23.6,41.6-49.4-.4-8.5-4.6-16.2-6-24.5ZM162.2,263.3c-.6.2-2.1,1.2-1.1,1.9,3.2,4.6,11,6.2,7.6-1.5-1.1-.8-5-.7-6.4-.3ZM231.6,263.1h-6s0,6,0,6c4,.1,6.8-1.7,6-6ZM237.6,275.1l-2-8c-2.6.2-1.6,4.5-2,5h-6c0,0,3,14,3,14l9-1.5-7-2.5,6-1v-4c-2.9.5-6.6,2.5-9-.5,2-2.5,5.3-1.3,8-1.5ZM160.6,269.1l-2,.6-1,5.4h6s0,3,0,3l-7-1v3s7,1.5,7,1.5c-2.4,3.7-7.2-1.9-8,3,1.8,2.7,4.3.6,6.7,1.3l1.2,2.3h-8s0,5,0,5c.8.8,9.9-3.7,9,1-3.6,0-9.3.6-8,5.5s8.4-6.1,9,0c-9.1,3.2-8.4,13.7.2,4.7,2.9-1,4.3,1,3.8,3.8-6.4.2-10.9,4.9-2.7,6.9,2.3-.6,4-6,7.7-4.9l-6,10,4,.6,5.5-6.5c3.3,2.6-3.2,5.8-2.6,9.4l4.6,2.6c2.5.3.1-2.8.7-5.2s1.3-2.8,2.3-3.7c2.3-.4,1.4.8,1.3,2.2s-2.7,6.9-.3,7.7c5,1.7,1.5-8.6,6.5-8l-1,9.5c5.9,2.3,3.7-6.6,4-10.5-21.6-2-34.7-26.4-26-46-2.6,0-7,.5-7-3ZM172.6,273.1c-2.7-.9-3.5,5.1-3.7,6.8-6.4,50.5,71.6,41.5,56.2-4.8-.6-1.7,0-2.4-2.5-2,5.9,22.6-8.2,44.6-33,37.5-17.7-5.1-20-21.4-17-37.5ZM227.6,381.1c42.1-5,80.2-30.9,104.8-64.7,2.1-2.8,10.8-14.6,11-17s-.9-2-1.9-2.8c-1.6-1.3-18.7-10.8-19.9-11.1-3.2-.8-4.2,3.6-6.5,5.6-13.4,12.3-15,14.8-25.7,29.3-42.7,57.9-132,60.8-178.8,6.2-6.7-7.8-11.3-19.2-18-26s-8.8-6.3-12.5-9.5-2-5.6-6.8-4.8-19.7,10.6-20.3,11.8,0,1.7.3,2.7c1.8,4.7,12.6,19.2,16.3,23.8,18.5,23.2,46.9,42.8,75.2,51.8s12.8,4,18.4,4.6,3.6.9,3.4-.9c-12.4-2.5-25.8-6.8-37-12.5s-2.8-.9-3-2.5c15.8,3.6,30.7,10.5,47,12.5,1.1.1,3.2,1.4,3-.5-22.5-4.8-46.7-11.7-65-26,5.5,1.5,10.2,5,15.5,7,41.9,15.8,99.5,16,141.3.2,4.9-1.9,9.4-4.2,14.2-6.3-2.2,3-6.9,5.3-10.3,7.2-15.4,8.3-33.4,14.2-50.7,16.8,0,2,4,.9,5.2.7,13.5-1.7,26.4-7.4,39.8-9.7l-15.5,7-23.5,7ZM239.6,288.1l-9.1-.6c-2.4,16.6-12.2,27.8-28.9,30.6l2,11c9.3-.3,0-6.8,4.5-11,2.8,1.1,2.3,9.8,4.8,8.8l6.6-2.9-5-9,8.4,6.9,2.6-3.4c-1.3-.3-8.6-6.8-4.5-7.5s4,5.2,6,6h1c1.3-2.4,2.4-3.1,5.1-3.9l.3-2.4-5.9-3.6.5,5c-5.7-2.3-3.6-6.2,1-8,1.6,0,6,4.5,7.5,3,2.8-2.9-7.5-6-7-8.5s2.2-1.8,3.4-1.6,2.2,6.3,5.1,3.1c2-4.9-1.3-4.5-4.3-5.8s-2.7.6-2.2-2.3l8,1v-5ZM140.6,303.1l-1.5-8c-5.7,2.3-4.2,8.2,1.5,8ZM255.6,295.1c0,2.9-3.5,6.8-.5,9l5.5-4.5-5-4.5ZM130.5,301.2l-4.8,2.4c1.3,2,6,10,8.4,9.5,5.1-1-3-10.1-3.6-11.9ZM269.6,302.1c-.2-.3-3.8-1.2-5-.6s-6.2,7.2-5.6,8.6c2.9,5.8,11.5-6.7,10.6-8ZM112.6,304.1c-11.7.2,5.1,20.7,8,18-1.9-6.3-11.8-10.6-8-18ZM274.6,324.1c1.4,1.5,9.6-8.4,10.4-10.1,1.4-3,3.1-7.3,0-9.9l-2.2,7.7c-1.1,1.9-10,10.3-8.2,12.3ZM143.6,309.1l-16.9,19.5,4.5,4.5c2.1-4.4,13.4-14,14.4-17.7s-1.9-4.1-1.9-6.3ZM224.6,350.1l-.5-7-4.5-.9c-.3.2,1.2,5.7,1.9,6.6s2.7,1.1,3.1,1.4-.2,2.9,2.4,3c11.3.3,32.4-15.4,41.5-22.1.5-.9.1-2-.4-2.9-3.2-5.9-12.4-11.8-14.5-19l-2,.6c-.3,1.9-2.3,3.6-1.8,5.7.9,3.4,14.2,15,11.4,18.8-5.6,2.2-32.6,17.9-36.6,16ZM128.5,315.2l-7.9-3.1c.6,4,3.7,8.4,7.9,5.9v-2.9ZM263.6,314.1l4.7,4.9,2.3-.4,1.9-2.2c-1.1-4.7-5.4-3.5-8.9-2.4ZM147.1,323.1l-6.4,8.4c1.5,2.1,7.5,6.5,7.5,2.5s-1.3-3.5,2.2-6.4l-3.3-4.5ZM248.6,335.1c2.2.5,4.9-1.1,4.9-3.4-1.9-6.9-6.4-11.3-10-2.5,3.2.3,4.5,3.1,5,6ZM153.6,337.1l1,3.5,8.9,3.1,1.9-1.2c1.5-5.4-3.3-5.7-6.4-8.4s-5.2-6.6-7.5-5.5l6,7-4,1.5ZM243.6,340.1l-3.5-9c-2,2.8-12.6,6.5-11.5,10.5s12-2.4,15-1.5ZM171.7,341.2c-1.6,4.1-1.2,9.3-6.6,9.6l-31.5-16.6c-.4,1.9.9,2.4,2.1,3.4,9.2,8,20.9,12.7,32.6,15.4l1.3-.3c3.3-4,6.1-5.6,5-11.6h-2.9ZM193.6,347.1c-6.3,1.4-7.4,2.9-12.5-2-2.9,2.5-1.2,6.9,0,10,5.9,4,10.4-3,12.5-8ZM214.6,346.1c-3.5-.8-3.6,2.1-5.5,4-1.8.4-3.3-6.5-7.5-1.5l8.5,8.5c2.4-3.2,5.2-6.7,4.5-11Z"/>
    <path d="M356.5,187.2c2.2,1.4.7,29.6,1,34.2-1,3.2-11.8,1-14.9,1.6l-2-35,15.9-.9ZM347.6,193.1v25h7c-.1-5.6-3.1-11.8-2-17.5.5-2.4,4.8-2.6,3-7.5h-8Z"/>
    <path d="M54.6,188.1l-1.1,34.4-1.9,1.2-12.3-.7-1.7-1.3,1-3,9-.5,1.1-24.4-8-.6c-.9,1,7.3,22.4-3,20-.9-.9.7-24,1.4-25.1,1.6-2.3,12.3,1.3,15.6,0Z"/>
    <path d="M327.6,134.1c-1-5.5,3.4-10.3,6-3.5l-6,3.5Z"/>
    <path d="M67.6,308.1c-.9,1-13.1-8.4-5-10.6s4.4,7.9,5,10.6Z"/>
    <path d="M345.5,281.1l-15.9-5,8.7-24c1.7.3,4.7-1.2,4.3,1.5-.5,4.2-6.5,16.1-6.1,18.9l6.1,2.6,7.6-26.1-13.6-3,1-5c3.1,1.2,18.2,1.1,18.9,3.6s-9.5,35.2-11,36.3Z"/>
    <path d="M45.6,248.2c-2,2.1,6.7,22.2,7.5,26,.9,1.6,6.4-1.1,6.6-1.6l-7.1-19.8,5.4-1.6,7.5,25-13.6,5c-.9.3-1.2-.3-1.8-.8-1.4-1.3-11.6-33.7-11.3-35.6.4-1.2,1.3-1.1,2.3-1.4,1.8-.5,13.5-2.2,14.9-2s2.5,1.4,3.5,2.5c.8,3.6-11.7,4-14,4.5Z"/>
    <path d="M320.6,231.1c-2-.4-1.7-2.1-2-3.5-1.1-5.6-.5-11.5-1.9-17.1,1.2-4.2,5.3-5.3,6,0s-1.3,14-2.1,20.5Z"/>
    <path d="M80.4,187l-1.8.7c5.4,6.7,20.9,9.1,22.8,18.2s-1.6,13-9.8,12.3c3.4-12.9-2.6-9.9-10.7-12.8s-4.8-16.4-3.3-24.2l2.8,5.8Z"/>
  </g>
  <path d="M403.2,405.3l-10.3,6.7c-21.4,4.7-44.2,2.4-66.2,2.8-78.9,1.4-158,1.1-236.9,0-22.3-.3-55.9,2.9-76.6-1.4-5.1-1-7.8-5.8-12.9-6.6"/>
  <path d="M8.2,407.8c17.9,3.5,36.4,1.6,54.5,2,93,1.9,186.9,1.8,279.9,0,7-.1,49.3,1.2,51.5-2"/>
  <path d="M10.2,467.8l-.5,9c12.4-3.5,25.3-3.4,38-4,86.8-4.6,175.9-2.8,263-.9,27.4.6,55.2-1.1,82,5l.5-9c3.8,0,7.6-1.1,10,2.5-7.4,3.6-3.2,8.1-6.4,13.3-8.5-2.3-17.4-3.7-26.2-4.7-28.6-3.3-56.3-3.4-84.9-4.1s-39-2.7-57.9-1c-6.6.6-12.9,2.8-18.5,6.5l-8.5,13.4c-3.5-9.3-4.9-13.8-14.5-17.5-15.4-5.9-57.2-2-75.4-1.5-35.3,1-71,.9-105.5,9-.5-.7-.6-7.7-1.2-9.3s-4.9-2-3.8-5.7l10-1ZM215.2,473.8c-8.5,1.7-16.7,0-25,.5l11.5,6.5,13.5-7Z"/>
  <path d="M158.2,444.8l8.5,13,12.6-31.8,6.2-.2,13.7,35-8.1-.4-2.4-8.6-12.6-.5-1.9,8.5c-4.1.3-8,1.8-12.3.8-6.6-1.5-7.9-13.6-13.2-13.8s-1.3,0-1.5,1.5c-.6,3.6.1,8,1,11.5l-8,1c1.3-11.5,1.8-23.5,0-35,6.6,0,11.3-1.7,17.7.8s8.6,15,.3,18.2ZM147.2,441.8c14,2.4,14-13.4,0-11v11ZM183.2,434.8c-2.6-.4-1.6.2-2.1,1.4s-3.3,9.2-2.9,9.6h9s-4-11-4-11Z"/>
  <path d="M284.2,449.8l9.2-23.8,7.8-1.2c.8,10.1.4,21.6,2,31.5s1,2.2,2,3c0,1.7-7.1,2.5-8.5.5s0-19.8-1.9-23.1c-1.2,0-6.6,19.1-8.2,21.8s-3.7,1.8-5.4.6c-2.4-6.1-4.1-13.3-6.6-19.2s-.5-3-2.3-3.2l-1.1,22.9c-2.1-.4-6.1,2.2-7.5,0,2.9-11,4-22.8,3.9-34,1.1-1.5,6.7-1.6,8.1,0,3.1,3.7,5.7,18.8,8.5,24Z"/>
  <path d="M53.2,460.8l-8.1-.4c-1.9-9.9-5.1-11-15-9.1-1.7,2.4-3.4,5.6-2,8.5l-8,1c1.6-4.5,12-34.5,14-35.5s4.8-1,5.9,1.1l13.1,34.4ZM40.2,445.8c.5-.4-3.8-11.9-5-11l-4,11h9Z"/>
  <path d="M138.2,459.8h-9s-1.1-7.9-1.1-7.9c-3,.4-13.1-1.5-14.2,1.1l-.7,6.8-8,1,13.2-34.8,6.3-.2,13.5,34ZM122.2,434.8c-2.6-.4-1.6.2-2.1,1.4s-3.3,9.2-2.9,9.6h8s-3-11-3-11Z"/>
  <path d="M309.2,427.3c0-.3-1.5-1.1-1-1.5,9.5-2,26.6-2.4,25.9,11.4-.4,8.8-10.5,12.1-17.9,11.6l1,11h-9c-.5-.4,1-1.3,1-1.5,0-9.1,1.2-22.5,0-31ZM316.2,443.8c14,2,14.6-16.3.5-13.1l-.5,13.1Z"/>
  <path d="M55.2,425.8c9.3-2.2,25.7-1.5,25.1,11.5-.4,9.5-10.1,10.9-17.6,11.4l.5,11.1-7.5,1c-2.4-1.5-.5-2.1-.5-2.5v-32.5ZM72,432c-1.8-1.8-7.2-1.1-9.8-1.2l.9,12.6c6.5,2.9,13.7-6.5,8.8-11.3Z"/>
  <path d="M361.2,460.8c1.6-11.6,1.3-23.4,0-35l22-1v7s-14-1-14-1v9s11,0,11,0v6c-9-2.2-13.9-2.7-11.9,8.4,1.3,3.9,12.7.4,15.9-.4l-1,7h-22Z"/>
  <path d="M239.2,427.3c0-.3-1.5-1.1-1-1.5l23-1-1,7-14-1v9s11-1,11-1v6.5s-11-.5-11-.5l.4,10.1c5.1,2.4,11,.9,15.6-2.1l-1,8h-22c-1-10.4,1.4-23.4,0-33.5Z"/>
  <path d="M103.2,425.8l-1,7c-2.7-2.2-12.7-3.9-13.1.5s11.9,6.3,14.1,11.9c4.8,11.8-5,16.9-15.5,15.5-6.9-.9-5.9-3-4.6-8.9,3.3,4.1,15.7,5.6,15.1-1.5s-16-5.8-16.1-15,13-12.2,21-9.5Z"/>
  <path d="M236.2,424.8l-1,7-10-1c-.3,9.7-2.3,19.4,0,29h-8s0-29,0-29l-10,1v-7s29,0,29,0Z"/>
  <path d="M338.7,460.8l-1.1-2,.2-33h7.4c-.6,4.5-2.3,26.6-.6,29.1s11.3,0,13.6-2.1v6.3c-.1,0-1.5,1.7-1.5,1.7h-18Z"/>
</svg>