<?xml version="1.0" encoding="UTF-8"?>
<svg id="Calque_1" xmlns="http://www.w3.org/2000/svg" version="1.1" viewBox="0 0 735.9 1236.5">
  <!-- Generator: Adobe Illustrator 30.0.0, SVG Export Plug-In . SVG Version: 2.1.1 Build 123)  -->
  <path d="M558.6,559.4c15.6,2.4,29.1,5.1,40,17.5,3.9,4.5,12.2,18.3,12.9,24.1s-5.1,15.8-12.4,15.4c-19.5-.9-37.2-25.4-39.4-43.6s.8-9.2-1.1-13.4ZM562.6,562.4c0,19.8,8.1,38.2,26.6,46.9,6.9,3.2,10.9,5.3,15.8-1.9,5.3-7.8-1.2-17.2-6-23.8-9.8-13.6-20.4-17.4-36.4-21.1Z"/>
  <path d="M586.6,602.4c3.7.9,7.2,2.7,11,3.5s3.4,1.6,3-1c-6.5-3.3-13.2-4-18.9-9.1-7.7-6.9-19.1-30.1.9-20.9s26.9,23.5,18.4,34.4c-5.3-.2-11.5-2-14.4-6.9ZM599.6,600.4c-.7-7.8-8.3-17.8-15.1-21.4-13.8-7.3-9.3,5.9-3.3,12.3s12.2,8.2,18.4,9.1Z"/>
  <path d="M399.6,728.4c3.5,6.3,4.6,13.4,4,20.5s-5.3,16.1-5,18.9,3.8,5.2,4.6,8.5,0,7.9.9,12.1c1.4,6,10,6.1,14,11s2.4,10.4,2,16c7.9,4.3,17.5,7,18.6,17.5s-1.2,24.4-2.1,30.9-4.5,8.3-4.7,10.2c-.4,4.1,7.1,9.6,4.1,21.2-3.9,14.9-17.3,8.8-22.9,16.1s-4.6,22,6.2,23c7.5.7,12.7-4.5,18.7-6.8,4,2.8,7.1,7.3,6.8,12.4-17.1,74.9-32.2,150.4-52.6,224.5-2.5,9.1-19.3,68.9-23.5,71.5s-3,.9-3.9.3c-1.4-.8-10.2-26.4-11.4-30.1-5.5-17-10.1-35.9-14.6-53.4-18.5-70.9-33.4-142.7-49.7-214.1.3-5.6,4.6-8.7,8.2-12.3,9.8,12.3,31.6,10.2,27.1-9.1-3-12.7-13.8-8.2-20.5-13.5s-7-12.9-5.8-19.7c.5-3.1,4.4-8.5,4.4-9.2,0-1.6-5.2-9.1-5.6-13.1s.2-14.1-.3-19.7-1.9-4-1.8-7.2c.3-11,12.2-15.3,19.5-20.5-1.2-6.7-2.3-9.2,2.1-15s7.1-4,10.9-7.1c6.1-4.7,2.1-9,2.9-14s5.5-8.3,5.6-10.5-3.8-9.6-4.5-12.5c-2.4-10.3,0-18.1,2.5-28-52.1-3.8-104.5-22-149.7-47.8C-43.8,549.2-63.5,236.3,144.2,76.4c252-194.1,616,6.6,590.5,321.5-6.3,77.1-42,152.9-92.8,210.2,7.8,11.7,12,28.8,9.8,42.8s-27.1,7.1-35.2,4.3c-5.8-2-10.5-6.2-16.1-8.6-58.4,44.6-126.9,74.7-200.7,81.8ZM365.6,7.4c-10.6,1.6-21.7,1-32.5,2C125.9,28.3-29.1,230.9,13.9,436.6c32.2,153.9,169.3,272.2,325.7,283.8-.2-3.6,1.5-8.2-2.9-9.6-152.9-14.8-284.4-130.4-312.8-282.2C-12.3,234.7,127.4,44.2,322.3,19.5c5.9-.7,35.1-1.8,37.1-3.4s4.2-6.8,6.3-8.7ZM636.6,601.4c24.7-25.7,45.1-58,59.8-90.6,59.8-132.4,33.1-281.4-64.8-386.9C564.7,51.7,468,7.1,368.6,8.4l7.7,8.8c156.9,1.6,297.5,119.3,331.8,271.2,15.8,69.8,10.6,133.7-14.8,200.3-14,36.8-34.1,71.2-60.2,100.7l3.5,12ZM370.6,50.4c10.1-3.9,5.4-16.3,2.2-23.7l-6.2-11.3c-2.6,9.7-14.7,21.2-8,31.5s4,4.4,5,3.5c-3-4.1-4.6-5.9-3.9-11.4s4.9-15.2,7.4-14.6,5.2,8.8,5.7,10.3c2.3,6.4,2.8,10.5-2.2,15.7ZM408.6,25.4c-1.2.3-9.1-1.3-9,.5l2.5,4.4,6.5-4.9ZM353.6,26.4c-5.6-2.1-11.4-.5-17,.5,1.5,4.9,4.2,11.8,10,12.5v-4s3.5,0,3.5,0l3.5-9ZM386.6,40.4c14.2-3.8,13.3-18.1-3.5-15-4.8.9-1.3,11.2,3.5,9v6ZM351.6,52.4c-3-9.1-18.4-19.5-27.2-22.3-14.8-4.6-26.1,1.8-35.7,12.8s-14.6,27.1-36.4,23.5l-1.7-3c2.2.2,4.8-.1,5.7-2.5-1.2-6.3-3.3-7.4-8.7-3.5-1.9-9.3,7.3-13,15-10.5s2.4,7.2,3.4,8.6c3,4.2,14.3-2.9,7.4-12.4s-17-2.7-22.4-.7c-7.9,2.9-12,12.8-6.9,20s3.9,3,5.4,5.1c-19.2-3-42-13.7-56.5,6-6.4,8.7-1.9,11.9-1.4,20.5s-.9,8.2-1,12.5c17.1-3.4,2-15.6,10.2-28.3,15.4-24.3,44.7-.6,67.9-6.1s22.3-27.7,38-34c10.7-4.3,19.9-1.2,29.3,4.7,2.4,1.5,13.1,11.8,15.7,9.8ZM484.6,62.4c-1.1,6.5-11.3,4.8-16,3.5-14.3-3.9-19.3-21.8-30.5-30.5-18.2-14.2-34.9-5.1-49.5,8.5s-9.8,9.1-4.5,8.5,11.9-8.4,17.5-11.5,16-6.8,24.8-3.6c14.2,5.1,15.5,21.8,29,30,26.7,16.2,43.9-6.2,65.3.7s16.8,10.7,16,20-7,18.4,7,17.5c0-2.9-1.5-5.4-1.6-8.3-.3-11.2,8.6-15.7-2.9-26.7-16.8-16.1-34.4-5.8-53.5-3,11.4-10.2,6.2-24.9-8.6-26.9-7.9-1.1-20.7-.4-18,10.9s9.9,5.8,9.1,2.9-2.5-3.8,1.5-6.4c8.6-5.4,19.9,2.1,16.9,12.4-1.9-.1-.6-2.8-1.9-4.6-5-6.8-11.2,11.5,0,6.6ZM367.1,29.4c-5,2.8-6.9,18,0,18s3.5-14.8,0-18ZM295.6,31.4c-8,1.3-12.2,6.7-20.9,4.1-2.7,4.9,2.8,10.1,7.9,8.5,2.9-.9,9.4-10.5,13-12.6ZM438.6,31.4c.9,2.3,3.9,2.4,5.5,4,2.5,2.3,2.7,6.6,6.7,8.3s9.6-.9,8.8-5.7-5-1.3-7.5-1.5-9.3-6-13.5-5ZM391.6,55.4c10.2.7,19,7.3,27-2.5s1.1-12.5-8-12.5c-1.1.9,6.6,6.6,1,9.5s-3.8-2.1-6.5-2.6c-4.2-.8-10.6,4.8-13.5,8ZM325.6,41.4c-20.6-3.5-12.8,17.2,1.4,17s14.6-2.2,14.5-4.5c-3.5-2.4-8.9-8.4-13.3-5.5s-1.5,3-2.2,3-5.6-3.3-4.4-5.3l3.9-4.7ZM309.6,42.4c-15.5.5-8.4,27.6,1.8,13.5-5.3-4.8-5.8-7.5-1.8-13.5ZM423.8,53.6c-2.2,3.7,2.1,8.1,6.5,6.1,6.7-3.1,3-17.7-4.7-17.3.3,3.1,2.9,4.8,1.8,8.3s-3.3,2.3-3.6,2.9ZM238.5,50.5c-15.3.1-14.6,9.7,0,10.8,1.4-3.6,1.6-7.2,0-10.8ZM513.6,58.4c-.8-2.6-4-1.6-6-2.5-3.7-1.8-5.8-8.6-12.9-4.3l-1.1,9.8c7.5.1,12-5.7,20-3ZM369.6,137.4c8.8-5.9,9.8-14.5,9-24.5-.8-10.2-3.5-21.5-4-32-.3-7.1,2-18.6,1-24.1s-.5-1.8-1.5-2.5c-6.7,3-5.9,5.6-5.5,12.5,1,17.3,10.2,37.1,8.1,55-.6,5.2-6.3,10.1-7,15.5ZM366.6,57.4l-8-2c.3,9.2,1.5,18.2,1,27.5-.8,14.2-7.9,33.8-2.5,46.5,1.2,2.8,2.6,5,5,7,.1-5-3.8-9.6-4.4-14.6-2.2-16.3,5.6-36.7,7.8-53s0-7.6,1.1-11.4ZM670.6,355.4c-2-51.7-16.6-103.7-44-147.5-50.5-81-138.4-135.1-234-142.5l20,11.5c134.4,18.7,240.9,133.9,248.2,269.8l9.8,8.7ZM339.6,66.4c-51.3,2.8-103.1,22.3-145.3,51.2-78,53.4-127.8,142.6-129.7,237.8,1.9-2.1,7.3-4.5,8.7-6.3s1.8-16.6,2.4-21.1c17.9-130.7,116-231.7,246.9-251.1l17-10.5ZM249.6,76.4c-12.6-.9-26.4-13.3-36.9-.4,5.1,5.5,3.1,8.6,2.9,15.4,9.6.4,9.4-8.6,9.1-15.9l9.9-2.1c.8,6.1-7.6,3.5-6,10,2.3.3,2.8-2,4.8-2.7,3.7-1.4,8.4-.9,12.3-1.7s4.1-1.3,4-2.5ZM334.6,148.4c0-.1,1.2-.5,1.6-1.9.9-3.8.6-7.1-2.6-9.6-3.5-1.7-9.1.8-9.1,5s2.4,5.3-.5,6.5-4.8-6.8-6-7.9c-6.5-15.3-3.3-29.8,6.6-42.5,1.1-1.4,11.5-12.8,13-11.5-12.6,13.3-21.4,22.9-20,42.5s.8,7.9,3,9.5c-4.4-17.1.5-30.9,11.5-44s14.6-12.7,18-18,1.8-3.6,1.5-6c-11.3,5.3-21.8,11-31.5,19-7.1,5.9-21.6,17.7-12.5,27,3.3-22.4,24.5-34.1,43-43-5.4,7-14.7,9.7-21.5,15-17.7,13.8-27.4,39.8-12.4,59.3,2.1,2.7,5.3,3.7,6.6,7.4s1,3.5-.7,3.2c.7,0-3.4-9.2-3-4.5s2.8,17.6,4.5,19.5c3.2,3.5,8.5,1.6,12.5,1,.9-1-5.7-9.7-6-12.6s2.5-9.7,4-13.4c-.3.7-4.1,2.5-4.8,4.7l-1.2,9.3-1.1-9.9-4.9-2.1c4.7-1.2,8.5-.4,11.5-5,.8,0,.6,2.7.5,3ZM427.6,115.4c1.8-4.6,1.2-8.3-.8-12.7s-20.4-19.5-26.7-23.3c-5.6-3.5-11.7-6-17.5-9-.6,2.7.7,1.7,2,2.5,14.1,8.3,27.8,14.6,36.8,29.2l6.2,13.3ZM519.9,80.6c.3-.6,3.3-1.3,3.8-2.7-10.6-13.5-24.6-4.2-38-1.5,2.8,6.3,10,.9,14.3,1.9s2.3,7.7,6.6,6v-7.3c0,0-6-2.1-6-2.1,2.9-3.2,7.6-1.3,10,1.2-.4,7.7-1.2,16.6,9,16.3.7-.7-.9-10,.2-11.8ZM177.6,84.4l7,.6,3.9-10.6c-1.8,1.7-13.4,7.1-11,10ZM409.6,155.4c-1-6.1,4.5-4.9,8.1-8.5s3.4-5.4,4.5-8.5c10.2-31.6-14-50.4-38.5-64,2.6,7.3,11,9.7,16.5,14,8.5,6.7,17.4,18.5,18.5,29.5s.3,27.7-12,31.5c8.8-16.8-13.2-18.1-8.1-1.6,1,1.4,6.4,1.4,7.9,2.9s0,5.6,3.2,4.8ZM545.6,74.4c1.8,5.2,6.1,18.2,11,7.5l-11-7.5ZM365.6,139.4c2.5-.8.9-3.2,1.7-5.7,1.9-5.5,7.2-8.3,7.3-15.8l-7-40.5c-2,.4-1.6,2.1-2,3.5-2.4,9.7-6.4,32.6-4.9,41.9.8,5,5.7,10.8,4.9,16.6ZM205.6,81.4c-6.1.1-4.7,11.7-1,13.5s9.2-1.1,8-6.5l-5.5-1-1.5-6ZM529.6,81.4c3.5,5.7-12.8,11.2-4.3,13.8,12.6,3.9,7.8-18.3,4.3-13.8ZM569.4,91.6c-3.2-3.5-14.8-3.7-19.1-1.3l-4.7-5.9c1.4,10.7,0,17.9,5.8,27.7,8.4,14.2,22.3,17.5,37.7,18.3,2.5.1,4.8-1.2,7.8-1,12.1.7,20.2,14.9,11.6,24.9,6.1.3,10.2-3.8,9-10,1.5-2.3,5.8,13.7,5.9,15.6.2,8.3-6.6,18.8-1.2,26.1s0,1.8,2.3,1.2c.6-16.3,8.2-28.8.2-44.7-15.1-30-48.4-13-65.8-31.7s-7.8-15.6.6-18.6c-5.3,18.2,18.1,8.2,9.7-.7ZM653.6,342.4c-8.4-126.7-106.4-234.7-231-257,2.7,2.9,5.9,4.9,8.4,8.1s5.3,10.2,5.8,10.7c1,.8,3.9.8,5.7,1.8,5.7,3.3,8.7,22.2,6.1,28.4,61.8,22,114.9,64.5,145.5,123,4.1,7.9,10.2,27,14.4,32.3s6.8,3.8,9.5,7.8,2.8,8.5,4.7,11.3,5.6,5.3,7.7,8.3c4.8,6.8,8.3,16.1,12.7,23.3l10.5,2ZM310.6,86.4c-123.8,20.8-222.4,131.5-229,257l11.5-2c2.9-7.8,6.8-17.6,11.7-24.3s7.3-6.7,8.3-8.7,1.1-6.1,3.1-9.9c3.3-6.2,8.5-6.7,10.9-10.1s6.1-15.8,8.7-21.3c24.8-51.8,68.4-96,120.5-120.5,3.9-1.8,25.4-9.6,26.4-10.6,4-4.2-.3-25.1,9.6-30.4,1.8-1,4.4-.8,5.2-1.3s3.5-7.9,4.8-9.7l8.4-8.1ZM187.6,89.4c-3.9,2.6-7.4-2.4-11.4-2s-7.6,2.4-8.3,2.7c-9.1,4.1-5.3,15.7,3.8,12.8s3.6-3.8,1.9-7.1,1.7-2.8,4.1-1.1c8.6,6.4-3.8,18.5-10.1,22-14.7,8.3-31.7,2-47.3,13.7-20.1,15.1-13.2,35.5-9.7,56.8,8.5-7.5.5-19.5.9-29.5s2.5-8.8,4.1-13.5l2.4,7.1c2.1,2.1,4.5,3.3,7.6,2.9,1-.9-6.2-9.4-1.4-16.9s15-6.2,23.9-7.1c24.7-2.4,40.9-14.5,39.5-41ZM351.6,88.4c-1.4-1.2-11.6,8.9-13,10.5-7.1,8.3-13.1,19.2-11,30.5,12.7-1.5,18.8,7.2,16.7,19.3s-6.9,9.6-2.2,14.7c15.8-8.4,5.8-20.7,4.6-33.6-1.2-14,3-27.7,4.9-41.4ZM406.6,130.4c2.9-18.5-10.4-31-23-42-.2,13.6,5.2,26.6,3.9,40.4s-9.3,22.6-.4,30.7l6,4c2.9-6.2-2.9-10-3.5-16.5-1-10.9,5.8-20,17-16.5ZM572.4,107.2c-1.2.8-5.5,0-6.8,2.7,2.5,4.3,6.2,1.2,9.5,2.4,3.9,1.4,4.3,6.2,10.2,3.4,8.7-4.2-6.5-19.2-11.3-21.3-1.3,2.5.5,11.3-1.7,12.8ZM166.6,109.4c-10.1-.2-6.7-6.2-8.5-13-6.7,2.9-9.7,7.6-11.5,14.6-7.2-1.6-10.7,4.6-15.1,9.4,3.3-1.3,7.7-.4,10.8-1.7s2.6-4.7,4.9-5.2,5.4,3.5,9.6,2.7,10.4-6.2,9.7-6.8ZM414.6,116.9c.6,4.5,0,11.2,0,16s-2.9,5.9,0,6.5c3-11.6,3.1-23-2.8-33.7s-2.4-5-4.2-4.8c2.2,5,6.3,10.5,7,16ZM603.6,120.4c-.9-2.1-11.2-12-13-10,.3,2.2-.9,5.9,1,7.5l12,2.5ZM439,125.1c-1.4-3.2,1.7-12.5-2.9-13.5s-7.4,7.6-8.1,11.5-.8,11.9-1.2,17.2l3-6,1,6c8.5,2.5,12.6-7.8,9.9-14.2s-1.5-.8-1.6-1.1ZM307.6,141.4v-15.5c0-3.1-3.6-10.8-6.4-12.5-7.4-4.5-5.9,7.7-4.6,12l-3.1.5c-.7,10.3-.1,14.6,11.1,15.4.2-.2-2.2-7.1,1-4s.1,4.2,2,4ZM127.6,144.4c-1,9.5,9,10.1,14,3.5,7.4-9.7-2-19.2-11.8-13.4v2.9c4.9-2.7,7.6.7,6.8,6l-9,1ZM604.6,136.4c-2.5-5.1-11-5-13.2.3-5.1,11.9,11.1,21.9,15.5,11.5,3.3-7.9-6-1.6-9.3-5.3-.5-4.4,3.2-6.3,7.1-6.4ZM374.6,154.4l2-17-9.7,7.9-9.3-6.9,2.1,15.9h14.9ZM308.6,148.4c3.4-2.9-14.4-6.6-15.5-6.6-6.2.2-7,13.6-6.4,18,1.4,10.2,13.7,18.1,23.6,14.8s8.5-14.4,1.8-19.2c-11.6-8.3-16.1,14.3-.5,9-1.7,7.9-13.6,5.5-15.5-.9-2.9-9.3,2.8-16.6,12.5-15.1ZM421.6,163.4c.9-.9,6.2,4.3,9.5,1,5.8-5.8-4.7-16.1-11.4-5.4-10,16.2,15.3,23.1,24.7,8.7,10-15.3-.2-34.4-17.8-20.8l9,3c8.3,7.8,2.3,21.8-9.2,19.2s-5.1-3.1-4.7-5.7ZM279.6,144.4c-31,11.7-61,28.9-84,53l59.4-12.1c3.6-8.1,19.7-21.9,22.1-28.9s0-8.3,2.5-12ZM537.6,196.4c-22.6-23.9-52.6-40.2-83-52l2.5,12,23.1,28.9,57.4,11.1ZM72.6,226.4c.2-1.5,1.5-1.5,2.6-1.9,7.9-3,16.3-1.4,22.8-8.2s8.6-29.6,6.5-41.3-7-13.9-1.9-23.6c-4.2,2.8-5,9-8,12.5s-9.1,6.3-3.8,8.8,8.8-3.4,9.8-2.3l2,9c-15.2-7.7-26.2,1.7-27,17.5s14.5,18.5,15,3.5l-7.1-.4c-4.4-6.5.8-18.4,9.4-15.4s6.1,7.1,6.4,8.5c2.7,11.8-5.5,20.1-15.8,23.8-14.1,5.1-23.1,6-31.1,20.9s-5.2,30.6,2.2,45.7c-11-4.9-9.7-18.8-10-29-1.8.7-2.4,4.8-2.9,6.6-1.7,6.4-5.5,19.6,1.2,23.7s10.4,2.1,14.2,5.7l6.5,10c3-17.4-10.6-29.3-9-46.5s6-18.2,13-20c9.1-2.4,13.8,5.5,3.1,5.6-.4,3.3-.5,7.4,3.5,8,10,1.5,9.4-10.2,7.5-17,3.3,3.7,9.2-.9,10-4.5s-1-.8-1.8-.8c-2.6.1-7.7,0-9.6,1.2s-.6,2-.7,2c-.3.2-4.5-3.5-7-2ZM402.6,171.4c2.7-6.3,6.1-15.4-1-20,.5,3.1,3.1,4.6,2.8,8.3s-5.3,10.5-6.8,14.7c18.7,6.1,12.8-12.7,20-23-11,1.8-7.5,14.8-15,20ZM633.6,179.4c.3-3-1.1-6.9,1.5-9,1.7,3.6,10.2,4.7,10.6.5l-13.1-18.5c3.4,13.2-4.1,26.1-3.9,39.4.1,7.4,3.4,19.9,8.9,25.1s16.9,4.7,25,7.5c1.5,1.4-.1,1.8-1.5,2-4.9.6-12-2.3-17.5-1,2.6,3.4,5.4,7.9,10,5-2.9,8.1-2.7,19.8,8.9,16.8l2.1-7.3-8-3c3-6.3,12.3-3.7,16.5.4,15.7,15.6,1.8,35.9-2.5,52.6l2,12.5c-.7-6.1,4.3-12.6,9.7-14.8s5.6-.9,8-2c10.3-4.5,3.1-23.8,1.3-32.2l-4.5,23c-.3,1.6-6.2,8.2-7.5,7,13-19.5,10.2-46.2-10.1-59.4-11.5-7.5-31.4-7-34.5-22.5s6.1-23,14.6-15.6,5.6,15.6-3.4,14.6l-1.6-2c-2.5,14.1,12.7,13.6,14.8,2.3s-10.3-29.3-25.8-21.3ZM617.6,163.4c3.4-5.1-12-9.6-13-4.5-1.6,8.3,5.5,9,8.1,12.9s.9,4.7,2.5,5.5,2.1-5.5,2-6.1c-.6-3-5.4-4.2-4.5-7.9h5ZM130.6,157.4c-4.7,0-17.3-1.2-13,6.6,13.2-1,.5,4.7-.4,7.4s1,4.2.5,6c3.4.2,3-4,4.5-6,2.9-3.9,10.1-6.5,8.5-14ZM385.6,168.4c-2.6-4.8-7.4-5.7-12.5-6-7.9-.6-18.7-1.2-23.5,6,12-4.2,23.9-3.3,36,0ZM291.6,181.4c-6.9-3.1-11.2-10-13.5-17l-15.5,20,17.5-1,11.5-2ZM471.6,184.4l-14.5-20-7.5,12.5-7,4.5c.5,1.5,5.2,1.9,6.5,2,7.4.5,15.1-.1,22.5,1ZM349.1,171.4c11.4-.5,23.5,0,35,0s4.1,3,3.5-1c-13.2-2.5-25.8-2.7-39-.5l-1,1c-.2,3.1,1,.5,1.5.5ZM216.9,461c52.3,58.3,112.3,91.4,193.9,72.1,141.8-33.6,185.5-219.7,72.3-312.7-106.1-87.1-269.1-29.7-293.2,105.8-6.3,35.3-2.6,67.8,9.7,101.2l-3,.5c1.3,6.2,3.8,12.4,7.2,17.8s9.2,11,13.1,15.3ZM283.6,188.4c-8.9-.3-18,.2-26.6,2.9l-17.4,27.1,15.3-12.2,28.7-17.8ZM496.6,220.4l-19.4-29c-8.5-2.6-17.7-2.8-26.5-2.9l26.3,16.2,19.7,15.8ZM250.6,191.4l-62.5,14-13.5,67,45.5-34,30.5-47ZM559.6,272.4l-12.9-67.6-61.1-12.4,28.6,45.9,45.4,34.1ZM77.9,213.2c-.6-.4-6-14.1-6.7-13.8-5.1,3.1-4.4,8.6-6.3,12.7s-9,13.4-8.2,14.3c2.2-2.9,7.5-3.9,9.5-6s2.1-5.6,4.4-6.6,7.1,3.2,10,.5c.3-1.8-1.8-.6-2.7-1.2ZM677.6,225.4c1.6-1.7-6.9-9.6-7.5-11-2-4.8.2-11.7-7.5-15-1.2,5.1-2.4,14-9,12v3c11.4-1.3,14.5,7.8,24,11ZM134.6,286.4c4.3-.9,9.2,2,13.3.8s5.5-4.5,8.3-5.7,10-1.5,11.8-4.2l12.5-65c-20.2,21.2-34.7,47.1-46,74ZM599.6,287.4c-10-27.1-25.1-53-45-74l11.5,64c7.7,3.6,15.3,3.5,21.1,10.8l12.4-.8ZM666.8,258.5c6.6-2.9,9.1-9.3,4.6-15.5s-2.8-3.8-4.8-2.2c8.7,9.6-4,8.4-7,11-5.4,4.5,3.7,17.7,8.5,20.5,3-4.5,3.9-8.9-1.5-11.6l.2-2.3ZM66.6,241.4c-8.7,3.1-5.3,14.4,1,18.5-6.3,4.6-3.8,11,1,15.5-2.7-6.3,1.3-5.4,4-8.5s3.1-8.9,3-13.9c-5.6-2.8-12.4-3.7-9-11.7ZM560.6,280.4l-35-27,12.9,22.6,5.1,13.4c.7.5,8.2-5.5,10-6.5s4.4-2.5,7-2.5ZM207.6,255.4l-33,25c6.7.9,11.1,5.9,16,10,3.8-12.5,10.5-23.8,17-35ZM186.6,306.4c0-17.6-31.7-28.1-33.1-5.5l3.1,7.5,2-8,1.6,6.1-3.5,4.4c2,2.8,6.4,4.5,6,8.5-7.7-6-12.9-10-23-6.5-14.2,4.9-26.5,18.6-35,30.5,1.1,1,3.7-2.2,4.5-3,7.5-7.5,18.1-22.1,29.2-23.8,16.1-2.3,26.3,9.4,41.2,11.7.5-2.6-.5-1.7-1.9-2.5-4.6-2.5-8.7-3.2-11.9-8.2s-4.9-13-3.2-15.9,4.3-2.6,5.1-4.5c-.4-1.4-10,2.7-7-.5,10.5-2.9,19.8.6,26,9.5ZM570.6,318.4c13.4-10.3,16.2-32.8-6.5-30-7.1.9-16.5,9.5-16,17,5.5-7.1,15.7-12.9,24.5-8.5l-5,.5c7.9,7,3.7,19.9-4.1,25.4l-8.9,4.6c11.3,2.3,20.3-8.6,29.9-10.5,20.4-4.2,28.2,11.1,40.5,22.6,1.1,1,1.7,2.4,3.5,2-7.6-11.2-27-30.8-41.5-30s-10.7,5.6-16.5,7ZM44.6,327.4c3.2-6.4-4.5-7-6.2-11.3-3-7.2,3.3-19.1,11.2-13.2l-3,4c-.8,3.5,9.8,4.8,10.1-5s-6.5-10.7-13.9-8.8c-10.8,2.8-12.2,18-10,27.1,2.2,1.1,5.2,1.9,7.2,3.3s2,4.1,4.6,3.9ZM701.4,320.1c1.8-1.8,1.6-11.4,1.2-14.2-2.7-19.6-30.2-15.7-24.1-.8s7.2,6.2,10.2,1.8c0-.3-6.2-5.3-1.5-5.5s7.7,1.6,9.2,6.8c3.4,11.4-6.8,10.9-7.7,13.8s1,6,3.4,4.4,2.5-2.7,4.2-3.9,4.2-1.5,5.1-2.4ZM151.6,308.4c-.2-6.3-.2-9.9-6.8-11.7-10.9-3.1-22.2,2-24.2,13.7,5.9.9,11,3.1,17,1l-6-5,10,2-4-5c4.9-1,5.4,7.3,10,5.5l-4-4.5,8,4ZM614.6,311.4c.3-2.3-1.9-2.8-2.7-4.7-2.7-6.7,0-7.6-9.2-9.8s-20.3-1.1-19.6,11.5c2-1.3,4.3-6,6.5-4.5l-3,4.5,11-4-4,5,9-1.5-5,3.5c5.6,2.3,11-.9,17,0ZM183.6,321.4l1.6-10c-19-18.5-21.8,10-1.6,10ZM29.6,360.4c5.4-20.5,29.6-25.1,32.7-45.7.5-3.1.2-6.2.2-9.2l-3.8,8.7c-9.2,14.5-26.9,23.3-31.9,40.1-7.8,25.9,12.8,41.3,28.7,57.7l7,12.5c3.1-20.1-14.2-26.1-24-38.5s-5.8-10.8-9-16c2.8-.7,5.5,1.3,8.5,1.5,6.5.4,25.1-5,13.2-11.2s-14.2-1.9-21.7.2ZM556.3,305.6c-7,1.6-9.1,10.7-4.1,15.7,11.3,1.5,19.3-19.2,4.1-15.7ZM689.3,403c7.6-8.3,18.8-20.7,20.2-32.3,3.2-26.5-16-35-30.4-52.4l-6.5-10c-4.1,24.3,26.3,29.1,30.9,49.6.6,2.9-4.7.5-6.4.4-6.6-.2-13.7,0-18.3,5.5,4.3,8.5,17.8,8.7,25.8,5.5.5.6-5.8,13.1-6.8,14.7-7.3,11.6-23,16-25.2,30.8l1,8.5c.9-9.6,10.1-14.3,15.7-20.3ZM129.6,314.4c-11.2-3.9-17.4,7-22.2,15.3s-5.1,9.2-5.8,13.7l19.5-23,8.5-6ZM634.6,345.4c-3.3-8.3-13-30.7-22.6-31.9-2.9-.4-10.6.8-6.1,3.2s3.4.9,5.1,1.9c8.3,5.2,14.5,16.5,21.6,23.4l-2,2.5,4,1ZM598.6,318.4c-12.7-2.1-21.5,3.6-32,9.5l5.5,4.5c1.7-.8,1.6-4.6,2.6-6.4,1.9-3.2,8.2-5.1,11.6-6.4l12.3-1.2ZM168.6,329.4c2.3-2.1-10.4-6.9-12-7l5.5,9,6.5-2ZM699.6,331.4c5.4,3.5,8.9-6.1,5-8.5-10.2-2.8-14.6,9.7-5,13.5v-5ZM33.7,336.4c8.1-2.1,7.8-14.5-1.5-13s-.3,10,1.5,13ZM169.6,335.4c-4.7,1.4-3.6,6.8-10.3,4.8s-2.8-11.9-13.5-13.6c-13.3-2.1-23.4,13.1-32.3,20.8,13,0,22.9-7.5,36.4-5.9,8.6,1,18.8,9.1,19.6-6.1ZM621.6,346.4c-10.6-6.4-18.6-22.1-33.2-19.8-11.3,1.8-6.2,13-14.7,14.4-4.5.7-5.1-3.6-8-5.6.2,14.9,10.4,7.1,18.6,6.1,13.1-1.6,21.1,4.5,33,5.8s4.5,1,4.4-.9ZM58.6,334.4c-5,2-9.4,5-8,11h-4.5c-4.1,9.5,11.6,11.2,11.5,3.5s-2.1-3.4-1.9-5.9,3.8-7.7,3-8.6ZM683.6,345.4c1.1-5.7-2.1-8.8-7-11-.3,2.8,2,4.8,2.1,7.5.2,4-3.1,5.2-.5,9.4s7.1,3.4,10.9,0l-.5-7-5,1ZM555.6,383.4c7.7-13.1,10.2-33.2-1-45l1,45ZM180.6,383.4c-3.2-14.4-1.9-29.4-1.5-44-9.3,11.4-9.3,33.5,1.5,44ZM166.6,356.4c.4-2.2-1-2.4-2.5-3-26.6-10.6-42.5,5.2-66.7.7-3.5-.6-5.4-3.4-8.7-3.8v7.4c1,2.6,12.6,1.8,15.4,1.5,12.4-1.3,28.6-9,41.1-8.7,6.7.2,14.2,6.8,21.5,5.8ZM646.6,350.4c-5.2.2-7.4,4.1-13.5,4.1-19.9,0-44.9-10.3-63.1-1.1s-2.8.9-2.4,3.1c8.2-.5,15.2-6.2,23.5-6.1s23.9,6.1,34.3,7.8,14.2,1.4,21.2.2v-8ZM664.6,359.4l-17-9c1.4,5.3,2.7,7.3,7,10.5v1.5c-2.8.5-5.4,2.9-5,6l15-9ZM85.6,352.4l-5.3,2.2c-1.1,1.5-9.5,4.4-8.7,6.3s12.7,7.5,15,8.5c-1.4-4.8-2.4-6.4-7-8.5,3.1-2,5.6-4.6,6-8.5ZM166.6,359.4c-6.7.9-12.4-4.4-17.9-5.6-10-2.1-26,4.8-36.1,7.1,0,1.7,29.8,7.7,32.5,7.6,5.4-.3,8.1-3.7,12.7-5.4s11.5-1.4,8.8-3.7ZM621.6,361.4c-.3-1.8-2.1-1.7-3.4-2.1-5.8-1.9-19.3-5.5-25.1-5.9-10.2-.7-15.6,5.4-25.5,6,2.3,2.6,6.8,2.6,10.4,4.1s5.1,3.7,7.6,4.4c10.8,2.9,24.9-6.1,36-6.5ZM646.6,370.4v-7.4c-1.3-3.5-15.7-.9-19.2-.3-14.7,2.5-30.6,11.6-45.1,6.5-4.8-1.7-9.1-5.6-14.7-4.8,20.2,17.8,46.6-.9,70.4,3s5,3.8,8.5,3ZM166.6,364.4c-6.7-.5-14.5,6.2-20.6,6.7-15,1-41-12.5-54.7-8.5s-3.9,6.7-1.2,8.8c5.4-4.7,10.1-4.3,17-4,23.1,1,34,10.7,57.3-.7s2.8.6,2.2-2.2ZM313,653c-8.3-5.4-10.4-4.3-19.5-6.9-126.2-35.7-214.7-138.9-220-272l-8.8-7.7c-1.4,138.1,96.2,254.7,227.8,288.7s33.3,8.3,35.2,6.3v-7c-6,.8-9.2,2.2-14.7-1.3ZM607.6,549.4c6.4-10.5,15-19.8,21.2-30.3,9.1-15.4,17.8-35.3,23.8-52.2,11.6-32.3,18-66,18-100.5l-9.8,7.7c-1.4,60.5-23.1,120.4-60,168-.4,2.1,5.4,8.4,6.8,7.3ZM41.6,381.4c4.4-9.3-8-9.5-2.9-1.6s1.2,2,2.9,1.6ZM170.6,387.4l-4.7-9.8c-7.1-1-13.5,3.5-20.7,3.5s-21.7-5.6-31.7-6.6c-.7,2.3.7,1.7,1.3,2.3,8.2,8.1,23.4,26.5,36.3,17.8,3.9-2.6,3-11.4,9.2-12.8s6.4,2.4,10.3,5.8ZM621.6,374.4c-9.8-.4-22.5,7-31.5,7s-16-5.5-21.8-4l-2.7,6c4-1.4,5.2-3.1,9.7-1.2,8,3.3,2.7,15.7,18.6,14.1,11.1-1.1,20.4-14.4,27.6-21.9ZM56.4,377.6c-6.4-6-18.2,7.1-4.8,6.7l-1.6,6,9.6,8c.5-.4-3.7-7.5-3.9-8.7-.4-2.9,5.8-7.1.6-12ZM685.6,389.4c5.3-2.5,5.7-11.8-.5-13-8.4-1.6-11.8,7.9-4.4,11.5l-5,11.5c6.1-4.5,9.4-8.1,7-16,3.3-.7,2.8,4.1,3,6ZM632.6,377.4c-10.9,4.9-16.4,17.6-27,24,10.9-4.1,18.6-16,27-24ZM654.6,377.4l-11.9,2c-1.9,13.3-11.4,23.3-18.5,34-2.4,3.6-3.7,8.5-6.1,11.9s-5.7,4.6-6.4,5.8c-2.3,4.2-4.1,14.2-6.3,19.5-6.6,16.4-14.3,31.5-23.4,46.6s-8.9,11.7-10,15.1-.6,2.4.5,3.6l22.6,21.4c1.4.4,1.6-1,2.3-1.6,3.3-3.3,9.6-13.2,12.4-17.6,27-42.2,41.7-90.6,44.8-140.7ZM92.5,379.5l-11.9-1.1c4.4,127.9,101.3,237.2,225,264-3.5-7.4-4.9-14.8,0-22-6.4-.7-5.6-11.5-8.4-14.1s-17-5.6-20.8-7.2c-65-26.5-117-77-144.2-141.8-2.6-6.1-6.9-22.4-9.5-26.3s-3.8-2.7-5.5-4.8c-3.6-4.4-4.2-9.1-6.7-13.3s-5.8-6.3-8.1-9.9c-4.3-6.9-7.5-15.8-9.9-23.6ZM167.6,396.4c-7.3,5.9-17.9,10.3-27.5,10-10.6-.3-16.4-2.8-24-10.1s-9.2-12.2-14.5-17c4.3,10.2,10.2,29.6,23.5,29.1s7,0,15.2,1.7,14.8-2.6,23.3-5.8c-11.2,10.8-16.5,33,6.4,29.9s17.2-9.9,17.1-17.9c-7.9,11-32.9,18.1-29.5-3,6.3,3.9-2.9,13.2,9,12l-4.5-5.5c-1.1-16.3,7.1-20,20.5-25-6-2.3-11.6,2.9-17.5.5s-2.9-.8-2.5-3c3-1.3,4.9.5,7.6.9s3.7.8,3.4-.9l-11.4-3.1-5.6,11.1,11-4ZM131.6,401.4c-11.4-3.1-17.3-15-26-22l7.5,10c4.7,3.9,9.1,11.1,15.2,12.8s3.5,1,3.3-.8ZM566.6,396.4c4.2,1.4,5.9,6.1,9.5,9,5.5,4.4,10.6,6,17.8,4.8,3.1-.5,6.7-3.4,9.4-3.5s6.2,2.7,11.6,1.5c6.8-1.6,17.7-21.7,18.7-28.8-9.7,9.1-17.7,24.2-31.9,26.5s-20-1-30-6.6c-.2-1.8,2.1-.9,3-.5,9,3.2,9,6,20.5,5.5s3.7.8,3.5-1c-6.6.7-17.9-.5-22.4-6.1s-1.4-7.9-6.3-8.8-8.8,2.1-11.2,3.4c4.6,2.2,8.5-1.8,13-1.5.3,2.9-2.9,3.4-4.9,4.1v1.9c-3.8-1.3-9.1-1.4-13.1-1.5,7.3,5.4,16.4,5.2,17.9,16.1s.5,10.6-4.9,14.4c.5.9,7.9-2.8,5,.5-10.6,2.3-15.3-.9-22-8s-.9-2.3-1-2.5c-4.4-3.9.7,7.6,1.6,8.9,5.8,8.2,19.8,15,28.1,6.7s-6.5-26.3-11.7-34.7ZM699.1,395.4c-8.3,5-8.1,18.3,3.8,14.8s.3-12.8-3.8-14.8ZM30.9,409.1c4.3,4.3,14.5-1,10.2-8.7s-15.1,3.7-10.2,8.7ZM547.6,409.3l11.6,8.8c14.5-5.6,1.1-17.1-8.2-19.8l-3.5,10.9ZM184.6,399.4c-7.9-1.1-21.4,11.9-12.3,17.9s8.3-7,14.3-7l-1.9-10.9ZM689.7,405.4l-.5,7c1.4,2.9,7.5,2.9,5.5-.5s-4.5-6.9-5-6.5ZM46.6,406.4c-1.1-1.3-7.8,7.3-7,8,5.1.6,7.8-3.2,7-8ZM136.6,410.4c-5.7-.3-10.7,0-16,2,4.8,11.9,17.2,18.1,29,11.5l3-9.5-6.5,4,2.5-5-10,4,3-4-8,2,3-5ZM613.6,412.4c-5.1-1.7-9.7-3.1-15-1l1,2-5,1,5,4c-4.4-.8-8-4.4-12.5-5s2.7,4.8,1.5,6l-5.5-5c-.7,6.8.7,11,8.1,11.9,9.5,1.1,21.1-3.3,22.4-13.9ZM37.6,413.4c-6.7-1.2-6.6,6.7-5.9,11.4,1.1,7.8,7.7,12.7,15.4,12.7,12.9,0,11.5-18.9,2.1-16s.5,4.6-1.5,6.4l-2.7,1.5c-8.1-1.2-7.8-9.4-7.5-16ZM679.9,434.1c1.4,1.7,5.9,3.4,8.2,3.4,12.4,0,16.6-12.6,14.1-23.1l-4.6-.9c1,6-1.1,17.2-9.3,14.8-5.4-1.5,0-5.9-.7-6.8-8-4.3-11.8,7.7-7.7,12.7ZM539.6,427.4c-1.1-1.1-4.3,2.7-4.9,3.6-3,4.7-5.5,13.1-8.1,18.4,5.9-5.8,9.6-14.4,13-22ZM691.6,477.4c1.6-8,6.2-19.7,3.1-27.6s-12.1-5.4-16.6-10.4l-6.4-12c-.3,6.6-1.4,10.6.3,17.2,3.6,14,10.8,19.6,7.3,36.9-1.8,8.6-13.9,22.9-21.6,12.4l1.1-3,5.5-2.5c3.8-6.1-9.5-10-12.1,0s-.3,7.5-1.4,9.4-6.6,2.7-7,5.7l21,1.5c-9.6,5-21.4,1.3-29.5,10.5s-6.9,27.6-5.2,37.3,3.2,8.9,3.7,12.3-.9,8.8-.9,13.4c3.6-2.8,4.9-9,8-12.2s6.3-2.4,6.1-6.3c-2.1-4.6-8.6-2.1-12.1-.5l-2-9c14,11,29.4-5.4,26.7-20.3s-18.2-11.3-14.6.6,5.5-1.1,7.4,1.6c2.9,19.9-20.5,19.2-17.5-2.4,1.9-13.9,12.1-12.9,21.9-16.1,26.7-8.6,40.4-41.5,24-65.5,1.5-1.5,7.5,6.3,7.5,8l3.5,21ZM44.6,477.4v-14.5c0-4.2,4.9-12.5,9-14.5-1.4,3.7-3.6,7-4.7,10.8-5.8,19.5,2.6,38.2,18.8,49.6,11.6,8.3,25.9,2.8,31.4,18.6,7.4,21.3-19.1,28.3-16,4.9,1.6-2.5,4.8,2,6.8-2.2,4.5-9.7-11.5-9.8-14,0-3.5,13.6,10.6,28.7,24.7,22.3l1,9c-4.2-3.1-7.6-5.1-13-3.5s-2.4.2-2,2c1.8,2.6,5.1,3.7,7,6,2.8,3.3,4.3,9.6,8,12.5,0-4.3-1.5-7.9-.9-12.4s4.4-9.9,4.9-17c1.3-16,.4-35.4-17.8-40.2s-12.5-.1-16.2-4.3h19c.7-4-6.4-5.6-6.9-6.1-1.2-1.3,2.1-11-5.2-15.3s-11.9,2-7.9,5.9,9.3,0,5.5,6.5-9.9,1.3-12.8-1c-7.9-6.4-9.7-16.8-8.7-26.5s13.9-25.2,7.5-38.5c-1.6,16.7-23.9,10.8-23.4,27.3.1,3.9,2.2,11.7,3.4,15.7s.9,4.8,2.5,5ZM561.6,443.4c-5.2-.7-10.8-4.5-14.5-8s-1.8-3.5-3.4-4c-1.9,4.4-3.4,9.7-5.6,13.9s-12.5,18.4-12.9,21.1,2.8,4.8,4.1,6c8-6.7,19.3-12.3,27-18.9s5.7-5.4,5.5-10ZM220.6,481.4c-11.7-14.8-22.4-30.6-30-48-4.9,4.3-10.1,9-16.9,10.1l1.2,6.6c11.4,7.7,22,16.4,33.4,24.1,1.6,1.1,11.3,8.1,12.3,7.2ZM180.6,521.4l-12.1-70.4c-2.2-4.1-11.5-7.8-15.6-10.4s-4.4-4.6-6-5c-3.4-1-11,1.3-15.3-.2,9.8,31.1,26.2,62.6,49,86ZM603.6,435.4h-16.5c-.3,0-3.4,3.7-4.6,4.4-4.8,3.1-14.9,7.4-16.9,13.1l-8.1,48c.1,4.4,5.2,5.4,7.6,8.5,17.2-22,29.5-47.6,38.5-74ZM255.6,548.4l-32.5-57-48.5-34,12.9,70.6c21.9,8.9,44.8,16.2,68.1,20.4ZM559.6,457.4l-22.9,15.6-4.7,4.9.6,11.5c7.3.5,13.5,6.2,19.5,10l7.5-42ZM75.5,478.3c.4-3.8.4-6.8-1.1-10.2-4.6-10.8-16.4-7.9-7.8,2.9,0,2.3-4.5,3-5.6,6.4-1.9,6.1.8,11.7,6.5,14.1l-2.5-9c2.5-3.1,6.8-3.3,10.5-4.1ZM666.6,491.4c9.6-3.7,8.9-15.1,1.2-20.5l2.7-6.8c-7-9.5-15.1,11.9-11.3,14.4,3.3,1.1,8,.4,9.7,4.2,2,4.3-1.7,5-2.3,8.7ZM503.6,505.5c-.2-.3-5.3-1.5-1.9-3.6s5.4.2,8-1,11.4-11.5,12.4-13.6c2.7-6,.9-10.8-3.9-14.9-4.5.8-.8,4.1-.4,7.5,1,9.1-10.7,21.3-20,18.5,1.8,10.1-11.1,27-21,16-.7,23.2,29.1-5.6,26.9-8.9ZM512.6,479.4c-1.6-1.8-13.7,13.7-15,15,4.3,1.6,17-12.7,15-15ZM321.6,549.4c.2-1.8,0-3-.9-4.6-1.5-2.4-23-9.2-27.7-11.3-14.8-6.4-28.2-14.4-41.2-23.8-5.9-4.2-10.5-10.1-18.1-12.4,8.5,18.6,19.2,36.2,30.1,53.4l43.4,5.6c1.7-9.9,5.6-15.4,14.5-7ZM554.6,512.4c-6.4-6-14.2-12.1-23-14,5.6,7,13.7,13.4,23,14ZM481.6,511.4c5.3-.6,11.9-6.5,12-12l-12,12ZM71.6,533.4c-.5-6.3,6.5-8.8,3.3-15.8s-8.5-7.3-10.3-8.6-8.3-6.1-8.9-5.6c1.7,4.9,7.5,8.7,9.6,12.9s.5,12.8,6.4,17.1ZM566.6,523.4c-9.9-7.1-19.4-7-29.9-14.6s-4.3-5.9-8.1-5.4c8.9,12.6,23.3,17.6,38,20ZM679.6,503.4l-10.5,6-5.5,8-1-2c-8.5,3.3-1.9,7.2-.6,11s-.1,6,.6,8c1.7-1.3,5.3-7,5.7-8.7.8-3-.5-6.4.8-9.2s11.6-12,10.5-13ZM583.6,537.4c-13-12.3-32.6-11.7-46.9-21.6-3.2-2.2-6.8-6.6-9.6-8.4s-2.5-.8-2.5.5,8.4,9.7,10,11c13.7,11,33.6,10.8,49,18.5ZM597.6,554.4c1.1-1-2.7-4.3-3.5-5-19.8-16.9-44.3-14.4-62.4-28.6-3.7-2.9-6.6-8-11.1-9.4-1.6,1.8,4.9,9.5,6.5,11,17,17,37.3,14,56.6,23.4,1.8.9,13.4,9.1,13.9,8.5ZM552.6,602.4c-.9-3.6-3.9-6.6-5.5-10-12.1-26.1-1.4-51.4-25-73s-4.7-4.6-6.8-3.1l-1.2,3.1c26.3,21.6,15.4,59.9,38.5,83ZM481.6,533.4c-7.2.2-10.7-6.9-14.5-11.9-8.9,4.4-17.7,9.3-26.8,13-5.3,2.1-23.5,7-26.1,8.9s-1.7,2.7-1.6,4.9c8.3-8.1,14.9-5.3,15.2,6.3l1.4,1.6,39.7-4.1c4.2-1.2,10.5-14.8,12.7-18.8ZM535.6,581.4c-4.5-21.2-5.7-46.7-25.5-60-1.3,1-1.9,1.6-1.4,3.3s8.1,9.9,9.7,12.4c8.7,13.6,9.8,27.3,15.4,41.6.4,1.1.3,3,1.7,2.7ZM527.6,573.4c-1.6-11.2-5.6-24.2-11.5-34s-7-11.4-12.5-12c6.4,8.4,13.2,16.4,17,26.5,1.8,4.8,2.5,10,4.2,14.8s1.3,4.5,2.8,4.7ZM519.6,563.4c-2.8-12-11-23.8-20-32,3.8,11.4,12.4,22.7,20,32ZM616.6,590.4c-6-18.1-21.8-36.5-39.7-43.8-7.7-3.1-15.4-3.6-23-6s-11.5-4.9-17.2-7.3c8.2,16.6,5.6,36.6,12.8,53.7s17.9,25.7,29.6,31.4,2.8,1.9,3.5.5c-13.6-8.5-25-19.5-29.7-35.3s-2.4-26.4-6.3-39.2c20.5,5.5,41.1,9,56,25.5s9.1,13.7,14,20.5ZM494.6,546.4l-5.5-12-2.5,1.7-8,13.3,16-3ZM291.6,597.4l-31.6-41.9-65.4-19.1c26.3,28.2,60.9,47.8,97,61ZM173.6,637.4c0,1.9-.3,3.8,1.5,5l8.4-3-.5-6,5.5,6c-.9-8.2-.2-14.6-4.6-21.9-6-10.1-17.3-17-28.9-18.1-11-1-31.3,3.4-32.5-13.5s3.8-7.9,5.6-11.5-9.1-3.4-11.1,2.9l-1.5,6.6c-3.7-5.3-4.7-13.6-3.9-19.9s6.6-13.9.4-20.6c-1.6,1.1-1.3,2.7-1.7,4.3-4.9,20.3-8.3,37.6,10.7,51.7,18.6,13.8,57.8.2,60.3,32.9-3.3,0-6.2,4.4-7.8,5.1.2-4.1,4.3-7.5,0-10.5-15.9-3.4-12.1,16.1,0,10.5ZM627.6,578.4c1.2-12-2.1-23.2-3.5-35-7.5,5.1-3.1,13.3-1.6,20.6s-.2,10.7,5.1,14.4ZM337.6,549.4l9.4,5,2.3-4.5c-18.6-15.1-21.8,6.3-15.8,20.5-2.7.6-1.7-.7-2.5-2-1.2-2.1-1.4-3.8-3.6-5.5-3.8-3.1-10.6-2.1-11-8.5l-2.5,11.5c.3,3.1,1.9,6,5.5,5.5-1.9-2.9-5.3-8.4-1-11-1.7,9.3,7.8,8.2,11.5,14s3.5,12.2,4.6,17c1.7.2,1-2.4,1-3.5,0-12.8.7-25.7,2-38.5ZM377.6,569.4c1.6-8.1,3-14.7-3.5-21-5.8-5.6-7.3-4.8-13,0s-8.4,9.8-4.5,18c2.6.5,1.5-.4,2.1-1.4,1.4-2.8,2.3-6.1,4.1-8.9s3.1-5.1,4.3-4.7l4.4,4.6,6.2,13.3ZM399.6,574.4c3.1-10.5,10.5-32.3-8.1-28.6-3.4.7-5.6,3.2-9.9,1.6,3.5,2.9,5.2,8.2,10.3,5s1.2-3.7,3.7-3l4,32c2.4.5,1.6-.4,2.2-1.3,2.1-3,6.8-12.1,11.3-11.7s.8,4.5,4.4-.6,2-10.6,2.1-15.4c-2.1.4-1.9,4.6-3.3,5.7-2,1.6-9.7,2.9-11.8,6.7l-5,9.5ZM550.6,547.4c2.1,18.7,3,36.1,15,51.5,6.5,8.3,22.8,21.3,33.5,21.6s16.4-9.2,16.4-15.4c0-12.4-15-33-24.5-40.6s-26.6-10.8-40.5-17ZM498.5,550.5c-8.5,2.1-18,2.3-25.8,6.4l-29.1,39.4c23-6.7,44.8-18.1,63.9-32.5l-9.1-13.4ZM339.6,563.4c.3-4.1,4.3-8.3.5-12-1.3,1.3-1.4,3.7-1.5,5.4s-.7,6.3,1,6.5ZM116.6,569.4c5.9-1.6,9-3.4,12.5,3,3.5-.6,2.6-3.3,1.7-5.7-2.1-5.6-9.1-8.6-12.7-13.3l-1.5,16ZM304.6,561.4l-36-4,29.5,39,8.3-9.6c-3.6-9.2-4.8-15.7-1.8-25.4ZM372.6,580.4c2.8-7.9-1.7-16.3-5.5-23-5.9,6-7.5,15.1-6.2,23.2s.4,3,1.7,2.7c-.5-2.1,2.2-14,3.5-14l2.7,2.3,3.8,8.7ZM391.6,576.4c1.5-1.5-6-19.7-9.5-19s-.5,5.6-.6,7.4c-.1,2.9-1.7,6.3-.9,9.6,4.8,1,5-2.8,8-5v6.4c0,0,3,.6,3,.6ZM465.6,557.4l-35.9,4.1c-1.5,5.4-.6,10.9-1.1,16.4s-2.2,4.8-1.9,7.1c.3,3.2,8.9,7.7,8,12.5l31-40ZM351.6,559.4c-2.3-.6-1.6.4-2.3,1.3-1.6,2-7.7,12.8-5.7,14.7h3s0-7,0-7l9,7c1-6.1-2.2-10.6-4-16ZM427.6,642.4c29.5-5.8,58.3-17.2,84.3-32.2,3.8-2.2,17.5-10,19.7-12.3s1.3-1.2.6-2.5l-19.1-24c-.8-1-1.4-.8-2.6-.5-3,.9-13.7,9.1-17.7,11.4-18.2,10.4-37,18.5-57.1,24.4.1,4.4-5.4,10.7-6,13.5s2,7,1.8,10.7-2,8.5-4,11.5ZM327.4,575.7c-3.8-3.1-10.1.9-14.7-1.3.8,11.4,6.6,9.8,13.9,13.6s3.3,4.1,6.1,4.4c-1.2-5.8-3.6-11.2-10-12,1.2-2.8,5.5-.1,7,1,.7-.9-1.4-5-2.3-5.7ZM420.6,574.4c-14.9-3.1-20.6,7.8-21,21,2.5-1.1,1.8-5.7,2.4-8,1.3-4.4,4.3-9,9.5-7.5-4.3,2-9.4,6.2-8.5,11.5,6.5-6.5,17.5-4.6,17.5-17ZM131.9,595.1c8,7.3,19.5-9,8.1-16.6-8.9-5.9-15,1.7-11.4,10.9,2.2-.3,0-3.6,3.5-4.1s4.2.6,5.4,2.7c.4,2.3-4.8,5.3-6.9,3.4-.4.6.6,3.2,1.3,3.7ZM358.6,591.4c.2-4.2.7-9.5-3.6-11.9-14.9-8.3-17.4,16.2-2.4,14.9,0-1.5-1.9-1.1-2.9-2.6-2.4-3.5-3.1-7.3.4-10.4,3.1.3.5,5.6,2.7,7.8s4.3,1.2,5.8,2.2ZM380.7,591.4c5.1-3.9.4-10.2-2.5-14-4.3,3.1-6.6,9.7-3,14l5-2.1.5,2ZM380.6,594.4c7.1,1.3,13.4-4.1,12-11.5s-4.5-5.3-8-3.5c-.9,1.2,6.9,7,0,12.6s-3.9.8-4.1,2.4ZM579.6,624.4c6,5.5,15.8,7.1,23.6,8.9,3.6-.2,24.4-20,25.2-23.6,1.6-7.2-4.9-16.4-6.8-23.3-1.9-.2-.8,2-.5,3,1.4,5.7,6,14.6,4.4,20.2s-17.9,18.4-20.7,19.2c-8.2,2.4-17.4-2.3-25-4.5ZM329.6,600.4c-2.3-9.4-19.8-9.2-21.8-.3s2.2,21,13.7,15.7c9.7-4.5,5.3-20.3-4.9-13.9,3,.9,6.9,2.5,4,6-5,3-11.7.2-9.4-6.5s14.4-6.3,18.4-1ZM379.5,599.5c-.9-.6-3.5.2-5.2-.3-2.6-.8-5.6-10.8-11.2-3.8-2.6,3.3,0,4.8-7.4,4.1-1.7,3.7-1.8,8,1.4,10.8l4.5-2c.6,3.4,1.9,8.1,6.3,6.9l6.2-7.9,5.5,4c1.1-2.2,1.6-10.8-.1-11.9ZM417.6,600.4c-15.7-2.9-12.5,19.4,3.3,15.8s7.6-12.5,5.2-17.8-14.7-6.5-19.5-1.5c3,.6,4.9-1.7,8.4-1.5,12.9.9,12.2,17.8-.5,11.3l-.4-2.4,3.5-3.9ZM349.6,601.4c-9.1-1.4-12.9,3.6-10.8,12.3s3.2,4,3.4,5.2-.9,4.3-.5,7,2.2,4.9,2.9,7.6l8-15.5-7,.5,4-5c-5.3-.6-7.4-2.6-5.6-8.1l5.6-.9v-3ZM394.6,618.4c1.7-4.4,3.2-8,1.3-12.7-3-7.4-12.8-3.4-11.2-2.3,6.2-.6,8.2,4.9,6,10l-5-2c-1.5,2.8,7.3,3.7,4,5.5l-8,.5c-.6.5,5.8,13.9,6.5,15,1.7,2.6,4.2-4.1,4.4-5.6.7-4.4-.3-6.6-1.9-10.4l4,2ZM537.1,601.6c-24.7,17.2-52.7,31.5-81.5,40.3-10.1,3.1-24.1,4.7-33,8-5,1.8-7.9,6.8-15,3.9-2.7,6.3-1.1,8,5.4,7.4s20.5-4.1,28.8-6.2c36.1-9.1,71.9-25,101.8-47.2l-6.5-6.3ZM132.6,609.4c-1.3,1.2,7.5,9.5,9.7,9.8s3.2-1.1,4.3-.4c2.4,1.4,2,11.5,11.3,14.8,1.5.5,1.2,1.2,2.6-.7-2.2-4.4-4.4-10.2,0-14.1l7-.9c-.3-3.7-14.9-6.4-18-5s-2.8,3.9-4.5,3.5c-3-6.6-5.8-6.2-12.5-7ZM342.6,648.4c.8-7.3-12-25.9-12-35l-3,6-1.5-2c-3.6,3.5-12.4,2.9-13.5,8.5s-.4,10.4,3,12.5c-1-8.8,4.2-13.7,11-18-.8,4.8-.7,9.7-2.1,14.4s-4.8,7.1-4.9,11.6c6.5-1.4,10.9-6.3,15-11-.4,3.5,3.2,12,6,13.6s1.5-.5,2-.6c-.2,1.6-.5,3.1-2.5,3l-3.5-5,2.6,9.1,14.3.9c1.3-1.1-6.5-8.5-8.7-8.8s-1.8.7-2.3.8ZM414.6,645.4c-.9-4.4-4.2-7.7-5.5-12-1.9-6.2-1.1-15.3-6.5-20,0,3.3-.6,6.8-1.5,10-1.6,5.5-8.8,18.3-9.3,21.7s1,4.3,1.8,6.3c-4,.3-2.4-3.9-3.5-6-4.2,2.6-8,5.7-10.5,10,12.1,1,18.1,1.4,21.8-11.7s1-3.5-.8-3.3c-.8,3.3-1.6,7.4-5,9l4-14c2.8-.5,1.6,2.2,4,4.5s10.2,6.2,11,5.5ZM380.7,643.4c4.1-.5,5.5-6.7,4.8-10.3s-4.9-10.4-6.4-12.7-2-4.4-4.4-4.1l3.5,21c-3.7.3-10.1,13.6-12.5,11.9l-9-15c0,3.6-2.6,6.5-1.8,10.3s9.4,11.9,12.2,11.8c6.6-2.8,13.2-9.2,11.6-17l2,4ZM419.6,635.4c9-11-4.3-14.5-12-19,0,9.5,14,8.3,12,19ZM560.6,643.4c2.5-6.3-6.5-9.5-7-12.5s1.1-7.9,2.9-11l-5.8-3.5c-5.6,8.8-3.4,18.1-5,28l4-9c1.8-.1.7,2.1,2,3.5s8.3,5.2,9,4.5ZM358.6,617.4c-9,3.3-14.1,19.3-6.5,26l6.5-26ZM643.5,648.2c1-10.7-1-22.1-7.4-30.8-2.1-.4-1.7.8-1.3,2.3,1,3.6,3.5,7.1,4.5,11.5s1.6,9.9,1.3,15.2c-10.9.8-17.4-.5-26.5-6-1.3-.8-2.5-.8-2.5.5.4,5.9,26.6,11.3,31.8,7.4ZM368.6,629.3c-5.6.7-4.8-5.2-6-8.9-5.6,6.5-1.3,16.1,4.5,21,6-5.1,7.9-11.4,5.5-19-2.1-2.2-3.4,6.5-4.1,6.9ZM633.6,620.4l-6,2.5c.5.3,7.2,1.2,4,3s-7-.6-6,2,9,10.9,12,13.5l-4-21ZM333.6,688.4c-5.5.1-8.6,3.6-14.5,4-27.7,2.1-23.3-23.7-42.9-33.2-23.9-11.6-39.3,5.1-59.1,2.1-10.7-1.6-19.7-11.5-19.6-22.4s6.3-16.3-6.9-16.5c3.7,12.2-5,23.1,3.5,34,13.2,17.1,37.2,7.6,54.5,5-16.7,15.8,2.6,30.8,20.3,26.8s9.4-18.6-2.3-16.8c4.2,14-20,13.7-19,0l5.3,1.9c2.4-1.2,5.5-5.1,2.7-7.4l-6-2c25.2-12.2,31.5,18.2,46.7,29.3,8.8,6.5,18.2,8.8,28.6,4.9,4.7-1.7,10-3.8,8.7-9.8ZM542.6,623.4c-13.5-1-5.7,10.3-5.9,17.5s-7,15.3-14.7,18.4c-20.9,8.3-39.4-12.7-64.7.3-17.9,9.2-16.2,32.9-40.2,32.9-6.6,0-10.4-3.6-16.5-4.1-1.4,6.6,8.2,10.4,13.5,11,34,3.9,34.2-34,56.2-37.8,5.6-1,14.8-1.2,16.3,5.8l-5.3-2.8c-7.2.6-1.9,12.1,4.3,7.8,1.9,12.9-23.6,12.5-19-1-11.6-1.9-9.7,16.3-.5,17.1s12.8-.9,14.8-1.3c5.6-1.1,10.5-7.6,10.8-13.3s-2.6-7.9-2-12.5c16.3,3.4,38.2,11,51-4.5,8.7-10.6-1.1-22.2,2-33.5ZM419.6,638.4c-.6-1.8-5-13.9-8-11-1.2,2.5,6.4,12.7,8,11ZM562.4,627.5c-9.7,1.7,3.3,17.6,7.8,7.8s-3.7-8.5-7.8-7.8ZM211.4,633.6c-7.3-8-15.7,7.7-6.2,13.7-1.9-7.6,11.5-7.9,6.2-13.7ZM530.6,647.4c4.6-3.3,5.8-10.9,1-14.5s-9.7.2-9,5.5c7.2-1.2,8.5,2.5,8,9ZM634.6,643.4c1.9-1.6-11.3-11-12.7-11.9l-7.3,6.4c5,5.5,13,5.8,20,5.5ZM235.6,653.4c-3.8,0-7.6-2.2-9.4-2s-4.5,3.8-7.6,3c8-6.1,9.2-17.4-3-18,.1,5.8,1.1,9.8-3.9,13.6,5.4,8.3,15.2,10.5,23.8,5.2v-1.9c2.1,0,13.1-.7,13.1-2.5-3.7-3.6-11.2-1.7-15.2-3.5s-4.2-8.5-5.8-.5c.8,2.6,6.6-1,8,6.5ZM518.6,636.4c-17.2.4-5.3,27.8,4.8,13.5-3-4.3-5.2-8-4.8-13.5ZM593.6,641.4l-11-3.6c-53.7,40.2-117.9,67.3-185.4,72.7-2,.7-2.8,7-2.5,9.2l2.2,1.5c69.4-6,134.5-34.4,190.7-74.4l6.1-5.4ZM189.6,654.4l-5-13.5-7,2.6,1.4,4,10.6,6.9ZM555.3,648.1c3.1-3.5-1.2-6.3-4.7-6.7l-6,14c2.4-2.4,8.9-5.2,10.7-7.3ZM506.6,643.4c-3.7-.4-5.4,3.6-9,4.5s-10-.6-13,3.5c3.6,1,8.1.8,11.5,2s4.9,4,9.3,4.7c3.8.6,7.2,0,10.3-2.3-5.2-4.8-10.5-3.7-17-3.5,2.4-8,3.1-2.7,8.5-5l-.5-4ZM398.6,661.4h-61.5c-.9,0-4.3,6.9-3.5,8,1.5-.8,2.7-1,4.4-1.1,14.9-.4,30.2-.2,45.1,0,2.7,0,16.8,2.4,17.4-.5l-2-6.5ZM505.3,670.7c-2.4-2.8-10.3-4.4-13.7-6.3,3.1,8.6.7,16.4,13.3,12.1,1.7-1.5,1.9-4,.4-5.8ZM228.8,670.5l1.2,6c9.2,3.6,10.5-2,9.6-10.1l-10.8,4.1ZM309.6,686.4l-3.1-8.5c2.4-3,8.7-7.2,1.3-9.3-10.6-3.2-9.9,19.9,1.7,17.8ZM431.3,684.1c5.1-4.6,2.7-18.9-6.4-15-4.8,2,.6,5.8,1.2,7.4,1.5,3.5.4,6.9-1.5,10,.9.6,5.7-1.4,6.7-2.3ZM327.6,681.4c-2.3-2.7-.8-9.8-4.5-10-10.5-.8-16.4,19,.5,16.1l-4-8,8,2ZM410.6,687.4c17.6,2.4,12-16.4-1.5-16l-2.5,10,4.5-3c6.6,1.4-1.6,8-.5,9ZM400.6,674.4c-11.4.3-23.2,2.4-34.5.9-10.3,1.2-20.3-.8-30.3-1.7-1.5-.1-2.7-1-2.3,1.3s4,5,6.6,5.4c9.6,1.5,40.7,1.1,51,.1s9-1.8,9.4-6ZM296.6,697.4c-2.4-2.8-5.4-3.5-8-6.5s-3-5.7-5.2-6.8c-6.6-3.2-11.1,4.6-7.8,6.8s4.4.1,6.3.7c4.5,1.3,9.5,5.4,14.7,5.8ZM459.6,691.4c-.8-6-4.9-10.8-10.5-6-1.7,1.5-2.4,4.2-3.8,5.7s-5.4,2.9-6.7,5.3c8-.2,12.6-6.9,21-5ZM359.6,709.4c.2-11.5.4-28.2-16-22l9.4,7,6.6,14.9ZM370.6,708.3l5-22c-3.9,4.8-8.5,1.1-14,2l2.1,19.9h6.9ZM391.6,687.4c-14-2.5-17.7,11.9-17,23,2.9.5,1.6-.7,2.1-2.3,1.8-6,1.5-10.6,7.5-14.5s8.2-1.7,7.3-6.2ZM354.6,711.4c.9-7.7-2.2-17.3-11-18l5.8,6.7c1.9,2.7,2.3,5.8,3.2,8.9s-1.1,3,2,2.4ZM390.6,694.4c-7.4,1.3-12.1,11.3-10,18,3.2-2.4,2.7-7.1,4.8-10.7s4.8-4.1,5.2-7.3ZM325.6,702.4c2.2.6,3.6,1.3,6,.6,4.7-1.4,3.2-6.6,0-5.1l-6,4.5ZM408.6,702.4c.6-.8-7.4-6.2-9-5,1.4,6.5,2.6,7.1,9,5ZM382.6,725.4c1.6,1.6,1.8,1.8,2.5,4l2.5-.5c.3-3.2-4.6-6.4-7.3-7.7-10.6-5-22.5-3.4-31.7,3.7,3.8,1,2.1,6.8,6.5,7.5,1.6,0,0-7.8-1.5-9,3-2.3,5.6,7.8,9,8-6.4-16,14.8-17,9-1,4.5-2.8,5.3-10.6,11-5-4.4-.5-5.6,3.1-5,7-1.6.2-3.1-.4-3.5-2-1.6,2.8-2,3.6-5.5,3-.9-.9,4-14-2.5-12s-.9,8.6,1.5,10c-4.6,1.6-5.4,2.1-10,0l-1.5,5c-2.8.5-6-5.8-12.8-4.1-1.7,1.4-1.9,4.1-2.7,6,5.2-3.8,10.6-1.6,14,3-4,.7-10.9-5.7-12,1l9,1.5c-2.5,2.7-6.8,1.2-10,1.5l-1-7c-3.3,8.5-2.5,12.5,2.2,20.4s2.3,2,2.8,2.6c-1.3-2-.5-1.4,1-1.7,8.2-1.8,3.3-3.2,4.1-4.2s4.4-1.5,4.9.5c.8,3-7.5,9.5-10,5.5.4.5.3,1.9,1.4,3,4.6,4.6,8.4,5,14.6,6l-1-9c-3.7.8-4.1,3.5-4,7-4.9.7,0-9.4,1.5-10,3.8,6.1,4.2-4.6,8.9-4.1s6.4,12.8,4.6,17c10.8-3.6,3.3-6.8,1-13,1.3-1.2,7.3,4.1,7.9,5.7l-2.9,5.3c2.4,1.3,11.8-6.2,11-7-7.4,2-10.8-4.7-8-11l4.4,8.1c9.7,6.4,13.4-16.8,7.4-25.4-5.5-7.9-13.6,6.9-14.8-1.7,4.9-.5,5.3-2.2,5-7ZM367.1,755.4c-5,3.7-1.2,10-2,15,5.3,7.3,6.5-15,2-15ZM395.6,783.4c-.1-15.7-7.1-7.7-14.8-5.3-5.6,1.8-17.6,1.9-23.6,1.1s-19.6-12-19.2,3.2c1.8,2.6,11.6.8,15.1.9,7.2.3,12,0,18.9,0s15.7.2,23.5,0ZM331.6,807.4c1.3-3.7,4.9-4.6,7.2-8.3s3.3-6.2,2.8-9.7c-4,2.6-4.8,8-8.5,11s-8.4,3.9-12.1,6c.1,5.5,11.6,9,15.3,6.8s6.6-8.2,7.1-9.4c1.9-4.1,2.2-9.2,4.1-13.4-2.2-.5-2.3,1.1-3,2.4-3.2,5.6-4.7,14.4-13,14.5ZM341.6,814.4c3.8,6.2,11.8,8,17,2.5-3.7-1.9-7.8-7.4-8.5-11.4s3-9.3,3.6-12.5,1.7-2-.6-3.5c-2.5,0-2.1,2-2.5,3.4-.7,2.1-2.4,7.8-2.6,9.5s1.8,3,1.3,5-4.6,9-7.6,7ZM394.6,789.4h-3c-1.4,1.3,5.7,16.4,9.5,17l-1,2c-7.6-1.9-8.3-10.8-11.2-16.7s-.8-2.6-2.2-.8c2,14.3,13.5,34.1,27,16-3.9-3.1-7.9-2.6-12-6s-6.7-7.4-7-11.5ZM360.6,790.4c-2.8-.5-1.6.7-2.3,2.2-1.2,2.9-4.1,11.3-3.6,14.1l11.4,13.7c4.6-3.1,13.5-9.8,13.6-15.5s-2.9-14.4-3.6-14.5c-2.2-.5-2.2-.5-2.5,1.5-1.2,7.4,4.3,16.5-7.1,20.1-1.6-.2-5.9-6.4-5.9-7.1v-14.5ZM370.6,790.4c-6.7-.7-6.8.2-7,6.5s-.2,9.6,3.5,12.5c.4,0,3.5-4,3.5-4.5v-14.5ZM383.6,790.4c-3-.1-3.3-.6-2.9,2.4s3.5,11.5,5.9,13.6l-3-16ZM387.6,814.4c.2-3.2-.9-6.5-4-8-.8,5-4.6,8.2-8,11.5,5.7,3.7,14.1,1.2,19-3l-4.5-3.5-2.5,3ZM402.6,844.4c-.2-4.3.5-9.4,2.2-13.3s6.7-6.7,6.8-11.7l-6,2,1,6-4-2c-2,5.6-8.5,15.7,0,19ZM328.6,821.4c-.7-.6-3.4.2-4,1.5,5.1,6.9,5.4,11.9,6,20s3,1.7,4.1-.9c3.2-8-1.6-11.3-5.1-17s-.8-3.4-.9-3.5ZM344.6,824.4c-2.3,1.3-10.4-3.8-11-.5l4,9.5,7-9ZM400.6,822.4l-9,2,4.5,7,4.5-9ZM373.6,825.4v18c0,.3-5.2,0-5.1,3.9l-1.4.2c-1.4-.2-6.5-5-7-6.1-1.2-2.6,1.8-12.2.5-16-3-.5-1.6.7-2,2.4-.8,3.2-.6,9.2-3,11-5.5,4.2-10.3-3-7.3-3.4l3.9-.9c0-1.4,2.2-7.8,0-8s-8.4,9.4-8.4,11.5c2.7,9.6,9.1,6.5,15.9,3.5-.4,4.8,4.7,8.4,7.5,12,2.4-3.6,7.2-6.6,7.5-11,1.1-1,9.1,5.1,13.7-.3s-5.2-17.2-7.7-14.7c-2,5.4,6.8,6.6,5.9,10.3s-6.7,3.4-8.7,1.4-1.4-9.2-2.1-11.4.8-2.8-2.1-2.3ZM363.6,826.4c1.1,4.5-2.8,14.1,2,16.5,9,4.5,3.7-13.8,6-17.5l-8,1ZM328.6,847.4c-3.9-7,1-14.7-7.3-19.2-6.3-3.4-12.4-.6-16.7,4.7l4,1.5h-5c-.7,6.1,3.4,6.5,8.3,5s2.3-7.6,5.7-8c-2.2,8.6-.4,20.4,11,16ZM428.6,833.4c2.1-2.9-12.5-12.2-19.4-1.9s-1.3,5.9-1.7,9.5-2.8,3-1.4,5.5c2.1,4,6.5,3.1,9,0,3.9-4.8,3.2-10.5,1.5-16,3.2.3,4.9,8.9,5.6,9.1,4.1.3,8.8.3,8.4-5.1l-6-.5,4-.5ZM312.2,841.6c-3.1,1-7,1.1-8.1,4.7-1,14.1,18.9,6.9,8.1-4.7ZM422.2,841.5c-3,2.9-5.8,8.6-1.3,11.1,10.2,5.6,14.1-11.1,1.3-11.1ZM335.6,864.9c.5-4.4,0-10.4,0-15s2.1-1.7.5-2.5c-10.1,6.3-4.6,9-5.6,17.4s-4.6,10.3-4.9,16.1c-.2,4.2,5-1.7,5.9-3.1,1.3-2.2,3.9-10.4,4.1-12.9ZM404.4,852.6c-.2-.3-6.3-4.7-6.8-4.2,2.5,11.5-2.2,25.8,9,34,1.2-5.8-2.5-11.2-3-16.5s1.4-12.2.8-13.3ZM353.6,849.4c-11.3-.9-12.6,8.2-9.7,17.2,4.5,14.1,14.6,4.9,15.7,5.8-6.6,3.9,5.5,15.6,8,14.5,4.5-3.7,9.7-6.9,10-13.5,15.3,7.5,20.6-26.4,4-24-1.1,1,4.7,6.7,3,10l-2,.5,5,4-7,4.5c-.8-6.4,1.1-12.9-3.5-18l-3.9,17.2.2,3.6-7.2,4c-.7-.8-5.5-5.2-5.6-5.6-1-4.9-1.5-9.9-2-14.9s-.1-2.5-1.6-3.4c-5,4.8-5.6,9.4-3.5,16l-3.5-1c-1.9-6.7,0-11.5,3.5-17ZM413.5,855.5l-3.9-.6c-6.2,8.5,4.2,22.2,14,20.5-1-8.4-11.9-9.9-10.1-19.9ZM325.5,855.5h-4.9c.4,3.3-.2,5.6-1.8,8.6-2.9,5.4-9.1,5.2-7.2,12.3,10.1-.5,17.3-11.4,13.9-20.9ZM308.6,864.4c-.4-3.2,1.9-3.8,4-5.5l-1.5-2.3-5.5.9c0,2.8-.9,7.1,3,7ZM428.6,857.4l-5,1.5,2,6.5c3-1.4,3.2-5.2,3-8ZM367.6,871.4c1.4-4.3,4.7-8.1,4-13-3.5,3.2-4.8,3.9-9,1-.8,1.8,3.6,12.9,5,12ZM346.6,878.4l-5.5-9-2.5,13c3.2-.4,4.6-3.3,8-4,0,3.3-9.6,7-9,12,7.2.7,11.4-5.6,14-11.5,0-.8-4.2-.7-5-.5ZM393.6,870.4c-2.4-.5-1.6.4-2.2,1.3s-3.9,5.8-3.8,6.2l6.5,5.5c3.6-3.3-1.2-8.7-.5-13ZM424.6,893.4c2.7-3-10.2-17.3-13-19.5s-1.3-1.9-3-1.5l2.5,11,13.5,10ZM309.6,892.4c6.7-5.6,17.3-7,15-18-7.3,3.2-14,9.8-15,18ZM383.6,899.4c6.8-1.8,2-5,1.3-7.8-1.2-4.3-1.3-9.1-3.8-13.2-6.4,5.6,1.3,8.4,2.3,11.7s-.1,6.4.2,9.3ZM396.6,890.4l-4-5.5-8-6.5c0,7.5,3.8,13.3,12,12ZM349.6,897.4c.4-5.9,5.5-11.2,4-17l-6.8,14.7,2.8,2.3ZM358.1,885.4c-.7,0-5.1,11.6-5.7,13.3s-1.2,2.2.7,2.6c6.7,1.7,12.1-12.2,5-16ZM376.6,886.4c-7.9,1.5-3.6,16.6,4,15l-4-15ZM352.6,920.4c.4-7.9-3.8-16.6-10-21.5s-13.8-8.8-15-9.1c-1.9-.4-3.2.3-4.5,1.6l20.1,14,9.4,15ZM364.6,891.9v15.5l-4-5c-3.6,6.9,3.6,7.6,4.9,13.4l2,.6c1-5.2,9.6-8.5,5-13.5s-2.5-1-3-2.2c-.8-2.2-.5-6.6-1.2-9.1-1.3-.7-3.4-1.6-3.9.3ZM411.6,891.4c-5.9-3-16.2,4.5-21,8.5-5.5,4.6-10,10.9-9,18.5l9.9-13.5,20-13.4ZM331.4,951.2c.6-.4,5.5-11.9,5.9-13.6,3.8-14.7-1.6-32-16.2-38.2-3.5-.2,3.5,4.4,4,5,20.7,24.5-5.7,53.1-27,28l-1.2,4.3c20.4,80.5,31.1,167.9,57.1,246.7.9,2.8,2,7.2,4.5,9l-1-28.5-3.1-3,2.1-4.9-4-5c0-.9,4.1-.8,3-4.8l-4-3.2,4-5-5-4.1,3.9-5.8-5-5.1c0-2.6,5.2-2.4,4.1-6.9s-5.6-.9-4.6-4.7l4.5-5.4c-.5-2-9.1-2.2-5.1-8.1s5.2-1.7,4-5.4l-6.8-3.8c-1.4-4.7,4.1-4.8,4.8-7,2-6.3-12.2-8.9-9.4-19.4s6-7,5.6-11.4c-.7-4.9-12.1-4.5-13.8-12.3-2.9-12.8,7.8-18.5,3-29s-13.4-12.3-11.1-26.8c.7-4.5,5.3-6.7,3.7-11.8s-17.5-16.3-20.8-23.2l12.6,4.4c2.2.3,9.7,0,11.2-1.1ZM434.7,932.4c-15.5,24.3-44-.6-28.8-23.3,1.1-1.7,9-8.4,7.8-9.7-16.4,5.8-20.3,25.4-16.3,40.8.4,1.7,3.8,10.4,4.5,11,5.1,3.7,21.4-.3,25.3-5.8l.5,1.5c-5,6.3-12.7,12.4-17.5,18.5-8.8,11.2-1.8,9.2-.6,18.6,2.1,15.3-12.1,20.2-12.9,29.9s7.2,12.3,4.8,23.8-13,7.6-13.8,13.3,6.6,8.9,6,14.8-9.7,10.8-10,14.1,5.5,3.5,5.1,7.9-6.4,3-7.1,5.1c-1,3.1,2.9,3.4,4.1,4.9,4.2,5.5-4.6,6.2-5.1,8.1l5.1,6-6,6,3.9,4.2c.8,4.5-5.7,3-3.4,7.3s3.8,2.7,3.5,4.4l-5,4.1,2.9,4.8-2.8,3.3,1.9,4.8-3.1,5c0,3.5,6.2,2.4-.8,7.2l-2.2,28.3,2.9-1.6c24.9-83.1,41-168.5,59.9-253l-2.7-4.3ZM367.6,924.4c-.9.6-7.3-10.7-8.6-11.9s-1.5-2.1-2.4-.6c.2,15.3-.2,30.7,0,46,.7,69.1,1.6,138.8,4,208,.3,9.1,2.1,20,2.1,28.9s0,1,0,1.5c-2.5.5-2.9-3.5-5-.5l5.5,15.5c1.1-63.8.3-127.7.5-191.6,0-12.1-1.8-30.9-.7-41.8s1.9-3.5,1.8-7.1-2.2-5.6-2.1-7.9,3.6-9.6,4.5-9.6c2.2,1.6,5.2,8,5.1,10.5s-1.4,2.9-1.6,5c-.5,6,2,10.7-1,17v208.5c0,0,2.1-1.5,2.1-1.5,4.6-77.3,4.1-154.6,5-232.1,0-8.5,1.1-17.5,1.1-25.9s.9-15.9,0-21-.5-1.8-1.5-2.5l-8.5,13ZM382.7,961.3c12.1,0,14.7-13.2,3-17.5,3.3-7.4,1.1-15.7,4-23.4-8.3,7.1-3.7,19.5-6,29l5.7-.4,2,3.7c-.3,4.7-6.4,3.8-9.7,2.6l1,5.9ZM350.6,949.4c-1.6-9.2,1.7-20.5-6-28,1.8,7.6.2,15.2,3.9,22.4-11.6,4.7-11.1,18.5,2.9,16.5l1.1-5.8c-.6-.6-15.3,5.9-8-5.6l6,.5ZM345.3,967.7c-.9-1-11.9-10.5-12.7-10.8-2.8-1.3-6.9-.2-10-.5-.6,2.3.4,1.6,1.3,2.3,3.5,2.7,7.9,7.3,10.8,9.2,6.7,4.4,15.8,4.3,12,16.5,6.1-3.5,2.5-12.5-1.4-16.6ZM411.6,957.4c-3.1-.9-6.8-1.9-10-.5s-10.9,9.7-12,11c-3.7,4.3-7.3,10-3,15l.2-5.8c1.9-5.9,7.9-6.9,12.8-9.3l12-10.4ZM342,1032.7c7.2-6,10.9-6,9.7-17.9s-20.8-19.7-17.8-29.8,8.3,2.3,9.7-2.3-5.9-7.9-9.9-1.9c-8.9,13.3,17.8,25.8,12,42.1s-6.9,7.1-6,12.5c1.4,0,1.5-2,2.3-2.7ZM393.6,1034.4c.8-5.3-4-7.3-5.3-12.2-4.3-16.1,14.3-24.4,14.3-35.3s-6.8-12.6-12.5-7.5c-1.8,2.2.7,6,3.1,5.8s6.3-6.6,7.5.8c1.3,7.9-9.7,12.6-13.8,18.1s-6,15.3-2.6,23.2l9.4,7.1ZM350.6,998.4c0-3.1,2.6-6.7-.5-9l-6.5,3.5c1.2.9,5.6,6.7,7,5.5ZM389.6,992.4l-6-3v8c.6.7,7.2-3.3,6-5ZM351.6,1049.4c.5-8.5.1-19.6-11-12.9.8,4.3,5.8,2.8,8,6.4l3,6.5ZM381.6,1047.4c2.5-1.1,2.5-4.3,4.5-6s7.9-2.1,6.1-5c-4.6-7-12.2,6.2-10.5,11ZM353.6,1072.4c.8-.9-2.9-6.8-3-8.6s1.5-3.9.5-5.4c-4.9,4.8-4.6,11.9,2.5,14ZM380.6,1073.4c6.7-4.1,8-8.9,2.5-15-.8,2.1.8,3.8.5,6.4s-3.4,5.3-3,8.6ZM376.6,1193.4c-7.5,2.2-6,10.8-6,17l6-17Z"/>
  <g>
    <path d="M518.1,358c0,83.3-67.5,150.9-150.9,150.9s-150.9-67.5-150.9-150.9,67.5-150.9,150.9-150.9,150.9,67.5,150.9,150.9ZM509.9,357c0-78.7-63.8-142.5-142.5-142.5s-142.5,63.8-142.5,142.5,63.8,142.5,142.5,142.5,142.5-63.8,142.5-142.5Z"/>
    <path d="M505.6,358.4c-7.5,2.4-14.6,4.3-21.7,7.8-13.9,6.9-25.7,19-39,27-39.3,23.8-102.2,26.4-143.7,7s-44-34.9-72.6-39.9c2.7-4.3,9.4-1.4,14.4-2.1,13.7-1.8,37.8-25.6,51.1-33.9,46-28.8,98.4-29,144.8-.8s37.7,34.2,62.7,33.8c-2.9-3.3-8.2-3.3-12.4-5.1-15.8-7-31.6-26.2-46.3-36.7-51.9-37.1-112-33.3-160.8,6.8-15.1,12.5-29.1,32.1-49.5,35,19.2-15.3,33.5-34.6,53.7-48.8,55.8-39.3,119.5-34.8,171.8,7.8,10.3,8.4,18.6,18.9,28.5,27.5s13.1,9,19,14.5ZM391.7,333.8c0-6.4-5.2-11.6-11.6-11.6s-11.6,5.2-11.6,11.6,5.2,11.6,11.6,11.6,11.6-5.2,11.6-11.6ZM337.5,332.5l-7.8-1.1c-1.8,1.6,10.6,9.6,7.8,1.1ZM335.5,339.6c-.8-1.3-15.2-4.5-16.8-3.7-3.1,3.2-3.4,4.1.9,5s10.5,1.1,15.5,2.5c.9,0,.7-3.1.3-3.8ZM397.6,343.4c.6.6,15.7-2.3,17.5-3,4.2-1.6,3-3.6-.9-4s-18.7.7-16.5,7ZM302.6,347.4c2.7-1.5,2.7-7.3,2.5-10-5.7,4.1-27.5,13.3-30.6,18.4-4.4,7.4,5,22.3,10.6,27.6,14.5,13.7,42,22.6,61.5,25l-16.9-9.6c-16.2-11.8-25.2-30.3-25.1-50.4l-18,8c-.8-6.4,4.3-8.1,9.5-10.1s5.2,1.3,5.5-2.9l1,4ZM388.6,408.4c28.7-5.8,72-16.9,72.6-53l-32.6-18c-.5.6.9,7.5,2,8.5,2.3,2.3,11.5,2.5,13.8,3.7s7.7,5.8,7.2,7.2l7.1.9c2.2,4.4,1.6,5.4-2.7,3.8s-25.3-15.3-26.3-14.2c.7,20.6-8.3,38.6-24.1,51.4l-16.9,9.6ZM315.6,350.4h17.5l1.5-5c-3.7,1.3-16.6-2.8-18.6,0l-.4,5.1ZM418.6,350.4c1.8-11-11.9-3.8-18.3-4.8l-1.2.8c-1.6,1.8.3,4.1,2.1,4.1h17.5ZM335.6,353.4c-.5-.8-16.2-.4-18,1.5-2,2.4-1.4,5.8,2.3,5.4s10.6-4.3,15.8-3.8c-.1-.8.2-2.6,0-3ZM417.5,360.3l.7-3.9c-1.2-2.4-15.3-4.4-18.1-4.1s-2.5,2-2.5,2.6c0,1.1,19,6,19.9,5.4ZM396.6,362.4c3.8-.5,20.5,12.3,19.8,3.5s-15.1-7.2-17.5-7.3-1.2,0-1.8.8l-.5,3ZM337.6,362.4c.8-6.6-17.8.8-18.5,2-1.4,2.4-.5,5.4,2.8,4.9s11-6.6,15.7-6.9ZM396.1,363.6c-1.1.9-3.2,2-2,3.8s12.9,9.8,13.9,10.2c2.7,1.2,4.8-3.5,4.2-4.3l-16.1-9.8ZM339.6,364.4l-16.8,8.2.8,4.4,2.1,1,14.5-10.6-.5-3ZM392.1,368.4c-5.1,3,7.3,14.2,10,16s1.4,1.4,2.5.5l1.9-2.3c.3-.9,0-1.5-.3-2.3-1.4-2.6-11.9-8.6-14.1-12ZM341.2,369.4c-2.3,2.9-14.3,10.1-13.4,13.3,1.4,2.1,2,3.4,4.4,1.8s11.9-11.6,11.5-13.5l-2.5-1.5ZM346.2,373.4c-.9.2-11.2,12.8-11.4,13.7-.7,2.7,2.8,5.8,5.4,3.3s8.7-14.6,8.5-15.5l-2.5-1.5ZM387.2,373.4c-1.7.3-1.6,2.4-1,4,.9,2.2,9,14.3,10.8,14s3-3,2.2-4.9-8-9.8-9.1-10.9-1.4-2.4-2.9-2.1ZM382.1,376.4c-4.4,0,3.4,16.6,4.6,18.4s.9,1.8,2.2,1.5l3.3-2.9c-1.5-2.6-7.9-16.9-10.1-16.9ZM353.6,377.4c-3.3-.7-4.3,2.3-5.8,4.7s-6.4,11.4-5.1,13.2l3.3,1c2-.5,8.9-17.6,7.6-18.9ZM359.6,379.4c-2.2-.2-2.6-.2-3.8,1.7s-5.1,14.1-5.2,14.9c-.3,3.5,2.3,4.2,5.1,3,1-.7,4.8-18.7,3.9-19.6ZM378.7,399.3c2.9.5,5.1.2,4.8-3.2s-4.8-15.1-5.4-15.7c-1.1-1.4-1.9-1.1-3.5-1l4.1,19.9ZM365.6,380.4h-3c0,3.4-4.5,18-2.9,19.9s5.4,1.6,5.9-.4v-19.5ZM368.6,380.4v18.5c0,.4.9,1.2.9,1.9,1.2,1.5,4.4.8,4.9-1l-2.9-19.4h-3Z"/>
    <path d="M541,358c0,95.9-77.8,173.7-173.7,173.7s-173.7-77.8-173.7-173.7,77.8-173.7,173.7-173.7,173.7,77.8,173.7,173.7ZM357.8,193.8c0-2.5-2-4.4-4.4-4.4s-4.4,2-4.4,4.4,2,4.4,4.4,4.4,4.4-2,4.4-4.4ZM371.5,193.4c0-2.4-1.9-4.3-4.3-4.3s-4.3,1.9-4.3,4.3,1.9,4.3,4.3,4.3,4.3-1.9,4.3-4.3ZM376.8,190.5c-3.8,6,6.9,11.4,8.7,4.1s-7-6.9-8.7-4.1ZM395.2,190.6c-4.2,1.8-7.8,5.1-2.8,8.6,3.3,1,5.6-.9,7.3-3.5l-4.4-5.1ZM339.4,191.5c-7.2,2-1.6,12.2,3.3,7.4,3.6-3.5,1.4-8.7-3.3-7.4ZM330.3,195.7c-6.1-7-11.8,5.5-4.7,7.3s7.2-4.5,4.7-7.3ZM412.3,198c0-2.4-1.9-4.3-4.3-4.3s-4.3,1.9-4.3,4.3,1.9,4.3,4.3,4.3,4.3-1.9,4.3-4.3ZM313.3,197.6c-4.8.4-6.9,8.9-.2,8.9s6.6-9.5.2-8.9ZM425.7,202.1c0-2.4-2-4.4-4.4-4.4s-4.4,2-4.4,4.4,2,4.4,4.4,4.4,4.4-2,4.4-4.4ZM524.4,358c0-86.8-70.4-157.1-157.1-157.1s-157.1,70.4-157.1,157.1,70.4,157.1,157.1,157.1,157.1-70.4,157.1-157.1ZM300.3,202.6c-5.1.5-7,9.5-.1,9.8,4.7-1.3,6.6-10.4.1-9.8ZM437.9,206.8c0-2.4-1.9-4.3-4.3-4.3s-4.3,1.9-4.3,4.3,1.9,4.3,4.3,4.3,4.3-1.9,4.3-4.3ZM449.6,212.8c0-2.3-1.9-4.2-4.2-4.2s-4.2,1.9-4.2,4.2,1.9,4.2,4.2,4.2,4.2-1.9,4.2-4.2ZM286.3,209.6c-3.5,1-3.8,6.8-.7,8.3,6.7,3.4,9.7-11,.7-8.3ZM279.4,217.6c-3.8-3.2-7.1,1.1-9.7,3.2,4.8,9.6,14.3.5,9.7-3.2ZM452.7,217.5c-1.8,9.5,13.1,8.1,9.4.9-2.2-3.2-6.3-2.1-9.4-.9ZM464.9,224.6c-2.6,2.6.4,8.7,4.8,7.3,8.7-2.8-.3-11.8-4.8-7.3ZM264.4,224.5c-.9.3-4.5,3.8-4.6,4.5,7.2,12.9,14.9-7.4,4.6-4.5ZM255.3,232.5c-4.5.4-8.4,8.4-3,9.7s8.6-10.2,3-9.7ZM476.7,241.3c1.9.6,6.2-.6,6.8-2.6l-3.6-6.2-2.9.8c-2.4,2-1.3,5.4-.3,8ZM488.3,242.5c-5.2,1.3-2.1,11,2.6,9.8s2.1-11-2.6-9.8ZM243.3,243.5c-2.8,1-5.6,7.6-2.1,8.8s9.9-4.9,5.9-8l-3.9-.8ZM502.4,262.1c3.9-3.8-3.6-13.8-8.3-5.7l3.6,6.5c1.4.7,3.7.2,4.7-.8ZM234.4,254.5c-2.8.8-5,5.5-3.3,7.9,4.4,2.8,7.6-.2,8.4-4.8,0-2.5-2.8-3.8-5.1-3.2ZM510.5,273.2c2-3.1-1.4-10.1-5.9-7.4-1.6,1.1-1.3,5.6,0,7.2.9,1.9,5.3,1.3,5.9.3ZM226.3,266.6c-2.5.8-5.5,6.6-2,7.7,7.4,2.4,11-10.4,2-7.7ZM512.2,277.4c-4.6,1.4,0,14.2,5.9,6.9,1.7-3.2-2.9-7.8-5.9-6.9ZM216.7,286.3c1.7,1.5,7.1-1.1,7.8-3.6.2-4.5-4.4-5.3-7.6-3-1.4.9-.7,6.2-.1,6.7ZM217.4,297.2c2.7-12.7-13.2-5.1-5.1,2.2l5.1-2.2ZM517.7,290.5c-1.3,2.8-2.1,7.6,1.6,8.7,8.3,2.5,7-10.8-1.6-8.7ZM212.4,303.6c-2.2-2.3-9.1,1.2-6.5,6s10.7-1.5,6.5-6ZM527.4,303.7c-1.2-1.1-4.2-2-5.3-.3l-.3,6.4,2.1,1.9c5.9,1.8,6.9-4.8,3.5-8ZM209.5,323.2c1-1.6.2-6.4-1.8-7.4-4-2-9.1,6.6-4,9.1,1.1.6,5.6-1.3,5.8-1.7ZM527.3,315.4c-.9.3-3.7,4.4-3.5,5.3.4,2.5,6.1,6.5,8.4,1.6s-2-7.8-4.9-6.9ZM206.4,329.6c-3.5-2.3-7.4,1.3-6.8,5.2,1,6.9,11.8.9,6.8-5.2ZM528.8,329.5c-1.9,1.2-1.8,10,3.2,8.7,7.1-1.8,2.4-12.2-3.2-8.7ZM206,346.9c0-2.3-1.9-4.2-4.2-4.2s-4.2,1.9-4.2,4.2,1.9,4.2,4.2,4.2,4.2-1.9,4.2-4.2ZM537,346.9c0-2.4-1.9-4.3-4.3-4.3s-4.3,1.9-4.3,4.3,1.9,4.3,4.3,4.3,4.3-1.9,4.3-4.3ZM204.4,362.1c1.2-1.2,1.7-4,.4-5.3-4.8-6-11.7,6.4-3.6,6.4s2.5-.4,3.2-1.1ZM537.5,359.4c0-2.3-1.9-4.2-4.2-4.2s-4.2,1.9-4.2,4.2,1.9,4.2,4.2,4.2,4.2-1.9,4.2-4.2ZM206,371.9c0-2.4-2-4.4-4.4-4.4s-4.4,2-4.4,4.4,2,4.4,4.4,4.4,4.4-2,4.4-4.4ZM529.8,376.3c10,2.6,7.7-11.9.9-8.4s-2.1,5.8-.9,8.4ZM202.3,380.5c-5,1.2-2.5,10.5,2.4,9.4,5.9-1.2,2-10.5-2.4-9.4ZM535,385.1c0-2.3-1.9-4.2-4.2-4.2s-4.2,1.9-4.2,4.2,1.9,4.2,4.2,4.2,4.2-1.9,4.2-4.2ZM210.3,397.7c0-2.4-1.9-4.3-4.3-4.3s-4.3,1.9-4.3,4.3,1.9,4.3,4.3,4.3,4.3-1.9,4.3-4.3ZM524.7,402.3l6.4-1.9c2.1-5.6-1.5-7.6-6.3-4.8-1.6,2.1-1.1,4.4-.2,6.7ZM208.3,406.5c-3,1-3,5.2-.6,7.3,6.9,6.1,8.5-9.9.6-7.3ZM528.5,413.3c1.5-11.3-12.7-7.4-5.9,1.7l5.9-1.7ZM217.5,427.3c1.7-1.1,1.3-7.9-1.6-8.8-7.9-2.5-4,12.6,1.6,8.8ZM522.4,419.6c-4.9-5.1-11.3,9.3-2.5,7.6s5.1-4.8,2.5-7.6ZM223.3,431.7c-6.6-5.4-9.2,4.9-4.7,7.2s4.6-1.3,6.9-1.6c.7-1-1.4-4.9-2.2-5.6ZM516.4,438.1c1.3-1.3,1.8-4.8.3-6.3-10.7-5.7-7.9,13.9-.3,6.3ZM231.6,446c0-2.3-1.9-4.2-4.2-4.2s-4.2,1.9-4.2,4.2,1.9,4.2,4.2,4.2,4.2-1.9,4.2-4.2ZM506.3,442.6c-6.5,1.9-3.1,12.1,3.3,7.4,2.1-1.5,2-8.9-3.3-7.4ZM231.9,453.6c-2.3,1.9-1.1,7.2,2.3,7.8,8.4,1.4,4-13.1-2.3-7.8ZM494.7,461.3c.6,1,8.4,1.8,8-4.4s-11.5-1.5-8,4.4ZM245.4,470.2c3.7-2.2.5-9.2-4.2-7.7l-3.6,3c.7,3.2,4.5,6.6,7.7,4.7ZM490.3,463.5c-3.5.3-6.9,7.4-3,8.7,9,3,8.6-9.2,3-8.7ZM245.6,472.4l.9,4.6c3.4,3.3,6.6.7,7.8-3.1l-6.3-5.5-1.5,2c4.1.9,8.2,4.1,1.5,5l-2.5-3ZM481.4,475.2c.3-.6.7-2.7-.3-2.8l-5.4,6.6,4.9,2.4c-.8,3.7-5.4.5-6,1,2.6,7.6,8.7,2.5,6.9-3.9l-2.9-.6c-.5-2,2.4-2,2.8-2.7ZM262.6,483.4c3.3-4.1-12.1-11-8.8.3s5.1,4.3,5.8.2c-7.1-.6-3.2-6.6.5-2.5s1,3.9,2.5,2ZM263.8,485.5c-1.9,3.4-.8,6.7,2.5,8.7,8.5-2.1,5.3-10.1-2.5-8.7ZM471.6,485.4c-10.8-2.6-10.9,12.7-.4,7.1l.4-7.1ZM274.9,500.1c3.3,3,9-.4,6.5-5-3.7-6.8-12.1-.2-6.5,5ZM460.4,493.6c-4.6-4.4-9.9,2.6-6.8,6.3,3.9,4.8,10.4-3,6.8-6.3ZM293.5,503.4c0-2.4-1.9-4.3-4.3-4.3s-4.3,1.9-4.3,4.3,1.9,4.3,4.3,4.3,4.3-1.9,4.3-4.3ZM444.4,499.5c-3,.8-5.3,5.6-2.3,7.9,6.5,5.2,11.3-10.4,2.3-7.9ZM297.8,506.5c-2.8,4.5,3.5,10.9,7.8,5.2s-5.6-8.7-7.8-5.2ZM430.8,505.6c-.7.4-2.8,4.7-2.1,6.1l1.9,2.2,3.3.4c6.4-3.6,2.4-11.8-3.1-8.7ZM316.4,510.6c-7.1-4.1-9.2,9.4-1.6,7.6s4.3-6,1.6-7.6ZM424.5,511.5c-4.6-3-11.1,1.1-7.3,5.8,4,5,8.2-1.3,7.3-5.8ZM331.6,518c0-2.4-1.9-4.3-4.3-4.3s-4.3,1.9-4.3,4.3,1.9,4.3,4.3,4.3,4.3-1.9,4.3-4.3ZM411.9,518.2c0-2.3-1.8-4.1-4.1-4.1s-4.1,1.8-4.1,4.1,1.8,4.1,4.1,4.1,4.1-1.8,4.1-4.1ZM345.2,521c0-2.5-2-4.5-4.5-4.5s-4.5,2-4.5,4.5,2,4.5,4.5,4.5,4.5-2,4.5-4.5ZM398.5,518.6c-3.5-6-13.8,3.8-5.9,6.4s7.5-3.6,5.9-6.4ZM350.9,526.1c4.1,3.4,8.5-1.7,7.2-4.7-2.8-6.7-13.5-.6-7.2,4.7ZM371.5,522.9c0-2.3-1.9-4.2-4.2-4.2s-4.2,1.9-4.2,4.2,1.9,4.2,4.2,4.2,4.2-1.9,4.2-4.2ZM385.4,522.7c0-2.4-2-4.4-4.4-4.4s-4.4,2-4.4,4.4,2,4.4,4.4,4.4,4.4-2,4.4-4.4Z"/>
    <path d="M252.6,379.4c1.9-.1,3.4,1.5,4.9,2.6,10.3,7.4,19.8,15.8,30.8,22.2,51.8,29.9,113.3,28,163.6-4l32.7-24.3c-19.2,23.1-44.2,41.9-73,51-58.2,18.4-120-1.8-159-47.5Z"/>
  </g>
  <g>
    <path d="M367.3,943.5c1.3-.2,1.6.7,2.4,1.4,3.5,3.3,0,5.8-3.4,7.5-4.4-1.6-2.3-8.3,1-8.9Z"/>
    <path d="M366.3,933.5c2.4-.6,3.8,2,5.3,3.4l-3.6,3.3-4.3-2.5c-.5-1.7,1.1-3.9,2.6-4.3Z"/>
    <path d="M392.5,737.5c.2,2.3,1.1,8-1.5,8.8-2.4.1-6.3-.5-7.4-2.9l7-.5,1-3.5-11,1c1.1-3.1,10.4-5.2,11.9-2.8Z"/>
    <path d="M352.6,748.4c.6,3.7-5,2.5-7.3,3.2s-2.2,2.3-3.7,2.8l1.7-5.1,9.3-.9Z"/>
    <path d="M390.6,755.4l-.9-3.6c-2.1-1.6-7.9,1.5-7.1-2.4,5.1-2.7,14.1.6,8,6Z"/>
  </g>
</svg>