<?xml version="1.0" encoding="UTF-8"?>
<svg id="Calque_1" xmlns="http://www.w3.org/2000/svg" version="1.1" viewBox="0 0 848.8 874.2">
  <!-- Generator: Adobe Illustrator 30.0.0, SVG Export Plug-In . SVG Version: 2.1.1 Build 123)  -->
  <path d="M275,81c-1.4-3.5-.5-9.5,4-6.5s-2.7,7.6-4,6.5Z"/>
  <g>
    <path d="M405.8.3c279.9-10.5,492.4,237.5,432.9,512.9-17.4,80.5-57.7,148.1-113.4,207.6-.2,20.6,0,41.2-1.3,61.7s3.5,19.1-8.4,20.6c-19.4,2.3-43-2-62.8.2-80.7,51.5-183.9,81.3-280.1,67.7-49.2-7-103.8-25.9-147.3-49.7-5.8-3.2-24.5-16.3-28.9-17.1-6.1-1.1-17.1.2-24,0s-16-.9-23.9-1.1c-8.3-.2-23.3,3.5-24.6-7.4-2.5-22,2.2-48.7,0-71.1-.9-9.9-13.2-18.9-19.6-26.4C19.8,598.4-15.4,483.7,6.2,352.7,39,153.4,203.4,7.9,405.8.3ZM727,704c76.4-78.6,116.5-186.6,112-296.5C830.1,184.8,656.1,14.6,433.6,9,177.1,2.5-19.5,222.1,12.2,476.4c10.6,85.3,49.9,165.7,109.9,226.6-.4-4.6,1-10.4-.7-14.7s-16.1-18.6-20.2-23.8C-19.9,511.3-4.2,289.5,126,147.5c165.1-180.1,458-171.7,612,18.1,114.5,141.1,123.8,347,13.9,493.8-3.3,4.4-24.8,28.2-24.8,30.2v14.5ZM414,25c-3.3.2-7-.5-10.3.2-6.4,1.3-20.1,16.8-20.7,23.4-.9,9.3,8.5,7,10.5.4s-.4-8.4,3.4-13.6,8.6-4.4,14.8-4.7l2.2-5.8ZM494.7,33.4c-1.1-1.2-4.2-3.1-5.8-3.7-19.2-4-39.2-3.1-58.8-4.7.6,3,1.8,6.2.8,9.3s-6.3,2.2-5.8,5.7c5.6,1,12.9,1.1,16-4.4l-.9-6.6c4.2-.7,5.7,3.8,9.5,4.1s7.1-3.8,11.5-3.1c-.3,7.8-11.8,7.6-16.9,9.5s-6.1,5.4-10,5.5c-.3,3.1,2.7,3.1,5,3l-1,4c10.6,1.8,13.5-6.6,19.4-11.6,4.6-4,5.4-1,9-1.5s3.7-2.5,5.9-3.2c6.1-1.8,15-.4,18.3,5.3.6-6.3,6.3-1.9,5.6,2.5-1.2,7.5-11.4-2.3-15-3-12.8-2.7-11.1,4.2-15.6,12.5-4.1.5-3.3-9.1-6-8l-7.5,9,25,4c-7.4-12.1,13.6-16,12-9.5s-10.3,1.3-5.5,7.6,13.9,4,19.5,6.9c-5-9.2-.8-21.6-8.3-29.6ZM393,26c-5.9,1.3-34.5,1.2-37.1,4.4s-.6,5.9.1,8.6c6.5-2.8,12.8-.2,19.4-1.1s13.2-6,17.6-11.9ZM424.8,28.3c-6-6.1-13.6,11.5-.8,10.7,0-3.4,3.6-7.9.8-10.7ZM344,33c-13.2,2.6-27.6,5.3-40.4,9.1s-5.6,1.2-7.6,3.4c0,.9,12.8,10,14.5,10.5,3,.9.5-3.4.6-4.6.4-10.7,9.3-7.2,15.9-4.4,2.4,2.5-7.3,2.8-8.3,3.2-4.2,1.6-.5,10.7,3.8,6.8s1.6-5,5-2-.3,7.1-2.8,8.3c-11.6,5.5-28.8-15.5-35.5-9-1.4,1.4-3.1,6.9-6.2,8.2,0,2.4,11.1,1.3,13.4,1.6,9.5,1.2,15.4,4.8,26,3.8,11.6-1.1,20-5.1,20.6-17.9-1.9-.3-3,1.5-4.7,1.8-2.7.6-11.7-1.8-10.3-5.3s7.1.8,10-1l3.1-10.5c1.9-.3,3.4.8,2.9-2.1ZM430,54l-.4-7.1c-9.2-2.2-15.3-4.3-20.2-12.8-3.7-.5-9.4,3.8-9.3,7.4s4.2,1.2,6.5,1.3c5.2.2,5.8,5.9,5.5,10l17.9,1ZM549.9,45.2c-1.6-2.6-38.1-11.6-40.7-10-1.4,2.9-3.5,7-.7,9.8s5.4-.2,8.5.4c6.1,1.2-2,7.6-8.3,6.4s-5.2-3.8-4.7-.3c1.5,11.2,11,16.2,21.4,16.6,13.3.5,24.6-6.7,37.9-2l1.7-4.1c-3.5-.3-9.8-.4-10-5,6.1,3.4,8.2-1.4,14.4-.9,17.4,1.2,12.4,26.1,19.2,35.9s29.1,14.8,36.9,5,1.2-6.2,3.5-8.5l10,.6c1.6-1.4-4.1-4.8-5.1-5.4-2.7-1.8-13.9-8.8-16.2-8.4s-6.6,3.1-7.3,3.8c-4.5,4.9.2,4.8,2.5,6.6,7.9,6-2.2,13.7-11.3,8.3-15.5-9.2-7.6-38.1-30.4-41.6-6.7-1-15.9.3-22.3,2.2-7.3,2.2-16.9,12.8-25.9,9-2.7-1.1-5.7-6.4-4-9.4,4.9-2,6.1,7.7,9.9,2.4,4.1-5.7-3.7-6.7-7.9-7.4-2.3-3.2,13.9-10.1,14.8.7.2,2.1-1.6,4.5-.3,6.3l14.3-8.2v-2.7ZM381,42c-5.4,2.3-12-.4-16.4,0s-5.3,3.5-9,3c-5.5-.8-4.2-9.1-6.1-9-7.3,7.3-1.5,16.1-4.5,24.5l2,1.1c4.2-1.7,13.3-2.3,14.7-7.3s-3.1-6-.3-8.3c7.3-.2,7.4,6.4,5.5,12l11-2c-1.2-4.9.7-9.7,3-14ZM406,50c-5.7-1.4-7.7-.5-10,5l9.4-1.9.6-3.1ZM284,51c-7-1.3-16.2,3.5-20.5,9-8,10-7.5,29.8-20.1,34.9-10.5,4.3-18-7.7-6.4-9.9-1.1,11.4,12,.3,10-2-7.1,4.6-11.5-6.6-17.6-7s-17.3,8.5-20.2,10.7-1.8,0-1.3,2.3l9-.5c3,2.2,2.7,6.4,5,9.1,6.9,8.1,25.8,4.7,32.9-2.1,10.7-10.3,5-39.5,25.9-38.6l3.2-5.8ZM257,60c-5.1-.7-10.1,7.6-12,8.5s-9.8.4-9,4,7.2,6.2,7.7,6.3c9.6,2.9,9.5-13.2,13.3-18.8ZM122,616v-15.5c0-1.8-14.9-26.9-17.2-31.8-62.8-134.3-28.1-306.8,81.2-406.2,125.4-114.1,310.6-123.9,447.3-23.3,132.7,97.6,177.8,281.6,108.9,431.5-2.1,4.6-15.2,26.2-15.2,27.8v17.5l11.2-16.3c89.3-156.7,43.8-366.5-102.9-470.5C409.4-31.1,103,103.8,67.2,376.6c-9.5,72.5,4.1,152.3,39.4,216.4,4.3,7.8,9,17,15.5,23ZM582,89c.9-.9-4.6-10-4.8-11.7s1.5-3.7,1.8-5.8c1.1-7.4-1.9-8-7.9-10.4-.5,2.9,4.1,2.3,2.5,6-2.7,6.4-9.9,0-11.4,1.1-7.8,14,10.1,17.4,19.9,20.9ZM608,90c.4-3-3.6-3.1-4.5-5-3.6-7.3,7.7-10.4,6.4-14.4s-17.2-10.4-17.9-9.6c.9,7.7,3.5,15.3,7.5,22s3.5,6.5,8.5,7ZM265,90c.5.6,9.3-6.2,10-6.4,1.1-.4,2.7.4,4,0,6.7-2.2,11-5.8,8.5-13.6l-9-8c-3.1-.9-.7,6.1-1.5,7l-8-3-4,24ZM307,72c-4.7-.6-9.2-3.9-14-2l1,8c3.4-1.9,8.2-2.3,11.6-3.9s1.8.5,1.4-2.1ZM541,74l12.4,4c6.4-11.2-7.2-10.2-12.4-4ZM319,541.5c.8-4.8-.6-11.4,0-16.5-14,14.5-30.5,26.4-50.9,15.4-18.2-9.8-13.5-22.9-20.2-37.8-3.3-7.3-11.4-14.9-15.7-22.3-9.8-16.9-10.3-33-16.7-49.3s-7.9-12.7-7.6-23.5,3.9-8.1,3-10.9-4.3-.6-6.3-.7c-8.5-.4-8.8-10.5-5.5-16.3s5.8-4.3,7.9-7.1c8.1-10.9-4-20.1,1.6-29.4,4.7-3.5,9.5-7.3,14.3-10.7s4.6-1.6,5.9-2.6,2-4.2,3.8-5.7,16.5-5.5,9.9-9.9-6.3-1.5-9.9-4.1c-14.8-10.5-19.6-30.4-11.7-46.7,6.6-13.4,11.6,3.5,19.6,2.7s14.2-9.6,14.3-10.5c-6.5-8,4.5-24.2,13.6-18.4,3.3,2.1,5.1,11.7,4.7,15.4-.7,5.3-5.4,4.3-.6,10.5,9.5,12.2,17.8-7.6,24.2,7l15.8.9c5.7-3.4,9.5-9.7,16.5-11,.7-2.6-1.9-2.1-3.5-3.9-5.6-6.2.9-8.2.5-10.4-6.9-5.7-11-7.9-3.9-16.1,0-3.1-9.3-6.4-4.9-12.9,1.1-1.6,3.7-1.8,4-4.1s-2.9-4-3.6-6.4c-2.5-7.5,5.6-7.4,6.5-10.7s-7.6-12.8,6-14.4c.8-2.9-.9-8.4.6-10.9s2.5-1.4,3.5-2.5,1.5-2.9,3-4,5.7-1.2,6.5-2.5c1.6-2.4-1.1-7.2,3.5-10.5s6.3-1.3,9.9-1.6c.5-5.4,2.4-10.7,8.6-11s3.7,1.1,4.9.9c3-.5,2.9-8.6,10.1-8.6s5.5,2,6.9,1.9,2.6-4.5,5.3-5.8c4.9-2.3,9.3.2,13.8-3.2s-.6-8.7,2.6-13.4c4.3-2.9,8.4-15.2,12.8-16.2,5-1.1,10.9,16.1,15.3,18.8,2.1,2.8-.3,6.1-.2,8.3.2,5.8,10.5,3.8,14,4.9s6,6.1,7.4,6.2,4.2-2.6,8.6-1.2,4.2,6,5.9,7.1,5.2.1,7.5.5c5,.9,7,6.4,6.6,10.9,7.9-.2,11.1-1.2,13.6,7s.3,4.9.4,5c.4.4,5.1-1.1,7.1,1.5s0,2.9.4,3.6c.9,1.5,5.4,2.9,6.2,5.7s-.6,6.3.7,8.3,5.7,2.3,7,5c2,4.4-2.7,7.4-1.4,11.3s8,2.3,5.4,10.7-3.4,4.3-3.3,5.5,5.3,3.5,4.8,8.9-3.8,5.7-6,8.1c8.2,7.1,2,10.8-3.9,16,2.2,2.3,4.1,6.6,2.3,9.5s-5.1,2-4.5,5c6.9,0,12.4,10.4,17.6,11s15.5-2.5,20.9-3,11.4,1.1,15-1,7.7-7.5,7.9-8c.4-1.2-.9-5.6,0-9.1,2.4-9.2,12.9-19.6,20-7.9,4.5,7.5,1.2,13.3,2.7,18.3s3.5,2.6,4.8,4.2c9.9,11.8,12.5,22.3,7,37s-7.8,13.5-7.6,14.6c.8,3.6,6.6,3.4,9.5,5.5,4.5,3.1,12,11.2,16.5,14.5s6.2,1.3,8.6,4.4c5.9,7.9-1.9,17.3-.8,23.8,1.4,8.8,16.5,9.7,12.4,22.8s-12.2,6-12.6,7.6c-.5,4.7,3,7.2,3.2,11.9.3,11.3-4.1,15.1-7.6,23.5s-2.5,12.2-4.2,17.8-9.9,23.1-10.3,28.8c-.6,8.3,2.5,5.8,6.5,9.5s3,5.2,3.8,5.8c1.4.9,6.4,1.6,9.3,3.2,7.6,4.4,8.3,9.2,3.5,16.3-.7,1-2.6,1.2-2.9,2.4-.6,2,2.4,5.6,1.7,9.6-1,5.9-9.7,8.6-13.2,13.8s-2.7,7.1-4.7,10.3c-4.7,7.4-19.3,14.9-26.8,19.7l22.5,14c45.5,34.7,12.2,85.6-29.1,103.8l-34.4,14.6c28.1-1.4,56.4-.4,84.4,2.6,1.7.2,6.6,1.9,7.1,1.8,2-.2-.1-7.5.7-10.3s1.8-2.8,3.3-2.7c2.3.4,2.7,16.4,2.5,19-5-.9-10.4-2.5-15.5-3-38.9-3.9-85.8-3-125-1.1-7,.3-24.2,1.4-30,4-7.6,3.4-8.3,19.4-21.7,25.3s-16,5.8-22.9,11.8-11.4,33.5-8.8,45l11.5-13c49.1-43.6,116.5-51.4,180-49.1,15.1.6,31.3,3.7,45.9,4.1,1.3,0,2.6,0,3.9-.2l1.7-1.3v-447c0-1.2-3.7-2.6-5-3-9.4-3.1-37.8-4.4-43.6-9.4s-1.6-2.4-2.4-3.5l3.4-1.5,58.3,7.8c7.3,3.7,4.4,9.7,5.3,15.7s9.5,4,14.3,6.7c4.8,2.7,2.4,8.6,6.1,11.9,5.8,5.3,13.3-3,14.6,12.4,2.9,34.1-1.6,71.7,2,106l1,152.5,8.2-14.3c90-197.3-23.2-433.4-236-479.4C217.8,26.7-1.8,309.9,114.2,567.4l7.8,13.6,3.2-264.3c2.2-6,11.2-4,14.4-6.6s1.7-6.9,2.7-9.3c2.2-5.5,11.1-2.6,15.3-5.7,3.9-3.7-1.7-15.1,5.1-18.9l42.4-6.1c0,1.7-.2,4-1.7,5.1-5.1,3.7-24.4,4.8-27.4,9.4s-1.1,19.6-1,24.1c1.3,63.6,2.5,127.3,2,191,5.1,72.6-2.5,149.6,2,222,.2,3.6,1.5,7.1,1.2,10.8l1.5,1.5c24.2-1.3,48.5-4.2,72.9-3.9,35.2.4,70.1,5.3,102.4,19.6,22.6,10,41.7,24.1,58,42.5,2.9-15.8.8-34.3-13-44.5-4.6-3.4-7.9-2-11.9-4.1-8.5-4.3-4.1-3.5-15.1-5.9-3.1-.7-6.6-3.7-8.8-4s-4,.8-7.2,0c-8.6-2.3-12.5-11-18.7-13.3s-14-.5-19.5-1.5c-9.8-1.7-18.9-6.9-28.4-8.6-24.8-4.5-55-6.6-79.8-4-4.4.5-11,3.4-14.5,3.5s-.9-18.1,0-18.6c4.6-3,5.8,9.2,4,12,26.3-4.8,53.5-3.4,80,0-32-25.3-65.4-57.3-59.7-102.2,3.6-28.5,32.8-40.5,58.3-42.7,5.1-.5,10.9.6,15.9,0,8-1.1,21.1-7.6,22.6-16.4ZM215,97c.8-6.7-9.6-4.2-13-1.5-6.6,5.4-3.4,14-2.9,21s-1.2,5.2-1,5.4,5.7,2.1,1.9,4.6-5.2-1.7-6.4-1.6c-2.1.2-3.8,2.1-5.6,2.6-7.9,2-14.7.5-22-2.5,0,3.1,2.9,11.7,6.3,11.8s9.3-.5,12.1-.9c8.8-1.2,24.9-10.6,31.1-16.9s2.2-1.3.5-2.5c-16.7-1.3-18.5-18.5-1-19.5ZM651,122c-4.5-7.1.4-15.9-4.1-23.3s-12.1-8.8-14.8-2.1c.1,1.3,10.4.6,12.5,7.5,3.3,10.4-10.6,11.6-17.6,11.5,9.3,5.2,20.6,17,30.9,19.1s13.2.2,19,3.4c1.1-5.4,6.5-7.9,5-14-4.4.3-8.2,3.3-12.6,3.9-8.4,1.1-15.3-1.9-23.4-1.9v-3s5-1,5-1ZM667,107c-4-5.4-10.5-8.3-16-12,1.4,4.5,3.5,9.2,2,14l14-2ZM180,108l12,1.6c1.7-4.6.5-9,3-13.6-5.1,3.8-11,7-15,12ZM638.8,108.8c1-1,1.6-3.2.4-4.3-9.4-8.2-14.6,1.5-24.1,2.6l8.5,4.1c3.4-1.8,13.2-.4,15.2-2.3ZM233,107c-9.1.5-18.1-11-25.1-.5,0,5.9,22.2,7,25.1.5ZM426,112l-3.5-8.9c-5.5,5-5.3,12.2,3.5,8.9ZM668.1,123c4.6.2,9.1-1.9,11.9-5.5,0-.5-5.1-4.7-6-5-3-1-4.2.6-6.4.5s-4.2-1.3-6.9-1c-8.5,1-5.8,10.1.9,11s1.1-2.6,1.5-4.5c1.3-6.3,5.6.8,5,4.5ZM180.9,117l-7.4-3.9c-2,.3-5.6,2.3-5.6,4.5,0,5.3,19.3,8.5,23.1,2.1s-8.6-9.3-10.2-2.6ZM431,117h-14.5c-.1,0-2.6,1.2-2.5,1.5,2.6,4.2,4.9,1.5,7.6,1.6s8.5,2.7,9.4-3.1ZM154,159c2.9,9.4,13.6.6,14.8-5.7,2.2-11.9-6.6-19.4-7.8-30.3l-10,9.5c5.5-1.6,10.2,6.2,10.9,11.1s0,15.4-7.9,15.4ZM695,133c2.2-2.4-8.3-9.8-9-9-.3,11.4-11.2,20.4-5.6,32.1s10.5,10,14.6,3c-14.6,0-12.4-23.8,0-26ZM438.6,132.5c-11.3-9.5-22.1-9.7-33.1.6s-10.6,13-4,13.1,1.8-9.4,5-12c2.4-.5,1.4,1.9,1.5,3.5s-.5,4.8.5,6.5c2.6-3.7.6-6.3,3.5-10.5,8.2-12,25.6-3.2,23,10.5,4.8.8-.4-8.6,1-10,6.1-2.8,2.6,16.2,9,12s-4-11.6-6.4-13.6ZM465.8,138.3c-5.2-3.3-7.3,1.3-10.3,4.7-3.8-3.6-2.3-12.2-9.5-12l7.1,14.4c6.9,5.6,15.6,8,23.2,12.8,36.5,23,37.6,61.4,25.7,99.3l3.4.4,1.2-2-.5-4.9,2.4-1,1.5,4,3-1.5-1-2.9-3.9-2,3.9-3.1c-2.9-5.4-3.4-11.8,4.1-12.4v-1.5c-5.7-4.6-5.6-11.5,1-15,.5-1.9-6.2-3.8-5.9-9s5.1-4,3.9-7.4c-4.7-.4-9.1-7.6-7.3-11.8s2.9-.5,2.3-2.7l-6-3c-1.1-3.7,11.6-7.1,0-9.5l-1,6c-8.4,0-1.1-7.4-2.1-10.4s-5.9.8-7.5-1.6c-1.8-3.1,3-7.5,0-10s-7,1.8-10.5,2l-3.6-13.1c-5.3-1.5-10.2,4.9-11.4,4.1l-2.3-10.7ZM398,132c-5.6-.4-6,6-7,10-3.5-.5-2.8-3.8-7-4.6-7-1.4-7.4,6.4-7,11.6-3.4,1-4.4-3.1-6.7-3.8-8.2-2.5-7.6,6.2-7.3,11.8-.7.8-8.1-4.1-12-1.5s4.7,11.5-2,13.1c-10.1-8.6-3.1,6.8-4.1,8.4l-3.9,1.1-1-6c-9.6.9.9,6.2,0,9.4l-5.9,4.1c7.9,5.9-3.8,11-3,15.9s2.1,2.5,1.9,4.8c-.3,3.9-4.9,6.4-4.9,8.3l.6,1.5c6.9,3.3,1.8,10.9.5,16,9.2.5,2.8,10.6,3,11.5.3,1.4,6.5,2.7,3.3,5.5-5.2-.3-5.7,3.1-1.8,6l3-5c3.1,2.1,2.5,3.8,1.5,7l4,1c-1.2-13-7.1-25.1-7.1-38.5.1-38.8,23.8-58.7,56.5-73.5l6.5-14ZM420.8,132.2c-3.4.8-8.6,7.2-6.3,10.8s12.8-.8,15.6.5c3.9-2.8-2.2-13.1-9.3-11.4ZM157,168c-5.5-.3-17-14-10-17.5,4.7-2.4,5.5,3.5,6.5,3.5,8-3.7,3.4-18.2-3.8-16.8s-11.2,10.7-12.9,14.2-6.4,21.7.7,22.7l2.6-3.9c3.3-.8,5.3,1,6.5,3.9l.9,6,9.5-12ZM712.8,172.8c2.8-2.9,1-14.7-.3-18.7s-9.8-16.7-15-17c-8-.5-10.8,15.4-2.4,17-.5-6.2,8-5.2,8.1.5s-7.8,11.5-11.1,14l7.5,9.5c1.4-4.8,2.2-9.8,8.6-7.6l.9,3.6c.4.4,3.1-.7,3.7-1.3ZM185,141c-8.3-2.5-12.6-.1-11,9,.9,1.1,11.6-8.2,11-9ZM673,150c1.6-9.6-2.7-10.8-11-9-.6.6,9.8,10.4,11,9ZM389,157c1.3,1.1,27.6-4.9,32.5-5,4.9,0,13.6,1.4,18.7,2.3s10.8,3.6,13.5,3.5,2.6-1,2.3-2.3c-14.9-7.2-35.9-8-52.2-5.3s-18,4-14.7,6.7ZM723,207c-3.4-18.1,12.7-41.4-6-54,8.6,19.1-14.6,39.2,6,54ZM125,208c20-16.1-1.3-33.9,5-54-18.6,13.5-1.3,35.9-5,54ZM428,163c-.4-9.2-12.6-8.2-11,1,4.7-3.5,5.8-3.2,11-1ZM384,158c-43.5,15-49.2,60.8-36,100,2.1-.6,2.1-2.7,2-4.4-.1-6.2-3.1-14.8-3.9-21.2-3.2-25.5,2.2-47.7,23.5-63.2,1.4-1,16.7-9,14.3-11.2ZM414,158.1h-3.3c0,0-1.5,1.6-1.5,1.6-.3,1.7-.7,8.1,1.3,8.3l4.4-2.6-1-7.3ZM435.8,159.3c-1-1-3.3-1.3-4.8-1.2l.4,8.1c5.7,1,13.3,6.2,16.1-1.1,1.7-4.6-4-5.2-7.5-5,.1,2.4.6,6.3-3,6,0-1.9.1-5.3-1.2-6.8ZM485.7,173.4c-4.6-4.7-14.9-12.2-20.9-14.6s-3.1-1.6-3.7-.3c2.7,5.3,9,6.9,13.7,10.3,21.5,15.6,27,38,24.1,63.6s-4.5,17-3.9,23.1.3,3.1,2.1,3.5c8.5-28.3,10.8-62.9-11.3-85.6ZM405,159l-9,2,3.2,8.8c8.2.8,7.4-4.6,5.8-10.8ZM391,162.1c-9.2.6-1,14.8,6.1,9.9l-6.1-9.9ZM457,162l-4,1.5-3.9,8c6.7,4.6,8.8-3.9,8-9.5ZM352,218c5.2-10.9,10.7-22.4,20-30.5,7-6.1,17.8-7.4,9.5-19.5-17,8.9-31,26.5-30.5,46.5s-.7,3.7,1,3.5ZM493,217c1.5-15.7-5.7-30.9-17.5-41s-10.1-8.3-12.5-6.6c-6.2,11.2,2.2,11.4,8.5,16.6,5.2,4.3,9.6,10.1,13.3,15.7l8.2,15.3ZM415,191c3.6.4,3.5-4.8,6.5-5.1s4.2,4.4,7,6.1c5.4-6.9-2.3-15.9-6-22-4.2,6.3-10.4,12.9-7.5,21ZM70,238c4.1-1.1,7.8-3.5,12-4.5,10.4-2.5,19.8-.8,28.9-8.1,16.9-13.4,6.8-36.8,5.1-54.4-5.2,3-10.9,15.3-6.5,20.1h3.5c.3,4.6.7,9.1-4.3,11.2-7.9,3.3-6.8-6.5-12.7-3.8s-10.9,16.6-16,21c2.1,1.5,11.6-.5,11.8-3l-1.7-4.8c6-7.2,9.2.9,7.9,7.3,6.7,2.3,11.7-10.8,12.5-11,5.6-1.4,1.5,10.4-5.2,13.8s-7,.8-11.7,1.3c-11.7,1.2-19.4,3-23.6,14.9ZM734,171l-2,.5c-1.2,16.9-10.9,39.5,4,53,8.7,7.9,21.1,6.5,31.7,9.3s6.7,2.5,10.4,4.1c-4.9-19.4-26.4-9.8-37.5-18-3.7-2.7-6.1-7.2-7.5-11.5l2.5-2.4c3.6,6.3,7.2,12.7,15.5,12l-.3-6.7c5.9-6.3,9.2,0,6.3,6.7,3.6.7,7.3,3.2,11,1.5l-17.5-23.5c-9.4,10.1-16.8,6.7-16.5-7l6,2c1.6-8.6-2.3-13.1-6-20ZM413,174c-6.8,0-11.9,4.9-17.7,6.8s-4.2-.2-5.1.4-1.2,5.5-2.6,6.9-6,2.1-8.4,3.6-10.5,8.1-9.1,9.4c8.8-.7,11.6-14,21-9,1.6-10.9,9.6-13.1,19-9l3-9ZM457.2,188.9c-.7-.5-.7-4-1.4-5.2-1.5-2.9-22.3-11.1-23.8-9.7,0,4.1,3.7,6.8,2,11,6.5-5.7,10.2-3.8,17.8-1.8,1.6,1.1,1.4,19,5.2,6.8,7.6.8,11.4,12.7,19,10.5-4.3-3.8-7.9-9.6-13.7-11.3s-4.3.2-5.1-.3ZM709.9,182.2c-2-1.2-3.7-.8-5.9-.1l4,8,2-.5v-7.4ZM138,190c4.6-3.1,9.7-8.9,0-8v8ZM408.1,198l3-.4c3-7.5-4.1-15.1-12.1-11.5l7.5,8,1.6,3.9ZM446.9,186.2c-7.6-2.4-15.6,4.6-11.8,12.3,1.9,1.6,1.6.3,2.2-.8,2.5-4.2,5.4-8.7,10.8-8.7l-1.2-2.8ZM511,193c10.1-.8,1.9-10,.2-4.3l-.2,4.3ZM750,195c.6-.7-4.6-9.7-6-8l-.6,6,6.6,2ZM405,203c.7-6.1-4.8-9.4-7.5-14-5,5.4,3.8,10.5,7.5,14ZM447.5,190c-.9,0-12.2,11.5-7,14,3-3.5,11.6-9.2,7-14ZM438.3,211.7c-1.1-1-1.9-3.7-3.3-5.2-3.6-3.8-7.7-7-10.5-11.5-3-3-8.7,4.5-11,7-3.8,4.1-9.2,9.6-12.5,13.5s-1.7,5.1-3,6-12.1,2.9-15.7,4.3c-10.9,4.5-24.4,16.4-27.3,28.2l13.5-16c7-4.4,13.8-10.7,22.5-11,0,3.4.4,7.2,1,10.5s-.7,1.7,2,1.5c-2-9.2,3.3-17.2,13-14-2-12,6.9-18.7,14.6-25.9,2.5-.4,20.5,19.4,16.4,24.9,10.3-1,16.1,4.7,12,15,3.3,3.5,3.5-11.5,4-12,15.7,1.6,26.1,14.3,36,25,.2-3.5-2.9-6.8-5-9.5-7.7-9.5-17-15.9-28.9-19.1-1.8-.5-9.5-1.2-9.9-1.6s-.2-4.9-1.7-6.8-4.6-2-6.1-3.4ZM381,206c.3-2.9,3.2-7.4,6.5-7.1s9.4,12.7,13.5,7.6c-2.4-8.8-17.9-15.1-20.8-3.7s-1,3.5.8,3.3ZM456.2,199.2c5.7-.8,9.9,4.7,7.3,9.9s-7.3,4.9-8.5,7.5c2.6,7.1,11.2-3.1,11.8-7.3,2.5-17.2-19.1-13.8-22.8-1.7,1.1,1.2,1.3,1.9,3,1s8.2-7.1,9.2-9.4ZM366,211c3,.9,11.2-1.2,10-5.5s-11.6,1-10,5.5ZM450,214c1.4,1.4,11.8-6.1,9-10-3.4,2.9-10,4.3-9,10ZM386.6,205c-3.5.7,2.8,8.7,4.5,9.5s1.9.8,3,0l1.6-3.5c-1.8-1.8-6.4-6.6-9-6ZM480,211c-.2-4-8.6-8.9-10-4.5s7.4,4.8,10,4.5ZM432,226c5.5-6-5.1-22.3-11-19.5-4.9,2.3-15.4,14.3-7,18.5-5.4-11.5,11.9-22,16.7-9.2l1.3,10.2ZM388,219c2-1.9-6.3-8.5-7.5-10-5.5,3.4,5.2,12.2,7.5,10ZM418.3,223.8c7.5,6.5,15.1-8.1,3.2-10.8-3.7.9-6.1,8.3-3.2,10.8ZM369,216c1.4,6.1,5.2,11.7,9.9,4.3-2-4.6-5.2-6.6-9.9-4.3ZM481.8,216.3c-6.4-5.3-23.6,2.7-11.4,7.6,4.7-4.1,5.6-7.4,12.6-4.8.1,0-1-2.5-1.3-2.7ZM364.3,230.3c1.9-1.6,7-1.8,3.8-5.9-4.9-6.2-12.6,8.5-7.6,9.6s2.7-2.8,3.8-3.7ZM477.2,223.2c-4.3,2.7,4.2,10.9,6.9,9.4,7.2-4.3-3.2-11.8-6.9-9.4ZM433,238l4-1.5-6.5-9.5c-2.5,1.9-.7,1.6,0,3.1,1.1,2.6,3.2,4.6,2.6,7.9ZM413,231l-5.4,1.9c-2.2-.4-3.7-7.1-8.2-2s14.5,10.9,13.6,0ZM445.8,230.3c-5.7-5.5-12,6.4-4.3,6.8s7-4.2,4.3-6.8ZM427.9,236.5c0-2.9-2.4-5.3-5.3-5.3s-5.3,2.4-5.3,5.3,2.4,5.3,5.3,5.3,5.3-2.4,5.3-5.3ZM109,233c-14.6,5.3-43.6.9-41,24.5s2.3,4.3,4.7,6.8.5,2.3,1.3,3.1c2.1,2.1,5.6,1,8,2s2.7,3.8,4.4,3.4l10.6-17.5c.8-2.6-2.9-1.3-3.8-.8-2.4,1.3-1.7,6.3-6.5,5.2s1.7-11.9-6-9.7-5.2,9.5-7.2,12.8c-4.8-7.1,1-18.5,9.9-18s10.9,9.6,15.3,2.3l-.8-4.4c5.8-.6,8.9-5,11-10ZM388.8,234.3c-2-2-7.8-1.3-8.6,1.4-2.8,8.8,15.5,5.4,8.6-1.4ZM464.7,237c0-2.4-1.9-4.3-4.3-4.3s-4.3,1.9-4.3,4.3,1.9,4.3,4.3,4.3,4.3-1.9,4.3-4.3ZM774.9,267.9c.9-.6,5-11.5,5.2-13.3,1.7-18.8-27.7-18.1-40-20.5,1.7,6.9,4.9,9.2,12,8,.9,2.3-3.6,5-1,6.5,5.5,3.3,10.6-4.3,16.4-3.5s7.5,4.6,8.4,7.7c1.9,6.7-8.1-5.2-10.8-2.7,1,3.5,1.9,10.4-3.5,9.9s-2.9-4.2-3.6-4.8-6.2,0-7.8-2.2l11,20.5,5-4c2-1.8,7.6-.9,8.8-1.7ZM473.3,242.8c-1.1-1.4-.6-6.3-4.2-5.7.3,3.1-2,4.6-4,6.5,1.1,3.4,5.4,2.5,6,2.9,2.2,1.7,3,11.4,8.9,1.2-.7-2.8-5.8-3.8-6.7-4.9ZM374.8,243.3c-2.9-2.9-9.1,1.6-8.8,5.2.3,2.1,2.1,3.9,4.3,3.4,3.3-.8,7.4-5.7,4.5-8.6ZM479,268c-5.5-15.3-23.2-27.2-39.5-26s-14,4.9-17,4.9-6.7-2.8-9.4-3.4c-19.3-4.7-39.6,6.9-47,25l15.7-16.3c9.7-6.6,19.9-8.1,31.2-5.5s8.2,3.3,9.7,3.3,7.6-2.9,10.4-3.5c21.3-4.4,33.7,5.7,46,21.6ZM265,243c-1.4-1-6,3.9-5,5l6,1-1-6ZM591,244.1c-3.8-.7-6.1,3.6-5.9,6.9,2.8,1.2,5.1,1.2,7.9,0l-2-6.9ZM455,364c1,1.1,6.7-5,7.5-6,18.6-22.2,24.2-88.7-5.8-103.2-11.8-5.7-23.2-4.6-34.2,2.2-22.5-13.6-44.5-2.7-51.2,21.8-7.5,27.6-2.9,65.6,18.2,86.2,1.2-5.1-1.8-9.8-1.1-15s5.1-13.1,7.6-11c-4.2,13.7.4,29.3,2,43.5,3.4,30.4,4.9,69.9,46.5,70.3,16.1.1,36-16.3,48.7-14.6,10.7,1.4,14,14.2,9.2,22.7s-8.7,5.2-9.4,10.1c22.7,1.2,30-30.9,15.5-45-18.5-18-42.1,1.5-56.8-7.2-8-4.7-8.2-15.2-7.7-23.4,1.1-18.8,9.9-37.4,6.1-56.5,9.8,6,7,15.6,5,25ZM361.7,253.1c-1.7.5-3.8,6.7-3.7,8.4,2.1,7.1,8.5-.3,8.9-4.2s-3.3-4.8-5.2-4.3ZM482.7,253.1c-7.3,1.9-.6,12.8,3.6,11.8,5.8-1.8.4-12.8-3.6-11.8ZM588.7,253.3c-9,.2-2,9.1,2.7,5.6,3.5-2.6.7-5.7-2.7-5.6ZM70.9,268.2c-.1,0-1.7.6-2.6.1-4.2-2.1-4.3-10-5.3-14.3-1.9,1-2.9,6.5-2.9,8.4.2,14.1,16.3,34.6,5.9,49.6l6.4,2.1c2.8-5,5.6-10.7,5.6-16.5s-6.1-28.3-7.2-29.4ZM782,313c.2-3-2.2-4.8-2.8-7.7-.9-4.6.3-11.6,1.2-16.3,2.1-11.2,11.2-24.3,4-34.9-.7,3.8-.3,7.3-2,11s-5,4.9-6.6,8.4-4.7,17-5,21c-.5,7.1,1.5,15.7,5.5,21.5l5.5-3ZM250.4,294.7c12.7,11.4,31.7-12.4,17.7-27.2s-33.1,13.4-17.7,27.2ZM603.1,303c12.6-11.1-3.2-45.1-18.9-38.4s-18.6,32.4-6.1,43.4c-4.2-10.9-7.6-23.7-.8-34.4s10.9-7.5,8.4-2.6-4.3,4.2-5.7,7.3c-4.1,9.1-1.5,22.3,4,30.4s2.9,4.8,6.2,4.3c-1.2-11.2,5.9-23.1,3.6-34.1-.8-3.9-4-6.2-4.6-9.9,3.9-.4,6.4,2.5,7.7,5.8,4.4,11.3-2.4,22.7-1.7,34.2l4.3-9.2,2.7-14.8c4.6,4.1.7,12.6,1,18ZM362,290c1.9-9.1-2.7-15.6-10.3-20.2-9.1-5.5-21.1-5-29.2,2.2s-11.7,14.8-12.5,16.5-.2,1.7.5,1.5c11.7-6.8,19.3-16.1,34.3-12.3,7.1,1.8,11.8,7.9,17.2,12.3ZM536,290c-7-9-12.7-22.6-25.6-23.9-13.7-1.4-31.2,9.3-26.9,24.9,8-9.8,19-17.8,32.2-13.2,3.5,1.2,19,13.2,20.3,12.2ZM239,280c1.1-8.7-.9-6.2-5.4-9.1s-4.1-4.4-7.6-3.8c-3.7,9.3-2.9,21.2,2.9,29.5,4.6,6.5,13.1,6.5,14-1.9-.8-2.7-10.1.9-12.9-1.6-1.5-1.6.1-1.8,1.5-2s8.7.3,8.5-2.5c-.4-8.7-10.8-1.4-11-10.5,3.1,2.2,6.3,2.3,10,2ZM57,270c-2.6-.4-1.6.2-2.1,1.4-.9,2-4.8,13.7-3.9,14.6,3.9-.1,7.8.6,11,3l-5-19ZM797,286l-4.5-16c-2.4,2.1-7.6,17.5-6.5,19l11-3ZM289,272l-9.9,2.1v4.9c.8,1,9.4-4.4,7.9-.5s-9.9,3.3-9,8.5c10.7,0,9.8-6.6,11-15ZM565,274l-28,4c-.3,6.3,12.1,10.7,13.5,13,4,6.5-9.3,11.6-13.5,15.5-7.1,6.7-7.2,12.1-11.1,19.9-3.7,7.2-16.7,28.4-16.5,35s9.7,7.2,16.4,9.4c13.3,4.4,25.5,17.7,32.4,29.6,2.2,3.9,11.4,26.3,13.3,26.5,12.6-6.3,12.8-19.6,17.3-30.5,1.4-3.5,4.5-4.9,4.3-8.8s-5.5-7.9-7.5-11.6c-7.1-13.1-1.1-24-2.6-37.4-.3-2.8-4.2-15.3-5.2-18.8-.7-2.2-7.3-7.1-9.2-9.8-7.6-10.4-6.4-24-3.6-35.9ZM308,278l-12-3c-1,6.7-3.9,15.9-8.6,20.9s-13.9,6.4-15.2,12.8-2.1,12.9-3.5,18.5-3.9,6.6-4.5,10.5c-1.7,10.1,3.1,19.4,1.7,29.7s-10.7,16.5-9.9,23c.4,3,3.6,7.1,4.7,10.3,3.5,9.7,4.6,18.4,13.7,25.2,11.6-19.2,17-42.6,39.1-52.8,6.6-3,13.3-3.4,19.4-5.6s4.6-5.2,3.5-9.5-11.8-21.7-15.1-27.9-5.5-16-12.9-23.1-13.9-9.2-14.4-11.6c-.8-4.1,14.3-11.5,13.8-17.3ZM769,275l-7,1c-1.2,1.2,3.2,10.3,4.5,12,1.4-4.1,2.8-8.5,2.5-13ZM86,276h-7c-.6.5,1.7,9.2,3.5,10l3.5-10ZM358,297c-1.7-7.3-12.4-13.9-19.5-14.1-12.6-.3-19,11.9-30.5,14.1l10,9.5c5.4,7.6,8.1,16.6,12.1,24.9,5.2,10.5,11.8,20.2,14.4,31.7,13.7-1.7,25.1-12.2,20.7-26.9s.3-2.6-1.8-2.2l-10.5,10c0-3.9,11.5-17.5,9-20-5.6-.5-10.4,3.3-15,6-.4-6.6,10.8-9.2,12.5-12,4.7-7.7-14.6-6.9-18.5-3,.4-4.3,7.9-7.5,11.6-7.9s5.5,1.6,7.4-.6c-4.2-5.1-10.8-9.4-17.5-9.5s-4.6,1.6-6.4.5c5.8-6.8,14.8-2.6,22-.5ZM537,297c-10.1-1.7-16.5-13.1-26.5-14s-18.4,5.2-23.5,14c7.6-2.7,17.3-7.2,23,1-8.8-2.9-18.1.8-24,7.5,2,2.7,5.6,1,8.4,1.6,4.8.9,8.8,5.2,11.6,8.9-5.7-2.6-9.4-5.2-16.1-3.5-12.4,3,10.1,12.1,9.1,18.6-4.4-3.4-9-7.3-15-7,0,7.5,6.4,12.9,9,19.5l-10.5-8.5c-2.1-2.3-3.3,3.2-3.4,4.7-1.3,13.5,11.3,21.7,22.9,24.4,1.9-13.6,9.8-25.6,15.9-37.6,1.9-3.7,3-8.5,4.9-12.1,3.6-6.9,8.9-11.8,14.2-17.3ZM58.1,329.1c.4,13,17.3.9,11.3-9-4.5-7.5-14.6-.6-19.6-8.3s6.3-14.9,7.2-10.2l-3,6c0,3.9,8.8,4.3,10-3.1s-4.5-11.9-11.4-13.5c-9.7,5.2-12.2,21.2-3,28,4.8,3.6,11.8,2.3,12.5,9l-3.9,1.1ZM787.3,323.3c1.6-1.5,7.5-2,10.1-3.4,14.8-8.1,3.8-40.9-10.8-23.8-8.5,9.9,5.5,18.3,7.3,12.3s-3.6-3.6-3.9-4.9c5.8-10.4,15,4,7,10-5.1,3.9-12.3.8-16.8,6.2s1.4,18.5,9.8,12.8c1-3.3-7.3-4.7-2.7-9.2ZM237,303c3.1,6.1,11.4,4.5,11-2.5-1.9-3-3.4,1.2-5.9,2s-3.4.5-5.1.5ZM406,796c.4-1.9-1-2.4-2-3.5-46.1-55.3-141.4-54.9-206.5-50.5-7.2.5-16.2,2.8-23.2,2.7s-3.1-15.9-3.3-20.2c-2.3-47.4-.5-95.4-.9-143.1-.6-77.1-1.7-154.8-3.1-231.9-.3-15.5.7-31.2-.4-46.6-1.7-2.6-4.9.1-5.8,2.3-1.9,4.5-.9,29.4-.8,36.3,1.4,104.8,2.2,210.1,3.1,314.9.3,30.9-.7,61.7.4,92.6.8,1.2,1.6.8,2.7.7,39.9-3.6,88.4-5.1,128.3-.8,41.9,4.5,78.8,20.9,111.5,47ZM265,314c1.9-4.4,1.7-9.4-2.9-11.9v12s2.9,0,2.9,0ZM254.1,303.1c-1.1.7-5.2,12,.4,12s4.5-15.2-.4-12ZM681,303v438.5c0,.3-1,2.3-1.7,2.5-3.6-.2-7.3.2-10.9,0-59.7-2.8-107.8-11.8-166.4,9.5-23.2,8.4-49.1,22.6-64,42.4,1.3,1.1,17.5-11.7,20.1-13.4,64.5-41.5,144.2-39.4,218.4-33.6,3,.2,10.3,3.6,12.1,1l.5-296.6c-5-46.5,3.1-98-1-144s-1.3-7.2-7-6.5ZM150,763c3-1.7,3.8-6.3,4-9.5v-277.1c-4.9-53.1,3-110.3-1-163-.1-1.8.3-3.2-1.5-4.4-6.6,5.8-2.6,15.9-2.5,23.4,1.1,56.8.8,114.3,1,171,.3,86.5-.4,173,0,259.5ZM700,310.5h-5.2s1.1,453.5,1.1,453.5h5.2s-1.1-453.5-1.1-453.5ZM811,326c-.3-1.3-2.4-12.2-4-11l-2.7,6.5c.1,1.3,5.8,5.4,6.7,4.5ZM42,317c-2.3-.5-1.6.3-2.2,1.3s-3.4,7.9-2.7,8.7l6.9-4.6-1.9-5.4ZM596.9,318.2l-10.1.8-1.1,1.3c-1.8,4.4,8.3,7.5,11.7,7.7,3.5-1.1.3-7.3-.5-9.8ZM249,330c3.3-.8,15.1-3.1,12.5-8-7.2-5.8-15.8-1.4-12.5,8ZM707,322.5v458c0,.4-1,1.6-1.2,2.3-45.1,1.6-91.3-1.6-136.4.1-15.7.6-34.2,2.3-49.7,5.3-2.3.5-21.8,5.1-21.8,6.2l216.6-4.4c.5-65.2.8-130.4.5-195.6-.3-58.4-1.5-117.5-2.1-175.9s2.4-61.5,0-89.1c-.3-3.2-.5-6.9-4-8l-2,1ZM140,322c-3.4-.4-6,.8-6,4.5-.5,42.6,1.4,85.5-1,128l.8,335.3,1.3,1.7,163.6.4,43.5,2-9.4-3.1c-41.5-8.8-84.8-8.4-127.1-8.9-20.3-.3-40.8-.2-61.1.6l-3-3.6-1.5-457ZM55,326c-14.9-5.3-23.7,19.2-23.1,30.5s10.1,19.1,19.1,25.9l7,8.5c.3-3.6-.2-6.8-1.3-10.2s-5-12.7-5.9-14.1-5.7-2.9-7.8-6.2c-6.6-10.2,3.8-25.2,14-17s4.6,5,1.4,7.5c-2.8.6-5.9-6.7-10.2-2.7-4,3.7-2,12.3,2.7,14.7,0-4.2,3.3-9.2,7.6-6l.5,4c3.9,4.3,8.2-20,8-22-10.1,3.9-18-3-12-13ZM791,391c5.7-12.4,22.8-16.5,24.9-31.6,1.7-12-6.5-39.5-22.9-33.4-1,1.4,7,6.7-.5,12s-7.6,2-11.5,2c1.8,3.6,1.7,17.4,5.6,18.9h1.9c.5-2.5,3.5-2.6,5.8-1.8s1.9,5.8,4.1,4.8c3.6-4.2,5.3-10.6.5-14.5-3.3-1.6-6.4,2.5-8.5,4.5-6.4-7.2,4.3-13.2,11.4-9.4,7.2,3.9,6.1,17.5.6,21.5s-4.3.7-5.1,1.9-.6,4.6-1.4,6.6c-2.7,6.7-6.5,6.7-6.1,16s-.6,2.8,1,2.5ZM607.7,348.7c2.7-2.4,4.6-11.6,4.4-15.2s-3-10.3-7.1-6-4.8,27.9,2.7,21.2ZM238.7,328.2c-6.1,1.7-1.2,25.1,5.7,22.8s.4-19.6-1.9-21.9-2.3-1.3-3.8-.8ZM592.5,333c-1.4.9-1.4,1.9-1.6,3.4-.8,7.8-2.7,20.8-1.8,27.9s6,11.7,9.7,18.3,1.7,5.6,3,8c5.9,10.8,36.8,16.3,27.4-4.4-6.4-14-20-19.6-31.1-28.9-3.6-8,3-18.8-5.6-24.4ZM231,386c-3.5-.5-2.2-9.6-5.5-7s-6.7,8.8-7,10c-5.7,19,21.4,13.3,27.6,4.6s1.7-6.1,3.1-8.9,5.4-7.3,7.1-10.9c4.8-10.4,1.9-16,.8-26.2s.9-12.5-1.5-12.5c-8.7,5-2,16.7-5.2,23.7s-14,10-16.7,14.3-2.7,8.8-2.6,13ZM618.7,336.1c-1.6.5-11.2,23.1-5,24.9,5.5,1.6,16.7-24.7,5-24.9ZM231,338.1c-14-2.3-2,25.8,3.4,24.8s-2.5-20.7-3.4-24.8ZM625,361c6.8,1.3,12.5-15.7,6.5-17s-8.6,15.6-6.5,17ZM218.9,346.2h-3.7c-3.2,2,1.5,17.7,7.3,16.8,4.7-1.4-2.8-14.1-3.6-16.8ZM371,359c-2.1-.6-2.8,1.6-3.4,3.1-3.5,9.1,2,19.8,5.9,27.9l4.3-2.5c-4.4-8.9-7.6-18.5-6.9-28.5ZM474,390c3.5-9.6,10.9-22.3,1.5-31-.3,10-3.4,19.1-6.6,28.4l5.1,2.6ZM377,363c-.7,7.6,1.5,15.3,6.5,21,1.7-2.2,5.8-4.2,5.4-7.3l-11.9-13.7ZM466.7,365.7c-7,6.3-18.7,10.4-5,18.3,4.2.6,8.5-17.3,7.3-20.9-1.4,0-1.5,1.9-2.3,2.6ZM62,366l-4.8,2.5,3.3,7.5,1.5-10ZM787.1,377c3.1-1.5,6-9.7,2.4-10.9h-3.4c0-.1,1,10.9,1,10.9ZM35,377l-6-10v11s6-1,6-1ZM367,405c.5-12.5-6.2-23.8-7.2-36.3l-2.1-1.6c-4.1,1.8-7.3,3.4-7.7,8.4s3.5,26.1,5.1,30,.5,1.9,1.5,2.5c3.6-2,6-3.8,10.5-3ZM492,408c.5-12.5,13.5-37-5-41-1.2,12.9-7.3,25-7,38,5.2-1.2,7.6,1.7,12,3ZM623,367l9,11.6,1.4.4c2-1.7,4.6-2.7,2.7-5.5-2.9-4.2-7.7-7.8-13.1-6.5ZM226,368c-5.9-3.3-20.1,10.4-10.3,11.8s11.3-10.8,10.3-11.8ZM819,378l-.5-10-5.5,9,6,1ZM334.1,438c17.7-3.8,10.5,11.6,9.9,21.4-.8,13.6,1.9,17.3,15.4,20.3l2.2-2.2-19.1-100.6c-2-2.6-17.5,2-20.8,3.2-9.5,3.6-16.8,10.3-22.5,18.5-2.2,3.1-7.7,11.4-8.2,14.8s.4,1.6,2,1.5c.4-4.6,9.6-12.4,13.6-13,7.2-1.1,6.8,2.7,10.4,4.3s3.5-.3,5.9,1.2c4.1,2.4,5.5,9.1,6.1,13.4l5-6c-.7,8-3.3,15.2,0,23ZM554,414c-6.1-14.7-16.7-27.6-31.6-33.9s-15.8-6.3-17.9-3.2l-4.3,35.4c4.2,3.6,9.8,5.1,13.8,9.2,9.8,10,11.2,24.8,6.5,37.5-1.2,3.4-6.1,8.6-3,11,1.7.3,19.2-10.9,20.9-13,3.1-3.9,2.1-8.6,4-13s3.1-3.7,4-6c4.7-11.9-1.8-12.9-6.7-21.4-3.9-6.8-5.6-15-9.8-21.7,2.9-2.3,20.8,16.6,24,19ZM639.7,379.1c-4.6,1.2-4.9,8.4.7,7.9,5.5-.5,4-9.1-.7-7.9ZM42,420c17.3-4.6,15.7-28.6,1.9-37.4s-13.2-.2-15.4,4.4c-5,10.3,3.6,16.1,13.5,14l-1-3.5c-8.6.4-8.2-8.5.2-6.2,10.5,2.8,6.3,22.5.8,28.7ZM806,402c7.8-1,16.3-2.1,15-12.4-.7-5.5-9.8-9.5-14.3-8.4s-9.6,8.5-10.9,11.2c-5,10.4-1.9,26.3,11.2,26.7-5.1-6.2-7.4-13.2-5.8-21.3,1.6-8.1,13.2-10.2,12.8-.7l-7.1.4-.9,4.6ZM209.8,384.3c-1-.9-3.6-1.7-4.8-.8l-.9,5.6c2.8,1.1,9.2-1.6,5.7-4.7ZM469,410c6.8-4.3,4.3-12.2-1.7-15.9l-16.3-8.1c-1.6,5.4,4.3,8.1,8.8,8.8s5.3-2,8.7,2.2,2.5,7.9.5,13ZM392,387c-11.7,4.8-30.7,17.7-10.4,26.9s14.4,4.6,13.4-.4-15.7,1.7-18.5-7.5c-4.9-15.7,17.1-6.7,15.5-19.1ZM464,402l-13-6c-1.4,9.4,2.7,17.4,12,10,0,1.2.4,2.7-.2,3.8-1.2,2.2-7.3.9-6.8,4.2,7.7,3.7,14-11.2,8.5-16l-.5,4ZM393.9,398.2c-5.1-3.1-9.1,4-13.9,1.9-1.4,13,17.7,11.5,13.9-1.9ZM633,406c-8.5,2.1-18.8-.2-26.7-3.8s-8.7-5.8-9.3-5.2c2.4,6.6,13.4,11.5,19.9,12.5s17.3,2.7,16-3.5ZM252,398c-5.8,2.5-10.7,6.9-17,8.5-6.6,1.8-13.4,1.1-20,2,3.8,4.2,13.9,3.2,19,2.1s21.5-8.7,17.9-12.5ZM597,411c3.6-9.8-5.4-7.7-3.6-2,2,6.4,17.8,12.4,24.1,13,6,.6,17.8.7,12-8-2.5,4.5-6.7,6.7-7.6,0h-2.9c-.1,6.3-7.1,5.2-6.1-1-2.9-.5-5.2,3.5-8,1.6s1-4.2-1.5-5.5c-3,.8-2.8,3.8-6.5,2ZM26,428c6.7-.7,26.2-23.9,10.6-23s-11.1,15.9-10.6,23ZM218.2,421.9c7.1,5.3,40.2-4.8,37.7-14.1-1.2-3.4-5.7-3.5-4.5.4s2.7,2.2,0,3.9l-6.5-2c.4,2.4,2.1,4.3-.5,6l-6.5-3c.9,8.5-4.4,6.8-8.5,2h-1.5c-.6,10.5-8-1.2-10,1v5.9ZM821,428c.4-6.5.6-21.1-7.7-22.8s-6.7.2-7.3,3.4c-.9,5.7,10.9,15.7,15,19.5ZM314,433v-16.5c0-2.6-3.3-9.8-6.9-7.4s.5,18.5.9,21.9l5-3-4,5h5ZM369.3,415.4c0-3-2.5-5.5-5.5-5.5s-5.5,2.5-5.5,5.5,2.5,5.5,5.5,5.5,5.5-2.5,5.5-5.5ZM318,414v17.5c0,.1,1,2.5,1.6,2.5,2.3-.8,5-.8,5.5-3.5s-2.9-14.6-4-15.9-1.9-.5-3.1-.6ZM304,435v-18.5c0-3.5-7-.8-7,5v15l1.5,1.5,5.5-3ZM624,429c-7.4.3-16-1.7-22.7-4.8s-9.2-6.9-11.3-5.8l-15.8,20.3c-.5,2.9,5.9,20,7.8,22.8,6.1,8.8,11.1,1.5,15.3,2.6s6.4,11.7,13.6,6.3,15.7-38.8,13.1-41.4ZM225,430c1.7,21,9.5,42.1,23.5,58,1.5,0,4.2-11.9,5-14,4.9-12.2,12.4-23.6,17.1-36,1.8-6.5-9-12.7-11.6-18.5l-1.5-.5c-9.5,6.5-20.7,11.7-32.5,11.1ZM564,440l-7.5-20c-8.3,6.9,1.5,15.5,7.5,20ZM371,423c-4.3,1-6.2,3.9-11,2v5.5s16,86.5,16,86.5c5.3-3.8,7.3-2.6,13-1l-18-93ZM390,423c-2.6-.4-2.1.4-2,2.5.3,7,3.7,20.2,5.3,27.7,2.8,13.8,8.7,45.1,16.3,55.7s22.2,10.9,29.3-.6c8.3-13.5,10.7-33.9,13.2-49.3-5.7-1.1-5.1,3.2-7.4,6.1s-3.5,1.9-4.1,2.9c-1,1.8,0,4.2-1.4,6.6s-5.2,3.1-7.1,4.9-6.1,9.4-9,8.1c-3.1-1.4-5-7.2-6.5-8.5s-4.8-.7-6.6-3.4-.8-5.3-1.9-6.9-5.4-1.3-6.4-3.9c-1.7-4.1.3-7.6,0-10.3s-3.1-3.4-4.1-5.4c-3.6-7.4-4.1-18.2-7.5-26ZM294,424c-4.3-.7-4.2.6-5.4,4-4.8,13.1-2.5,49,4.4,61.5s24.7,10.1,35,1,7.5-29,12-45c-.4-3-5,.5-6,2-3.6,4.8-2.8,13.7-5,17s-4.2,1.6-6.3,2.7-5.4,5.6-6.7,8.3l-4,11.5c-3-8-3.2-14.4-13-16.5,4.6-4,8,.2,11,3.5,0-8.6,17.9-12.5,15.9-19.4s-13.1,0-15.9.9c-5.5,1.5-10.4,4.5-16,5.5,3.2-8.2,15.1-10.4,22.9-12.1l-1.9-11.9-6.3.9.4,12-3.1-.6-1.9-9.4-6.5,2c-1.4,2.1.2,7.5-.6,10.4s-1.5,2.2-2.4.7l-1.6-7.9-3.9-.6c0-2.4,3.1-2.1,3.8-4.2s1.8-15.8,1.2-16.3ZM45,439c-.4.3-8.2-3.4-7,4.5.8,5,4.9.5,7.8-.2,4.2-1.1,8.3.6,11.1-4.9,5.5-10.5-11.3-17.5-20.2-11.2-9.4,6.6,6.6,3.3,8.3,4.3s1,6.7,0,7.5ZM798.8,425.3c-9.7,1.8-11.2,14.8-2.8,17.3s5.5-.9,7.3-.4,3.8,4.3,5.7,3.4c2.4-1.8,2.6-4.9,1.5-7.6-3.6-3.8-4.7,3.5-7,3-2.8-2.9-2.4-9.1,2-10s7.7,1.9,10.5-.5c-4-5.2-11-6.4-17.2-5.3ZM410,450l-12-19c.4,6.8,3.1,20.4,12,19ZM54.7,451.3c-5.6-6.2-10.3.3-13.2.7-7.1,1.1-11.7-14.4-10.5-20-9.6,6.2-5,34.2,8.9,30.9.4-15,21-5.8,16.3,4.8s-4.6,4.4-6.1,6.9-3.8,11.2-4.8,11.4h-3.4c-.7-4.8,4.4-12.4,1.1-16.6s-6.6-.8-9.4-1.6-3-4.2-5.7-3.8l2,16c13-4.7,13.2,10.4,7.9,18.4s-3.5,1.7-3.9,4.1,2.6,12.8,4.2,15.8c4.8,9.1,16.3,14.6,22.3,3.7,6.1,1.8,3.2,7.7-1.1,9.9s-12.2-.1-13.3,7.7,5.9,13.1,10,6.4l-5-2.5c2.5-9.8,12.6-6,20-5.5,1.5,3.2-2.9,3.6-3,4.5s3.3,5.7,3.7,8.3c1,6,0,11.1-1.7,16.8-2.8,9.5-12.9,20.5-3,29.5,0-4.4-.7-12.2,5-13-4.5,28.8,18.1,24.5,38,28-2.1-6.8-6.6-8.7-11.7-12.9-3.3-.8-11.7,11.2-18.8.9-10.4-15.2,2.3-29.9,1.5-44.4s-6.8-15-8.6-22.5.7-10.1-4.9-14.1-6.7,1.7-10.2,2.8c-11.2,3.4-18.9-10.5-12.8-19.8,2.7-4.1,6.3-2.6,10.5-4.1,0-1.7-2.6-1.2-3.5-3-3.4-6.7,7.8-16.3,8.4-24.7s-2.2-15.7-5.2-19.1ZM817.8,460.8c3.6-3.6,6.9-23,.8-26.7-1.4,5.3-2.7,14-7.5,17.5s-6.1-1.3-9.7-2.2c-11.8-3.1-13.4,16.1-12,24s14.2,17.2,4.8,24.7c18.1,0,12.4,28.5-3.1,23.6-4.4-1.4-3.8-6.9-9.9-3s-4.8,11.2-6.6,17.4c-1.5,5.1-5.7,10.5-6.4,15.6-2.1,15.1,7.9,26.4,2.4,42.4s-3.7,8.3-7.7,9.4c-6.1,1.7-9.1-3.3-12.3-3.3-5.2,0-11.1,6.8-11.5,11.9,11.2-3.9,30.6,1,35.8-12.7s.6-9.4,2.2-14.3c4.8,2.3,3.5,6.5,4,10.5s.5,2.9,2,1.5c7.4-14.7-6.6-25.2-7-39.5s2.3-11.6,6.1-17.5l-7,1c-.2-2.2-.3-4.8,2.5-5,10,2.1,21.7-1.9,19.5,13,5.5-1.5,6.6-8.7,3.5-13s-17.5-2.5-16.3-12.3l3.8-2.7c.8,6.3,7.4,8.3,12.7,6.2,13.5-5.2,15.1-30,15.3-42.2-8.7.1-2.6,8.7-3,14-1.7.2-2.2.2-3.5-1s-6.7-13.9-7.6-16.4-.7-6.6-1.4-7.6c-1-1.5-7.8.5-9.4-7.7-1.9-9.6,13-14.2,16.9-8.8s.6,4.8,2.6,5.5,6-1.1,7.1-2.2ZM326.9,447.9c2.3-1.5.2-8.9-1.4-10.9h-5.4c0,.1.4,10.1.4,10.1.8,1.2,5.4,1.4,6.4.8ZM570,457c1.8-1.6-14.4-18.7-17-20-1.8,5.2-8.3,7.5-7,14,2.1-1,2.5-3.6,4.5-5,6.4-4.8,16.5,2.9,13.5,11h6ZM490.1,462c6.3-3.1,11.4-9.4,4.5-15-1.7-.7-2.9,3.6-3.2,4.8-1,3.4-1.6,6.6-1.3,10.2ZM484,448c-.4-.5-10.4,4.4-11.4,5.1-3.6,2.9-6.2,20.2-7.3,25.7-2.5,12.3-4.1,24.8-6.3,37.2,5.5-2.5,7.9-2.3,13,1l12-69ZM560.3,453.1c0-2.7-2.2-4.9-4.9-4.9s-4.9,2.2-4.9,4.9,2.2,4.9,4.9,4.9,4.9-2.2,4.9-4.9ZM432,459c-4.7,1.6-5.1,5.6-11.3,3.8s-3-8.9-6.7-11.8c-2.2,12.1,12.1,21.9,18,8ZM420.2,458.9c2.9,1.7,6.1,1.4,6.8-2.3-1.7-2.1-4.3-2.8-7-2.5v4.8ZM412.2,459.7c0-1.9-1.6-3.5-3.5-3.5s-3.5,1.6-3.5,3.5,1.6,3.5,3.5,3.5,3.5-1.6,3.5-3.5ZM552.5,465c5.3-.6,12.4,0,18,0s3.8-1.7,2.5-3c-2.6-2.7-16.4.3-20.5,0l-7-6-2.5,4,3.5,1c2.5,3-7,4.9-7,1-4.6,6-11.5,8.2-17.5,13.5-1,.9-3.7,3-3.5,4.5,10.1-7,21.5-13.6,34-15ZM280,458c-14.4-1.1-19.2,20.1-22,31,6.1-8.1,11.2-15.6,21.1-19.7l.9-11.3ZM440.7,461.1c0-1.6-1.3-3-3-3s-3,1.3-3,3,1.3,3,3,3,3-1.3,3-3ZM801.6,459.1c-2.9-.3-8.4,5.2-4,8,2.4-.7,8.5-7.5,4-8ZM50.8,461.3c-3.7-3.6-7.1,1-5.6,3.6s7.1,4.3,6.7-1.1-.6-2-1.1-2.5ZM818.1,462c-1,7.4-4.9,5-9.3,6.2s-3.4,10.5-.8,13.3c2.9-.4,8.3-.6,9.9-3.2s3.5-15.2.2-16.3ZM432.6,468c-2.9.7-.3,6.5,1.9,6,4-.9,2.1-7-1.9-6ZM577.3,469.3c-.5.5-1.2,2-.8,2.8,14.3,9.9,7.1-8.7.8-2.8ZM558,471c-13.3-1.6-47.2,12.9-35.5,30,.7,1,.7,1.4,1.5.5,6.4-8.2,12-6.9,15.8-10.7s7.6-10.5,10.7-13.8,6.1-2.7,7.6-5.9ZM421.5,472.4c-3.8,1.2.4,9.1,2.9,8.6,4-.8,7.1-11.6-2.9-8.6ZM563.3,473.3c-2.6,2.4,2,7,4.8,5.3,4.8-3,.1-9.9-4.8-5.3ZM496,480c1.1-.8,1.9-7.3-2.5-6s-.8,8.2,2.5,6ZM612.9,484.9c3.2-5.1-7.9-12.9-8.9-3.4-.2,3.5,7.7,5.5,8.9,3.4ZM582.9,486.9c1-11.8-14.8-11.4-9.8.9l9.8-.9ZM592.7,478.3c-8,.8-3.5,15.6,4.4,9.3,5.2-4.2.5-9.8-4.4-9.3ZM561,483.7c0-2.1-1.7-3.8-3.8-3.8s-3.8,1.7-3.8,3.8,1.7,3.8,3.8,3.8,3.8-1.7,3.8-3.8ZM275,481c-1-1.1-5.8,4.2-6.5,5-11,13-12.4,39.8,5.3,47.8,9.1,4.1,17.5,1,25.5-3.9s11.5-8.2,9.7-9.8c-22.3,2.6-39.3-17.4-34-39ZM68,512l-6.5-30c-9.2,5.3-.8,17-1.6,20.3-1.2,4.8-6.6.8-9.4,2.6-5,3.2-1.9,12.9,3,12.1,1.9-8,8-6.3,14.5-5ZM317.5,504c-5,0-10,0-15,0s-13.7-9.6-16-14c-2.9-.3.2,7,1,8,2.4,3,12.9,4.7,3.8,8.8-7.7-5.6-11.4-15.3-8.3-24.8-9.6,9.9,2.4,29.1,14,32-1.6-2.9-1.2-5.9.1-8.8,5.8-.8,11.5.9,16.9,2.9l-3,6c3.4,2.4,8.6-6.1,8.9-8.7s-2.2-1.3-2.4-1.3ZM457,591c19.5-1.5,52.9-14.2,61.5-33,7-15.4.9-38-4.7-53.3s-9.5-22.7-11.3-22.7c-3,5-16.8,4.2-18.3,7.6-7.8,33.4-6.5,72.8-27.2,101.3ZM780,512l10.3-.8c3.3,1.1.7,9.3,6.7,4.4s4.4-9,.9-11.1-7.6,2.7-8.9-2.2,5.7-14.4-2.6-20.3c-1.8,10-3.6,20.1-6.5,30ZM390,590c-2.4-5.6-6.4-10-8.9-15.6-3.9-9-5.8-20.5-7.9-30.1-3.7-17.7-5.7-35.8-9.5-53.5-1.9-4.2-15.1-6.1-19.7-7.7-8.8,19.3-19.3,40.5-17.1,62.4,2.7,26.2,40.6,40.9,63,44.5ZM36,485h-5s2,14,2,14l2.8-6.7.2-7.3ZM568.9,490.9c.7-2.3-.2-4.6-2.3-5.7-3.6,1.1-4.9,4.2-4.5,7.8l6.9-2.1ZM609,495c1.2-8.2-10.2-8.7-11-1.5s0,1.3,1.5,1.5c2.9.4,6.5-.3,9.5,0ZM546.3,490.3c-1.5,1.5-1.8,7.9-.7,9.8,10.1,7.2,11.1-5.8,4.8-10.9-1.1-.3-3.3.3-4.1,1.1ZM621.8,490.3c-10.5-4-7.2,4.2-5.8,10.8,7.2.9,8.5-5.1,5.8-10.8ZM585.8,495.2c-6.9,1.9-4.8,13.5,5.3,9.3,6.1-2.5-1.2-10.4-5.3-9.3ZM560,496c-3.1,8.9,18.9,13.1,15.8,2.7-1.7-5.7-7.3-.7-9.3-.7s-3.9-3-6.5-2ZM629.2,499.1c-.7,3.8-3.2,5.6-6.7,6.8-15.7,5.7-57,4.7-73.5.6-6.3-1.6-7.6-2.7-10.5-8.5-12.8,4.3-6.8,9.5,2.6,12.5s28.3,6.1,35.5,6.1,4.1-2.6,7-2.7,5,2,7,2c4.5,0,15.6-1.4,20.9-2.1s27.5-4.6,26.6-10.2c-1.9-2.8-5.1-5.3-8.8-4.5ZM607,501c-3.2-1.5-12.5-2.9-8.1,2.6,3,3.6,9.5-.7,8.1-2.6ZM306.9,511.6c0-1.8-1.5-3.3-3.3-3.3s-3.3,1.5-3.3,3.3,1.5,3.3,3.3,3.3,3.3-1.5,3.3-3.3ZM531.1,525c4.9-4.8,1.8-12.9-5-14l5,14ZM564,520l-20-3c2,3,8.2,4.4,11.6,4.9s11.3.9,8.4-1.9ZM623,518l-20,2.5c2.7,4.2,4,1.2,5.9,1.1,4.4-.3,7.2.3,11.9-1.3s2.6.4,2.2-2.3ZM388.9,525.3c0-3.1-2.5-5.6-5.6-5.6s-5.6,2.5-5.6,5.6,2.5,5.6,5.6,5.6,5.6-2.5,5.6-5.6ZM470.4,525c0-3.2-2.6-5.7-5.7-5.7s-5.7,2.6-5.7,5.7,2.6,5.7,5.7,5.7,5.7-2.6,5.7-5.7ZM585.8,520.3c-1.9-2.4-5.3.4-4.7,3.2,1.4,2.1,3.9,1.6,6,1.5.2-.2-.8-4.2-1.2-4.7ZM619,535c-10.1-1.5-12,3.7-16.5,11-2.8.1.2-27.4-8-25s1.8,31.8-9.5,31c1.1-5,4.3-18.9,2.9-23.4s-6.5-1.4-8.8-1.6c-1.8,8.6.4,22.4-8.5,27-1.3-4.8,4.5-19.4,2.3-22.9s-3.6-1.8-4.3-2.2-.6-1.7-2,0c-3,3.7-5,21.3-8,22-5.9,1.3-1.7-12-3-14s-12.2-5.3-13.5-4c1,10.8,10.5,23.7,20.6,27.9,14.8,6.1,34.3-3.8,46.7-12.1,6-4,8.1-6.4,9.7-13.8ZM420,522c-13.1,3.2-1.5,18.9,8,14-.5-2.3-4.1,0-6-.4-6.5-1.6-6.6-9.6-2-13.6ZM432.9,522.2l-3.9.3c6,3.1,1.6,10.6,8.4,11.4,1.7-.4,4-6.5,3.6-8.4-.7-3-3.9,1.4-6.4.4l-1.7-3.8ZM572.9,522.2h-3.7c-4.4,5.8,5.1,8.1,4.7,2.6,0-.8-.6-1.8-.9-2.6ZM410,531c.2-1.8.5-7.6-2.5-7-2.9,2.3-2.1,8,2.5,7ZM621.9,526.9c3.2-5-2.6-1.2-3.6-1.1-1.7.2-11.6-.6-12.3.2v4c1,1.1,15.3-2.1,15.9-3.1ZM407.7,537.3c-.7-1-3.7-2.1-5.1-4.4s-2-8.7-5.6-7.4c4.7,15.3,2.9,40.4,17.5,50.5,2.7,1.9,9.7,2.9,13,2.8,16.8-.5,21.6-39.2,22.5-51.8-5.4.5-4.8,7.6-6.6,10.9-4,7.6-6.8,8.2-12,13s-3.9,6.2-7.1,7.9c-2.6.5-7.1-7.6-8.8-9s-4.4-1.3-5.3-2.2c-1.8-1.8-.8-8-2.5-10.5ZM429.2,529.5c0-2.5-2-4.5-4.5-4.5s-4.5,2-4.5,4.5,2,4.5,4.5,4.5,4.5-2,4.5-4.5ZM390.5,532.1c-2.8,1.7-6.2,5.2-9.4,2.4l-2,1c2.7,14.6,4.1,30,12.2,42.8,1.7,2.8,10.2,13.6,13.2,12.6l6.4-8.5c-15.5-11.7-14.2-31.3-18.8-47.9-.3-1.1-.3-1.8-1.4-2.5ZM469,534c-1.9.1-3.5,1.2-5.5,1.1s-6-4.1-7-2.1c-3.8,17.7-3.9,37.5-19.3,49.5l7.5,8.4c19.1-11.3,21-37,24.4-56.9ZM548,559c-.5-2.9-15.4-24.9-18-22-.8,10.3,8.6,19.2,18,22ZM65.9,562.9c2.6-6.6,2-18.2-6.3-19.8-3.6,2.7,2.5,4.9,0,9-2.7,2.9-6.7,1.6-10,2s-1.8-.5-1.4,1.4l4.9,11.6c4.6-.3,7.4-4.9,12.8-4.1ZM428,543c-4.6-.1-9.5-1.1-7.6,5s8.6.6,7.6-5ZM793,547c-4.4-10.2-12.6,2.7-12.1,9.5s6.7,6.5,12.6,10.2c2.5-.2,6.5-9.8,6.5-12.2s-4-.4-6.5-.4c-4.8,0-6.3-2.8-4.4-7h3.9ZM324,562c.3-6.1-8.4-3.1-9.8-.8-2.1,3.6,5.7,11.9,8.1,14.5,18.6,19.3,55.1,40.2,82.3,41.3s3,.5,4.3-1.4c-4.5-4.3-10.9-3-16.4-4.6s-10.3-5.3-3.1-9c2.7-.4,1.6,6.7,5,6s1.1-6.8,3.5-8c-27.2-5-56-14.3-73.5-37-3.1,5.8,0,6.3,5.1,8l-.6,5,6-1,1,6.6,6-.6c-.2,2.8-.2,5.6,2.6,6.9l4.8-1.9,3.5,7.6,6-1.1,4.5,7.6,7-4,3,7,3-1-.5-3c7.1-1,4.9,4.9,8,9-2.9-.8-6.6-.6-9.2-1.2-14.2-3.5-36.7-17.6-46.3-28.7s-14.1-15.9-4.5-16ZM531,565.1c3,3.5-12.4,20.2-15.5,22.9-14.7,12.8-36.4,19.2-55.2,22.8-3.3.6-20.2,1.4-20.2,4.8,1.3,1.9,2.4,1.5,4.3,1.4,5.6-.2,14.9-2.2,20.6-3.4,28-6,62.1-20,71.5-49.5l-7.9-4.8-3.6,4.8,6,1.1ZM85.1,565c-.7,2.5-4.2,11.7,1.5,10s1.6-2.1,1.5-3.4-1.4-6.1-3-6.6ZM765,576c.6-.6,0-10.5-3-11l-3,11h6ZM526,574c1.2-2.9,1.4-7-2.4-8-17.3,21.8-44.7,30.8-71.6,33.4l-1.9,8.6,3.5-1,.5-5h4.9c0,.1,1.1,4.4,1.1,4.4,5.5,3.3,3-8.1,8-4.9s1,5.9,4.5,4.5-2.5-7.5,3.2-7.8,3,3.1,3.4,4.8c5.5,1,2.7-4.4,5.5-7,2-.4,5.7,7.3,8,2s-2.5-13.4,6.2-3.1c7.4.4,2.3-5.5,5.9-8.9,3.1-1,3.1,2.9,4,3l3-1c2-3-2.4-11.9,5-7.1s1.4,1.9,3,0l-.5-8,7,1ZM281,580h14.5c2.4,0,11.8,3.2,14.7,4.3,5.2,1.8,12.2,6.6,16.3,7.7s1.9-.7,1-2c-17.4-27-70.8-31.6-89.7-4.7s3.2,66.8,23.7,86.7c1.6-.9-.3-2.3-.9-3.1-10.3-15.8-18.4-30.6-17.6-50.4s-.8-3.7,1-3.5c5,27.7,18.8,53.4,44,67.5,28.8,16.1,67.3,12,87-15.5-2.5-1.9-19.3,9.1-23.7,10.8-41,15.7-84.4-7.1-93.3-49.8l6.6,11.9c16.3,29.5,51.5,47,84.1,32.3,14.7-6.6,4.6-8.8-5.3-10.1s-9.7-.5-15.4-1.6c-22.4-4.4-41.3-21.2-51-41.5,15.7,17.2,35.6,37.3,61.1,34.6l1.5-5.6c-5.7-2.6-11-1.3-16.6-4.4-1.4-.8-2.5.1-1.9-2.5,10.8,4.1,19.9,1.9,30-2.5,1.7-.7,5.2-1.8,6-3.5-12.9-1.2-25.4-3.8-35.9-11.6s-5.8-3.9-6.1-6.4c14.7,7.5,30.9,16.3,47.9,12,.9-3.9-2-5.6-4.5-7.9-13.5-12.9-38.7-28.3-56.2-34.8l-21.2-6.3ZM63,570c-5.7-1.1-8.2,4.9-4.5,9l4.5-9ZM791,579c2.6-6.4,2.2-10-6-9,.4,1.1,4,10.9,6,9ZM594,626c-11.7,12.4-31.4,15.1-47.4,10.9-15-3.9-26.5-13.4-40.2-18.8s-15.6-6.5-21.2-.5c11.9,31,34.7,59.7,70.4,62.4,47,3.6,107.1-55.4,56.4-93.4-17.1-12.8-30.6-10.5-50.4-12.6-4.5-.5-16.2-4.2-19.1-2.1l-19.4,24.1c16.5-6,35.4-16.4,53.5-12s1.8-.7,1.5,2c-19,1-40.2,5.7-55,18,10.3,1.4,21,1.1,31.2,3.3,1.9.4,5,.5,5.8,2.7-9,2.5-52.3-5.9-57-1-1.5,1.6.6,1.8,1.3,2.2,11.2,7.8,41.8,21.9,55.2,22.8s22.9-2.4,34.5-8ZM94.7,583.4c-6.4-6.1-19.3-3-13.1,7.6s4.6,1,7.1.2c4.7-1.4,8.9,4.2,9.3,3.8,1.6-3.4-.8-9.3-3.3-11.7ZM762.8,596.8c.3-.2,3.9-5.1,4-5.5,1.7-5.6-.7-9.6-6.4-10.3s-10.9,6.7-10.4,13c3.7.7,4.6-4.1,8.4-2.9s.2,5.6.6,5.9c1.2,0,2.7.4,3.8-.2ZM432,589c-1.1-2.3-6.2-5.7-8.5-5.6l-6.5,5.1c2.4.9,4.7-1.3,7.3-1.2s5,1.9,7.7,1.7ZM412,607c-2.6-8.9-.3-9.9,3-16.5s1.3-2.1-.6-2.5c-3.4-.7-11.5,12.7-11.5,14.5,0,2.7,6.7,4.9,9,4.5ZM436.8,589.3c-1.1-.6-2.6-.1-3.8-.2,4.4,6.2,5,11,2,18,4.6.2,11.7-.9,9.5-6.9s-7.1-10.5-7.7-10.8ZM431.2,598.6c0-3.7-3-6.6-6.6-6.6s-6.6,3-6.6,6.6,3,6.6,6.6,6.6,6.6-3,6.6-6.6ZM431.1,608c.3,5.1-5.7,10.6-10.1,6.6s-1.4-6.4-6.4-8.6l-2.5,2.5c4.8,4.7,5.4,11.7,11.6,15.4,5.4-2.1,10.2-7.2,10-13.3s-.7-3.2-2.7-2.6ZM122,656.5c1-3.4,0-17.2,0-22s-2.8-8.1-4.6-10.4c-8.8-11.2-21.4-8.3-33.5-10.5-4.8-.9-7.6-3.6-12-5,6,21,32.3,7.3,42.5,20.5,9.8,12.8,2.9,24.8-12.4,25.4,5.1,2.6,4.9,6.6,7.6,10.4s10.9,13.8,12.4,12.1l-.4-12.1c-5-1.2-8.4-2-11.6-6.4l2.7-2.4c2.2-.6,7.7,5.9,9.3.4ZM746,653c-16,3.4-22.2-15.7-10.5-26s35.7.7,40.5-19c-13.2,9.9-45.5,1.9-48.9,23.6-.5,3-.6,22.6,0,24.8,1,3.2,8-1.3,10.8,2.1-2.9,3.6-6.1,5.7-11,5.5v13c1.4,1.6,10.4-9.8,11.4-11.1s8.1-12.4,7.6-12.9ZM352,609c3.3,4,7.7,8.7,12.1,11.4s3.4,2.6,3.9,0c1-4.5-12.2-10.5-16-11.5ZM561,684c-31.7.8-54-18.2-69.8-43.7-3.2-5.2-8.4-20.8-14.7-21.4-10.4-1-2.9,12-.4,17.4,8.3,18,23.5,36.8,41.9,45.1,11.6,5.3,32.4,11.6,43,2.5ZM348.3,646.3c-1.1,1.2-1.6,4.5-1.1,6.1.6,1.4,2.2,2.1,3.6,2.5,2.9.6,12.2,1.2,15.7,1.3,13.3.4,20.5-1.2,27.4-13.7,5.5-10.1,7.9-20.6-6.6-22.1-18.2-1.9-13.3,18.5-25.2,22.3-3.4,1.1-11.3,1.1-13.8,3.7ZM530,693c-24.9-5.8-40.8-21.8-53.4-43.1s-8.2-19.7-12.2-24.8-2.2-2.9-4-3.1l-3.5,1.5c-3.4,4.3,4.8,23.7,7.4,28.8,10.3,20.6,36.5,42,60.3,42.8,2,0,4.7.4,5.4-2ZM447.9,624.2c-1-.6-2.6,0-3.8-.2-.8,32.1,22.4,64,54,71l-23.6-17.3c-7.1-8.2-13.5-16.5-17.8-26.7s-7.5-26.1-8.7-26.8ZM99,631c-3.5-6.4-11.9-4.3-18-6,1.8,4.2,5.9,6.6,8.4,10.1s4.7,12.1,12,13c16.4,1.9,15.3-14.6,3.5-20,.6,5-.9,10-6.4,10.8l-4.7-4.3c0-2.4,2.9-3.6,5-3.5ZM767,625c-5.8,2.3-14.8,0-17,7h5c.2,12.4-12.7,6.6-10-4-15.4,2-12.6,26.4,4.6,19.1,5.5-2.4,7-8.8,10-13s5.9-5.3,7.4-9.1ZM406,626c-1.4-1.3-1.7.2-2.2,1.3-3.4,7.5-2.6,18.2-10.3,24.7l-7.5,7c12.2,3.8,26.2-27.3,20-33ZM421,661c-4.9-9.5,6.9-31.5-6.9-32.9-2.5,12.3-4.4,23.5-15,31.5,0,2.3,9.4,1.4,11.5,1.5,3.6.2,6.6,2.1,10.5,0ZM480,695c-4.5-4.2-10.3-6.6-15-10.5-10.5-8.7-17.9-20.5-23-33l-6-23.5c-4.8,28,16.5,60.2,44,67ZM432,662c-1-8.1-2-16.2-3.2-24.3s-.4-3-1.7-2.7c-1.6,7.5-6.3,26.5,5,27ZM285,688c-1.4,1.4,7.3,7.9,8.7,8.8,19.2,13.3,38.1,16.9,60,7.3,13.6-5.9,30.3-20.6,31.3-36.2-6.2,4-10.3,9.9-16,14.5-24.2,19.8-57,19.7-84,5.5ZM406,671c-2.6-.3-1.6,0-2,1.5-5.8,19.5-1.9,28-19.5,43.5-2,1.7-5.8,2.4-5.5,5,3.8-.7,5.7,1,8.3,3.3l1.7.2c17.2-11,22.7-34.8,17-53.5ZM417,671c-2.2-.6-2.3.9-2.7,2.7-1,4.8,0,10.6-.4,15.6-.8,8.2-4,18.6-8.5,25.5-1.9,3-8.8,9.2-9.4,10.6-.9,2.1,4.3,1.4,6.6,2.4s3.4,3.3,4.9,5.1c15.6-17.5,15.8-40.6,9.5-62ZM428.8,672.2c-.7.1-2.3.8-2.8,1.3-2.9,3.2.3,21.4,0,27.1s-1.8,13.1-3.9,18.1c-4.1,10.1-18.8,22.5-3.6,31.4,5,.5,5.7-8.6,7.6-12.4,8.2-16.8,15.9-21.3,13.8-43-.5-5.4-3.6-23.5-11.1-22.5ZM358,717c3.8-.2,9.9,2.3,13.3,1.8s10.8-6.3,12.8-8.3c8.8-8.7,13.5-23.3,13.9-35.5-3.7,3.7-4.7,10-7.2,14.3-5.5,9.9-12.1,17.6-22.1,22.9l-10.7,4.8ZM462,714c-2.4-3.5-7.2-5.3-9.4-9.1-3.6-6.1-3-16.9-8.6-21.9,4,15.7,1.4,29.1-4,44l3.9,1c0-7.1,8.8-4.7,8-10,4.6-.2,7.7,8.5,12,3.5s-4.6-3.9-7-2.5c0-3,1.9-5.3,5-5ZM353,712c14-1.8,27.4-11.6,32-25l-9.5,11-22.5,14ZM456,691l-2,.5c.5,8.9,1.9,13.4,7.9,19.8s.7.9,2.1.6c-2.1-5.1,5.6-4.9,5-7.5s-9.2-8.2-11.1-10-1.8-3.4-1.9-3.5ZM367,722l-14-3c1.2,5.6,12.2,9.8,14,3ZM378.7,724.3c-5.1,0-6.4,4.7-1.1,5.7,9.4,1.8,6.7-5.8,1.1-5.7ZM454.9,725.1c-4.6-2.3-8.6-.8-7.8,4.8h6.3s1.5-4.8,1.5-4.8ZM401.8,732.3c-3.1-3-11.9-.2-5.7,4.2s8.8-1.2,5.7-4.2ZM437.8,731.2c-5.2,1.4-1.9,9.8,3.3,5.4s.1-6.4-3.3-5.4ZM401,802c.4-1.8-.9-2.4-2-3.5-45.1-45.7-141.9-46.8-201.6-43.5-8.5.5-19.6.9-27.9,2.1s-5,1.4-7.6,1.9c0,1.7,3.3,1.9,4.5,2,55.2,4.4,112.4-5.4,166.7,10.3,24.3,7,45.7,19.1,67.8,30.7ZM688,762c-2.4-2.9-8.9-3.3-12.6-3.9-70.6-9.8-154.9-8.3-216.3,31.5l-15.1,11.4c8.2-1.5,15.5-7.8,23-11.5,34.6-17.3,71.8-26.4,110.5-27.5h110.5ZM379,798c-2.5-3.3-8-5.9-11.8-7.7-59.6-28.4-136.8-21.8-201.7-23.3s-11.1-2.7-13.5,5.6,4.9,2.4,6.4,2.5c53.8,4.2,107-3.8,161.7,6.3,20.5,3.8,38.9,11.4,58.8,16.7ZM698,776c-.8-12.6-17.4-7.1-25.5-7-55.6,1.1-106.7-5.8-161.3,9.7-16,4.5-34.9,10.6-48.2,20.3,11.8-2.5,22.7-7.8,34.2-11.3,22.1-6.6,44.2-10,67.2-11.8h133.5ZM277,805h-20l19.5,10c2.4-3.1-2-3.6-2.3-4.1-2-3.5,3.6-2.7,2.9-5.9ZM587.5,805c-5.5-.6-11.9.5-17.5,0-.4,2,1.9,2.7,2.1,4.6s-2.9,3.5-1.5,5.5l20.5-8c.4-1.1-3.1-1.9-3.5-2ZM629,806h-18.5c-7.7,0-27.4,11.6-35.8,15.2-106.7,45.3-209.1,43-314.1-5.3-3.7-1.7-16.2-9.9-19.1-9.9h-22.5c5.8,4.6,13.3,8.2,20,11.5,127.8,64.3,247.5,62.4,374.7-2.3l15.3-9.2ZM324,808l-40.3-2c-8.7,16.8,19.7,18.4,30.3,21,.3-2.8.3-9.8,1.5-12s7.4-4.6,8.5-7ZM532,828c7.9-2.5,28.8-5.3,32.2-13.2s1-6-2.3-8.2l-38,1.5c5.2,7.1,9,4,15.3,4.3s8.2,4.2,11.2,1.7l2.9-5.1c5,.2,5.3,4.9,2,8-7.1,6.6-16.7.3-24.5-1,.3,4.5,3.2,7.4,1,12ZM521,808c-11,.5-22.6.3-33.5,1-6.4.4-17,.7-22.8,2.2s-7.8,8.9-12.2,13.8c-12.5,13.9-45,14.2-58.1,1s-6.6-12.8-13.2-14.8-15.6-2-20.7-2.3c-7.6-.4-22-.9-29.1,0s-2.6.2-3.5,1.4l-.5,5.7c1.8,2.6,13.5-.9,17-1.1,8.1-.5,24.9-.6,32.4,1.7s7.5,11.6,11.8,16.2c16.3,17.4,57.2,16.7,71.8-3,7.1-9.5,1.8-13.6,17.1-14.9s13.9-.3,20,0,19.8,3.7,22.3-.1.3-5.2,1.2-6.8ZM323,816c-2.2-2.6-5.4,7.9-2,12.5s9.6,3.4,14.3.5,3.4-6.1,8.7-3.5l1.9,2.2-2.8,8.3c8,2.3,25.8,9.3,29.4-2.2,1.4-4.4-.9-5.5-4.8-6.8-.8,0-1.9,8.6-9,8.6s-10-6.5-3-8.3l3,2.7c3.5.8,3.6-6.9-3.1-7.9-3.8-.6-13.9-.5-17.7.2s-8.1,4.7-12.7,5.8l-2-12ZM525.7,826.7c2.3-2.8.6-11.3-2.2-10.7l-4.4,4.7.8,7.3c-4.8-7-27.7-8.1-33.3-4.1-1.6,1.2-2.3,4.5-.2,5.1s11.1-5.2,7,3c-3.7,7.5-16.5,2-13.5-7-3.4,2.4-7.7,3.6-9,8,3.8.5,5.4,5.5,8.9,6.6,7.7,2.4,16.2-2,23.6-3.5l-2.1-10.1,1.2-.8c3.3-.6,6.3-.6,8.3,2.3l-3,4c.8,1.8,5,2.1,5,1l-1-3.5c4-.3,10.9,1.1,13.7-2.3ZM383,845c1-1.2-3.8-8.1-6.3-6.9-7,4.9,2.3,5.2,6.3,6.9ZM474,842c-3.3-6.6-8.2-3.7-10,2l10-2Z"/>
    <path d="M197.8,681.2c10.8-1,11.4,5.1,11.5,14s.9,1.7-.9,2.7c-5.6,1.3-1.9-8.4-5.5-10.5-2.5-1.5-10.1.9-11-2s3.7-4.1,5.8-4.3Z"/>
    <path d="M651.7,666.1c3.8-1,4.9,4.5,3.6,7.6-4.1,9.6-10.5-5.8-3.6-7.6Z"/>
    <path d="M196.5,666.2c3.5,1.1,5.8,4.9,3.4,8.2-4.4,6.1-10.2-4.9-3.4-8.2Z"/>
    <circle cx="215.7" cy="694.1" r="3.8"/>
    <circle cx="633.6" cy="694.5" r="3.8"/>
    <path d="M289.2,810.2c.2-.3,2.7-1.2,3.2-1,4.6,9.1,12.5,2.1,18.9,4.1s3,2,2.7,3.3c-.6,2.4-14.5,3.7-17.2,3.3-4.2-.7-10.6-4.8-7.6-9.6Z"/>
    <g>
      <path d="M647.8,681.3c2.7-.3,10.6,0,9.2,4.3s-9.6.6-12.1,1.9c-2.8,1.9,1.9,11.3-4.4,10.6-3.8-7-1.5-15.7,7.3-16.8Z"/>
      <path d="M404,313c-5-2.4-9.5,1.9-15,.6s-8.6-7.1-13-11.1c11.4-11.8,28.3-5.9,28,10.5Z"/>
      <path d="M441,312c2.5-16,16.7-20.2,29-9.5-4.4,3.8-6.7,9.7-12.9,11.1s-10.5-2.7-16.1-1.6Z"/>
      <path d="M423,281c-.3,1.7,2.4,1.1,3.3.8,5.9-1.9,6.7-7.3,6.7-12.8,1.7.4,2.1,5.2,2.1,6.5,0,10.2-14.8,14.9-21.6,7.5s-1.8-15.8-.5-14c-.7,6.4.4,12.9,8,13-6.1-6.6-1.6-13,1-20,1.5.5,2.5,3.8,3.2,5.3,2.4,5.5,5.7,11.4-2.2,13.7Z"/>
      <path d="M471,291c-3.5,0-6.1-2.5-9.6-2.9-9.2-1.2-14.7,3.6-21.4,8.9-1.1-16.2,25.1-21,31-6Z"/>
      <path d="M405,296c-10.3-7.4-18.1-10.7-30.5-5-2.2-3,4.1-6.6,6.5-7.5,10.2-4,23.6.4,24,12.5Z"/>
      <path d="M421.7,289.2c6.6-1.7,9.8,11.1,1.6,13.7-7.9-.7-8.3-12-1.6-13.7Z"/>
      <path d="M432,353c-5.4,1-12.4,2-17.6.1s-2.9-.5-1.4-2.1,17.8-2.6,19,2Z"/>
      <path d="M432,343c-4.5,1.2-9.8,1.4-14.5,1s-5.3-.4-4.5-3c5.9-.5,14.4-3.3,19,2Z"/>
      <path d="M431,364c-5.4,1.2-11.2,1.7-16.5,0s-1.8.6-1.5-2c1.6-1.3,21.9-2.1,18,2Z"/>
      <path d="M431,373c2,2.2-4.6,2.9-5.5,3-4.1.4-8.5.2-12.5-1,1.6-4.2,16.6-3.4,18-2Z"/>
      <path d="M431,333c-4.2,1.2-9,1.4-13.4.9s-4.3-.5-3.6-2.9c5.3-.9,13-2.9,17,2Z"/>
      <path d="M430,386c-4.5.7-10.5,2.1-14.8.3s-1.5-.3-1.2-2.3c4.3.1,14.8-4.1,16,2Z"/>
      <path d="M430,395c.5,2.3-.3,1.6-1.3,2.2-4.1,2.7-10,2.5-13.7-.8,4.9-1.9,9.9-3.2,15-1.5Z"/>
      <path d="M430,405c3.1,3.2-10,8-12,2.5,3.2-3.1,8-2.5,12-2.5Z"/>
      <path d="M444,428c1.2,3.2-2.4,11.2-5.5,6.9s.8-3.9-4.5-2.9l3.5-3,1,2c1.6-1.7,2.8-3.5,5.5-3Z"/>
      <path d="M437,422c1.1,5.5-4.7,6.5-9,7-1-5.2,4.6-7.5,9-7Z"/>
      <path d="M427.8,414.2c2-.4,6.8-.1,4.2,2.2-8.8,8.1-14.5,0-4.2-2.2Z"/>
      <path d="M619,629c-22.2,40-74.6,51.7-106.5,15-2.1-2.4-6.3-7.4-6-10,23.3,24.7,53.4,36.4,84.8,17.8s16.5-13.3,24.3-20.7c1-1,1.4-2.6,3.4-2.1Z"/>
      <path d="M385,147c-3,2-5-3.4-4-6l4.6.9c.8.8-.4,4.9-.6,5Z"/>
      <path d="M464,141c1.3,9.3-5.4,8.8-4,0h4Z"/>
      <path d="M257.8,265.2c12-1.7,15.7,17.2,9.3,25.3-14.7,18.4-32.5-22.1-9.3-25.3ZM255.9,284.9c-6.9,3.9-.5,9.7,6.2,4.7,10.5-7.8,2.7-25.5-7-19-4.5,3-6,10.5.5,11.4l.3,2.9Z"/>
    </g>
  </g>
</svg>