<?xml version="1.0" encoding="UTF-8"?>
<svg id="Calque_1" xmlns="http://www.w3.org/2000/svg" version="1.1" viewBox="0 0 1211 181">
  <!-- Generator: Adobe Illustrator 30.0.0, SVG Export Plug-In . SVG Version: 2.1.1 Build 123)  -->
  <path d="M466.9,61.8c-1.4,2.5-10.1,2.4-12.9,2.2l9-3.5,2-3.5c1.6-.2,2.3,4,1.8,4.8Z"/>
  <polygon points="756 63 746.5 64 743.2 61.5 746 58 746.9 61.6 756 63"/>
  <g>
    <path d="M619,124c-4.9-7.1.4-15.5,8-17.5,2.6-.7,5.2,0,7.3-.7,4.1-1.3,6.9-2.9,11.7-4.1,1.8-.4,2-.8,1-1.7-11.5-.6-18.8-3.6-27.4,6.1-6.6,7.4-2.1,9.4-4.1,14.9-.6,1.6-6.7,8.5-8.2,8.9-3.7,1-7.3-4.3-8.4-7.4s.9-5.4-1.9-6.5l-1.9,9.3c7.6,8.7,15,19.8,3.8,29.1-6.9,5.7-21,7-23.5-3.4s12.3-11.3,13.6-5.5-4.4.9-5,3c-1.6,6.1,10.3,5.9,13.8-1.2s-1-10.8-3.7-15.9c-1-.6-7.5,2.3-10.4,2.2-9-.4-16.6-8.1-27.4-4.9s-7,6.2-6.3,2.7,3.5-5,5.1-5.9c12.5-7.4,25,5.4,33.7,1.7,1.4-.6,1.5-.3,1.2-2.3-6.5,1-12.1-4.7-18.6-4.9s-31.2,6.2-24.5,15.5,8.5-2.5,13.1-1.6c2.5,18.3-28,10.3-19.4-5.9s8.9-8.1,11.9-8.1h15.5l-8.5-2c-56,6.2-109.3,51-167.8,26.8-24.3-10.1-32-35.6-10.7-53.3-18.8-19-63.3-4.4-65.8,22.3s20.8,20.2,22.6,8.5c1.6-10-12.6-1.5-14.4-4.2-6.1-9.2,20.4-16.1,24.1-2.1,4.7,18-13.2,25.2-27.8,19.8-9.8-3.6-15-16-11.7-25.8-2.3-.6-1.7.6-2.3,1.3-4.5,5.1-9,10.5-15,13.9-19.1,10.8-45,11.3-62.7-2.7l13.8,4.2c13.5,2.5,25.5-.1,37.9-5.5,1.2-.5,2.1-1.9,2.8-2.2,3.2-1.4-1.1,4.1,2,3,7.6-2.7,16.1-14.6,24-18l5.5-9c-20.9,20.6-57.4,36-84.5,18.3-4.5,1.5-13.6,4.2-18.2,4.3s-4.9-1.7-6.7-1.4c-3.1.5-8.1,8-10,7.7l-9.6-9.6,5.4-8.4-13.5,7,11,8c-6.2.1-12.5-2.4-18.5-3-45-4.4-96.2-1.8-142-3-2.4,0-4.6-1-6.9-1.1-5.7-.2-11.4.3-17.1,0s-3.7.8-3.5-1c6.5-.2,13,.3,19.5,0s4.6-1,6.9-1.1c18.9-.5,38.2-.7,57-1,36.8-.7,75.9,3.8,111.1-7.9l12,7.5,20.5.5c-16-16.1-3.9-41.9,19.1-36.6,11.2,2.6,13.2,16.3,0,17.6.9-12.3-15.3-9.3-16.1,1.5-.6,9,7.2,15.4,15.1,18,20.8,6.9,44-3.8,61-15.5-.7-2.6-4.8.7-6.5,1-2.7.4-6.5-.6-8.8.2s-7.8,11.8-13.7,10.8l8.8-9.7v-2.2s-2.9-2.1-2.9-2.1h5c-1.6-4.9-.5-10.9-6.3-13.2-10.1-4.1-15.2,8.2-9.1,9.1s9.1-6.5,9.2,3.9c-13,10.9-27.2-9.3-12.3-16.7,12.1-6,24.6,3.5,22.4,16.9,6.6-1.6,12.1-.4,18.7-2.8,10-3.7,15.7-11.8,24-18,24.8-18.6,59-27.1,89.5-19.9,17.7,4.2,42.7,22.4,12.8,31.7l8.6,5.9c7.5-6.2,14.1-11,24.4-7.4s9.8,9.3,5.9,15.8-12.7,2.5-19.8,5.6c-.9-4.4,3.7-10.2,8.3-8.9s5.7,5.8,7.6.2-8.3-11.4-14.8-7.7c-11.9,6.7-8.1,21.4,3,26.8s30.9-2.8,45.9-6.4l-13-1.5c-2.2-.7-6.7-2.8-3.5-5.5,1.9-.7,1.2,1.8,2.1,2,13.5,3.3,21.9-9.5,35.3-7l-.6,3.1-15.4,5.9c-.3,1.6,1.4,1.1,2.5,1,7.5-.3,15.8-4.8,23.5-5l-8.2-5c-6.2-8.4-19.4-17.2-29.8-12,9.7-11.8,26.7-18.7,39-6.5l-4,2.5c4.5,1,9,2.8,12,6.5l-14-5c-3.1-2.5-6-3-10-2.5l17,8c.2,1.8-2.3,1-3.3.8-2.8-.7-6.6-3.5-9.7-2.3,10.7,10.5,21.8,15.2,37,13.1,5.1-.7,11.3-3.7,16.5-3.6,3.8,0,7,2.3,10.5,3-1.5-2.5-8-4.7-10.6-5s-5.7,1.1-8.9,1c-23.6-.2-43.2-28.9-41.5-51.1,21.2-3.5,27.8,16.1,36,31-4.2,0-4.5-5.4-6.6-7.9s-7.1-5.5-9.4-8.1c-1.4,1.6,9.1,11.6,10,13.5s.3,1.6-.5,1.5c-1.8-1.5-4.8-5.4-7.5-4.5l9,6.5-.5,2c-5.9-2.6-9.5-6.1-13.5-11,1.6,8.2,9.8,11.9,15,17.5l-8.5-3.5c-1.6,1.1.7,2.8,1.5,3.5,11.1,10,24.1,4.8,35.4,10.6s6.7,3.7,4.6,8.9l10.6-11.8c1.2-.2,4.8,1.9,5.9,2.8,2.8,2.4,2.6,6.2,5.5,6,4.6-10.5,21.3-7.5,31-10.5,6-1.9,14.7-6.9,16-13.5l-9.5,5c-2.5-3.7,13-9.2,10.5-12-3.4,2.5-7.3,6.8-12,6.5,1.2-1.8,12.3-11,11-12.5-4.7,4.1-9.7,8.5-16,10l14-23.5c6.3-5.9,13-6.1,21-7.5,2.6,23.2-15.7,51.5-40.5,52.1-6.4.1-15.1-3.2-19.5,3.9,3.3-.9,5.8-3,9.5-3,13,0,19.3,5.9,33.7,2.7,4.9-1.1,16.8-6.6,18.7-11.3,1.5-3.4-7.7,1.7-8.9,2.1s-4,1.3-2.6-.5l15.5-8-21,5.5c3.8-3.5,7.9-5.6,13-6.5-.8-2.7-5.3.6-7,0,6.9-10.2,18-9.6,27.9-4.4,1.5.8,13,8.6,11.1,10.4-6.5-5.3-17.5-1.8-23,3.5-2.2,2.1-4.5,6.9-6.7,8.6s-5.8,1.4-7.2,4l27.5,6c1.5-1-2.9-2.5-3.3-2.7-5.3-2.2-12.1-2.7-16.2-6.3,13.1-7,21.6,8.2,34.3,5.8,1.7-.3,10.1-5.4,7.9,0-2,4.8-8.7,6.7-13.2,4.3v2c15.6,7.1,42.2,14.3,48.5-8,1.8-6.4-.6-11-6.6-14.4-9.5-5.3-20.8,3.3-10.4,10.4l2.5-3.5,2.3-.3,6.7,7.4-10.5,1.6c-14,.3-15.7-20,1.3-21.8s16.2,4.2,18.7,11.8l9.5-9c-22.9-2-14.5-19.8.3-27.2,30.4-15.2,75.1-4.3,101.6,14.8,6.7,4.8,20.6,18.9,27.8,20.1s2.5-.8,3.7-.6c3.9.6,7.7,1.3,11.6,1.9-.9-13.1,11-23.4,23.3-16.8,12.8,6.9,3,25.9-10.2,18.2-7.1-4.2,1.6-10.3,3.7-7.2.5.8,0,2.5.2,2.7,2.9,2.9,11.4-7.2.8-10.4-7.5-2.2-14.6,5.2-12.8,12.7.2.7,1.5.6,1.9,1.5.5,1.3.2,2.9,1.2,4.6,2.3,4.1,7,5.4,9.9,8.6-3.4-.3-9.4-2.4-12-4.5s-3.4-6.2-5-6.9-4.4.7-6.5.4c-3.2-.4-5.7-3-8.6-2.5,16.5,13.8,42.8,25,64,16,7.2-3.1,13.7-10.5,11.8-18.8-2-8.5-17.2-11.3-16.8-.7-12.4,0-9.1-14.4.9-16.6,16.9-3.6,31.7,10.2,25.3,27.3s-4.8,6.2-6.3,10.2l24-2.4,9.5-6.6c17.1,8.5,35.7,6.4,54.1,7,37.9,1.3,76,2,113.9,3.1,7.3.2,14.7-.3,22.1,0s3.7-.8,3.5,1l-110.5,2c-26,2.8-53-1.2-78.5,6l13-8.5-13-7.5,3.9,8.4-9.5,9.6h-1.4c0-2.3-8.3-7.5-9.7-7.7s-4.1,1.7-6.7,1.7c-4.1,0-13.8-4.8-17.1-4.5s-3.5,2.7-5.3,3.3c-29.7,11.8-59.2-2.9-80.2-23.7,1.7,3.7,4.7,8.2,7.5,11,7.3,7.2,20.5,16.2,30,20,2.9,1.1-.9-2.8,2-2,12.6,3.7,17.6,6.3,32.1,5l13.5-3.5c-24.3,18-59.3,9.8-77-13.5,2.8,16.1-6.4,29-23.5,28-23.3-1.3-23.2-33.6,0-29.9,5.3.8,12.3,6.6,7.4,11.8-2.3,1.4-10.5-6.6-13.3-.9-5.3,10.7,17.1,15.2,20.8.8,7.6-28.9-45.1-47.8-64.3-29.3,8.9,10.2,14.9,20.2,10.3,34.3-9.5,29-64.5,28.3-88.3,23.7-29.5-5.6-68.4-29.9-95.4-30.6-2.1,0-4.1-.8-3.5,2,9.9-1,22.3,7.7,16.9,18.4-5.9,11.5-26.7,3.5-19.4-3.4,3.4-3.2,9.3,7.5,13,0s-8-11.9-12.7-14.1c-.8-.4-.8-1.7-1.5-1.9-3.4-.8-9,.5-12.5,1.3-9.3,2.2-7.9,4.4-18.8,3.7,6.4,9.2,11.3,2.5,19,.5s20.8-3.2,23,7.5c-8.2-4.1-10.6-5.8-19.8-3.3-7.5,2-15,9.1-21.9,2.4l-1.4.3c-3.6,5.8-7.6,11.2-2.5,17.6,5.8,7.3,15,2,12.5-1-1.2-.2-5.9-.3-5-2.5,7.9-10.3,18.4,3.6,9,11s-16.4-1.2-17-.5c1.4,3.8,2.8,4.5,1.5,9s-10.7,16.5-11.5,16c-3.7-9.8-17.4-16.3-4.5-26,.4,4.3,2,7.8,5,11,2.9.7,6-9.8,7.1-11.5-4.1-5.5-6.5-9.7-4.4-16.7s6.9-12.9,8-13.6,1.9-.3,2.8-.2ZM418,59c-6.9-.5-14.6-3.2-21.5-3.1s-15.3,2.2-20.5,3.6c-15.8,4.1-32.1,13.4-44,24.5,17.9-8.4,39.4-13,54.6,2.9,13.8-7.8,29.1-8.6,44.4-4.9l-7-5.5c0-2.7,9.3-1.9-2.1-10.9-2.2-1.7-8.8-3.8-6.2-5.6l2.3-1ZM877,83c-3.5-4.9-9-8.3-14.1-11.4-17.9-11.1-55.4-22.8-73.4-8.6-5.3,4.2-9.1,7.4-3.6,13.3l-5.9,5.1c.1,2,12.8-1.3,14.5-1.5,11.7-.9,20.4,2.5,30.8,7,13.1-15.9,35-11.4,51.6-4.1ZM431,80c4.3.4,12.9,0,13.1-5.5.4-8.9-15.5-15.3-23.1-14.5l10,4.5c5.9,5.3,7.1,10.6,0,15.5ZM785,61c-6.1-.9-19.6,8.5-19,14.5.4,3.8,7,5.7,10,4,1.7-.9-1-2.9-1.1-5s1.7-6.5,3.6-8.6,5.1-2.8,6.5-4.9ZM469,122c-9.9-1.6-19.2-3.1-23-13.5s0-16-11.7-20.3c-17.6-6.5-43-4.6-53,13.4-16.2,28.9,21.7,40.9,43.3,42.3,47.8,3.2,87.9-27.2,134.1-31.9s21.1,3.7,28.9,8.9c1.9-7-5.3-9.4-10.7-11.3-16.1-5.7-34.4-5.7-51-2.5-27.6,5.4-89.2,42.6-111.7,13.2-14.5-18.9,11.6-32.2,21.8-16.8,7.5,11.3-13.3,15-9.8,2.3-8.9,0-8.7,10.1-2.3,14.8,8.9,6.7,22.2,5.1,32.7,5l12.6-3.9ZM783.8,113.8c-11.7,1.8-12.9-8.2-3.5-14,13.8-8.5,26.6,5.5,18.5,18.5-11.6,18.8-44.3,12.7-61.8,7.1-31.9-10.1-51.5-23.9-87.5-19.4-5.1.6-27,4.5-25.5,12.5s10.3-3,12.3-3.7c32.2-11.2,89.4,23.9,125.2,28.2s73.6.8,72.5-28.5c-1-27.1-39.4-37-59.4-24.3-10.9,6.9-7.4,19.8-14.6,26.4-5.5,5-13.3,4.3-20,5.5l16.5,4c10-.2,20.2,1.6,29.2-3.8,6.7-3.9,9.6-12,1.8-16.2l-3.7,7.8ZM593,107c-6.3-9.4-17.2-9.4-27-6l25.5,11,1.5-.5-2-4,2-.5ZM607,108l-2,.5v3.5s-4-2-4-2c-2.3,7.1.4,9.5,5.5,14,.4,0,5.1-6.1,5.1-6.5.1-1.1-4-9-4.7-9.5Z"/>
    <path d="M596,69c-1.7-.6-2.7-5.1-2.9-6.6-1.2-10.3,1.4-18,4.9-27.4-4,4.4-6.8,12.1-8.7,17.8-6.1,18.1-2.7,26.8,11.7,38.8l-2,.5c.7,2.4.8,4.3-1.5,6l-19.5-10.5c-2.2-2-.6-1.7,1.1-1.1,2.8,1,6,3.6,8.9,3.1-22-9.2-43.3-45.7-19.5-63.5,1.8,8.5,10.1,10.4,12.5,17.4l-1.5,7.5-10-11c-1.6-.2-1.7,0-1.5,1.5.9,6.9,8,14.3,10,21-.5,4.2-3.1-3.7-3.5-3.5-1.2.6-.1,2.8.3,3.7,2.7,6.5,8.3,14.1,13.2,19.3-.6-3.9-3.6-7-4.7-10.8-8.1-26.6,11.4-48.9,21.7-71.2,4.4,6.5,9.8,14.1,13.5,21,8.3,15.3,15,37.6,8.3,54.4s-4.3,6.9-5.8,10.6c4.2-2.4,5.9-7.1,8.6-10.9s3.5-3.1,3.9-4.1-1-6-.3-9.3c1.3-6,8.3-13.8,9.7-19.3s.6-2.7-1-2.5l-1.6,2.9-7.9,7.1c-7-10.2,7.6-16.2,12-24,11.8,9.8,10.1,21.5,5.5,34.5-7.2,20.6-19.1,24.4-35.5,36.2-8.1-4.9,1-8.7,4.5-13.3,12.1-15.7,3.7-36.5-7-50.5,5.5,11.9,9.6,24.6,9,38-1.4,1.9-1.6.6-1.7-1.3-.3-3.5,1.2-7.2-.3-10.7l-3,8v-16.5c0-.4-1.7-6.4-3-6.5.2,4.9.2,9.1-1.7,13.7s-3.6,1.5-2.3,5.3c-.8.9-9-1.6-6-4-6.5.5-3.3-10.7-3-15-1.7.4-4,7.6-4,8.5v16.5Z"/>
    <path d="M656,110c-2.4-1.7,3.7-2.8,4.6-2.9,28-3.4,65,20.7,93.3,26.4,18.1,3.7,62.9,4.3,66.8-20.3,2-12.8-9.8-19.1-19.8-22.8s-3.1-.5-1.5-1.5c20.7,2,36.4,25.5,17,41-17,13.5-46.4,10.7-66.5,6.5-31.6-6.5-60.5-26.4-94-26.5Z"/>
    <path d="M412,89l-18,10.8c-14.5,25.9,22.2,36.3,41.5,36.3,40.4,0,79.9-33,117.1-28.1,2.2.3,3.1.8,4.4,2.5l-13.4.6c-43.8,6-91.6,40.9-137.2,24.9-31.4-11-24-42.8,5.5-47Z"/>
    <path d="M822.5,62c5.2.5,19.1,4.6,23,8,.8.7,2.6,2.1,1,3-13.3-4.9-25.9-10.5-40.5-9,0-.6,1.3-2,1.5-2,4.7,0,10.5-.5,15,0Z"/>
    <path d="M406,62c-3.2,4.5-9.1,1.8-14.2,2.3-11.3,1.1-21.1,7.2-32.3,8.7-1.6-1,.7-1.2,1.5-1.5,3.3-1.6,7.7-3.8,11-5s12.9-4.5,15.5-4.5h18.5Z"/>
  </g>
</svg>