<?xml version="1.0" encoding="UTF-8"?>
<svg id="Calque_1" xmlns="http://www.w3.org/2000/svg" version="1.1" viewBox="0 0 813.5 800.3">
  <!-- Generator: Adobe Illustrator 30.0.0, SVG Export Plug-In . SVG Version: 2.1.1 Build 123)  -->
  <path d="M701.9,677C477.8,909.2,65.7,797.5,6.8,475.8-45.8,188.9,214.9-53,497.5,10.1c302.8,67.7,422.8,440.6,204.4,666.9ZM392.3,8.9C74,21.4-109.9,389.2,92.5,643.1c190.8,239.3,587.7,179.9,690-110.9C875.5,267.9,668.8-2,392.3,8.9Z"/>
  <g>
    <g>
      <path d="M400.3,15.9c264.2-4.4,458.8,247.2,379.2,502.2-94.2,301.7-508.8,360.2-692.4,106.4C-96.7,370.5,92.9,21,400.3,15.9ZM404.2,22.8c-3.4.7-9.8,6.1-10.5,9.5-3,13.4,15.5,22.6,23.2,9.2,5.2-8.9-4-20.4-12.7-18.8ZM443.5,24.6l-25-2,8.5,11,1.3-.2c.2-3.2,2.1-.5,4.8-1.5s7.7-4.2,9-5,1.8,0,1.3-2.2ZM392.5,23.6h-17.5c-.8,0-8.5,1.5-8.5,2.5l14.5,9.5c1.2-5.5,3.5-3.4,6-5s6.5-6.1,5.5-7ZM358.5,25.6c-11,2-22.6,2.6-33,6.5l10.7,5.4,4.3-3.9-1,6h4c-2.8,2.5,6.8,9.9,8.6,10.9,2.6,1.4,7,2.4,8.4-.9-5-2-12-3.5-12.1-9.9l-3.9-.6,14-13.5ZM481.5,31.6c-.4-1.9-2.6-1.9-4.2-2.3-6.6-1.8-14.9-2.4-21.8-3.6-1.4,1.3,9.6,11.5,12.7,11.8s9.3-6.6,13.3-5.8ZM446.2,28.8c-1.9.5-8.4,8.6-8.6,10.5,6.6,19.1,28.9.5,13.8-9.1-1.7-1.1-3.1-2-5.2-1.4ZM370.2,32.9c-.2-.2-5.2-3-5.5-3.1-5-1.1-9.3,8.2-7.8,11.8s6,5.6,7.3,5.9c3.9.8,8.4-6.1,11.2-8.3-3.3-1.2-4-5-5.2-6.2ZM501.5,45.6l-4,.5c-2-3,2.2-3-.2-7.8-4.9-9.7-26.4-2.9-20.9,8.9,3.7,8,10.6,11.5,18.2,5.8s2.3-4.4,3.3-5.2,3.5-.2,3.7-2.3ZM328.2,44.9c-.5-.5-2.7-1.2-2.7-1.8l1.9-2.9c-4.9-7.1-19.4-7.9-15.9,3.4-1.4,0-3.5-.4-4.5,1-4.9,6.4,6.4,15,12.8,13.9,4.2-.7,3.6-3.6,5.1-5.5s4-2.5,4.3-5.9c0-.9-.3-1.5-.9-2.2ZM515.6,47.5l11.9-3.4c1.1-.8,1.2-1.2,0-2s-8.4-3.2-10.2-3.8c-5.1-1.5-10.7-2-15.8-3.7l8.1,12.8h2.7s1.6-2.8,1.6-2.8l1.6,2.9ZM307.5,35.6c-.9-.9-22.5,6.6-24.7,7.8s-1.7,0-1.3,2.2c2.3-.2,4,2.3,5.7,2.8,2.7.7,6.3-1.1,6.4,2l1.3.2,12.5-15ZM393.5,48.6c-3.7-5.8-10.8-11.6-15.5-4l-5.5,5,21-1ZM438.5,49.6c-3.6-3.3-7-7.1-11.7-8.8-2.5-.1-7.4,5.5-9.3,7.3l21,1.5ZM473.5,53.6c-3.2-12.4-11.8-6.5-20-3-.2,1.5,2.6,1.7,3.6,1.9,2.1.3,15.8,1.6,16.4,1.1ZM331.5,55.6c2.4,0,16.1-1.3,16-3.5l-6.5-5.3c-1.3.3-10.8,7.7-9.5,8.8ZM542.5,50.6c-.7.5-9-5-15.7-2.2s-5.2,3.6-8.8,3.8-4-2.1-6.5-.6c2.4,12.2,14.6,17.4,19,3.7l3-.7c-.6,2-1.1,8.6-2.2,9.8s-8.9,1.9-6.8,4.2c1.9,2.1,17.7,1.2,20.1-1.7,4.1-4.9.2-6.1-.5-8.3s.3-4.3-.6-6c5.6,2.8,6.6,11.5,14,10,1.2-6.3-4.6-12.9-10.6-13.9s-4.1,1.7-4.5,1.9ZM265.5,52.6c2.8,7-4.5,10.7,3.1,15.5,14.1,8.8,23.5-8.4,14.5-16.5-8.2-7.3-28.8-1-27.5,12,5.7-1.4,5.7-8,10-11ZM256.5,53.6c-.9-.7-17.6,6.2-19,9,3.4.4,10.1,3,13,1.5l6-10.5ZM579.5,708.6c18.2-9.3,36.3-21.4,52.5-34,135-105.8,168.2-298.9,81.7-446.6S320.8-6.3,155.9,156.6C-6,316.6,24.5,584.8,219.6,702c2.1,1.2,12.3,7.8,13.9,6.6l-3.5-8C40.1,591.8,0,334.4,150,172.6,305.9,4.3,579.8,28.4,702.3,222.3c95,150.5,57.3,354.7-87.9,457.7-4.8,3.4-32.7,19.1-33.7,20.8s-1.5,7.5-1.2,7.8ZM577.5,62.6c-1.1-2.6-16.3-8.7-17-8-.2,2.1,2.9,9.4,4.7,9.9l12.3-1.9ZM511.5,63.6l-4.7-7.9c-3.8.3-8.6.6-11.3,3.4l16,4.5ZM294.2,59.8c-1.9.5-7.5,7.7-4.2,7.8s10.3-3.4,10.5-4.5c.5-2.3-4.3-3.9-6.3-3.3ZM243.2,70c-1-1.1-4.7-3-6.2-3.3-11.6-1.9-12.2,8.2-12.3,16.8,6,5.9,17.6,8.6,21.3-.9s0-9.7-2.8-12.6ZM573.2,66.9c-11.7,2.2-8.7,25.1,7.3,20.3,1-.3,6.1-3.7,6.4-4.5s-.4-2.1-.2-3.3,1.7-1.7,1.4-3.8-3.1-7.8-4.6-8.5c-3.1-.8-7.1-.8-10.3-.3ZM579.5,691.6c76.3-41.4,134.3-117.4,155.9-201.6,51.2-199.5-84.8-396.4-288.5-419.3C218.2,45,27.5,246.5,73.8,473.8c18.4,90.7,78.1,172.8,158.7,217.8,1-12.3,19.2-13.1,23.9-19.7s2.9-4.7,1.2-6.9-19.7-11.3-24-14c-35-22.5-64-59-75.1-99.4-5.9,2.5-11.5,5.9-18.2,5.7-26.7-.5-33.4-42.5-3.8-43.2-19.7-27-39.5-52-28.7-87.7,12-39.6,68.2-46.2,77.7-2.8,10.2-7.8,12.6-23.8,1.9-32.4-13.5-10.8-30.5-11.3-33.7-34.3-4.1-30.2,22.6-40.2,46.7-46.3l-15.4-9.1c-6.4-6.3-10.2-13.7-15.2-20.8s-5.8-4.2-4-7.1c2.4-2.6,6-1.5,8.8-2.2,14.9-4,22.4-9.9,39.2-8.7,14.9,1,26.8,7.3,37.9,16.9,5.1-5.2,16.7-10.8,19.6-17.4s-.4-1.4-1.2-1.7c-7.5-3.2-23.4.2-33-1-23.5-3-43.3-24.8-51.9-45.1s-5.6-13.4-2.9-18.2,5,0,8.1,1c8.7,3.1,15.7.2,24.5.5,15.4.5,28.4,6.4,40.4,15.6l11.6,11.4,2.6-6.9c1.4-1.4,10.8,2.5,10.9-.5l-5.6-6.3c-9.7,4.6-15.8,2.7-10.4-8.7l-7.9-2.7c.9-6.5-1.7-5.7-4.7-8.8-6.4-6.8-.4-7.7-1.5-11.4-5.9-4.5-7.6-13.5-10.6-20.3-.3-4.5,3.8-5.8,4.5-8s-.2-5.9.3-8.7c3.7-21.4,8.2-9.9,17.3.5s1.2,3,2.1,3.9c1.6,1.6,4.8,1.3,5.9,3.1,2.2,3.4,1.4,2.9,4.6,6.4s1.6,7.2,1,11.5c5.1-1.3,5.2,3.8,8.3,5.3s7.6,1.3,10.8,2.2,9.2,4.1,10,3.5c-1.9-5.4-4-12.8-4.1-18.5s2-8.6,2.1-13-4-12,3.4-14.5c5.2.3,7,7.7,10.6,9.4s11.7,1.7,15.9,6.5c.2-9,6.1-15.7,9.4-23.1s.6-8.7,5.5-12.5c7.1-5.4,7.9,9.4,10.3,12.3s7.1,3.1,9.1,4.4,6.3,6.8,7.7,5.8c1.7-5.5,4.9-10.6,8.2-15.3,3.2-4.5,7.4-7.8,10.3-11.7s9.6-19,13.1-18.7c6.3,5.6,9.3,14,14.1,20.7,2,2.8,5.1,4.9,7.2,7.8,4.3,5.7,7.5,12,10.7,18.3,2.2-5.9,12.8-7.3,16.2-11.3s3.5-13.4,7.8-13.8c7.1,1,6.3,9.4,7.9,14.1s3.7,5.9,5,9c1.8,4.5,3.1,9.3,4.5,14,4.1-5.9,10.6-3.7,15.4-6.1s7.1-13.5,13.2-8.9.9,10.7,1.4,15.6,1.8,5.5,2,8.9c.5,6.9-1.5,13.9-3,20.5,2.8-.3,4.7-2.1,7.6-2.9s6.3-.8,9.2-1.8c4.8-1.7,6.4-7.5,12.3-5.2-1-3.9-2.2-9,1-12.3s4.4-1.3,4.9-1.9.2-3.5,1.3-5.2,7-5.4,8.6-6.9c3.4-3.3,8.2-19.7,13.8-8.7s2.1,12.4,3.5,18.3,5.7.8,3.8,10-4.7,6.1-5.2,7.7c-1,2.8,2.5,10.9-6.5,10.1.7,3.7,3.1,4.6,1.3,8.7s-8.7,5.9-9.1,6.4.2,3.6-.3,5.2c-1.2,4-1.3.9-1.7,7.2-.6,8.6-14.2.8-18.1,9,4.4,2.8,9.3.3,10,7.5,5.1-4.8,9.3-12.2,14.5-17s26.7-18.2,28.8-17.8,2,2.2,4,1.7,2.9-2.6,4.7-3.4c3.3-1.5,5.4-.5,8.5-1.4,4.6-1.3,12-8,15.8-6.9l1.8,1.3c3.9,5-2.4,17.3-2.8,22.2s2.4,10-1.5,17.7-4.4,5.3-4.7,6.4c-.5,2,1.5,3.5,0,7-4.6,11.4-23,27.8-34.3,32.8s-24.6,3.7-38.4,6.6c-1.2.3-2.4.5-2.6,1.9,9.6,1.6,14.4,8.7,22.5,13,9.1-5.2,15-14.6,24.2-19.8,11.3-6.4,31.8-11.9,44.6-9s4.4,2.8,7.3,3.7c7.9,2.8,16.7,0,22.4,5.7-4.6,5.6-6.7,12.9-10.1,18.7-4.1,7.1-5.4,7-10.8,11.2s-2,3.3-3.6,4.4c-4.9,3.9-10.5,7-16.5,9l18,7.5c30.1,14.6,28.9,48.4,1.3,65.3-8.6,5.3-17.4,5.3-19.9,17.1-1.3,6.3.5,11.1,3.8,16.4s3.3,6,4.8,4.7c3.5-23.2,26.1-33,47.4-26.9,31,8.7,38.7,47.8,29,74.9s-18.4,29.2-27.5,43.5l9,2c9.2,3.9,12,13.5,9.7,22.7-4.2,17.2-28.2,24.7-40.7,11.8-13.3,51-52.7,90.4-98.6,114-2.5,11.2,11,11.8,18,17s6.6,6.1,6.5,10ZM615.5,82.6l-25-14c1.4,6.6,4.7,12.5,9.6,16.9l14.8-.9.5-2ZM561.5,82.6c.3-.3-1.8-6.4-2.2-7.3-1.9-3.6-2.7-1.5-4.8-2.2-6.5-2.4-6.6-2.9-14-.5l21,10ZM221.5,71.6c-1.1-.9-22.8,10.4-24,14l13.9.9,1.6-3.8c.3,2.5,2.2,2.1,3.5.3,2-2.6,3.3-8.2,5-11.3ZM262.5,75.6c2.9.4,6.4-.2,9-1.5-3.1-2.3-7.5-2.7-11-1.5-.4.5,1.8,2,2,3-2.6-.3-4.6-2.8-7-1.6s-4,7-4,9.6c2.5-1.5,11.5-4.7,11-8ZM625.2,109.4c4.3-4.1,4.3-15.5-1.2-18.8s-15.5-2.4-18.6,2.8.1,13.8,3.5,16.4,13.3,2.5,16.3-.3ZM204.2,91.9c-7.3-6.5-19.5-1.1-19.7,9.2s4.2,2.8,2.5,8.5c5.8,3.6,13.9,4.4,18.1-2s2.9-12.4-.9-15.8ZM230.5,93.6l-13-1.6-7,13.5c1.4,1.1,10.8-6.6,12.7-7.8s6.2-.9,7.3-4.2ZM600.5,103.6c-1.8-13.5-6.3-12.3-18-11-.5,2.3.3,1.6,1.3,2.2,2.7,1.8,6.4,2.3,9.1,3.9s3.9,5.5,7.6,4.8ZM652.5,110.6l-20-15c1.9,3.8,1.2,11.8,4.6,13.9s11,.6,15.4,1.1ZM161.5,111.6c4.7-.3,16.8,1.7,18-4.5s-.5-7.1,1-10.5l-19,15ZM412.5,208.6c.7.7,7.4-4.2,8.5-5,22.9-18.6,23.4-43.9,9.7-68.6-7.1-12.9-18.9-22.7-24.7-36.3-10,21.1-31.1,36.3-34.2,60.8-2.5,19.7,7.9,39.6,25.7,48.2.4-1.9-1-2.4-2-3.5-14.6-17.4-23.1-29.6-14.8-53.8.5-1.3,6.8-14.9,8.8-12.7-3.5,10.4-8.6,19-8,30.5s7.4,23.9,15,32.5c.7-.9-5.2-19.8-.5-23,2.3,10.7,3.8,21.6,10,31,7.5-9.6,8.3-20.6,10.5-32,2.3.6,1.9,2.7,2,4.5.4,5.5-1.4,13.2-3.1,18.5,2.6.7,1.8-.9,2.6-1.9,11.5-13.2,14.8-30.1,8.3-46.5s-14.3-22.8-19.1-34.9c-.4-1-1.6-3.1-.3-3.7,8.7,17,25.6,33.5,26.5,53.5.5,10.1-3.8,23.1-10.1,31s-8.5,6.8-11,11.5ZM185.7,120.8c1-1,7.5-1.1,8.8-3.7l-8.4-2.6c-.4,5.1-4.6,3.6-6.6,5.5s-2,8-3,10.5c.6.7,6.4-3.8,7-4.5,1.6-1.8,1.6-4.8,2.2-5.3ZM642.7,134.4c3,2.8,13.6,3.3,16.8-.2s.8-5.8.2-9.2.4-5.8-1.1-7.9c-2.5-3.3-11.4-2.3-15.1-2.4l4,6c-7.9-1.5-8.9,10-4.8,13.8ZM633.3,117.8c-5.4-.9-9.3-3.2-14.8-1.2,2.6,3.2,7.2,4.6,10.5,7s7.3,8.8,6.4,2.6-1.6-5.6-2.1-8.4ZM164.4,116.7c-.5-.5-6-.3-7.2,0-3.4,1-6.9,10.1-6.8,13.3.5,13.9,25.7,10.6,20.9-4.8s-3.9-2.2-5.3-3.7-1.2-4.5-1.6-4.9ZM350.5,119.6c-2.5-2.6-3.2,8.3-3.5,9-3.9,11.3-10.3,17.6-10.6,31.4-.3,18.3,14.1,41.1,33.1,43.5-5.4-4.4-11.1-7.3-16-12.5-11.3-12.2-12.8-23.8-10.9-39.9s5.6-14.9,5.9-22.6c5.7.7,5.4,7.3,7.6,10.9s8.4,11.4,9.9,12.1,1.7.2,1.5-.5l-10-13.5c1.9-1.7,8.4,9.2,10.5,10,8.4-9.2-9.7-13.2-13.5-17.7-1.9-2.3-3.5-7.2-4-10.2ZM463.5,119.6c-1.7-1.6-1.7.5-2.1,1.4-1.3,2.8-1.5,6.5-3.9,9.1-3.8,4.1-20.6,7.7-15.3,16.2s0,2,1.7,1.3,4.6-5,6.6-6.4,1.8-.8,2.4-1.6c.7-.2.7.9.5,1.5-1.1,2.5-8.1,7.3-8.8,11.2l.8,18.3,4,.5c-6.2,4.3-5.9,11.8-8.8,18.2-.9,1.9-7.8,11.6-7.2,12.3,1.9.4,2.4-1.1,3.5-2,5.2-4.3,10.4-10.3,14-16,.3,6.8-5,11-9.5,15,12.1-3.6,22-17.7,25-29.4s.5-14.2-.2-18.9-2.5-6.9-2.9-10.6l-1,5c-4-2.3-1.3-8.2-1-12l-8,12c0-2.7,6-15.6,7.5-16s2,1.4,2.5,2.5c1.9,4.7,6.4,19.6,6.8,24.3s-3,7.1-1.8,11.2l2-1c-.7,10.6-6.6,20.3-13.5,28l-12.5,9c5.8.5,11.9-3.8,16-7.5,16.3-14.5,17.1-36.3,9.8-55.8s-4.3-7.5-5.3-10.7-.5-8.1-1.5-9ZM686.5,143.6c1.3-1-20.1-22.2-21-21l3.1,16.9c6.1.7,11.1,4.5,17.8,4.1ZM126.5,143.6l16-3.5,3.9-15.5-20,19ZM354.6,144.5l-4.1-10.9-1,17-1-10-2.7,7.7c-3.2,14.1,0,30.4,10.7,40.3-1.7-5-5.2-9.8-6.5-14.9s-1.5-5.8.5-6.1c.1,2.9.7,6,1.8,8.7s6.3,13.4,8.2,15.8,7.4,6.2,11,7.5c-3.1-4.8-10.3-8.5-10.5-15,.9,2.4,16.5,19.9,18.5,18-.2-3-3.3-4.3-4.8-6.7-3.9-6.2-6.7-19.3-9.1-22.7s-5.7-1.1-3.6-4.6l3.5,3,.8-16.3c-3.1-2.7-5.9-8-8.8-10.3s-2.8-.4-2.9-.5ZM559.5,159.6c7.1-3.8,6.1-14.9,2.5-21-1.1,3.2-6.9,8.8-7.2,11.6s3.7,9.5.7,14.4c3.2-2.4,3-8.4,4-12v7ZM259.5,164.6c2.6-6.8,2.3-9.9-1.1-16.3s-6.7-9.9-7.8-8.6c-1.3,6.8-1.6,12.5,1,19-5.1-5.3-8.1,1.6-3.7,3.4s3.7-.4,5.2-.4.9,4,2.6,2-1.8-5.8-2-7.5-.7-4.7,1-4.5l1.3,6.2,3.7,6.8ZM308.5,140.6h-2c.2,6.3,4.2,6.7,6.5,10s1.5,4.7,2.6,6.4c1.8,2.6,7.6,4.3,5.4,8.6-.9-1.9-4.4-3.2-5.2-4.3s-.3-4.5-2.3-4.7c-.8,4,.8,7.9,1,11.5s-.2,1.6-2,1.5l-3-21c-2-2-3,13.5-2.9,15.4.9,12.7,8.4,26.2,19.6,32.4s2.5,2.2,3.3.7c-7-7.2-17.2-15.6-16.5-26.5,4.5,6.8,7.3,14.7,13.6,20.4s5.8,4.6,7.9,4.1c-3.9-3.1-8-6.9-11-11-1.2-1.6-4-5.4-3.5-7.5l15,17c.8-4.2-5.9-8.4-5-12,5,6.6,10.3,12.9,16.5,18.5l-5-.5c1.6,3.1,6.8,2.3,10,3l-14.2-16.3c-.9-2.5-2.6-5.1-3.5-7.5s-3.4-17.5-6.3-15.1l-.5,1.9c-1.7-1.8-1.3-3.9-2.9-6.1s-5.5-2.9-7.6-5.4c4.9-1.9,9.5,4.3,12.5,5.5s1.7-3.8,1-5c-3-5-20.9-4.4-21.5-14ZM481.5,199.6c14-5.3,23.5-20.7,24-35.5.2-7.8-3.9-15.2-1-23.5-3.1,1.7-4,5.6-7.1,7.4-4.8,2.8-21.4,2.7-15.4,11.6,3.2-2.2,6.8-3.9,10.2-5.8s2.5-2.2,3.3-.7l-14.5,12.5c-.9,14.3-7.8,27.2-18.5,36.5,1,.3,5.8-.6,6.5-.9,2.1-.9,2-3.3,3.7-3.9s3.8.9,7.1-.8c12.3-6.1,21.1-25.5,18.6-38.9l-4,8-1-4-2.1,3.9-2.9-.4c5.1-5.8,9.7-9.2,11-17.5,3.6-3.4,1,8.7.9,9.5-.4,13,1.1,21.1-8,32-3.3,4-8.2,6-11,10.5ZM665.3,145.8c-1.4-2.4-11.7-4.6-14.8-4.2-1.9,1.7,6.6,6.2,7.5,7,2,1.9,3.4,5.3,6,7,2.3.4,1.4-1,1.5-2.5s.4-6.3-.2-7.3ZM161.5,143.6c-5.8-.2-13.2-.7-10,7l-5-1v9c4.6,0,4.9-5.7,6.6-7.9s8.1-3.1,8.4-7.1ZM694.3,161.8c-.3-.5-2.7-.9-2.8-1.7,7.8-6.3-3.3-13-10.4-12.5s-8.2,1.4-9.4,3.7c-3.3,6.5-.6,16.7,6.7,18.8s10.9,1,11.9.3.4-2.4,1.1-3.2c1.1-1.3,4.8-2.2,2.9-5.5ZM120.7,169.4c1.2,1,7.4,2.4,9.2,2.3,8.3-.2,13.1-7.1,11-15.1s-20-10.7-23.3-.3c-.2,2.1,1.7,4.3,3.8,4.4-2.1,1.9-2.9,6.8-.7,8.7ZM554.5,163.6c-.2-3.9,1.5-11.2-4-12-1.5,4.3.5,9.1,4,12ZM568.5,156.6c-4.8,1-9.2,3.4-8,9,6.3.3,8.4-2.7,8-9ZM713.5,174.6c1.3-1.2-9.7-13.8-11.2-15.3s-.8-2.2-2.8-1.7c.3,5.1-1.3,10.5,2.3,14.7l11.7,2.3ZM263.5,168.6c4.4,1.5,9.7-8.7,5.5-10-5.1,0-5.9,6-5.5,10ZM550.5,172.6c.9-3-3.1-14.5-6.4-14-8.2,6.5,5.7,10.9,6.4,16.9l2-3.5-2,.5ZM111.4,174.5c2-5.3,2.9-9.2,1.1-14.9l-12,14.5c-.2,2.7.6.8,1.7.7,3.1-.2,6.1-.3,9.1-.4ZM258.5,175.6c-1.2-5.4-2.8-8.6-8-11-2.8,6,2.4,9.9,8,11ZM554.5,176.6c3.8,1.2,13.9-6.9,8-9.5s-8.9,6-8,9.5ZM488.5,239.6c21.8-4.8,43.2-22.8,48.5-44.9s3.1-15.7,3.2-19.8.5-2-1.2-3.2c-.9,0-8.4,6.9-10.2,7.8-9,4.3-22.8,1.6-28.4,14.7s.2,3.4-.6,5.2c-1.2,3-6.8,8.2-8.8,11.3-1.7-2.8,8.1-13.4,7.5-14l-15,8c5.1,9.6-7,18.6-13,25,5.5.5,8.9-4.7,12.5-8,.5,2.2-1.2,3.7,1.4,5.5l-1,.9c-7.1,6.7-24.5,6.1-34,7.6l14.5,3.1c9.9-1.8,20.2-.6,29.5-5.1l-13-.5c3.9-2.1,8.3-2.6,12.4-4.6,7-3.5,10.5-8.8,15.1-14.9l-2.5,8c8.1-4.4,13.4-12.6,17-21l1,5.5c5.8-6.9,6.2-16.1,10-24-3-1.8-4.8,5.7-8,4,3-3.4,6.5-6.4,11-7.5-4.2,10-4.5,20.6-10.6,29.9s-23.8,22.7-33.8,28.3c-1.5.8-2.8-1.4-3.7,2.8ZM353.5,231.6c-5.3-1.7-12.4-5.1-16.5-9s-8.3-9.1-8.9-10.1c-1.5-2.7-1-6-2.1-7.9s-20.6-18.3-22.6-19.4c-6.6-3.9-12.2-3.2-18.6-5.4s-6.9-5.6-11.3-7.2c2.8,10.5,2.7,21.6,6.8,31.7,12.8,31.3,50.4,36.4,80.2,32.3l-18.8-3.7c-8.7-2.3-16.1-9.9-20.3-17.7s-1.8-2.9-.4-3.6c7.6,9.5,16.1,17.7,28.5,20.5,1,.2,4.2,1.4,4-.5ZM270.5,185.6c0-3-.5-6.3-1.3-9.2s-.2-3-1.7-2.8c-1.7,4-1,6.1.7,9.8s-.6,2.7,2.3,2.2ZM130.5,176.6c-2.6-1.2-14.1.5-11,5s9.8-1.7,11-5ZM698.5,177.6c-1.8-.5-4,.7-5.5.5s-11-3.9-9.5,0l6.5,6.5,2-3,3.5,2.5-1.9,2.8,5.9,10.7c-.3-2.8.6-6.7-.2-9.3s-2.5-2.4-2.7-3.3,3.3-4.9,1.9-7.4ZM110.5,177.6c-13.6-.1-20.2,6.8-18.8,20.4,3.2,1.9,5,8.5,8.6,9.5s14.8-5.3,11.8-10.9c-5.7-3.4-2-1.8-2-7-1.7-3.5-9-.8-9.6-3.5-1-4.8,11.8-1.7,10-8.5ZM725.5,190.6c-4.5-8.4-14.1-15.7-24-12-.4,1.7,1.7.4,2,1.6s-.2,3,0,4.4c9.2-3.8,11.8,9.2,22,6ZM546.5,178.6c.3,4-3.9,9.7-.5,13,1,0,6.6-13.6.5-13ZM267.5,191.6c-2.2-4.8-3.8-9.2-9.5-10.7-9.1,6.1,3.2,11,9.5,10.7ZM548.5,191.6c4.2-.2,14-4.5,8.5-9.1s-9.1,5.5-8.5,9.1ZM115.5,193.6c2-.8,4.4-5.8,3.9-7.4l-1.6-1.5h-3.4c0-.1,1,8.9,1,8.9ZM712.3,187.8c-.3-.4-2.6-1.2-3.3-2l-4,3.7.5,2.3,3,2.2c-9.1,3-4.6,13.2,2.3,14.9s4.5-3.1,8.3.7c2.4.1,2.2-3.3,4.1-3.9,6.7-2.3,5.2,5.6,6.4,9.9h2.9c1.1-3.3,1.5-7.1,1.1-10.5-.9-7.8-6.6-6.5-12.6-8.4s-3.7-2.7-5.1-2.9-3.8,2.5-6.3.8c-.2-1.7,2.2-.8,2.9-2.6s.5-3.2,0-4.2ZM617.5,187.6l-18,23,13.5-4,.4-6-4,.5c6.3-2,5.8-8.1,8-13.5ZM613.5,189.6l-19.5,7,.5,13,19-20ZM88.5,194.6c-8.3,3.3-10.3,13.4-4.5,20,.6-1,4.5-2.9,4.5-3.5v-16.5ZM549.5,196.6c-6.4-1.6-8.7,6-9,11,4.9-.9,10.7-5.6,9-11ZM582.5,207.1c-.6,4.4.5,9.9,0,14.5l9.8-10.6-1.8-14.4c-4.7-.3-7.5,6.9-8,10.5ZM569.5,215.1c-.8,5.6.6,12.7,0,18.5,1.9-.2,8.5-7.6,8.8-8.7,1.8-5.9-.8-17.2,3.2-23.8-.9-1.6-1.8,0-2.5.5-5.4,3.6-8.5,6.5-9.5,13.5ZM270,201.8l-3.5,2.3c3.8,8.1,10.4,4.1,3.5-2.3ZM209.5,212.6c0,0-1.1.2-2-.7-1.5-1.5-2.7-5.7-5-6.8s-6.9.4-10-1.5c-.5,2.1,1.1,2.3,2.3,3.2,4,3.2,9.6,5.6,14.2,7.8.8,0,.6-1.4.5-2,3.2,3.2,5.7,8.2,11,8-2.5-6.2-5.7-16.7-14-16-1,3.4,2.4,5.5,3,8ZM201.5,215.6l-12-11c1,6.8,4.2,12.5,12,11ZM215.5,204.6c.1,2.8,2.9,3.8,4.2,6.3s2.4,8.1,4.3,10.7,9.1,7.6,8,2-6-15.7-7.1-16.9c-2.3-2.6-6.3-2-9.5-2ZM395.5,215.6l-60.6-9.9-3.5,3.5c8.1,17.5,30.5,26.9,49,21.5-1.1,3.8-10.3,6.1-11.5,8s.3,3,1,3c4,.3,28.4-14.1,25.5-22-1.6-.2-.6,1.5-2.2,2.3-5.3,2.8-17.3,6.1-23.3,6.7s-5.5.8-5.5-1c7.1-2.5,14.9-2.9,22-5.5s11.1-4.7,9-6.5ZM435.5,232.6h14.5c1.3,0,13-4.2,14.9-5.1,5-2.4,18.4-14.1,14.2-19.9s-15.6,1.5-19.2,1.9c-10.1,1.3-20.6,1.4-30.6,3.4s-14.4,2.9-11.8,5.7c16.9,5.5,33,16,49,2,1.7,1.8-6.1,6.5-7.5,7-15.5,6.3-29.7-2.1-43.5-8,3.7,11.6,16.2,17.7,27,21,1.8-1.7-6.5-6.5-7-8ZM231.2,208.9c-.7-.6-3.1-2.2-3.7-.8,1.7,2,10,26.7,14,22.5-1.4-5.8-6.1-17.7-10.3-21.7ZM77.5,208.6c-2.3-.5-1.6.3-2.2,1.3s-6.2,12.2-5.7,12.7l11-5.5-3-8.5ZM251.5,235.6c-2.4-9.8-5.9-24.1-17-27,2.5,5.4,5.9,10.7,8.5,16s1.5,11,8.5,11ZM746.5,223.6c-2.4-4-4.3-9.7-7.2-13.3s-1-2.1-2.8-1.7l-2,9.4,12,5.5ZM567.5,209.6c-6.1,1-8.6,13.2-9,18.5-.5,5.7,1.3,11.2,0,16.5,12.9-8,5.7-22.7,9-35ZM104.5,210.6l-14,4c4.2,1.8,12.7,1.3,14-4ZM612.5,210.6c-4.3,2.3-11.3,1.1-15,2.5s-10.1,9.3-13,12.5c6.7-.1,14.5-1.1,20.7-3.8,6.3-2.7,6.9-4.4,7.3-11.2ZM720.5,215.6l-11-4c-2.7,2.8,12.4,9.6,13,3,.3-.2,6.4,5.1,6,0l-6.5-2-1.5,3ZM401.5,230.6c6.6,2.2,13.9,2,11.5-7-3.3-12.3-12.1-8.7-14.2,2s.8,3.9.6,4-2-.1-2.9.6c-2.2,1.5-5.2,5.4-2.4,7.4s7.8-3.4,7.4-6.9ZM214.5,223.6c-1.1-1.5-9.3-6.6-10.7-6.8-2.7-.5-6.2,1.6-9.3.9,2.2,3.8,8.4,1.3,12,2-1.1,4.2-9.6.6-10,1,2.2,7.5,12.5,2.4,18,3ZM257.5,238.6c1-1.2-4.3-16.8-5.6-18.9s-1.8-2.4-3.4-2.1c.9,1.9,2.1,3.7,2.7,5.8s3.3,18.6,6.3,15.2ZM97.5,220.6c-11.3-2.7-9.2,3.8-7,12,4.8-2.4,3.4-8.4,7-12ZM553.5,250.6c7.2-7.3-1-20.4,3-30-1.7,1.3-4.3,4.8-4.7,6.7-.8,3,0,21.9,1.8,23.3ZM721.1,222c-1.3-.7-4.4-2-5.6-.9,5.4,5.2,5.1,14,11,18.5,1.2-4.5,3.3-9.6-.3-13.7s-4.8-3.8-5.1-3.9ZM282.5,254.6c-1.2-4.8-4.1-8.4-2.1-13.6s5.4-7.4,11.1-9.9c-3.9-7.9-8.3-7.2-16-8.5v3.5c-1.9,2.4-7,.4-6,2.9s3.9,5.9,5.2,8.8c2.3,5.5,3.6,12.6,7.8,16.7ZM604.6,229.8c.2-.4,5.3-2.5,3.8-6.1-1.7,0-4.1,3.8-4.6,3.9-5.1,1.4-16,.3-21.6,1.3l-13.7,12.8c7.2-1,15.4-.6,22.4-2.1s6.4-3,9.4-3.7,3.6,2.4,5.1-3-.8-2.7-.6-3.1ZM737.5,229.6c-7.5,5.3-11.3,18.6.8,20.8,9.2,1.7,17.4-7.1,13.7-15.8-1.2-2.8-12.9-11.5-16.5-11,1.5,3.3,4.2,3.6,3,8l-1-2ZM262.5,242.6c.4-3.9-1.9-7.2-2.8-10.7s2-5.2-3.2-7.3l3,16.3,3,1.7ZM538.5,248.6c-.2-8.5,4.7-15.8,6-24-5.7,4.4-11.7,2.9-10.8,12.3l4.8,11.7ZM74.2,225.8c-4.6.7-11.2,5.4-11.8,10.3s.9,11.7,3.7,12.4,2.7-.9,3.7-.7,2,2.3,3.2,2.6c4.1.9,13.4-6.6,13.4-11.3s-9.1-13.8-12.3-13.4ZM201.5,228.6c3.5,6.5,15.4,3.4,21.6,2.1s3.3.3,4.4-1.6c-7.7-7.6-17,.2-26-.5ZM526.5,226.6c-1.9-1.3-10.6,6.9-13.1,8.4-6.5,4.1-13.6,6.8-19.9,11.1,1.8,4.1,17.8-1.5,21.3-2.7,8.9-3.3,17.4-5.8,11.7-16.8ZM237.5,233.6c-2.2-.2-4.1-1.7-6.3-1.7-3.8,0-14.9,2.9-20.2,3.7-1.4.2-3,.3-1.5,2,8.1,0,18.7-.1,26.5-2s1.8.7,1.5-2ZM416,230.5l-5.1,5,4,4.1,5.1-5-4-4.1ZM367.5,241.6c-19.4,2.9-41.1,3.3-59.7-3.8s-9.7-8.4-16.3-1.7c3.9,7.7,12.7,8.3,20.6,9.4,14.6,2,36,3.6,49.9-.8s5-1.5,5.4-3ZM543.5,257.6l5-22c-2,.4-1.6,2.2-2,3.5-1.2,3.9-3,9.4-3.7,13.3s-1.2,5.2.7,5.2ZM247.5,240.6c-1.1-2.5-4.7-4.6-7.3-4s-.5,1.7-1.4,2-2.8,0-4.3.5c-5,1.8-9.3,4.7-15,5,4,4.2,7.1-.1,10-1,5.6-1.6,12.6-4.2,18-2.5ZM213.5,240.6h15c-.5-2.2-4.7-1.9-6.5-2s-11.9-.5-8.5,2ZM557.5,254.6h14.5c.3,0,5.7-1.2,6.5-1.5,4.5-1.4,8.8-6.1,14-5.5-.9,1.5-3.8,3.3-5.3,4.2-11.8,7-14.7,4.9-27.2,5.8s-12.4,1.6-10.5,3c14-.6,30,.5,41-9.5l11-12.5c-5.9,3.7-12.6,5.2-19.5,6s-7.4-.9-16.6,3.4c-3.2,1.5-8.4,1.1-7.9,6.6ZM269.5,252.6c-5.4-5.3-13.7-9.8-21-12l2,2.4,19,9.6ZM403.5,255.6c5.2-.2,9.4-1.2,12.8-5.5-1.9-3.7-7.7-10.6-12.1-9.4s-4.3,4.2-6.4,4.6-6.1-2.5-9.6-1.6c-5.2,1.5-6.2,9.2.7,9.9l5.6-5.1c-.4,5.8,7.4,5.4,7,11l2.5-1-.5-3ZM285.5,253.6c.7-3.9,3.1-7,6-9.5-5.7-6.2-7,.5-7,6s-.7,3.8,1,3.5ZM486.5,241.6c-13.5,3.3-27.3,1.8-41,.5,9.3,5.9,25.4,6.6,35.8,3.8,1.2-.3,6.6-2.3,5.2-4.3ZM61.3,257.4l-2.4-14.8c-3.2,4.7-7.2,12.2-1.9,17l4.3-2.2ZM227.5,246.6h18.5c.2,0,3.9-.9,3.5-2-5.7-1.6-12.8-1.5-18.5,0s-3.1,0-3.5,2ZM430.5,255.6c.4-5.2-8.4-9.8-12.5-12-2.8,1.8-.4,4.4-.5,7l7-2c2.9,3.9-16.7,11.3-12.1,18.3s12.1-9.6,14.1-10.8,2.7-.3,4-.5c0,2.8-11.3,11.8-9,14,8.3,2.8,8.7-8.2,13-11.4s7.2-1.7,8.5-1.7c10.9,4.4,22.9,6.2,33.8,10.3s14,8.5,17.8,7.4c7.8-2.4-4.3-8.5-7.7-10.4-9.7-5.5-32.9-11.9-43.8-12.3s-6.9,3-12.5,4.1ZM547.5,255.6c4.8-1.9,2.6-8.6.5-12l-.5,12ZM757.5,244.6c-1.7-1.6-3.5,4.5-3.5,5-.6,3.6,3.8,4.9-1.4,8.6l3.9,5.4c-2.8,1.2-2.9-1.8-3.7-2-5.6-1.1-9,2.7-12.3,6.6,3.3,7.7,14.6,8.3,19.6,2.1,2.9-3.6,2-11.5,1.1-16s-3-6.3-3.8-9.7ZM524,249.6c-6.9,6.4-1.3,11.1,4,16,4.1-2.2-.7-16.8-4-16ZM257.5,251.6h-20.5c-.6,0-4.3-2.7-4.5,0,5.2.7,10.2,2.5,15.5,2.1l9.5-2ZM329.5,252.6l-15-2,2.1,5.4-3.1,3.5c3.1-1.1,8.3-2.3,11-3.5s4.5-2.1,5-3.5ZM535.5,266.6c.8-5,2.7-14.5-4-16,.7,4.8,1.1,9.7,2,14.5s-.7,1.7,2,1.5ZM310.5,261.6c-.9-5.3.4-9.9-7-10l2,11,5-1ZM376.5,251.6c-24.1,0-48.5,8-70,18.5s-3.4,1.6-4.6,2.4-2-.5-1.4,2.1c2.8-.6,7,2.9,9.1,2.5,3.4-.6,12.2-6.6,16.7-8.3,7.2-2.8,15.5-4.6,23-7s18.6-8.2,21.2-6.3c-7,7-17.7,7.6-26,12.5l7.5,6.5,5.5-5-2,9c1.9-1.2,1.9-3.6,3.9-5.5,4.3-4,11.1-3.2,13,2.5h-5c3.2,1.3,5.7,1.2,9,0,1.6-2.2-10-8-7-11s7.1,7.2,9.7,7.9l5.2-2.4-6.5-9.5-4.5,3-2-7c3.1.3,5-2,5-5ZM383.5,251.6c-3.4,0-4.6,4.7-3.8,7.3s8.8,12.7,10.8,10.7l-7-18ZM301.4,252.7c-10-.2-9.4,7.6-6.9,14.9,8.1.5,9.5-8.7,6.9-14.9ZM505.5,252.6c-8.6,1.8-17.3-1.4-26,.5,12.6,4.4,25.9,27.2,26-.5ZM737.5,264.6c8.2-5.4,1.6-10.1-5-12l5,12ZM80.5,253.6c-4.3-1.3-10.2,6-5.5,8s4.9-6.1,5.5-8ZM390.1,254.7c-4.3,1,2.5,13.4,4.1,13.9,3,.9,8.2-4.2,7.3-7.3l-11.3-6.6ZM453.5,277.6c1.3-5.8,8.1-6.3,12-9.5,0-1.7-10-3.2-12-4-2.8-1.2-6.8-4.9-9.7-5.3-4.7-.7-11.8,8.7-14.2,12.3,1.9,3,4-.8,6-1.5.9,1.1-3.8,4.6-.5,5s6.5-5,10.8-3.9c2.5.5,5.5,8.4,7.7,6.8ZM53.5,259.6c-2.9-.6-2.1,1.4-2,3.5s1,8.1,2.5,8.5c2.1.5,2-3,3-3.1,1.9-.1,4,3.1,6.9,3.1s9.2-2.6,9.5-3.7c-1.5-9.3-3-4.7-6.3-5.5s-2.1-4.9-7.7-.3-3.3,4.9-4,4.5l-2-7ZM482.5,356.6c-3.2,0-4.8,0-5.7-3.5l9.7-8.5c-7.4-.9-7.3,3.9-11.5,8-7.5-5.8-3.5-13.1-3.4-20.5,0-3-1.8-6.3-1.1-9.5l1.5,2,5.5-4-.6-2-4.4-3c13.1,1.7,23.9,10.8,37,12-5.8-5.5-14.2-8.6-20.5-14s-3.6-2.6-2-4c6.4,4.5,12.5,9.4,20,12s2.8,1.9,3.5.5c-2.6-7.1-20-24.4-26.7-25.4s-6.8,10.8-12.3,11.5l-.4,7.3-3.4-5.4c.7-2.2,14-17.8,16.4-19.6,6.9-5.1,16.4-5.4,22.3-11.5-3.8-3.1,2.4-4.4,5.2-6.1s2.1-2.6,3.7-3.3l12.4,7.9-2,3c8.6,2.7,16.8,4.8,24,10.5s24,26.4,24,36v20.5l3.1-.6c1.9-10.1,1.5-21.8-2.6-31.4s-16.8-23.5-24-29c-6.2-4.7-14.1-5.8-20.4-10.6-5.8-4.4-8.8-11.4-14.6-15.4-1,.3-10.1,14.4-12.8,16.7-4.1,3.4-11.6,5.3-16.4,8.1s-20.2,17-21.1,21c.5,5.6,3.3,11.1,3.8,16.7s-2.9,18.4-1.6,22.5,12.5,15.6,16.6,12.9c.1-.8-.9-1.4-1-2,6-.1,14.2-3.9,16-10-4.6,3.8-10,6.9-16,8,0,.6-.1,1.3,0,2ZM328.5,358.6c3.3,2.6,9-9.6,9.7-11.8,7.7-22.1-4.6-54.3-27-63.4-4.8-2-10-2.4-15-5-7.2-3.7-12.4-10.4-18.2-15.8-4.5,4.4-6,9.7-11,14-4.7,3.9-11.2,6.3-16.2,9.8-17.8,12.4-30.6,34.5-29.1,56.6l.8,1.2,3.1.4c-.8-14.2,3.4-27.4,11.6-38.9s20.7-15.3,31.8-25.2,5.3-8.9,11.6-9.8c1.4,3.9,7.4,5.4,11,7l-.5,2.9c11.7,5.1,22.6,6.4,31.9,16.1,14,14.5,20.3,46.2,5.6,61.9ZM545.5,265.6h15.5c1.2,0,5-2.4,7-2l-2-1-20.5,3ZM621.5,265.6l-8.8.2c-3.4,6.2-8.7,12.1-8.2,19.8,9-.7,9.1-8.9,13.2-15.3s3-2.8,3.8-4.7ZM610.5,266.6c-6-2.3-19.4,20.8-18,22,9.5,1.4,9.6-10.7,13.8-16.7l4.1-5.3ZM650.5,270.6c-6.1,2-20.5-4.9-25-3.6s-9.9,11.2-11,15.6c.9.8,7.8-1.5,9-2.5s1.3-8.2,3.6-9.5l14.3,1.1c-2.4,4.7-8.7-.1-12,1.4-1.4.6-5.1,7.1-1.5,6.6l22.5-9ZM42.5,282.6c7.1-2.7,13.4-8.8,5.5-15l-5.5,15ZM224.5,286.6c-2.2-10.8-12.2-21-24-17,8.6,5.5,12.6,17.2,24,17ZM601.5,268.6c-7.3-2.1-19,21.4-17,24,5.8-1.8,6.1-8.6,9-13.3s1.5-.8,1.9-1.5c2-3.1,3.4-6.5,6-9.2ZM772.5,287.6c1.7-2.4-5.9-19.8-7-19l-3.9,8.4,10.9,10.6ZM478.5,279.6l.5,3c1.6-1.8,7.3-2.9,6-6-1.5-2.7-13.9-7.8-16.8-7s-1,2-1.7,2.5c-3.9,2.2-8.8,5-12.5,7.5s-2.2,3.8-4.5,4.7l1,2.8c2.4,3.1,8-6.3,8.6-6.4,3.6,2.7-1.3,5.5-2.5,8l10-1.5c.3-3.1-2.3-4.6-5-4.5,2.5-4.9,9.9,3.9,13.4,3.1,2.3-1.8-.6-6.4,3.6-6ZM204.7,279.5c-1.9-1.2-4.5-8.2-9.9-8.6s-13.6,8.5-19.3,5.8l12.6,3.9c7,2.4,15.7.6,21.9,4.1,2.8-1.1-.9-4.5-2-5.1-1.5-.9-2.8.3-3.3,0ZM219.5,270.6c3.3,3.9,4.5,9.8,8,13.5s7.8,5.5,6.2.8-6.4-15.3-14.2-14.3ZM352.5,287.6c-2.2-4-.8-7.1-3.6-10.9-8.6-12-24.3-3.3-33.4,3.4l15.5,8.5,3-4-.5,3c2.5.2,3.5-1.1,4.5-3h1.5c2.2,5.5,8,5,13,3ZM65.5,290.6c1.4-2.8,1.5-6.1,2.6-8.9s5.6-7.1,1.9-8.1-3.7,4.5-3.5,7h-7c2.4,2.5,2.4,6.2,3.8,8.7s0,1.7,2.2,1.3ZM451.2,360.3c.7-.6,4.5-7.1,5-8.5,13.4-30.4-2.6-65.5-34.5-74.9-44.4-13.2-88.8,33-65.7,75.7s5.2,10.3,8.5,8c-8.3-13.4-15.1-27.5-10.1-43.5,7-22.1,26.1-38.9,50.1-38.4-1.9,3.2-9.6,1.9-10.8,5.6s-.9,11.8,2.8,11.4c-5.2,4.6-1.3,6.2,2.9,3.4s3-6.8,6.7-7.3c2-.5,2.6,4.5,4.8,4.6,5.2.4,5.2-10.4,3-13.7s-7-1.3-8.5-4c38.2-1.7,63.6,40,46.5,74-1.3,2.6-4.9,6-5.5,7.5-1.2,2.7,4,.7,4.7.2ZM628.5,282.6c.7,2.1,10.3,4.2,11.3,3.9l8.6-12.9-20,9ZM243.5,283.6c-1.1-1.9-9.2-10.4-11-9l5,12,6-3ZM364.5,274.6l-2.8,1.7-5.2,7.3,5.4,2c1.4-3.8,6.5-3.3,6.6-7l-5,1,1-5ZM446.5,274.6h-3s1,3,1,3l-5-.5,9,6.5-2-9ZM576.5,295.6l3.2-2.3,8.8-18.7c-4.4.1-12.9,20-12,21ZM749.5,291.6l2.9-7.4c-1-1.6-8.2-9-9.9-7.6,2.1,4.1,3,9.6,4.8,13.7s.1,1.6,2.2,1.3ZM190.5,285.6c-3-3.4-9.1-3.7-13-6,2.2,6.8,6.2,8.6,13,6ZM290.5,286.6c-.6-4.1-6.4-2.7-8.5-7-2.1,2.1-4.7,3.6-4.5,7l-2-5c-4.5,5.8-3.3,2.4-5.5,2.4s-3.4,1.8-3.6,2.4c-.8,2.6,2.9,21.2,7,18.3l1-6,2,5,5-1-.7,3-9.3,1.5c2.7,4.1,6.4,4.2,5,10.5,1.8-.1.6-3.1,1.5-5,1.4-3.1,6.3-9.4,8.4-13.6s1.5-9.6,8.1-11.9l-2.5-2.5-1.5,2ZM523.5,288.6l-4.5-8c-3.1-1.3-2.6,9.8-2.5,11-2.1-.9-.6-5.4-1-7.5-.8-4.1-4.9-2.1-7.5-.5l-.5,8-1-8c-11.1,2-3.3,13.6,2,18l1-4c-.3,5.7,2.8,12.2,8.5,14,2.5-.4,3.9-2.5,3.5-5l-7,1c.8-4.6-2-12.2,2-15v12c11.2,1.1,3.2-14.1,10-16,1.9,8.7-3.3,16.1-2.5,24l6.9-11.7,13.6-8.8c-1.4-3.6-13.1-5-16.5-7.5-1.9,2.7,1.4,1.8,2.5,2.5,2.3,1.4-.8,3.8-3.4.4s-.7-3-2.1-3.9l-1.5,5ZM416.5,282.6v15h5c-1.6-1.9,1.8-10.9,3-10l1.5,2,2.5-3-12-4ZM578.5,282.6c-5.4,2-7.5,11-8,16l2.5-3,5.5-13ZM60.2,301.3c4.3-5.4-2.8-23.2-14.8-15.4s-7,10-2.7,16,13.1,4.9,17.6-.6ZM391.5,284.6h-4c-.6.6,1.7,10.8,3.5,12,.2-4-1.8-8.1.5-12ZM640.5,289.6c-8.2-.1-14.2-7.6-23-4-2.3,2.4,11,7.7,12.6,8,3.6.5,8.3-.7,10.4-3.9ZM200.2,286.9c-4.1-3.7-7.9.4-11,2s-5.5-.3-4.7,2.8c4.5.2,6.2,5.9,9.2,7.3,8,3.5,24.5-8.5,22.8-10.2-9-3.6-15.1,6.8-24,6l8.6-5c.5-.6-.5-2.5-.8-2.8ZM759.2,286.8c-19.5,14.4,8.8,32.3,16.9,12.3-2.4-7.1-9.6-11.9-16.9-12.3ZM268.8,310.4c-.2-.5.7-1.9.3-2.8-3.5-7.5-5.5-11-5-20l-10.5,6.5c4.1,4.4,11.1,8.6,14.1,14s0,2.9.7,4.2c1.4,2.8,3.7,5.1,4.3,8.3,6.9-1-3.5-9.6-3.7-10.2ZM303.5,287.6c-4.3-.5-8.1,0-10.8,3.6s-9.9,19.6-11.4,23.6-1.1,3-.8,4.7c3.1-2.1,15.1-22.8,16.5-23,5.2-.5-6.1,11-4,12,5.8-6.4,12.6-11.8,20.5-15.5-3.2-2.6-7.5-4.1-10.5-.5-3-2,.9-2.3.5-5ZM499.5,287.6l-4,1.5,2.8,7.2,15.2,24.3c1.6-4.2-1.8-6.2-2.5-8.1s.2-2.6-.3-3.6c-3.5-6.9-11.8-12.2-11.2-21.3ZM625.5,294.6c-8.4-2.4-11.9-10.5-21-4-.8,1.2,20.6,12.5,24,9,.8-3.2-4.1-1.8-6-3l3-2ZM349.5,293.6l2.5,4,3.1-7-2.1-2-2.5,2.5,2,2.5h-3ZM373.8,301.3c3.1,2.3,9.8,5.3,12.2.4s-4.4-13.7-7.8-12.8l-8.7,8.4c1.9.8,3.2,3.3,4.3,4.1ZM424.6,301.5l6.9,2.7,8.9-8.1c-7.3-12.4-14.5-6.7-15.9,5.3ZM500.5,304.6l-7.5-14.1-7.5,2.1,1.3,2.3,13.7,9.7ZM227.5,290.6l-7,.5-20,12.5c4.2.8,11.3-1.3,15.4-3.1s8.8-5.9,11.6-9.9ZM342.7,296.4c-.5-1,1-2.5.4-3.8-2.3-3.3-7.1-2.4-9.4.5l11.9,19.5,3-9.5c-5.7-2.4-3-1.9-4-5.8s-1.7-.7-1.8-.9ZM618.5,301.6c-9.3-1.9-16.8-15.2-26-7.5,2.1,5.8,10,10,15.7,11.3s2.6.6,2.3-1.8l-15-7c7.4,1.5,11.5,5.9,19.5,6s3.8.7,3.5-1ZM232.5,292.6l-15,10.5-12,2c1.2,1.7,2.5,1.5,4.3,1.4,8.2-.4,19.4-5.9,22.7-13.9ZM466.5,292.6c-3.4-.7-5.9,1.2-9,2l2,4.5,2.1-.2,4.9-6.3ZM555.3,301.8c-4.4-1.2-6.5-8.4-11.5-6.4-10.2,4-17.1,16.5-20.3,26.3.9,1.1,20-17,23-18.5s3.3-1.2,4,0c-4.8,3.3-9.2,6.7-13.8,10.2s-2.4,1.7.2,1.3c5.2-.9,11.4-8.3,17.3-8.2l1.1-4.6ZM605.5,308.6c-9.5-.6-12.3-15.9-22-12-1.4,1.5,9.8,10.3,11.3,11.2,2.6,1.5,9.1,4.8,10.7.8ZM316.5,296.6c-6.6.2-13.9,6.4-18.6,10.9s-1.3,3.2-2.5,4.5c-2.1,2.3-9,4.7-10.5,7.5l.5,2.5c3.1,2,19.3-10.1,24-10.5-3.6,6.2-18.3,9.5-22,13.5s-1.2,1.8-1,3.5c1.4.2,2.7-.1,4-.4,5.5-1.2,27.9-8.4,32.2-10.8s3-4.2,4.2-4.8c2.4-1.2,1.5,4.3,3.5,4l-2.1-6.8c-4.4-.2-7.5-3.6-12.8-2.2l7-2c.8-3.3-2.2-1.3-4-2.5s-1.2-2.3-2-3.1l-4,.6,4-4ZM236.5,314.6c10.7,2.6,22.2,3.9,31.7,9.9,6.9-2-1.1-7.7-3.1-10.9s-1.1-4.5-3-7-11.1-9.1-14.5-8.9l2,1.5c-3.2.5-15.3,13.2-13,15.5ZM371.5,319.6l6.9-12.5c-1.2-2.9-3.9-1.5-5.4-2.4s-4-5.4-5.9-5c-4.3,3.5-5.7,9-7.6,14,2.9-2,10.7,7.3,12,6ZM445.4,299.6c-1.3-.9-9.3,5.9-9.8,7.7-1.4,4.8,4,6.8,3.8,11.3l12-4c0-6-3.4-10.1-6-15ZM38.5,300.6c-2.6-.6-2,1-2.7,2.8-1.1,2.9-4,11.3-.3,11.7-7.1,7.3-2,15.8,5.5,20.3,2.1,0,15-9.5,16-11.8,1.5-3.3-.4-5.5,0-7.5s4.8-5.4,3.6-8.4c-3.8,0-8.2,4.1-8.7,7.7s2.8,7.7-4.6,6.4-.5-1.5-1.5-1.9-2.5,0-3.8-1-1.7-4.9-5.4-4.1c-.7-4.2,3.8-4.7,6-7.5l-4-6.5ZM408.4,302.7c-6.5-1.6-9.8,8-2,7.4s3.3-4.7,2-7.4ZM385.5,305.6c-2.1-2-10.4,10.4-11.2,12.3-6.2,15.1-1.7,26.8,7.7,38.7l10.5,5c-2.3-4.5-7.7-6.4-11-9.8-11.6-12.2-8.5-35.6,4-46.2ZM425.5,314.6c3.9-3.8-22.3-19.2-11.5,2,3.2-2.9,7.6-1.9,11.5-2ZM432.5,349.6c1.9,2,6.3-9.8,6.6-10.9,2.3-10.9-1.1-28.5-12.6-33,8.8,8.1,14.4,21.2,10.7,33.2-.6,2-5.4,10-4.7,10.8ZM587.5,307.6c-1.2-3.1-5.8,0-9-2-1,7.3,5.1,4.8,10,4l-3-1,2-1ZM398.3,306.8c-5-3.2-17.3,8-15.8,9.9,4.3-4,8.1-1.2,12.5,1,1.4-2.3,6.6-8.8,3.4-10.9ZM774.2,333.4c.5-.5,7.1-11.5,7.2-12.3.5-4.2-3.2-21.7-6.7-10.6s-2.2,8.3-2.1,8.8c0,.6,5,2.7,3.8,5.4-2.7.6-2.7-2.7-4-3.5-4.3-2.6-8,2.7-11,5-.5,2.3,3.3,2.4,4.5,3.5,2.1,1.8,4.2,7.2,8.2,3.8ZM569.5,325.6c-.1-3.2-7.5-17.4-9.6-17.8-5.9.2-10.2,2.9-15.4,5.2s-19,8.8-19,12c0,2.2,1.6,2.6,3.4,2.5,5.6-.3,17.8-6.6,23.8-8.3,2.6-.7,4.3,1.9,5.4-1.7l3.4,1-1.5-6,4.4,6.5c-2.9,0-3.4,2.7-4.1,3.2s-2.2-.6-3.6-.1c-8.6,2.7-19,4.9-27,8.1s-4.5,4.2.6,3.7,32.8-7.5,34.2-8.8,1-2.3,1-3.5l4,4ZM757.5,325.6c8.6-6.6,3.6-13.7-4-18l4,18ZM219.5,313.6c-18.4,1.6-71.6,17-31.4,35.9,43.9,20.6,130.6,24.4,179.9,26.1,71.7,2.5,180.5,1.5,248-22.9,13.6-4.9,36.4-16.4,13.5-28.6s-19.1-7.8-23.4-7.4l-11.6,3.9c9.8,2.5,22.2,3.2,28.8,11.7,2.1,7.6-14.8,13.4-20.3,15.3-64.1,21.8-164.2,22.1-232,19.9-47.3-1.5-113.9-4-158.6-18.4-5.2-1.7-25.6-9.5-23.5-16.5s25.7-9.7,28.9-14.1c.5-.7,1.9-4.6,1.6-4.9ZM415.3,327.5c1.3-2.3-7.3-13.7-9.4-13.9-4.7-.5-7.5,9.5-12,11.1-4.3-8.3-10.8-5.3-10.6,3.5s2,8.2,7.1,5.5l-1,4,3.4.8,2.7-3.3c-2-3.1-4.9-3.8-4.1-8.5l6.1,5.4c9.7,7.2,10.6.3,17.8-4.6ZM368.3,332.5c4.6-11.3-1.9-12.8-9.8-17.9-2.7,6-3.6,11.4-3,18h12.9ZM430.5,344.6c7.2-7.5,6.2-22.9-1-30,.4,5.6,3.8,10.7,3.8,16.5s-2.3,9.1-2.8,13.5ZM450.2,316.8c-7.9,1.1-11.9,10.4-7.2,16.7,3-1.8,11.2.6,12.3-2.5s-.7-14.8-5.1-14.2ZM235.3,325.5l-.3-7.8c-2.2,2.4-3.8,5.6-3.5,9l3.8-1.2ZM327.5,317.6l-15,6c1.9,1.4,18.2-3.1,15-6ZM332.5,327.6c.3-3.5-.8-7-2.5-10-3.2,2.7.2,6.6-.5,10h3ZM267.5,329.6c.3-1.7-.8-2.6-2-3.5-2.8-2.1-26.6-8.8-27.9-7.5l-1,8c3.1-.8,6.8,1.4,9.4,1s2.7-2.2,5.9-2,15.1,4.6,15.6,4ZM422.5,328.6c0,1.9-.7,6.3,1.6,7,13.7-.9,1.5-22-7.2-15s2.1,9.4,5.5,8ZM493.5,325.6c-5.7-3.2-17.9-8.4-18,2,4-2.3,8.2-.3,12.2-.3s5.8-.4,5.8-1.7ZM326,322.7c-11.4,4.4-23.9,5.6-35.8,8.1l-1.7,3.3c1.1,1.7,1.5,1.2,3,1.1,3.5-.1,11.8-1.1,15.4-1.7,6.9-1.1,13.8-3.1,20.2-5.8l.5-2.5-1.5-2.5ZM378.5,322.6v15.5c0,3.8,8.7,11.7,11.5,14.5l3.3-9.5c-1.4-2.8-6.1-.6-7.7-1.6s-3-6.6-4.9-7.6l-2.2-11.3ZM517.2,322.7c-4.5,1.1-3.3,14.5,1.8,13.9,8.1-.9,3.9-15.3-1.8-13.9ZM276.2,323.8c-6.5,1.8-6.6,13.6,1.7,12.9,7.3-2.3,6.3-15.1-1.7-12.9ZM583.5,324.6c.1,1.9-.8,11,1.5,11,7-3.2,4.3-8.7-1.5-11ZM784.5,326.6c-2.8-.6-2.8,3.3-4,5.3s-3.4,1.3-2.8,5c.4,2.6,9,9.6,9.8,8.7-.8-6.6-4.1-12.1-3-19ZM478.5,336.6c4.8-.2,10-2.3,14.6-2.9s14.4.8,14.4-1.6c-9.6-6.4-21.5-.9-32.4-2.6l-2.6,15.1,21-4.5,11-4.5c-5.8,0-11.8.2-17.4,1.1s-6.5,4.3-8.6,0ZM27.5,344.6l7.9-6.6c.3-1.8-5.6-5.3-4.9-8.4-3.4,3.1-2.8,10.5-3,15ZM256.5,329.6h-4c1.9,3.9-1,3-2,4.8-1.7,3.1-.8,8.7-1,12.2l-3.5-15c-4.9,4.1-5.7-.9-10.5-1l-.5,3-3.5-3-1,16h3c.3-2.4-.5-4.8-.4-7.1s-.1-5.8,1.4-5.9c2.3,4.8-2.8,10.3,2.5,14l2.5-4,.9,4.5,15.1,1.5-1.8-1.1c1.1-5.2-1.6-10.8.9-16.2s2.8,0,2-2.7ZM562.5,340.6c-.1-3.8,1.4-9.1-3.7-9.8s-19.5,6-26.3,5.8l13,3c3.2,3.2-6.8,1-7.5,1-1.6.1-3,.7-4.5,1,2.8,2.3,4.3,7.1,7,8l-2,3,11.8-1.2,2.7-5.8v6s1.5-7,1.5-7l2.5,6c3.8-1.3,2.4-3.5,2.5-7l1,5h1s2-5,2-5v5c8,.7,7.7-11.5,6-17-4.2-.6-1.2,6.8-1,9-4.6.5.6-8.9-4.5-9l-1.5,9ZM330.1,349.3c2.3-3.9,4.5-16.9-1.1-17.4s-4.6,14.4-5.8,18-3.6,4.6-3.8,7.7c2.7.7,2.4-.6,3.3-1.3,1.4-1.1,6.6-5.8,7.3-7.1ZM262.5,332.6c-8.3-1.7-7.7,15.4-4.5,17s1.6-2.1,1.8-3.2c.9-4.6,1-9.4,2.7-13.8ZM313,336.6c-5.7.4-12.2,0-18,0s-2.9,1-2.5,2c5.5.1,12.1-.7,17,2.5.4,2.6-1.8,1.3-3.2,1.2-4.6-.5-9.1-1.1-13.8-.7l4,7,4-1c.4,2.6,0,2.5-2,3.5l3,3.5-3,1c5.7,1.3,7.2-2.1,11-5l-3,6c13.5,3.3,18.3-12,17-23-4.7.2-7.2,6-8,10-2.6-.7,1.3-7.7,1-8-1.5-.6-2.8.9-3.5,1ZM53.5,334.6c-.7-.7-7.5,2.9-7.9,4.6l4.4,9.4c2.3.4,1.3-1,1.5-2.5.4-4.1.7-7.5,2-11.5ZM761.5,347.6l6.9-8.5c-2.3-2.5-4.1-5.2-8-4.5l1,13ZM264.5,351.6c-.4-5.8,0-10.6,2-16-5.1,3.8-5.4,10.2-5,16h3ZM361.5,344.6c0-1.4.3-3.1,0-4.3s-3,0-2-2.7c2.6,1.1,6.6,1.1,8-2h-10c-.4.4.9,10.1,4,9,.2,3-.4,5,.9,8.6s3.3,5.9,4.6,5.4c5.1-5.3,11.8-6.3,5-14l-9.4,3.1c.5-2.5,7.4-3.3,8-4.1s0-3.3-1.6-3.8c-6.1-2-4.7,4.3-7.3,4.8ZM509.5,336.6l-19,7.4-11,8.5c10.2.8,14.8-6.3,21.5-11s6.9-2.2,8.5-5ZM451.3,343.8c-.3-.5-9.2-6.8-9.8-6.2l-4.9,12.4c.2,1.2,7.8,6.7,9.2,6.5,3-.6,7-10.1,5.4-12.6ZM293.5,390.6h-19l18.5,3c66,5.3,132,6.3,198,2,19.5-1.3,39-3.7,58.5-5-.7-1.8-5.9-1.1-7.5-1-6.2.3-11.4,1.3-18,1s-3.7.8-3.5-1c20.9-1.2,41.7-4.6,62-9.5,17.9-4.3,39.3-9.5,54-20.5-4.2.9-7.9,3.4-11.9,4.6s-3.3,1.3-3.1-.6c6.5-3,15.2-4.3,20.5-9s8.8-9.3,4-15c-1,1.1-.7,2.9-1.6,4.4-11,17.2-66.5,26.6-86.5,29.5-83.6,12.2-172.8,13.1-256.9,5.1-28.1-2.7-112.1-11.5-131-31-2.4-2.5-2.4-5.3-4-8-1.8,2.3-3.8,7.5-1.2,9.7s2,.3,2.6.9c9.1,8.4,18.1,12.4,30.1,15.4.1,2-3.7.4-4.6.1-7.2-1.9-14.1-5.3-21.3-7.1,4.2,4.4,11.4,7.2,17,9.5,18.3,7.5,38.5,11.7,57.8,16.2l47.2,6.3ZM405.4,357.5c1.7-7.9-1.6-11.7-5.4-17.9-5.9,6.9-6.5,20.7,5.4,17.9ZM427.4,342.7l-9.9-3.1c-1.1,2.9,2.8,8.9,2.6,10.5s-2.2,1.7-1.6,3.5c3.6.3,11.5-7.8,8.9-10.9ZM512.5,339.6c-3.4-4.3-5.2,13.8-5.3,15.2s-1,2.8.8,2.8c3.6,0,1.6-3.2,2-4.1,2.4-5.6,4-6.8,2.5-13.9ZM272.5,340.6l-5.9,2.7.9,8.3,6.9-2v-3c0,0-5.9,0-5.9,0l2-4,2,2v-4ZM413.5,340.6c-9.9,1.7-5.3,9.9-6,17,11.9,1.2,7.9-9.5,6-17ZM522.5,340.6c-1.5-1.4-5.6,7.2-5.4,9.1s.3,2.1.9,1.8l5.6-.8-1,5h3c1.1-6.1-1.3-9.6-3-15ZM531.3,340.8l-3.8-.2,2.1,9.9,2.9.6-3,3.5,8-2.5-6.1-11.3ZM283.5,341.6c-4.7-.3-1.8,8.2,0,10.5l-2,1.5h4s-2-12-2-12ZM290.5,341.6l-2,.5,1.1,3.9-2,1,.9,3.6,3-1c3.1,7.9-2.2.2-2,5h4c1.1-5.4-1.2-8.4-3-13ZM499.5,357.6l4.6-.9,1.4-14.1c-5.1,3.2-5.5,9.6-6,15ZM777.3,345.8c-6,.4-14,3.1-13.9,10.3s9.5,9,12.6,12.4c3.7-3.7,11.3-6.3,11.6-12.5s-5.4-10.6-10.3-10.3ZM32.2,346.8c-1.2.3-5.4,4.9-6,6.1-3.1,7.2,8.3,17.3,14.3,15.3s7.9-6.3,8.4-7.6c1.4-3.1-1.6-11.1-4.1-11.9s-3.5.8-5.4.5-5.1-3-7.2-2.4ZM351.5,359.6c-2.1-2.5-3.8-4.7-4.5-8l-4.5,8h9ZM435.6,361.5c1.9,1.2,6.7,0,7.8-2.3l-9.5-6.5c-3.4.2,1.2,8.5,1.7,8.8ZM429.5,353.6c-1.5-1.4-9.2,6.1-10,8,1.9.1,11.8-6.2,10-8ZM470.5,358.6c-3.3-.4-5.1-2.1-6.5-5-2.1,1.8-2.8,4.3-2.5,7l9-2ZM374.6,357.4c-.5-.5.5-2.2-1.1-1.8l-5,5,14,1c0-6.4-7.5-3.8-7.8-4.2ZM31.2,375.4c1.9-3.3-4.6-8.2-6.7-10.8l-2,20c.6.6,6.3-3.8,6.7-4.3,1.5-1.8,0-3.1.3-4.1s1.5-.6,1.6-.9ZM790.5,386.6l-1.5-22c-2.8,4.5-7.5,7.4-5.5,13l-3,.5,10,8.5ZM772.5,377.6l-3-1.5,1.6-3.5-6.6-6,1.5,17c1.3,1.7,1.4.4,2.5-.5s4.4-4.9,4-5.5ZM48.5,369.6c-3.9-.3-8,6.6-7.7,9.5s4.3,4.1,5.2,5.5l2.5-15ZM632.5,375.6c-50.6,20-105.6,22.5-159.5,25-65.4,3.1-130.7,2.7-196-4-31.7-3.2-63-7.9-92.8-19.2s-3.1-1.6-3.7-.3c30.4,15.3,66.9,20.3,100.6,24.4,82.4,9.9,168.5,9.7,250.9.1,22.9-2.7,49.7-6.9,71.7-13.3,9.5-2.8,20.9-6.6,28.8-12.7ZM777.1,383.7c-2.7,2.8-6.9,3.4-9.1,6.9-6.3,10.2,9.3,23.3,18.4,13.4s0-16.6-9.3-20.4ZM33.2,384.8c-21.7,3.6-4.4,34,10.6,17.7,7.2-7.8-1.7-19.2-10.6-17.7ZM159.5,432.6c-12.4-1.2-6.9,14,2.5,14,7.7,0,15.5-9.7,16.3-16.8,2.5-20.9-22.5-32-40.1-26-25.6,8.7-29.7,41.6-21.5,64.1s37,46.6,32.6,66c-1.4,6.3-9.2,8.5-14.6,6-2.9-1.3-2.9-5-5.2-6.3,1.6,13.5,20.3,13.5,22.8.3,3.5-18.9-20.4-41.1-27.9-57.6s-3.2-9.7-4.8-14.7l32,52c-3.8-16.5-17.5-28.4-23.5-44s-6.7-34.2,4.1-47.9c13-16.5,46-7,37.4,16.9,10.9-14.5-.9-28-16.6-30.9-2.5-.5-8.2,1.4-7.4-2.1,14.1-2.2,29,5.9,30.7,20.8s-11.4,23.3-20.7,13.7l3.8-1.6v-5.9ZM688.5,421.6c24.6,31.9-7.6,61-21.8,86.7-5.3,9.6-11,22-3.2,31.8,4.4,5.6,15.2,4.9,17-2.5-5.9,5-15.5,4.6-17.6-3.9-4.1-17.3,16.7-37.2,25-51.1,11.3-19,15.9-44.7,3.4-64.2-19.4-30.4-66.4-13.7-56.5,16.5,2.6,8,12.7,14.7,20.6,10.2,7.3-4.1,4.4-15.6-3.8-12.3-.7,4.3-.4,8.6,4.9,5.9v2.5c-7.1,5.1-16.5,1.5-19.5-6.5-7.5-20.3,14.6-33.1,32.5-28.5s14.9,6.6,19,15.5c-8.4-10.9-18.4-15.8-32.4-13.9-10.9,1.5-18.9,12.2-17.4,23.2s3.6,9.6,6.8,8.3c-10-11.6.2-24.3,13.5-25.5,22.1-1.9,30.8,19.7,29.5,38.5s-23.1,40.6-29,63.5l28.2-43.3c9.2-17.8,9.1-32.4.8-50.7ZM22.5,405.6c.1,3.9-1.5,23.8,6.1,17.6s-.3-5.6-1.6-8.6.5-7.2-4.5-9ZM767,406.6c-2.6,0-2.3,18,2,17s3.5-5.1,3.3-6.3-1.3-1.6-1.5-2.5c-.6-3.4.1-5.4-3.8-8.2ZM46.5,407.6c-4,1.5-8.7,3.7-4,7.5l-4,3c-.3,1.2,6,7.8,8,7.5v-18ZM790.5,425.1v-17.5c-4.9,1.6-4.7,7.3-6.6,10s-2.4.7-2.5,1.5c0,1.5,6,4.2,7,7l2-1ZM253.5,421.6c-.6-5-7.8-3.5-11.3-4.2-7-1.4-14-2.8-20.7-5.3s-1.1-2.6-3,0c1.1,1.4,1.8,1.9,3.6,2.4,10.2,3,21.1,4.5,31.4,7.1ZM590.5,411.6c-.4-.5-10.7,2.8-11,5l10.3-2c1.2.2.8-2.9.7-3ZM576.5,417.6l-2.3-2.9c-2.1.6-4.8,3.1-6.6,3.4-2.9.6-7.4-2.5-8,3.4l17-4ZM430.8,451.9c-2.8,6.6,7.4,14.5,12.7,16.2,4.4,1.4,19,.8,24.4.5,47.8-1.9,103-9.7,147.7-25.3,3.3-1.1,7.4,0,9.8-3.2l-18-23.5c0,10.3,9.4,14.6,14,22l-9,1,1,2c-8.8.3-13.2,6.3-22.1,4.6s-4.4-2-6.9-2.5c1.8,4.5-5.4,6.1-9.3,7.4s-2.7-.3-3.5,0-.2,1.5-.9,1.7c-5.9,1.4-8.1-3-10.9-3s-3.2,4.9-7.2,5.8-8.4-1-11.7-.8-2.9,1.5-4.3,1.8-9.2-3.2-11.2-4.4c-7.1-4.3-10.2-9.3-12.2-17.3h-6.9c4.4,5.8,6.6,11.9,3,18.9,3.7,0,4.6-1,6.5-4,2.9,4,8.9,4.3,9.5,10-5.3-1.5-9.5,0-15.2-2.1s-.8-2-1.3-2c-2.9-.1-5.8,5.1-9.2,5.8-7.3,1.7-18.2-4.3-22.3-10.3s-3.1-15.9-11-13c3.4,2.9,2.6,12,4.5,14.5s2.6.7,3.1,1.3c1.1,1.1,1.4,2.6,2.8,3.7,3.1,2.3,7.7,3,9.5,7-4,.9-10.7-5-13.5-5s-1.5,4-4.9,3l-4.1-4c-2.6.8-4.4,3.1-6.9,4.2-11,5.1-26-3.9-23.5-16.4.6-3,3.5-4.8,3.8-7.7h-8c1,4,2.7,8.4,2.9,12.6s-1.4.4-1.5.7ZM237.7,452.4c-1-1-.9-4.1-2.9-4.6s-5.6,1.5-8.8.9-3.3-2.3-5.2-2.8c-6.6-1.5-14.4-.9-21.7-3.3s-8.1-2.6-7.2-6,13.2-12,11.6-19l-17,24c52.8,18.7,109.3,23.6,165,27,1.5-1.3-7.2-7.2-8.8-7.7-7.1-2.5-7.6.6-13,1.5s-17.1,2-22.8-3.7-4.4-8.7-4.5-10.6c-.2-4.9,2.7-9.5,5.1-13.5-6.9-1.4-6.3,8-12,9l.5,2,4.5-2c2.2,3-6.3,6.9-9,6,.5-3.4,10.2-13.2,9-15l-5-1c-.7,4.6-11.3,15.8-4.1,19.5,3.1,1.6,5.4-.5,7.6-.4s7.8,7.1,5.4,9.9l-6.5-5.7c-2,.5-3.9,1.7-6.1,1.7s-13.2-.7-15.9-1.1-5-3.8-7-3.9-5.5,3-8.6,2.6c-4.5-.7-3.2-3.1-4.9-5.2-4-4.9-13.7,5.4-17.8,1.3ZM557.5,417.6c-.3-.3-6.1,3.6-7.6,3.7-7.1.7-17.8.2-24.8,1.3s-4.2,2.7-5.3,2.8c-1.6.2-2.8-3-6.3-1.4s-2.5,4.6,1.5,4.6,3.5-1.5,5-1.6c10.7-.9,23.3-.9,33.8-3.7s3.1-1.4,4.3-2.8l-.6-3ZM267.5,421.6l-11-3c-.6,2.8,1.2,4.2,3.7,4.8s10,1,7.3-1.8ZM211.5,434.6c1.5-3.2,5.1-7.1,6.2-10.3s1.3-2.9-.8-3.7-4.2,7-5.9,8c-1.9,5.5-4.3,8.9-10.6,9,2.5,4.2,9.6-1.2,13-2l-2-1ZM279.5,425.6c.3-1.7-1.2-3.3-2.7-3.8-13.3-4.2-8.3,6.4,2.7,3.8ZM509.5,428.6c1.3-4.3-4-13.4-2-4-5.1,2.2-8,1.3-13,0l6-2-8.1.5-1.5,5.5c-2.3-1-3.1-2.1-5.9-2.1-4.5,0-11.9,2.1-14.9,2.1s-5.1-1.7-7.6-1l6-3h-10s1,5,1,5c-2.8-1.3-6.1.1-8.2-.2s-3.9-3-6.8-1.8l5-2h-9s.7,2.5.7,2.5l-1.2,1.5-7.9-1-1,3.1-3.5-6c-2-1.8-3.6,5.6-6.5,5l-2-5c-2.5,5.4-6.5,12.3-5.5,1.1h-11.4c-1.5.8.8,3.1-2,2.9-5.3-.3-1.8-4-5.5-4v9c6.8.6,13.6-.5,20.3-.6,13.1-.3,25.8-.4,39.2-.3l55.5-5ZM299.5,427.6c-.8-6.3-6.1-3-9.4-3.3s-7.3-3-7.6-2.7-1.7,4.7.6,4.9l16.3,1.1ZM609.5,436.6c-8.9.8-10.9-7.8-15.2-13.4-3.1-4.1-4.9-1.9-2.9,2.9s9.5,12.6,16.5,12.5,1.6,0,1.5-2ZM606.5,432.6l-8-11c-1.5,2.9,5,13.3,8,11ZM673.1,427c-6.2-5.8-16-7.2-21.6.2l11,1c13.2,12.8-1.5,28.6-17,25.5,7,12.8,11.1,27.3,12,42,2.3.6,1.7-.6,2.3-1.3,13-15.2,31.7-50.3,13.4-67.4ZM27.5,435.6c6.9,2.8,13.5,1.8,16.7-5.5l-9.3-7.3c-3.5,2.5-5.6,4.3-7.9,7.9s-.3,2.5-.9,3.6-2.5.5-2.8,2.8,1.7,11.2,2.6,14.5l5.4-8.5-3.9-7.5ZM161.5,430.6c-4.8-13.5-20.8-9-26.4,2.1-11.3,22.2,6.3,44.9,17.4,62.9l2-.5c0-14.5,5.2-28.9,12-41.5-8,.9-16.2-.6-20.2-8.3s5-25.3,15.2-14.7ZM225.5,422.6c-2.1-2.1-10.6,12.3-10,13,2.8.2,10.6-12.4,10-13ZM582.5,423.6c-.9,1,5.1,8.8,5.6,11,.7,3.7-2.3,6.2,5.2,7.8s7.9.7,4.8-2.8-4.9-.1-6.6-1.4c-2.1-4.9-2.5-13-8.9-14.6ZM786.5,435.6c.9-5.4-2.4-9.3-7.5-11.1s-8.2,1.6-10.1,4-5.1,9.6-5.4,12.6.1,5.7,0,8.5c5.4-4,9.3-7.1,5-14,4.5-1.8,6,4.9,6.5,5,3,.7,3.3-1.6,3.6-3.9,2.9.5,5.5-.8,7.9-1.1-1,6.6-7.4,9.1-7.1,12.5s6.9,9.9,8,8.5l1-21c-.6,0-1.3,0-2,0ZM235.5,424.6c-1.7.2-4.4-.6-5.8.2s-6.5,9.7-6.8,10.8c-1,4,3.4,4.9,4.2,9.1,3.8.3,7-.5,9.4-3.6l-10,.5c-1.5-6.9-.7-14.8,8-13.5l1-3.5ZM333.5,429.6c-3.5-2.5-6.6-4.1-10.5-1.3-4.9-6-4.7-2.1-7.9-1.8s-12.9-2.5-13.6-1.9l1.7,3.8,47.3,4.2-2-6h8c-2.4-3.4-9.9-1.2-14-2l4,3c-4.3-.3-8,2.6-11.5-1l-1.5,3ZM371.5,425.6l-7.5-1c-1.1,4.4-6.6,6.5-11.5,5v3s27.9,1,27.9,1l1-6.9c-4.3,2.3-6.3,5.4-10.9,1.9l.9-2.9ZM573.5,427.6c7.6-.7,6.6,8,10.5,11s2.5.4,2.5-.5-7.8-12.2-8.4-12.6c-1.8-1.2-5.2-.6-4.5,2.1ZM240.1,431.2c1.4-1.9,3.8-3.6.9-5.6-3.6,2.3-3.9,9.1-8.1,9.7s-5.3-2.3-5.4,2.3c5.8,1,9.4-2.1,12.6-6.4ZM248.5,426.6c-8.5.6-12.1,15.1-7.9,21.9,12,.4,11.9-8.1,14.1-17.2s1.9-1.9-.7-1.7l-8.5,9.5c1.1,4.9,2.4-2.3,5-1.5v5c-2.9-1.7-5.2-.3-8,1-1.6-7,5.2-10.6,6-17ZM389.2,428c-.4-.4-2-1.3-2.5-1.2l-4.1,6.3c0,2.3,9,1.3,11,1.5-1.6-1.8-2.8-5.2-4.3-6.7ZM573.5,442.6c.2-2-2.7-3.5-2.9-4.6s1.7-2,1.5-3.4-3.3-6.5-4-7c-2.7-2-5.5.4-8.6,0,2.9,8.3,8.3,20.5,19.1,17.6l.9-4.6-6,2ZM254.5,444.6c5.2-1.4,9.4-8.4,11.2-13.3s1.4-1-.2-2.2c-11.3-3.5-9.6,8.1-11,15.5ZM532.5,445.6c-3.3-.1-3.7-4.2-6-6.5s-8.2-6.7-9.5-6.5c-3.4.5,1.5,4.3,1.9,5.1,3.2,6.1,6.1,13.3,15.1,12.8s3.8-2.8,5-2.7,6.2,5.1,9.9,4.8c7-.6,12.8-28-2.5-23-1,4,5.1,5.9,5.8,8.7s-1.7,6.1.2,9.3c-4.7,1.6-7.5-1.6-12-2.5l-2-6.5c-2.4.6.7,4.1-3.5,3s.1-3-2.5-2v6ZM275.5,430.6c-2.2-2.1-4.7,2.2-5.3,2.6-1.1.8-2.5.4-3.6,1.9s-2.4,6-2.1,6.4l5.5-5c2.7,1.5.8,5.2-.8,6.7-3,2.7-8,2.5-11.7,2.3-1,12.7,13.9,1,15,2,1.1,10.4,10.2,3.2,15,9l-2-9c-7.1,7.1-10.9,6.7-7.5-4,1.1-3.5,3.6-6.4,4.7-9.4s1-2.3-.7-2.7c-3.6-.7-9.3,13.5-7.5,17-6.1-2.2,1.7-17.3,1-18ZM534.5,438.6c1.1-11.7-13.3-6.4-5.5,1l1.1-2.1,4.4,1.1ZM538,431.6c-1.9.4-1.1,1.4-.6,2.5.9,1.8,7,10.8,8.5,10.5s1.1-1.5.7-2.6c-.9-2.5-5.5-11-8.7-10.3ZM291.1,437.3c1.8-2.3,3.7-5.2-1.1-4.6s-8.5,10-9.5,14c.4.4,3.2-.6,3.7-1.3,2.3-2.9,4.4-4.8,6.9-8.1ZM45.1,434.7c-1.5.5-3.8,5.7-3.6,7.4.3,3,4.7,4.5,6.5,6.5,2.1-1.3.9-1.6.8-2.8-.2-3.1.4-12.4-3.7-11.1ZM319.5,435.6c-11.2-3.9-16.7,12-9.6,19.6,6.2,6.7,22.8,5.5,28.7-1.1s4.3-10.9,6.9-15c-7.3-5.3-6.8,4.3-8.5,8.5-1.8,4.4-6.3,9.5-11.5,9,.9-3.4,4-4,6.2-7.3s1.9-5.9,2.8-10,3.2-.1,2-2.7c-7.8-1-14,.4-15.2,8.8l-2.8.2,5,8h-11.9c0,0-1.1-4-1.1-4,.6-.5,4.7,2.5,6-.5s-3.6-2.1-4-4.5l3.5-1,3.5-8ZM488.5,453.6c-.2.5-.7.9-.7,1.5,4.6,6.8,13.9,2.6,17.7-3,6.4-9.3-3.3-21.3-14-16.5,0,2.7,7,9,7.1,9.6.1,1.5-1.3,3.4-1.1,4.8s2.5,0,2.1,1.6c-4.2,1.3-6.4,2.3-11,2,1.3-2.7,3.9-3.6,6-5.5,0-2.3-1.4-2.2-3-1.5,1.8-9-7.2-12.8-15-9,2.5,8,2.1,15.3,12,16ZM569.5,448.6c-2.4-2.8-5.7-4.6-8-7.5s-2-5.2-4-6.5l1.1,9.8,10.8,4.1ZM356.5,437.6c-6.6-3.9-13.1,11.7-12.9,15.5s9,10.3,11.9,13l-1.9,2.5c6.5.2,13-.2,19.5,0s13.4,0,20.9,0,9.9,1.6,15.8.8c14.7-2.1,29-23.6,9.8-30.7-.7.8,3.6,7.5,3.8,9.7.6,6.3-4.7,12.1-10.1,14.5-8.6,3.7-13.6,3.2-20.2-3.2-7.4-7.2-5.6-13.7,1.5-20-7.1-1.3-5.7,8.5-11,11l1-11h-12c.6,2.4,3.5,1.6,5,2.5,5.5,3.6-.7,15.8-5.2,18.7-10.6,6.8-26.2-1.3-22-14l6.2-9.3ZM371.2,441.9c-.4-.7-4.9-3.3-6.2-3.3-2.3,0-6,2.8-7.6,4.6-11.7,12.6,6.9,22.8,14.5,13.5,4.2-5.2,1.3-6.2,0-9.9s0-3.6-.7-4.8ZM415.5,450.6c-.7-3.4-4.8-11.6-8.5-12-5.4-.6-10.1,7.6-7.3,12.4s3.5.9,2.8,3.6c-6.2.4-6.2-7.5-6-12-11.7,9.1,3.5,22.9,14.6,18.1s7.7-6.2,8.2-7.8c1.4-4.8-.5-11.6-5.8-13.3.4,2.8,2.1,4.9,2.8,7.7s1,3.5-.8,3.3ZM457.2,442.9c-8.7-10.4-27,.8-18.1,12.6,5.3,7.1,17.4,7.4,20.4-1.9h-3s1-3,1-3h-5s2-2.5,2-2.5c-1.2-.2-3.4-6.9-.5-5.5,2.7,1.3,5.2,11.4,6.7,11.7s2.1-.9,3.2-.6,2,3.1,3.1,4,3.4,0,3.5-.1c1.9-2.5-3.3-4.2-3.8-5.7s-1-12.2-2.3-13.2h-5.9c1.4,4.9,6.4,8.1,5,13.9-3.5-1.8-4.3-7.3-6.3-9.7ZM630.4,445.7c-12.8,4.6-25.4,8.7-38.7,11.6-97,21.2-226.2,21.7-324.5,8.2-28.9-4-58.7-8.7-85.6-19.9l-2,6.5c52.9,19.3,109.6,24.1,165.5,28.5l38.5,1-29.3,11.2c-62.7,33.5-53.3,112.7,12.8,135.9l19.5,6c-59.4-3.4-119.4-8.1-175.5-29-5.2-1.9-13.8-7-18.1-8s2.9,5.7,3.7,6.4c13.9,10.9,61.2,22.6,79.7,26.3,85.9,17,191,16,276.2-4.2,15.2-3.6,53.7-13.6,64.4-23.6.9-.9,5-5.3,4.1-6.9-28.6,14.7-60.6,23.2-92.3,28.7-33.7,5.9-68.1,8.9-102.2,9.3l29.7-9.8c66.1-35.4,56.1-113.6-14.1-137.2-4.5-1.5-9.2-2-13.7-3.3s-3-.2-2.8-1.7c44.8-.8,89.9-3.8,134.2-11.3,25.1-4.2,49.8-10.4,73.8-18.7l-3.1-5.9ZM774.5,456.6l3-4.5-4.4-2.4c-2.4,1.4-2.4,3.6-1.6,5.9-3.3.7-.9-3.6-5-1.5-7,3.7-6,12.8-.3,17.3s3.6,1,6.6,1.4,1.9,1.8,3.1,1.6,6.5-4.3,7.1-4.9c5-5.7,1-11.9-4-15.9l-4.5,3ZM34.5,457.6l-2.5-5c-11.2,10.6-.7,17.4,9,22.7,12.3-5.8,14.6-16.4,2-23.7-1.8,3.2-4.9,5.1-8.5,6ZM177.5,458.6l-2,.6c-3.2,7.2-7.1,14.3-7.9,22.4,2,.4,2.4-.9,3.2-2.3,3-5.2,4.1-14.7,10.8-16.7.3-1.7-1.8-.7-3-1.5s-.8-2.3-1-2.5ZM643.5,480.6c-.3-5.4-2.4-12.8-4.8-17.7s-3.2-6.4-7.2-1.8l12,19.5ZM419.5,469.6h16.5c.2,0,2.9-1,2.5-2l-9.6-5.9c-.7-.1-7,4.7-8.1,5.6s-1.9,0-1.3,2.3ZM194.5,466.6c-1.2-3.1-4.8-3.2-7.5-4-2.9,3.8,3.3,5.7,3.5,6.7.4,1.9-.5,3.9.5,6.3s6,4.7,6.5,8c-22.1-8.2-31.9,15.3-32.4,33.5-.7,24.2,10,53.2,26.5,71,1,1,1.9,2.6,3.5,2.5,1.1-.3-.8-2.4-1.1-2.9-3.5-5.2-8.2-10.3-11.2-15.8-10.3-18.8-19.7-59.7-6.6-78.3,3.2-4.6,12.5-12.1,15.4-4.1-13.4,5-17.2,21-16,34,3-3.4,3.3-8.8,5.1-13.4s3.4-7.1,5.1-9.9,5.4-5.8,5.9-9.6c5.2-4.6,14.3,17.4,16,20.3s2.8,1.4,2.9,2.3c.3,1.5-1,3.3-.9,4.8,1,17,5.8,35.4,18.3,47.5.5-4.5-4.1-9.3-6-14-3-7.4-5.6-16.6-6.5-24.5-.4-3.5.7-8.8-.2-11.8s-3.3-2.2-3.6-2.9c-.6-1.1,0-3.4-.4-5.1-3-10-7.7-16.6-11-27s-4-9.7-7.8-13.2l2-.5ZM627.5,467.6l-2.7-4.9-7.3,1.9,3,2c-2.3,2.7-2.6,6.5-2.6,10l5.6,1-1-10h5ZM206.5,471.6c-2.8-2.6-2.3-5.4-7-6l3,7.6,4-.6-1,4h3.9c-1-6.2,3.7-3.4,6.1-7l-8.5-1.1-.6,3.1ZM605.5,474.6c-1.7-10.6-14.8-5.4-15,3,3.1.5,1.8-2.9,3.5-5s2-1.5,3.1-1.8l8.3,3.8ZM283.5,562.6c0,3.6.7,7.6-2,10.5,2.6,1.7,4.7-3.7,6.3-5.2,3.5-3.2,6-3.5,8.9-8.7s5-20.9,5.8-28.2c.5-4.9-1.8-11.3,2.5-14.4l2.5,1.9c.7-2.5,2.2-3.3,1-6-5.6,3.2-6.9-2.2-9.6-6.1-4.3-.7-4.3,5.3-4.9,5.1-4.3-2.9-3.6-7.5-4.8-11.2s-12.9-12.8-16.4-15.5-2.7-1.1-2.3-3.2l14.5,7c1-3,3.6-3.1,6.5-3l-6,4c4.1,8,4.4,3.2,7.7,2.2s4.6.7,6.7.5c3.2-.2,8.1-3.6,11.2-3.7s3.8,1.8,5.8,1.8c5,.2,15.2-3,22.1-2.9s3.6.7,5,2l-.6,3c-6.8-2.4-11.5.5-16,5.5s-4.5,4.7-8.5,8.5c-9.7,9-13.5,23.6-15.4,36.6-.6,3.8.4,7.9-.3,11.7s-6.1,9.4-4.9,15.1c-.6,2.2-2.3.6-3.2,1-3.8,1.5-7,10.2-2.2,12.6l5.5-7.5c2.7-1.3,8,8.8,9.2,10.9,4.3,7.8,6.8,17.7,13.8,24.2s9.4,4.1,11,9.5c-1.7.3-2.9-.5-4.3-1.2-9.2-4.5-21.6-12.8-30.6-18.4-8.9-5.6-16.5-13.8-27.1-16.4l6-.5c-13.8-17.4-38-26.5-46-48-5.9-15.7-4.4-40.3,13-48,2.9-1.3,6.2-1.7,9.3-2.7s3-.3,2.7-1.7c-28.7-6.7-40.5,27.6-32.8,50.3,4.4,13,19.5,30.3,30.8,37.7l-.5,2c-8.7-4.4-16.2-11.1-21.9-19.1l-6.6-10.9c.7,13.4,12,25.7,22.5,33s16.3,8.5,23.8,13.2c20.2,12.6,35.1,20.9,56,32,1.8.9,3,3.3,4.9,4.1,4.5,1.9,13.5.2,18.7,1.7l-20-14.5c-36.7-38.2-30.2-90.5,13.1-120,3.5-2.4,8-2.9,10.9-6.1l-133-16c-2.8,2.8.3,2.2,1,3.2s.9,3.3,2.5,4.3c2.5-4.8,14.8-4,6.9.9s-5.2,1.7-7.7,3.3-5,6.3-9.7,5.8c-.8,3.8,5.8,1.3,8,2l-5,5.6-8-1.6c-1.7,6.7,5.6,6.2,6,12,3.7.7,1.2-4.2,2.3-6.8s1.5-.5,2-1.5c6.5-11.4,13.6-19.5,28.2-19.5,4.4,0,19.6,4.7,20.5,9.3s-.8,6.7.5,8.5,6.7,3.2,8.5,4.5c9.6,7.4,14.4,26.5,8.1,37.4-1.7.3-1.1-2.4-1-3.5.7-11.9,1.7-18.1-6.6-28.4-2.8-3.6-5.6-5.8-10.4-5.1-1.6,1.5,3.8,12,3.9,14.6s-1.8,8-3,8.9-14.2,3.6-15.5,3.5c-1.8-.2-2.7-1.8-3.8-2.2s-2.8.2-3.7-.3c-3.7-2-4.4-11.5-.5-14.5,6-4.6,6.8-1.7,11.3-.3,15.4,4.9,12.1-9.9-2.3-10.8s-23.2,9.3-21.6,23.4c7.7,2.2,14.6,12.1,22.7,12.6,3.2.2,4.1-1.8,5.8-1.9s3.2,1.1,5.8.7,5.5-3.6,8.8-3.8c.2,6.3-8.8,4.7-10.6,9.9-3.2,9.8,5.7,32.4,14.1,39.1-.8-6.1-1-11.8,2.5-17.3s2-.6,2-.7c2.7-4.1,11-18.4,11-22.5v-16c0-1-2.1-4.4-2-6-.3-2.9,1.3-.9,1.9.1,4.7,9.1,3.8,22.7.4,32.1s-6.5,13.6-11.3,12.2ZM517.5,500.6l-2-7c1.7.9,8.5.3,8-2.5s-6.3-2.8-6-6.5c3.4-1.2,7.6,4,9.5,4,3.3,0,13.2-5.3,17.5-6.5,19.2-5.2,32.6-5.1,45.5,11.5l2.3-2.6c.5-2.6-7-9.5-9.5-10.1s-4.2.2-6.3-.7-4.9-6-1.7-5.3,9.4,3.3,11,2.8l2.6-5.9c-5.7-.6-11.3,2.2-16.6,2.9-18.2,2.3-36.6,5-54.9,7.1-20.1,2.3-40.4,2.7-60.5,5,3.6,3.6,8.9,5.1,13.3,8.2,42.6,28.9,48.3,81.7,11.6,118.2l-20.9,14.6,23-2-3-3c24.2-6.6,43.6-22.1,64.1-35.4,10-6.5,20.2-10.1,28.9-19.1s7.2-7.9,6.5-10.5c-3.5,3.4-8.2,8.5-13.5,8.5,7.7-7.6,16.9-17,20.7-27.3,9.4-25.7,1.1-59.6-31.7-56.2.3,1.3,3.1,2.5,4.3,3.2,10.4,5.2,21.8,9.7,23.6,23.4,4.6,34.9-14.1,44.2-35.9,63.9-9.9,9-18.4,19.7-30.5,26.5l-38.5,22c-.7-9.2,3.3-5.2,6.9-6.5,7.4-2.5,10-10.1,12.6-16.5l2.5,4c1.1-4.1.6-17.3,7-16,.1-3.8,0-6.9,3.3-9.7s5.3-1.9,3.7,1.2-4.3,5.2-3,10.5c-1.9.6-2.7-1.7-4-2,0,1,1,2.1.6,4-.8,3.2-4.2,9.1-5.5,12.5,3.2,1.6,8.9-4.1,10.4-6.6,4.2-6.6,1.7-14.1,13.1-14.2,2.6-6.6-5,.8-5.5.2,1.6-4.3-.7-9.8-6-9,2.7-5.5-7.8-19.2-6.9-22.3s2.6-2,2.7-4-5.4-24-6.6-26.4c-1.8-3.8-9.4-13-13.3-14.7s-11.2-.9-4.9-5.1c-2.5-2.6-5.8-7.4-9.3-8.7s-10.4,0-9.7-3.2,11.8.3,14.5.5c8.9.5,21.7-2.4,28.5,3.5s3.6,5.7,5.5,7.5.7.7,2.4,0c-.6.8-1.2,4.1-2.6,5.9-2.2,3-6,3.1-5.5,8.1-1.5,1.4-6.9-5.2-9-3.5l6.5,9.5,1.5-3c3.7,1.6.8,5.7,1.1,9.3.4,5.7,4.4,16.3,4.5,20.2s-2.2,3.6-1.2,7.5,5.1,10.1,5.8,10.7c2.4,2,7.7.4,8.7,2.8.9,3.2-2.8,1.7-2,5s1,2.8,3,2.5l1.6-11c-.9-2.9-12.1-8-14.2-14.9-3-10.2-2.9-33.8,1.5-43.6s8.4-7.7,8.1-13.4l-8,8ZM615.5,471.6c-4.8.8-5.1,8.3-5,12,3.4-2.5,4.9-8,5-12ZM761.7,477.8c.3-.4,2.7-.9,2.8-1.7l-5-4.5-3,17,9-6.5-3.9-1.6c0-.9-.3-2,.2-2.8ZM33.5,490.6c6.1-9.2,3.4-12.3-5-18,.3,4.8,1.6,10.8,3.1,15.4s.3,2.4,1.9,2.6ZM213.5,478.6c-7.3-3.1-10.8,3.1-3.5,7,2.1-1,.5-3.3,1-4s9.8-.1,2.5-8v5ZM56.5,488.6c.5-.5-2.6-10.7-3.5-12-2.9-4-9.1-.3-2.4,2.6l-2.1,4.9,8,4.6ZM602.5,478.6c1.1,1.4-4.1,4.9-.5,7l3.3-6.5-7.3-4.5-5.5,5.1,7,3c.2-.2,1-6.4,3-4ZM630.2,476c-.4-.4-2.6-1.5-2.7-1.3l6,11.5-2,1c17.1,22.9,10.5,55.6.2,80.2l-13.2,22.3c2,2,11.2-12.7,12.2-14.3,16.6-27.1,21-60.8,13.8-91.7-1.9-.2-.8,2.1-.7,3.2.3,3.8,1.7,8.6,1.7,12.2s-.5,5.5-2,5.5c-1.3-6.9-8.5-24.1-13.3-28.7ZM783.5,474.6c-7.9,2.5-12,12.5-4.5,18l4.5-18ZM771.4,477.7c-7.4.1-2.4,4.6-1.9,7.9l4-2-2.1-5.9ZM602.5,490.6l-7.7-6.8-6.3-2.2c-1.8,1.5,11.5,10,14,9ZM629.5,486.6c-3.4-5.3-15-5.4-19-1.3s-10.1,18.2-13,23.5-1.9,12.8-3.1,20.1c-1.1,7-5,18.5-8,25s-8.4,12.6-8.9,15.1,2.1,1.9,3.5.5,9.5-14.2,10.7-16.3c4-7.1,7.1-17.1,7.8-25.2s-.9-12.4.2-15.8,4.2-4.1,5.2-5.7c2.6-3.9,8.7-18.1,13.9-16.8s11.9,14.2,10.7,17.9l-3-1.5c1.3,2.3,3,4.8,3.7,7.3,6.9,25.1-16,84.9-47.3,84.3s-8.1-5.7-10.5-1h5s0,3,0,3c-8.1,1.2-16.6-.9-10.8-10.3s3-1.9,3.8-3.7c-7.1-1.5-9.7,4.6-8.5,10.5s4,2.7,3.5,5.5c-.9.8-6.5-2.1-7.7-2.8-3.2-2.1-3.6-5.2-6.8-5.2-4.2,7.9,6.9,11.2,13,11.1,38.6-.9,57.4-20.6,68-56.1,5.4-18.2,8.3-49.1-10.5-60.5-1.2-2.8,6.9-1,8-1.5ZM256.5,497.6c3.4,0,7.7.7,9.9-2.7,1.3-4.1-4.7-10-8.9-9.3l-1,12ZM542.4,497.6c-.5-4.6.5-7.8,2-12-15,4.5-26.1,19.4-27.9,34.6s.6,37.1,15.8,39.5l1.1,10.9,4-6-7,17c1.1,1.1,6.2-4.6,7-5.5,6.6-7.6,11.2-21.9,9.9-31.9s-5.1-4-9.9-6.1-6.4-6-5-7.5c2.9.4,3.7,2.7,6.8,3.7,8.8,3,28.1,3.3,25.2-10.7-5.3,4.1-8.2,2.5-13.6,2.1s0,1.9-1.9,2c-7.4.5-13.6-9.4-8.6-15.7s2.7-1.4,3.5-2.5,2.6-7.1,0-7.8c-10.4-3.4-18.8,20-17.1,28.1s5.5,9.4,6.8,10.2c2.4,1.5,5.4-.7,4.9,5.5-7.4-.1-14.6-13.1-15-19.5-.7-9.4,7.3-29.1,19-28.5ZM552.4,485.7c-6.4-.9-9.7,6.5-6.8,11.8,8.5,1.5,9.2-5.2,6.8-11.8ZM562.4,496.5c.5-.4-.4-8.9-4.9-6.9-1.9,3.8.3,10.5,4.9,6.9ZM766.3,508.8c1.5.9-.2,4.6,5.1,1.2,6.9-4.4,7.9-13.2.6-17.5s-7.4-1.8-7.8-1.8c-8.4.7-13.3,8.2-9.5,16.1s7.8-.4,11.6,1.9ZM39.8,508.3c6.5,5.8,6.5-2.6,11.6-.1s2.3,3.8,5.1,2.1c4-5.4,2.6-16.7-4.7-18.3s-11.7,0-12.3.2c-1.2.6-4.9,6.4-4.8,7.9s4,7.3,5.1,8.3ZM327.5,492.6c-3.7,2.5-8.1-1.1-10.3-.8s-3.7,3.2-5.4,3.6c-3.3.6-10.1-2.9-10.3,5.2,4.6-1.9,5.5,2.6,6.6,2.9,1.7.4,6.8-3.4,6.4-.4-3.1,6-11.1-2.2-12,4.5l8,1.6,17-16.6ZM487.5,495.6c-.3-2.6-1.5-3.4-4-3-.1.9-.1,1.3.5,2,1.6,1.9,7.5,7.9,9.5,9.5,4.7,3.7,10.4,5.5,16,2-4.4-3.9-10.9,1-13-6.5l16,4c-.4-2.9-3.3-7.6-5.9-8.6s-13.5-2.6-14.5-2.5c-2,.2-3.9,3.4-4.5,3ZM234.5,503.6c1.9-3.5,15.9-4.3,10.5-9s-11.1,8.4-10.5,9ZM299.2,502.4c3.3-4,.6-12.8-5.3-6.8s2.3,10.3,5.3,6.8ZM578.5,507.6c1.4-3.4-8.2-14.4-10-13l-.6,4c5.5,1.2,6.3,6.2,10.6,9ZM599.5,494.6l-8,1,2,5.5c4.8,1.9,6.7-2.2,6-6.5ZM578.5,525.6c3-14.5-10-27.8-24.5-25-3.7.7-13,10.6-4.6,12.6,2.5.5,6.3-4.5,6.7-4.6,2-.4,8.8,2,10.4,3.5,5.7,5.7-.2,10.9,1,17.5,3.7-2,6.4-6.2,11-4ZM67.5,525.6l-1.5-7-4.4-9-2.9,8.9,8.9,7.1ZM745.5,525.6c4.7-.5,7.5-5.1,9.8-8.7l-4.4-7.3c-2.3-.5-1.2,1-1.6,2.4-1.3,4.5-3,9-3.9,13.6ZM37.5,511.6c2,3.5,2.9,7.4,4.3,11.2,3.1,8.5,6.5,19.1,13.2,25.8s3.6,3.8,6.1,4,9.6-2.6,10.5-3.4c6-5-1.9-19.9-7.8-20.4s-6.2,5.6-11.8,1.7c-.9-3-5.3-8-6.1-10s.7-2.9,0-3.9-8-5.6-8.5-5ZM559.5,520.6l-5,1.5c7.9,6.6,11.2-11.5,3.5-9.5-4.4,1.1,3.3,6.2,1.5,8ZM549.5,525.6c2.8-18.7-14.5-10.2-4.5-2s2.8,2.2,4.5,2ZM766.5,536.6l7-23c-4.9,2.3-7.8,4.4-9.9,9.5l-3-.5c-.5.5,3,11.4,3.8,12.7s0,1.7,2.2,1.3ZM195.2,514.9c-3.6-1.6-11,5-9.2,8.7l2.5-2c-1.8,5.8-5.3,10.9-1.5,17,3.6-5.7.5-16.3,6.5-20-1.7,4.7.3,11.5-.1,15.6s-1.7,2.6-1.8,4c-.4,4.5-1,9.1,0,13.5,3.4-1.2,1.1-5.7,2.5-8s6-2.2,4.5-7l-4,1c-1.1-4.6,2.2-5.1,3.3-7.3s3.3-11.5,2.3-12.8c-2.6.2-4.6-2.5-4.9-2.6ZM620.3,516.9l-6.1-2.2c-9.2,5.4,1.1,14.5.3,18.3s-2,.1-2.1,2.1c-.3,3.5,1.8,2.3,2,2.6,1.7,2.4-3,1.2-1.9,3.9l3.5,2c1.8-4.4,3.9-.7,4.5-5.4s.6-3.8-1-3.5l-2.5,5-2.3-5.6,2.8-1.4-2-4c5.5-.6,2.6-7.5-2-7,2.1-4.1,6.4-1.6,7.5,2l3.5,19c1.9-6.2.8-21.4-4.2-25.7ZM254.5,523.6l-5.5-7-3.5.5c-.5,2.4,3,2,3.8,2.8s0,4.6,5.2,3.7ZM266.5,515.6c-1.5-1.5-9.8,6.3-8,8,5.5.8,8.8-2.5,8-8ZM139.5,532.6c5.4-1.7,2.2-9.6-1.7-10.8-14.8-4.4-18.5,18.7-4.6,25.6s16.7,1.3,22.3-5.3l-12.5,4.6c-14.5,1.9-22.2-21.7-5.1-20.9,2.5.8,1.5,4.8,1.7,6.9ZM656.5,541.6c9.2,15.8,36.1,4.1,30.2-13.7s-23.5-5.2-14.6,5.6l3.4-1.4c-6.3-8.1,6.1-9.3,7.8-1.8,2.4,10.8-7.1,17.8-17.2,16.2s-5.9-4-9.6-4.9ZM254.3,598.5c-.5.4-1.9-.5-2.9-.3-6.3,1.2-4.2-.3-7.4-.5s-4.9,2.4-7.3,2.8c-3.8.6-22.1-6.1-25.9-8.6-14.3-9.5-20.3-30.7-26-46l-3.3-20.2c-5.1,16.8,4.1,38.1,12.8,52.7,11.8,19.8,29.8,27.3,52.7,25.4s12.6-1.5,13.4-8.6-5.8,3.1-6.2,3.4ZM205.5,525.6c-2.2-.6-2.4.9-2.7,2.7-.7,3.7-.4,8.4-1.3,12.3l5-2,2,4-3-17ZM605.6,543.6c-1.5-1.8,4-15.7-1.1-17.9l-3.9,19.4c1.8,3,5.3,1.1,7.9.6.6-2.8-1-1.8-2.9-2ZM743.5,547.6c5.7,5,16.9-.4,19.5-6s-4.4-11.6-6.5-12.5c-3.6-1.6-12,2.4-14.4,5.6-4.8,6.4-.7,10.1.4,16.9l1-4ZM243.5,538.6c.9-3.2-9.4-8.7-10-8-.6,3.9,2,6.6,4,9.6l6-1.6ZM576.5,531.6c-4.7-1-8.7,2.3-7.6,7l4.5,1.9,3.1-9ZM255.5,544.6c-3.3.4-4.3-6.3-7.3-5.8s-4.3,5.4-7.7,4.9c-2,2.6,12.6,14.7,15.5,16,1.5-1-5.4-9.1-1-9s2.9,9.4,4.6,11.3l6.9,6.6c-2.7-4.1-3-8.7-4.2-13.2s-2.2-2.1-2.3-3.2c-.3-1.9.8-8.1-.6-10.3l-3.8-1.2v4ZM566.5,538.6l-3,5c-2.1-.4-.5-4.7-4-4v6c-3.7,1.1-1.3-4.3-2-5h-2.9c0,0-6.1,26-6.1,26,3.4-4.4,22.8-16.4,21.8-21.4s-4.8-3.5-3.9-6.6ZM207.8,548.2c-.4-.2-.2-1.7-.8-1.6l-7.5,3.5c4,4.2,7.5-3,12,1.5.7-2.6-1.8-2.2-3.7-3.4ZM737.5,547.6c-2.6-.5-1.5.4-2.1,1.4-2.2,4.3-3.6,9.2-5.9,13.6l8-1c-1.2-3.8-1.8-4.7,2.1-6.6l-2.1-7.4ZM760.5,550.6l-9.9,4.1v3.8s2.9.6,2.9.6c-4.3,4.1-8.4,1.3-6.8,8.8s1.9,4.2,3.3,5.7l10.5-23ZM63.9,564.2c-2.5-5.3-1.9-9.3-9.4-10.6-1,1,8.9,22.8,12,24-.4-4.8,1.7-7.3-.7-11.7s-1.7-1.3-1.9-1.7ZM79.5,553.6c-2.5-2.5-2.4,8.2-3,9l7,1c.6-.6-3.6-9.6-4-10ZM72.5,556.6l-6-1c-3.2,6.7,7.1,9.2,6,1ZM209.1,561.8c-3,1-1.5,5,1.1,5.7,6.2,1.8,6-8-1.1-5.7ZM604.5,567.6v-6s-1,3-1,3l-5.5-2.1-1.9,2.1c-6.8-5.4-11.6,10.2-1.5,10l1-2.5-2-2c2.5-3.8,7-2.3,11-2.5ZM223.5,571.6c3.5-3.9-12.7-15.9-6,2,2.2.4,2.5-1.3,3.1-2.9l2.9.9ZM85.3,588.4c.4-.3.5-1.8,1.2-2.3,1-.7,2.6.7,3.5-.4s2.2-6.9,1.7-8.8c-3-12-21.9-12.4-22.3,1.3s12.6,12.3,15.9,10.3ZM738.4,567.8c-5.6-.6-14.1,1.2-16.3,6.9s-1.2,17,6.4,14.9l1.1-3.9c4.1,6.3,17.4-2.5,16.8-8.2s-2.5-7.6-6.9-6.2l-1.1-3.5ZM599.5,576.6l1.8-4.5-3.7-2.5-1,7-9-1v3c6.9-2,4.5.6,0,2.5,6,6.4,15.7.5,19-6l-7,1.5ZM229.5,571.6c-2-2.5-3.8,6.6-3.9,7.6-.3,1.6-1.9,1.8.4,3.4,5.2-1.9,3.3-6.5,3.5-11ZM564.5,582.6l9.1-1.4,1.9-8.6c-2.9,2.6-6.1,4.9-9.1,7.4s-2.5,0-1.9,2.6ZM222.5,574.6c-.3-.4-6.4,3.2-8.5,3s-4.4-4.5-7.5-4c-1.5,5.7,11.6,13.2,14.5,9l1.4-8ZM584.5,581.6l-1.5-8c-2.9,2-2.7,4.8-2.5,8h4ZM245.5,580.6l-7.7-4.9c-1.3-.3-4.2,3.5-3.3,4.9,3.5-1.3,6.6,2.7,10.5,2l.5-2ZM287.5,578.6c-6.5.2-6,5-1.5,8,1.4-1,2-7.4,1.5-8ZM300.5,580.6c-7.1.4-6.5,6.9-4,12l-4-.5c2.5,1.9,18.3,14.9,20,13.5l-11.8-17.7,2.3.7c4.3-5,0-3.3-1.2-4.2s-1-2.7-1.3-3.8ZM101.5,594.6l-5.5-10c-3.2,2.9-1.7,5.5-1.3,8.8l6.8,1.2ZM719.5,594.6l-3.5-9c-.9,0-5.4,8.9-4.5,10l8-1ZM242.5,586.6c-.4.3,3.2,4.2,3.5,5,.5,1.4-3.3,2.9,0,5,5.1-2.4,2.3-11.3-3.5-10ZM589.5,589.6c-.4-2.7-9.4-3.6-10-3v4s10-1,10-1ZM81.3,592.8c-.3-.4-10.2-5-8.8-1.7,3.9,5.2,7.2,10.8,10.7,16.2s-.1,1.8,2.2,1.3c3-8.3-1.8-7.1-3.5-10s0-4.6-.7-5.9ZM738,590.6l-8.1,4c-.8,1.5.8,9,2.1,9,2.6-2.8,5.4-6.8,6.7-10.3s1.2-1.2-.7-2.6ZM547.5,592.6l-4.9,1.6,2,6.4,2-.5c-1.4-2.7-.2-5,1-7.5ZM273.5,596.6l-8.5-3-2.5,8c1.3,1.1,5.3-3.4,5-5-.1,1.6,8.8,2.9,6,0ZM108.5,618.6c.2-6.9,4.5-18.4-6.5-19.1s-10.7.9-12.4,6.6c-3.8,12.5,9.4,15.1,18.9,12.4ZM280.5,605.6l-6-6c-.7,1.4.1,4.5-.1,5.3s-3.1,2.3-2.8,4.2c.4,2.8,6.9.6,7.9-1l-2-2,3-.5ZM540.5,604.6c-2-9.7-11.3-3.3-6.9,4.9h6.9c0,.1-4-4.4-4-4.4l4-.5ZM714.1,601c-2.4-1.2-4.9-1-7.4.3-5.3,2.7-2.8,14.3-2.3,19.3l3-1-2-2c3-.8,4.8,2,7.4,2,9.5.3,18-9.9,13.5-19.1-2.3,0-4.8,1.4-5,4-1.7-2.4-6.1-1.9-6.7-2.2s-.4-1.2-.6-1.4ZM549.8,605.2c-.6-.5-1.3-2.6-1.9-2.6l-4.5,4c5.7,2.7,6.4,7.5,14,5v-3c-3.1.5-5.4-1.5-7.6-3.4ZM266.5,604.6c-4.7-2.5-7.1,1.3-11,2.5s-7.4.1-9,2.5c6.6,3.8,11.9.8,18-2.5s2.5,0,1.9-2.5ZM519.5,609.6l-7,4c5,8.3,12.1,4.7,20,5l-9-7-2.5,4-1.5-6ZM267.2,611.9l-9.7.7c4.7,1.2,36.4,9.5,38,8,.8-4.7-5.7-4.4-6-9l-1,2-12,2,1-4c-3.6.7-4.6,3.1-9.3,2s-.7-1.5-.9-1.7ZM548.5,612.6l-14-1c1.1,2.9,5.8,3.9,8.6,4s7.5-.8,5.4-3ZM698.3,621.4c.8-1.3.4-7-.3-8.8l-9.5,12c2.4.9,8.7-1.3,9.8-3.2ZM123.5,623.6l-8.5-10c-6.3,7.5,1.5,10.5,8.5,10ZM320.5,623.6l-23-10c-.7,3.8,4.4,4.5,2,8,.5.7,13.5,2.9,15.5,3s5.5.8,5.5-1ZM513.5,621.6c.3-.4-3.8-4.9-5.5-5s-13.9,5.7-15.5,8l21-3ZM602.5,617.6l-7.9,4.6-9.1,9.4c6.7-2.9,11.6-9.3,17-14ZM225.5,631.6c.4-.3-4.3-4.9-5-5.5-1-.9-8.3-7.1-9-6.5,1.3,2,3.2,3.9,5,5.5s8.3,7.1,9,6.5ZM104.4,624.7l-9.9-.6c2.3,3.2,5.6,6.1,8,9s7.9,12.7,10,10.5c.8-5.8-.3-16.4-8-14v-4.9ZM717.5,623.6c-2.1.2-7.4-.8-8.6.9l-1.4,10.1c1.7,1.7,9.6-9.3,10-11ZM699.5,645.6c6.6-1.8,9.6-12.2,4.5-17-6.5,4.2-4.2,10.3-4.5,17ZM122.1,630.8c-.5.2-5.5,5.5-5.7,6.3-1.5,7.7.8,15.3,9.5,15.6s11.8,0,12.5-6.6-8.3-18.2-16.4-15.4ZM241.8,635.3c-1-1-1.5-2.8-2.9-3.6-2.9,4.3,13.9,19.5,15.5,18l-10-12.5c-.7-.8-1.9-1.1-2.6-1.8ZM575.5,631.6c-1.9-.4-2.4,1-3.5,2-6.7,5.6-12.7,12.4-19.5,18,10.2-2.8,18.9-10.2,23-20ZM683.2,631.8c-2.4.5-5.3,3.4-6.6,5.5-6.4,10.4,3,18.3,13.9,14.9,8.3-2.6,7.3-23.6-7.3-20.4ZM257.5,646.6c.9-.9-9.2-11.2-11-12,.8,2.5,3.7,6.1,5.5,8s4.4,5,5.5,4ZM537.5,635.6c-12,2.6-24.3,3.2-36.4,5.1-1.1.2-4.3.5-3.6,2.4,2.5,6.4,9.4-1.9,12.7-2.3,9.1-1.1,16,2.7,25.3-2.7s2.5.2,2-2.5ZM301.5,643.6c-.9-5.5-19.3-7.8-20-4.5l2.7,3.4,6.8-2.9.5,3c4.3-1.9,6.1-.1,10,1ZM261.5,639.6c-1.8,0-2.1-.5-2,1.5.3,5.9,9.1,15.9,15,17.5-4.2-6.4-11.5-11.2-13-19ZM556.5,639.6c-3.3-2.6-16.4,16.7-19,19,3.9.6,20.6-17.7,19-19ZM317.5,644.6c.9-4.5-12.1-4.6-13-4l1.6,4.1h11.4ZM296.5,664.6c-9.3-7.1-14.6-29.6-29-20.5,3.6,4.6,10.1,14.3,15.5,16.5s1.6.3,1.5-.5c-3.1-3.2-7.6-7.8-7.5-12.5,5.5,6.3,11.1,14.4,19.5,17ZM345.5,643.6l-24-2c-.4,2.1,2.9,3.9,4.3,4.3,2.4.6,2.6-1.5,4.7-.9s4.7,4.9,7.7,5.5c1.1,0,4.8-3.5,6-4.6s1.9,0,1.3-2.3ZM542.5,641.6l-14.5,7-8.5,12c6.5-2,9.2-8.4,13.5-13,2.3,3.3-9.2,14.4-8.5,15,5.1,0,21.3-17.3,18-21ZM492.2,642.9c-5.1-1.8-11.4,1.3-16.5,0-4.9-.4-3.5,4,.3,4.8l6.5-3-4,7,11.7-6.8,7.3,5.8c-5.6,0-6.8-3.3-12,.5s-5.4,9-7.7,15.2-4.1,5.9-5.2,9.3c9.4-3.6,21.4-12.8,25.2-22.3,1-2.5.5-4.3-1-6.4s-4.3-3.8-4.5-3.9ZM458.5,676.6c8.5,1.7,20-14.5,17.3-21.7s-6.4-11.3-9.8-11.4l-2.5,3c16.3,6.9,2.9,21.8-5,30ZM381.5,678.6c-.9-3.6-2.8-6.2-3.5-9.9-1.4-6.7-.1-10.5-5.4-16.6-10.4-11.8-29.3-10.3-31.8,6.8,1.7,3.3,5.2,13.5,7.4,15.6s7.9,5.2,6.4,1.6c-14.6-8.6-7.9-34.7,9.9-24.9,12.7,7,7.1,19.1,17.1,27.4ZM461.5,647.6c-.9-5.9-12.1-2.2-15.9-.4-7.6,3.8-10.3,10.1-15.1,16.4-.6-8.5-4.8-18.5-15-17l7.4,9.1c2.7,4.2,3.1,9.2,2.1,14s-3.6,6.4-4.5,9.9c2.4,2.1,10.9-6.9,12.5-9,3.9-4.9,5.6-12,10-16s11.6-4.5,18.5-7ZM509.5,667.6c2.5-1.6,5.2-3.1,6.8-5.6s6.5-12.5,6.7-13.3c.6-3.1-2.8-4.7-5.5-4.1-.2,3.3.5,6.8-.5,10s-8.2,12.3-7.5,13ZM317.5,670.6c-3.2-4.7-8.6-7.5-10.5-13s0-4.3-1-6-4.3-4.2-4.6-4.4c-3.9-2.7-6.7-.7-9.4,2.4,1.1,6.7,5.4,9.5,11.5,11l-.8,1.8,14.8,8.2ZM384.5,645.6h-12.5s-.5,2-.5,2l7.4,5,5.6-7ZM396.5,648.6c.2-4.6-6-2.5-8.5-1s-7.2,9-7.4,12.6c-.4,6,3.5,18.4,10.5,19.4s-.8-4.1-1.4-5.6c-3.8-9.6-3.8-21.1,6.9-25.4ZM440.5,645.6c-2.3.3-12.8-1-13,1.5,4.2,8.8,5.4,5,11.7.7s1.8.2,1.3-2.2ZM493.5,670.6c1.7.3,2.9-.5,4.3-1.2,5-2.4,23.6-19,13.7-23.4s-5.8,5.6-9,4.5l2,1c1,8.6-6.4,13.2-11,19ZM419.5,673.6c5.5-13.4-.7-22-13.3-26.8-11.4,4.6-17.8,10.4-12.5,23.2,2.9,7.1,5.5,9.6,13.4,9.7s9.8-6.7,10.5-13.1l2,7ZM687.5,657.6c-5.8.7-10.4-3-15.5,1-4.8-3.4,6.2-8.7-.5-11.5-4,3.4-1.9,8.9-2.9,13.4,7.8,3,15.9,9,18.9-2.9ZM345.5,673.6c-.7-2.8-3.6-4.4-4.8-6.6-2.1-3.6-3.1-9-6.2-11.8s-22-13.1-21.7-3.2,10.6,15,15.6,18.3.9,1.4,1.4,2l9.8,3.4-5.5-8c-.1-1.8-3-6.9-.5-8,1.6,5.9,5.6,12.7,12,14ZM310.5,650.6c-2.6-.7-2.8,2-2.3,3.8.9,3.7,3.9,9.3,7.3,11.2l-5-15ZM461.5,660.6c6.1,2.9,7.9-8.2,2.3-9.8s-15.5,3.6-18.6,6c-6.6,5.1-4,5.7-6.2,11.8-1.3,3.8-2.8,7.4-4.5,11l13.5-6,1,3c5.7-3.6,13.2-8.4,12.5-16ZM376.5,678.6c-1.9-3.9-4.1-7.9-5.5-12s.4-2.8-.2-4.7c-1.8-5.5-14.2-13.5-19.3-7.8s3.8,14,7.2,19.2l17.8,5.3ZM134.5,660.6l8,.5c2.6-8-3.8-3.8-7.5-3.5s-6.4,0-10.2-.8-1.8-.2-1.3,1.3c1.3,4.2,12.1,12.6,16,15.5.3-5.4-1.3-9.3-5-13ZM665.5,660.6l-2.6-5c-1.8-.2-9.3,4.3-5.8,6,3.4,1,5.3.1,8.4-1ZM147.5,679.6c-1.2-5,.5-13.8-6-15-.2,5.4-.7,13.6,6,15ZM169.5,686.6c-1.8-6.9,4-11.2-1.5-18s-14.5-7.1-15.5,0c2.1.3,5.3,1.2,5,4-8.9-4.3-11,9.9-3.7,13.2s10.3,1,15.7.8ZM658.5,669.6c1-4.7-5.9-5.5-9.3-4.8-5.1,1.1-9.5,10.5-8.7,15.2s3.2,3.5,1,6.6c11.4,3.1,23.2.1,19.8-13.7-.7-1.3-8.5,0-8.8.2-1.3,1.1-.5,4.4-2.5,5.5l-2.1-4.5c0-4.4,7.4-4,10.6-4.5ZM674.5,668.6c-5.9-11.9-9.1,6.3-9,12,1.6,1.7,8-7.5,9-8.5,1.7-1.9,6.7-2.9,4.5-6.5l-4.5,3ZM527.5,672.6c-17.8,4.1-35.5,8.5-53.6,10.8-51.5,6.7-107.5,5.4-158.6-4.1-2.4-.5-30.8-7.8-30.8-6.2,54.1,17.3,115,21.4,171.5,15.5,21.7-2.3,48.1-7.3,68.7-14.3,1.1-.4,3-.2,2.8-1.7ZM186.5,685.6l-11-11c-.8,8.9,2.4,11.3,11,11ZM625.5,687.6c2.9.1,6.1-.2,8.5-2l.5-8c-1.4,1.5-11.2,7.8-9,10ZM267.5,680.6c-3.9,0-9.9,2.9-11,7,4-1.5,8.5-3.2,11-7ZM556.5,685.6c-4.3-2.3-8.2-4-13-5,2.7,4.4,8,5.5,12.5,7l.5-2ZM273.5,682.6c-.9-.9-15.7,8.1-13,11,6.3-.5,10.6-5.6,13-11ZM552.2,690.8c-1-1.8-11.9-7-14.8-7.2,1,2.9,13.1,12.1,15,10,0-.9.2-2-.2-2.8ZM279.5,684.6c-4.5-.3-7.1,3.8-10,6.5l2.5,2.5,7.5-9ZM545.5,696.6c-4.5-8.7-9.6-8.9-18-11,2.7,7.1,10.7,10.9,18,11ZM248.5,686.6c-14.4,4.5.8,15.3,7.3,19.2,49.9,29.8,145.3,34.2,202,27.7,22.7-2.6,95.3-17.8,109-35,4.9-6.2,4.8-9.5-3.4-11.9.8,9.9-8.6,14.7-16.3,18.2-69.1,31.3-212.5,32.1-281.3,0-7.2-3.3-18.2-8.9-17.3-18.2ZM288.5,686.6c-6.3-.2-12,4.6-12.8,10.7s3.4,2.8,6.1,1.2c4-2.4,6.5-7.2,6.6-11.9ZM291.5,706.6c-5.6-7.3,2.1-11.7,3-19-7,3-3.3,13.3-11,15l.6,2,7.4,1.9ZM528.1,692c-1.2-1.1-6.3-5.5-7.7-4.3.8,2.7,3.5,4.4,4.6,6.9s1.2,3.3-.6,3.1c-.6-2.6-3.9-6-6.1-7.4s-2.5-2.3-3.9,0c0,.5,6,7.6,7,8,2.1.9,3.7-.4,5,0s1.4,2,3.5,2.4,7.2.7,7.5-1c-4.8-.6-6.7-5.3-9.3-7.7ZM301.5,689.6c-4-1.6-9.5,9.5-8,11l8-1c0,2.8-.7,8,2.7,8.8,7.1,1.7,16-10.2,15.3-16.9l-6.5,7c-2.2-1.7,2.8-6.8,2.5-7-7.6-1.7-10.5,3.2-16,7,.5-3.7,3.7-4.8,2-9ZM204.3,708.4c3-11.3-4.3-20.1-16.3-17.8s-5.9,7.4-6.1,9.4c-1.2,11.5,14.7,13.4,22.4,8.4ZM629.2,694.9c-.6-.7-5.3-3.8-6.4-4.1-13.3-3.2-22.4,17-10.6,19.6s11.6,1,12.2.7c4.7-2.1,8.1-12.1,4.7-16.3ZM177.5,705.6c.7-13.6-6-15.3-18-14l18,14ZM498.6,703.4c4.4-1,9.6,3.9,13.8-.3-1.5-3.4-7.7-11.6-11.5-11.5-2.8.1-2.5,2.9-2.5,5l-6-4,6.2,10.8ZM652.5,691.6h-14c0,0,.2,1.1-.4,1.6-3.5,3.1-3.8,7.6-3.1,12.4,4-.5,5.9-5.4,8-7s7.9-2.9,9.5-7ZM329.5,693.6c-7.1-.5-10.8,8.9-11.2,14.8l-7.8,3.2c-1.3,1.8,10.2,3.2,12,3-7.2-3.9,8.5-19.7,7-21ZM509.5,708.6c-3.5-.1-9-.8-11.9-2.6-4.9-3-6.3-13.3-14.1-11.4-.6.5,6.8,12.4,7.7,13,3.5,2.4,15.3,5.2,18.3,1ZM346.5,696.6c-3.2.7-6.6-1.3-9.5-1.1-5.4.3-15.3,14.2-10.2,19.9,11.1,4.3,20.7-4.3,25-14s1.5-6.8-1.9-3.4-3.3,7-6.3,8.7l3-10ZM486.4,714.5c2.7-3.9-8.4-18.6-13.3-18.8s-5,1.6-7.5.9c-.8.7,4.6,9.8,1.5,11l-4.7-9.8-4.8-.2,7.5,14,2-2c4.7,8.3,11.2,8.1,19.4,4.9ZM355.5,709.6l3-11-5.8,8.7c-5.4,11.8,7.4,15.7,16.8,12.8s18.2-18.3,15.9-20.5l-4.1-.5-6.9,10.5,1-10.5c-1.3-.8-5.8.3-7,1.1-2.5,1.7-1.6,6.9-5,6.4-.3-.3,3-7.1,0-8-1.4,3.2-3.6,6.1-5.5,9s.2,2.6-2.5,2ZM446.5,709.6l-5-10.6-10,.6c.3,12.7,2.9,22,17.5,21s10-23.5-3.5-22c-.5.3,4.8,10,1,11ZM393.5,699.6c-8,2.4-2.5,17.5,2.5,21,6.5,4.6,26.7,3.1,24.4-8.3s-5.9-11-7.3-11.8c-3.1-1.8-8.3-.8-11.9-.7l-8.7,8.8,1-9ZM420.5,722.6h15l-6.5-8c.8-5.4-.6-17.5-8.5-14.5,3.3,7.5,6.7,16,0,22.5ZM525.5,703.6c-3.9.4-7-2-10-4-.3,2.2-2.1,4.7,0,6.5,2.6,1.7,12.7-.3,10.1-2.5ZM209.5,700.6c.2,3.4-1.6,9.5,3.4,9s4.3-2,3.1-4l-6.5-5ZM602.5,701.6c-1.3-1.1-7.2,3.1-8,4.6l3.6,4.3c3.3.6,3.8-6.7,4.4-8.9ZM555.5,712.6c-22.4,6.9-44.5,14.8-67.6,18.8-71.6,12.4-159,8.1-227.3-17.4-1-.4-11.9-6.6-12-4,8.2,3.9,16.6,7.8,25.2,10.8,83.1,29.1,187.7,28.9,270-2.5l11.7-5.8ZM386.5,709.6c-4.4-.7-4.6,5-7.1,8.3s-4.3,3.1-3.8,3.6l16,1c-3.2-4.3-7.8-7-5-13ZM215.2,714c-5.1-1.7-15.8,2.7-21.7,2.2,5.2,1.8,12.1,8.9,16.5,10.5s1-.9.7-1.7c-.8-2.5-4.4-8.1.7-8.3-.2,7.7,2.4,13.5,10,16-1.5-4.9-2.4-10.6-6-14.5l2-.5v-2c-1.4.4-2-1.6-2.3-1.7ZM244.2,719.9c-.6-.8-6.1-4.8-7.2-5.3-3.8-1.4-7.7-1.3-11.5,0,3.2,6.4-1.2,5.8-1.9,7.6-1,3,2.2,10.8,5.4,11.4s11.8-1.1,13.3-1.8c3.4-1.6,4.3-9.1,1.9-12ZM585.8,719.3c-2.2-3.1-2.2-5.4-7.9-5.2s-10.4,6.6-10.6,7.2,1.1,7.7,1.3,8.1c.6,1.1,5.9,2.7,7.5,3,10,1.5,10.6-1.3,12.2-10.4.2-1.8-2-1.9-2.6-2.7ZM617.5,716.6c-7.8-.3-12.9-4.2-21-2,4.9,4.3,16.4,8.1,21,2ZM608.5,721.6c-3.7.3-6.8-.7-9.7-2.9l-1.3.3c-4,3.4-6.6,8.3-7,13.6.6.7,15-7.7,16.7-8.8s1.8.1,1.3-2.2ZM262.5,727.6c-4.8-.3-8.8-3-13-5l6.5,8.8,6.5-3.8ZM552.5,735.6c-2.4-8.9-10.1-3.5-16-2,.7,2.5,8,2.1,8.9,3.1v3.9c-2-1.1-3.8-.8-5.4,1-.1,5.7-2.7,9.3-5.5,14,12,.9,21.6-6.5,25-18-7.6-4.2-6.9,2-13,2l1-3.5,5-.5ZM278.8,742.4c-.7-1-.3-3.1-1-4.5-1.7-3.3-5.2-5.8-9-6.1s-12,4.7-12.2,7.3,3,7.7,4.6,9.4c6.5,7.2,21.9.1,20.4-4.4s-2.3-1.2-2.7-1.8ZM580.5,736.6l-14.4-2.9c-3.1,1.8-.9,2.8.4,4.9-5.1-.4-5.2,5.6-7,9,1.2.9,9.4-4.1,11.3-5s.6-1.4,1.5-1.9c2.1-1.1,7-.2,8.2-4.1ZM243.3,735.8l-10.8.8v3s21,8,21,8c-1.4-6-4.9-6.2-8.6-9s-1.2-2.6-1.6-2.9ZM298.5,739.6l-15-4,3,7c2.5.4,3.2-3,5.5-3,4.9,0-.8,4.7.5,6,1.9.6,7-5.1,6-6ZM522.3,737.8c-7.9.8-13.9,12.2-4.8,16.3s8.1,2.5,9.4,2.2c2.3-.4,8.2-8.4,7.5-11-1.2-4.4-7.5-7.9-12.1-7.5ZM502.5,743.6c-2.6.2-6.8-1.1-8,2l6.5,3,1.5-5ZM323.5,748.6c.2-3.1-3.9-4.2-6.4-4s-10.2,5-10.7,5.4c-1.9,1.7-2.2,3.7-2,6.1,3.3,3.8,3.2,9.4,9.6,9.5s6.3-2.5,8.2-2.7,4.3,1.9,6.9-.2c3.7-3-.2-10.3-4.1-11.1-2.3,0-4.8,4.8-7,2l-1.5-5h7ZM344.5,748.6l-13-2c-1.1,1.1,3.9,6.8,7.9,5.5s4.7-2.5,5.1-3.5ZM494.6,753.5c-.3-10.2-21-5-18.9,2.3s1.5,1.7,1.6,2.5c.3,2.1-4.8,2.9,2.2,7.7s11.5,3.4,15.9-1.9,5-8.2,3-10l-3.9-.6ZM296.5,752.6l-.5-4c-3.5,4.1-3.4,1.6-6.9,2s-5.6,2.9-8.5,3.6-5.5,0-8.1.9l29,9.5-7-11.5,2-.5ZM464.5,757.6c.4-6.1-5.1-7.6-10-6l6.7,4.8,3.3,1.2ZM371.5,753.7c-1-1.5-9.3-2.8-12-.6s7,2.4,6,6.5c-3.3-.2-6-.4-8.1,2.5-2.1,3.6,5.7,8.8,8.4,8.4s11-6.4,8.3-10l-4.6-.9c-1.3-2.7,3.6-3.5,2-5.9ZM358.5,772.6c-2.7-.2-11.6-10-11.9-11.6-.6-2.4,5-3.1,5.9-4.9-1.9-2.8-5.2-5-8-2s-.6,4-1.1,4.4-2.8-.2-3.9.6-1.1,3.3-3,5-7.3,3.5-10,4.5c4.8,5.5,10.9,2.7,16.1-.6,3.7,4,11.1,9.9,15.9,4.6ZM388.5,753.6c-5,1.4-8.9-1.6-14-1l6.6,8,7.4-7ZM433.5,752.6l-15,.5,8.5,7.5,6.5-8ZM450.5,758.6c1.6-2.5,2.9-2.3,0-4.4-5.8-4.1-16.3.3-16.9,7.5,1.9-.5,1.8-3.5,4-4.5s3.3-.6,5-.5c1,4.3-5.7,3.7-2.9,8.3,5.3,8.9,19.8,4.4,14.8-6.2h-3.9ZM498.5,767.6l24-7.5-17.5-7.5c-3.6,3.2,1.7.3,0,5.1s-7,9.6-6.6,9.9ZM402.2,753.9c-7.1,1.8-11.3,10.2-7.2,16.7s12.9,9.8,20,2.1c8.8-9.6-2.3-21.5-12.8-18.8ZM470.5,758.6c-6.8-1.1-7.1,5.5-11,9.5l-7,6.5,27-3-12-9.5,3-3.5ZM444.5,775.6l-13.5-11.9v-3c-4.4,5.2.6,8.2,3.5,12l-8.4-5.9-9.6,10.9,28-2ZM393.5,777.6l-11.5-13-14.5,9.5c-.5,2,5.5,2.3,6.6,2.4,6.4.6,13,.6,19.4,1.1Z"/>
      <path d="M396.3,488.9c37.9-2.7,81.3,12.6,93.2,52.2,25.1,83.5-119.5,122.6-161.2,47.2-28.3-51.1,17.8-95.8,68-99.4ZM406.2,502.8c-4.2.7-7.7,7.9-9.6,11.4,7.9,8.9,17.4,8.1,20.7-3.9-1.8-2.8-7.9-8-11.1-7.5ZM395.5,552.6c12.5-6.2,11.4-23.2-.5-30-10.8-6.2-21.7-4.8-31.1,3-2.3,1.9-2.6,5.6-6.5,5.1,4.2,13.2,6.5,4,13.1.6s13.7-4.1,19,1.8c8.8,10-6.2,19.2-15.1,20.6l1,5.3c5.6,2.1,11.4,1.5,16.9,4.3,11.2,5.8,13.4,22.5.7,27.5-13.5,5.2-25.6-2.7-31-15.1l-2.5-12c-13,27.4,18.6,54.6,43.7,37.2,13.1-9.1,15.2-26.4,5.3-38.7,10.8-4.1,17.3-23.1,31-11s3.5,46.4-18,44c34.9,18.4,51.2-41.6,21-56-16.9-8.1-30.7,2.6-38.2,17.4l-8.8-3.9ZM455.5,523.6c-4.3,1.4-5.7-2.2-8.3-3.2-8.4-3.5-25.9-2.5-33.7,2.8s1.5,9.6,5.3,9.2,4.6-4.1,6.9-5,9.7-1.1,13-.5c7.6,1.3,11.1,8.9,16.7-3.2Z"/>
      <path d="M283.5,534.6c.8,3.7-6.5,12.5-9.5,12s-1.4-1.2-.5-2.5c1.9-3,7.3-6.9,10-9.5Z"/>
      <path d="M143.5,406.6l-13.3,7.2c-12.5,10.3-14.2,28.3-12.8,43.5s.9,3.6-.9,3.4c-5.5-19.2,2.8-53.1,27-54Z"/>
      <path d="M393.5,467.6c-.7.7-10.3-5.1-10.1-6.9-.6-.4-6.9,4.2-8.6,4.7s-3.8,1.1-3.3-1.3c6.5-2.2,7.5-7.5,12-11.5-2.1,4.1,11.8,13.2,10,15Z"/>
      <path d="M367.5,447.6l-.5,2-4.5-1-2,4c-1.7-6.6,1.3-8.2,7-5Z"/>
      <path d="M401.5,508.6l5.3.2c5.3,1.6-2,9.3-5.3-.2Z"/>
    </g>
    <g>
      <path d="M405.5,112.6c.8.8-8.2,18.7-9.5,21s-2,4.4-3.5,5c2-8.2,5.8-16.2,9.9-23.5s.8-2.9,3-2.4Z"/>
      <path d="M292.5,208.6l1-2c-.5,4,11.5,15.9,14,14l-2.5-6c5.1,9.1,13.7,12,21.5,18-16.3-1-40.9-18.7-43-35.5-.1-1-.7-4.7,1-4.5,1.2,5.6,3.5,12.1,8,16Z"/>
      <path d="M319.5,208.6l-18-15c4.1-.9,7.5,2.4,10.5,5s8.6,8.8,7.5,10Z"/>
      <path d="M423.5,218.6c.8-2.4,5.5-2.1,7.5-2.1s6.7-.3,7.5,2.1h-15Z"/>
      <path d="M385.5,217.6c.6,2.9-1.4,2.1-3.5,2s-9.2-.7-10.5-3l14,1Z"/>
      <path d="M552.5,335.6l1,9c-4.1.9-1-6.8-2-8l-9,1c-3.5-2.6,9.4-2.1,10-2Z"/>
      <path d="M347.4,281.7c0,2.8-1.8,5.6-4.9,4.9,1.4-4.6-2.5-9.2-5-13,5.4-.6,4.9,7.4,9.9,8.1Z"/>
    </g>
  </g>
</svg>