<?xml version="1.0" encoding="UTF-8"?>
<svg id="Calque_1" xmlns="http://www.w3.org/2000/svg" version="1.1" viewBox="0 0 180 180">
  <defs>
    <style>
      .st0 {
        fill: #991010;
        stroke: #0f9396;
        stroke-miterlimit: 10;
        stroke-width: .25px;
      }
    </style>
  </defs>
  <path class="st0" d="M177.84,97.57c-4.77,1.53-9.29,2.73-13.8,4.96-8.84,4.39-16.35,12.08-24.81,17.17-25,15.14-65,16.79-91.4,4.45-26.4-12.34-27.99-22.2-46.18-25.38,1.72-2.73,5.98-.89,9.16-1.34,8.71-1.14,24.04-16.28,32.5-21.56,29.26-18.32,62.59-18.45,92.1-.51,29.51,17.94,23.98,21.75,39.88,21.5-1.84-2.1-5.22-2.1-7.89-3.24-10.05-4.45-20.1-16.66-29.45-23.34-33.01-23.6-71.24-21.18-102.28,4.33-9.6,7.95-18.51,20.42-31.48,22.26,12.21-9.73,21.31-22.01,34.16-31.04,35.49-25,76.01-22.13,109.27,4.96,6.55,5.34,11.83,12.02,18.13,17.49s8.33,5.72,12.08,9.22v.06ZM105.39,81.92c0-4.07-3.31-7.38-7.38-7.38s-7.38,3.31-7.38,7.38,3.31,7.38,7.38,7.38,7.38-3.31,7.38-7.38ZM70.92,81.1l-4.96-.7c-1.14,1.02,6.74,6.11,4.96.7ZM69.65,85.61c-.51-.83-9.67-2.86-10.69-2.35-1.97,2.04-2.16,2.61.57,3.18s6.68.7,9.86,1.59c.57,0,.45-1.97.19-2.42h.06ZM109.14,88.03c.38.38,9.99-1.46,11.13-1.91,2.67-1.02,1.91-2.29-.57-2.54s-11.89.45-10.49,4.45h-.06ZM48.79,90.52c.46.21.78-.72,1-1.2.24-.54.35-1.15.44-1.73.09-.62.13-1.25.14-1.88,0-.17-.15-1.43-.05-1.5-3.63,2.61-17.49,8.46-19.46,11.7-2.8,4.71,3.18,14.18,6.74,17.55,9.22,8.71,26.71,14.37,39.12,15.9l-10.75-6.11c-10.3-7.51-16.03-19.27-15.96-32.06l-11.45,5.09s-.03-1.3-.02-1.45c.06-.46.18-.91.38-1.32.39-.79,1.03-1.4,1.76-1.88,1.25-.82,2.61-1.5,4.06-1.86,1.22-.31,1.09,1.56,3.01.02.51-.34.89-.68,1.03-.34s-.31.9.02,1.06ZM103.42,129.37c.06-.06.33-.07.42-.09,14.53-3.21,31.12-6.79,40.91-19.02,2.65-3.77,5.46-8.93,4.36-13.58-.49-1.36-1.68-2.29-2.92-3-5.37-2.97-11.32-6.18-16.75-9.15l-.59-.33c-.32.38.57,4.77,1.27,5.41,1.46,1.46,7.31,1.59,8.78,2.35.18.09.34.21.5.33.19.15.38.31.56.48.2.19.4.38.59.58.2.21.4.42.6.64s.39.43.58.65c.18.21.36.41.54.62.16.18.32.36.47.55.35.39.65.74.93.77.07,0,.14.02.21.03.09.01.18.03.27.03l.56.07.65.08.68.09.65.08c.66.07,1.41.08,1.62.85.13.29.26.59.35.89.09.29.18.64.08.94-.08.23-.3.33-.53.35-.39.04-.81-.08-1.18-.19-.26-.08-.51-.17-.76-.26-2.73-1.02-16.09-9.73-16.73-9.03.45,13.1-5.28,24.55-15.33,32.69l-10.75,6.11-.06.06ZM56.99,92.48h11.13l.95-3.18c-2.35.83-10.56-1.78-11.83,0,0,0-.02,2.33-.16,2.87,0,.02-.09.31-.09.31ZM122.5,92.48c1.14-7-7.57-2.42-11.64-3.05l-.76.51c-1.02,1.14.19,2.61,1.34,2.61h11.13l-.06-.06ZM69.71,94.39c-.32-.51-10.3-.25-11.45.95-1.27,1.53-.89,3.69,1.46,3.43,2.35-.25,6.74-2.73,10.05-2.42-.06-.51.13-1.65,0-1.91l-.06-.06ZM121.8,98.78l.45-2.48c-.76-1.53-9.73-2.8-11.51-2.61s-1.59,1.27-1.59,1.65c0,.7,12.08,3.82,12.66,3.43ZM108.51,100.11c2.42-.32,13.04,7.82,12.59,2.23-.45-5.6-9.6-4.58-11.13-4.64-1.53-.06-.76,0-1.14.51l-.32,1.91ZM70.98,100.11c.51-4.2-11.32.51-11.77,1.27-.89,1.53-.32,3.43,1.78,3.12s7-4.2,9.99-4.39ZM108.19,100.88c-.7.57-2.04,1.27-1.27,2.42s8.2,6.23,8.84,6.49c1.72.76,3.05-2.23,2.67-2.73l-10.24-6.23v.06ZM72.25,101.39l-10.69,5.22.51,2.8,1.34.64,9.22-6.74-.32-1.91h-.06ZM105.65,103.93c-3.24,1.91,4.64,9.03,6.36,10.18s.89.89,1.59.32l1.21-1.46c.19-.57,0-.95-.19-1.46-.89-1.65-7.57-5.47-8.97-7.63v.06ZM73.27,104.57c-1.46,1.84-9.1,6.42-8.52,8.46.89,1.34,1.27,2.16,2.8,1.14s7.57-7.38,7.31-8.59l-1.59-.95v-.06ZM76.45,107.11c-.57.13-7.12,8.14-7.25,8.71-.45,1.72,1.78,3.69,3.43,2.1s5.53-9.29,5.41-9.86l-1.59-.95ZM102.53,107.11c-1.08.19-1.02,1.53-.64,2.54.57,1.4,5.72,9.1,6.87,8.9s1.91-1.91,1.4-3.12-5.09-6.23-5.79-6.93-.89-1.53-1.84-1.34v-.06ZM99.29,109.02c-2.8,0,2.16,10.56,2.93,11.7.76,1.14.57,1.14,1.4.95l2.1-1.84c-.95-1.65-5.02-10.75-6.42-10.75v-.06ZM81.16,109.65c-2.1-.45-2.73,1.46-3.69,2.99-.95,1.53-4.07,7.25-3.24,8.4l2.1.64c1.27-.32,5.66-11.19,4.83-12.02ZM84.98,110.93c-1.4-.13-1.65-.13-2.42,1.08-.76,1.21-3.24,8.97-3.31,9.48-.19,2.23,1.46,2.67,3.24,1.91.64-.45,3.05-11.89,2.48-12.47ZM97.12,123.58c1.84.32,3.24.13,3.05-2.04-.19-2.16-3.05-9.6-3.43-9.99-.7-.89-1.21-.7-2.23-.64l2.61,12.66ZM88.79,111.56h-1.91c0,2.16-2.86,11.45-1.84,12.66s3.43,1.02,3.75-.25v-12.4ZM90.7,111.56v11.77c0,.25.57.76.57,1.21.76.95,2.8.51,3.12-.64l-1.84-12.34h-1.91.06Z"/>
</svg>
